<svg enable-background="new 0 0 1920 1080" viewBox="0 0 1920 1080" xmlns="http://www.w3.org/2000/svg"><path d="m846.4 228.5h-78.8c-.6 0-1-.4-1-1v-49c0-.6.4-1 1-1h78.8c.6 0 1 .4 1 1v49c0 .5-.5 1-1 1zm-77.9-2h76.8v-47h-76.8z" fill="#00aced"/><path d="m807 204c-.2 0-.4-.1-.5-.2l-39.5-24.5c-.5-.3-.6-.9-.3-1.4s.9-.6 1.4-.3l38.9 24.2 38.9-24.2c.5-.3 1.1-.1 1.4.3.3.5.1 1.1-.3 1.4l-39.4 24.5c-.3.1-.5.2-.6.2z" fill="#00aced"/><path d="m755.4 179.4h-38c-.6 0-1-.4-1-1s.4-1 1-1h38c.6 0 1 .4 1 1s-.4 1-1 1z" fill="#00bbf1"/><path d="m755.4 191.7h-19c-.6 0-1-.4-1-1s.4-1 1-1h19c.6 0 1 .4 1 1s-.4 1-1 1z" fill="#00bbf1"/><path d="m745.9 204h-20.9c-.6 0-1-.4-1-1s.4-1 1-1h20.9c.6 0 1 .4 1 1s-.4 1-1 1z" fill="#00bbf1"/><path d="m751.2 215.8h-15.7c-.6 0-1-.4-1-1s.4-1 1-1h15.7c.6 0 1 .4 1 1s-.4 1-1 1z" fill="#00bbf1"/><path d="m755.4 228.5h-38c-.6 0-1-.4-1-1s.4-1 1-1h38c.6 0 1 .4 1 1s-.4 1-1 1z" fill="#00bbf1"/><path d="m564.1 217.1c-9.5 0-17.3-7.8-17.3-17.3s7.8-17.3 17.3-17.3 17.3 7.8 17.3 17.3-7.8 17.3-17.3 17.3zm0-32.7c-8.4 0-15.3 6.9-15.3 15.3s6.9 15.3 15.3 15.3 15.3-6.9 15.3-15.3-6.9-15.3-15.3-15.3z" fill="#00aced"/><path d="m564.5 209h-.9v-1.9c-1.3-.1-2.2-.4-2.9-.8-1.1-.7-1.7-2-1.6-3.8h2.6c.1.8.2 1.4.4 1.7.3.4.8.7 1.5.8v-4.2l-.8-.2c-1.2-.4-2.1-.9-2.6-1.5-.5-.7-.8-1.4-.8-2.4 0-.6.1-1.2.3-1.7s.5-.9.8-1.3c.5-.5 1-.8 1.5-1 .3-.1.8-.2 1.5-.2v-1.3h.9v1.3c1.1.1 1.9.3 2.5.8 1.1.7 1.7 1.8 1.7 3.4h-2.6c-.1-.6-.1-1-.3-1.3-.2-.5-.7-.7-1.3-.8v3.7c1.5.5 2.6 1 3.1 1.4.9.7 1.3 1.6 1.3 2.9 0 1.6-.6 2.8-1.8 3.6-.7.5-1.6.7-2.6.8v2zm-.9-14.3c-.6 0-1 .2-1.3.5s-.4.7-.4 1.2.2 1 .6 1.3c.2.2.6.3 1.1.5zm.9 10.2c.5-.1.9-.2 1.1-.4.4-.3.6-.8.6-1.6 0-.6-.2-1-.6-1.3-.2-.2-.6-.4-1.1-.6z" fill="#00aced"/><path d="m557 267.1h20.3" fill="#fff"/><path d="m577.3 268.1h-20.3c-.6 0-1-.4-1-1s.4-1 1-1h20.4c.6 0 1 .4 1 1s-.5 1-1.1 1z"/><path d="m573.8 271.7c-.3 0-.5-.1-.7-.3-.4-.4-.4-1 0-1.4l3-3-2.8-2.8c-.4-.4-.4-1 0-1.4s1-.4 1.4 0l3.5 3.5c.4.4.4 1 0 1.4l-3.7 3.7c-.2.2-.5.3-.7.3z"/><path d="m571.1 275h-20.3" fill="#fff"/><path d="m571.1 276h-20.4c-.6 0-1-.4-1-1s.4-1 1-1h20.4c.6 0 1 .4 1 1s-.4 1-1 1z"/><path d="m554.1 279.7c-.3 0-.5-.1-.7-.3l-3.5-3.5c-.4-.4-.4-1 0-1.4l3.7-3.7c.4-.4 1-.4 1.4 0s.4 1 0 1.4l-3 3 2.8 2.8c.4.4.4 1 0 1.4-.2.2-.4.3-.7.3z"/><path d="m579.7 330.2c-2.3 6.5-8.4 11.1-15.7 11.1-9.2 0-16.6-7.4-16.6-16.6 0-.1 0-.2 0-.3" fill="#fff"/><path d="m564.1 342.3c-9.7 0-17.6-7.9-17.6-17.6v-.3c0-.5.5-1 1-1 .6 0 1 .5 1 1v.3c0 8.6 7 15.6 15.6 15.6 6.6 0 12.5-4.2 14.7-10.4.2-.5.8-.8 1.3-.6s.8.8.6 1.3c-2.5 6.9-9.2 11.7-16.6 11.7z"/><path d="m548.5 318.9c2.3-6.3 8.4-10.8 15.6-10.8 9.2 0 16.6 7.4 16.6 16.6" fill="#fff"/><path d="m580.7 325.7c-.6 0-1-.4-1-1 0-8.6-7-15.6-15.6-15.6-6.5 0-12.4 4.1-14.7 10.2-.2.5-.8.8-1.3.6s-.8-.8-.6-1.3c2.5-6.9 9.2-11.5 16.5-11.5 9.7 0 17.6 7.9 17.6 17.6.1.5-.4 1-.9 1z"/><path d="m582.8 322.4-2 2.3-2.3-2.1" fill="#fff"/><path d="m580.8 325.7c-.2 0-.5-.1-.7-.3l-2.2-2.1c-.4-.4-.4-1-.1-1.4.4-.4 1-.4 1.4-.1l1.5 1.4 1.4-1.5c.4-.4 1-.4 1.4-.1s.4 1 .1 1.4l-2.1 2.2c-.2.4-.5.5-.7.5z"/><path d="m545.3 325.8 2.3-2 2 2.3" fill="#fff"/><path d="m549.6 327.1c-.3 0-.6-.1-.8-.3l-1.3-1.5-1.5 1.3c-.4.4-1 .3-1.4-.1s-.3-1 .1-1.4l2.3-2c.2-.2.5-.3.7-.2.3 0 .5.1.7.3l2 2.3c.4.4.3 1-.1 1.4-.2.1-.5.2-.7.2z"/><path d="m570.5 385.5h1.2c.8 0 1.5.7 1.5 1.5v15.4c0 .8-.7 1.5-1.5 1.5h-15.4c-.8 0-1.5-.7-1.5-1.5v-15.4c0-.8.7-1.5 1.5-1.5h1.4" fill="#fff"/><path d="m571.8 404.8h-15.4c-1.4 0-2.5-1.1-2.5-2.5v-15.3c0-1.4 1.1-2.5 2.5-2.5h1.4c.6 0 1 .4 1 1s-.4 1-1 1h-1.4c-.3 0-.5.2-.5.5v15.4c0 .3.2.5.5.5h15.4c.3 0 .5-.2.5-.5v-15.4c0-.3-.2-.5-.5-.5h-1.2c-.6 0-1-.4-1-1s.4-1 1-1h1.2c1.4 0 2.5 1.1 2.5 2.5v15.4c-.1 1.3-1.2 2.4-2.5 2.4z"/><path d="m564.1 378v20.4" fill="#fff"/><path d="m564.1 399.4c-.6 0-1-.4-1-1v-20.4c0-.6.4-1 1-1s1 .4 1 1v20.4c0 .5-.5 1-1 1z"/><path d="m564.2 399.6c-.3 0-.5-.1-.7-.3l-3.7-3.7c-.4-.4-.4-1 0-1.4s1-.4 1.4 0l3 3 2.8-2.8c.4-.4 1-.4 1.4 0s.4 1 0 1.4l-3.5 3.5c-.2.2-.5.3-.7.3z"/><path d="m564.1 467.4c-9.5 0-17.3-7.8-17.3-17.3s7.8-17.3 17.3-17.3 17.3 7.8 17.3 17.3-7.8 17.3-17.3 17.3zm0-32.6c-8.4 0-15.3 6.9-15.3 15.3s6.9 15.3 15.3 15.3 15.3-6.9 15.3-15.3-6.9-15.3-15.3-15.3z"/><path d="m561.1 457.4c-.3 0-.5-.1-.7-.3l-4.5-4.5c-.4-.4-.4-1 0-1.4s1-.4 1.4 0l3.8 3.8 9.7-9.7c.4-.4 1-.4 1.4 0s.4 1 0 1.4l-10.4 10.4c-.2.2-.4.3-.7.3z"/><path d="m564.1 530c-9.5 0-17.3-7.8-17.3-17.3s7.8-17.3 17.3-17.3 17.3 7.8 17.3 17.3c0 9.6-7.8 17.3-17.3 17.3zm0-32.6c-8.4 0-15.3 6.9-15.3 15.3s6.9 15.3 15.3 15.3 15.3-6.9 15.3-15.3-6.9-15.3-15.3-15.3z"/><path d="m573 514c-1-1.3-2.5-2.5-4.1-3.7-.1-1-.2-2-.5-3 .4-.1.8-.2 1.1-.2 1.9-.3 3.3-.1 3.7.7.4.7 0 2-1.2 3.4l-.4.5 1 .8.4-.5c1.5-1.9 2-3.7 1.3-4.9s-2.5-1.7-5-1.3c-1.6.3-3.4.9-5.3 1.7-.9-.4-1.9-.8-2.8-1.1.7-2.5 1.8-4 2.8-4 .8 0 1.7 1 2.4 2.7l.2.6 1.2-.5-.2-.6c-.9-2.3-2.2-3.6-3.6-3.6s-2.7 1.3-3.6 3.7c-.6 1.5-1 3.4-1.2 5.4-.9.6-1.6 1.2-2.4 1.9-1.8-1.9-2.6-3.5-2.1-4.4.4-.7 1.7-1 3.5-.7l.6.1.2-1.3-.6-.1c-2.4-.3-4.1.1-4.8 1.3s-.2 3 1.4 5c1 1.3 2.5 2.5 4.1 3.7.1 1 .3 2 .5 3-2.5.6-4.3.4-4.9-.4-.4-.7 0-2 1.2-3.4l.4-.5-1-.8-.4.5c-1.5 1.9-2 3.7-1.3 4.9.5.9 1.7 1.4 3.3 1.4.5 0 1.1 0 1.7-.1 1.6-.3 3.4-.9 5.3-1.7.9.4 1.9.8 2.8 1.1-.7 2.5-1.8 4-2.8 4-.8 0-1.7-1-2.4-2.7l-.2-.6-1.2.5.2.6c.9 2.3 2.2 3.5 3.6 3.5s2.7-1.3 3.6-3.7c.6-1.5 1-3.4 1.2-5.4.9-.6 1.6-1.2 2.3-1.9 1.8 1.9 2.6 3.5 2.1 4.4-.4.7-1.7 1-3.6.7l-.6-.1-.2 1.3.6.1c.5.1 1 .1 1.5.1 1.7 0 2.8-.5 3.4-1.4.9-1.2.4-3-1.2-5zm-5.8-6.3c.1.5.2 1.1.3 1.7-.3-.2-.6-.4-.9-.6s-.6-.4-1-.5c.5-.2 1-.4 1.6-.6zm.5 5.4c0 .7 0 1.4-.1 2.1-.6.4-1.1.7-1.7 1.1s-1.2.7-1.8 1c-.6-.3-1.2-.6-1.8-1s-1.2-.7-1.8-1.1c0-.7-.1-1.4-.1-2.1s0-1.4.1-2.1c.6-.4 1.1-.7 1.7-1.1.6-.3 1.2-.7 1.8-1 .6.3 1.2.6 1.8 1s1.2.7 1.8 1.1c.1.7.1 1.4.1 2.1zm-6.8-5.4c.5.2 1.1.4 1.6.6-.3.2-.6.3-1 .5-.3.2-.6.4-.9.6.1-.6.2-1.2.3-1.7zm-3.1 5.4c.4-.4.9-.7 1.3-1.1v1.1 1.1c-.4-.4-.9-.7-1.3-1.1zm3.2 5.4c-.1-.5-.2-1.1-.3-1.7.3.2.6.4.9.6s.6.4 1 .5c-.6.2-1.1.4-1.6.6zm6.2 0c-.5-.2-1.1-.4-1.6-.6.3-.2.6-.3 1-.5.3-.2.6-.4.9-.6-.1.6-.2 1.1-.3 1.7zm1.8-6.5c.5.4.9.7 1.3 1.1-.4.4-.9.7-1.3 1.1 0-.4 0-.7 0-1.1s0-.8 0-1.1z"/><circle cx="564" cy="513.1" r="1.5"/><path d="m564.1 592.6c-9.5 0-17.3-7.8-17.3-17.3s7.8-17.3 17.3-17.3 17.3 7.8 17.3 17.3-7.8 17.3-17.3 17.3zm0-32.6c-8.4 0-15.3 6.9-15.3 15.3s6.9 15.3 15.3 15.3 15.3-6.9 15.3-15.3-6.9-15.3-15.3-15.3z"/><path d="m565.4 570.3h-2.8v-2.6h2.8zm-2.8 1.3h2.8v10.6h-2.8z"/><path d="m564.1 655.2c-4.1 0-7.5-3.4-7.5-7.5s3.4-7.5 7.5-7.5 7.5 3.4 7.5 7.5-3.4 7.5-7.5 7.5zm0-14c-3.6 0-6.5 2.9-6.5 6.5s2.9 6.5 6.5 6.5 6.5-2.9 6.5-6.5-2.9-6.5-6.5-6.5z" fill="#d5d5d5"/><path d="m562.7 651.8v-.4c.8-.1.9-.1.9-1v-2.7c0-.8 0-.8-.8-1v-.3c.7-.1 1.3-.3 1.8-.5v1.6 2.8c0 .9.1.9.9 1v.4h-2.8zm1.4-7.1c-.4 0-.7-.3-.7-.7s.3-.7.7-.7.7.3.7.7c-.1.4-.4.7-.7.7z" fill="#d5d5d5"/><path d="m846.4 319.6h-78.8c-.6 0-1-.4-1-1v-49c0-.6.4-1 1-1h78.8c.6 0 1 .4 1 1v49c0 .6-.5 1-1 1zm-77.9-2h76.8v-47h-76.8z" fill="#00aced"/><path d="m807 295.1c-.2 0-.4-.1-.5-.2l-39.5-24.4c-.5-.3-.6-.9-.3-1.4s.9-.6 1.4-.3l38.9 24.2 38.9-24.2c.5-.3 1.1-.1 1.4.3.3.5.1 1.1-.3 1.4l-39.5 24.5c-.2.1-.4.1-.5.1z" fill="#00aced"/><circle cx="807" cy="444.8" fill="#fff" r="79.8"/><path d="m807 525.6c-44.5 0-80.8-36.2-80.8-80.8s36.2-80.8 80.8-80.8 80.8 36.2 80.8 80.8-36.3 80.8-80.8 80.8zm0-159.5c-43.4 0-78.8 35.3-78.8 78.8 0 43.4 35.3 78.8 78.8 78.8 43.4 0 78.8-35.3 78.8-78.8-.1-43.5-35.4-78.8-78.8-78.8z" fill="#00aced"/><path d="m805.6 389v65l34.6-16.8" fill="#fff"/><path d="m805.6 455c-.2 0-.4-.1-.5-.2-.3-.2-.5-.5-.5-.8v-65c0-.6.4-1 1-1s1 .4 1 1v63.5l33.1-16.2c.5-.2 1.1 0 1.3.5s0 1.1-.5 1.3l-34.6 16.9s-.1 0-.3 0z" fill="#00aced"/><circle cx="807" cy="586.1" fill="#fff" r="28.7"/><path d="m807 615.8c-16.4 0-29.7-13.3-29.7-29.7s13.3-29.7 29.7-29.7 29.7 13.3 29.7 29.7-13.4 29.7-29.7 29.7zm0-57.4c-15.3 0-27.7 12.4-27.7 27.7s12.4 27.7 27.7 27.7 27.7-12.4 27.7-27.7-12.5-27.7-27.7-27.7z" fill="#00aced"/><path d="m789.2 593.7 7.8-7.8h25.2" fill="#fff"/><path d="m789.2 594.7c-.3 0-.5-.1-.7-.3-.4-.4-.4-1 0-1.4l7.7-7.7c.2-.2.4-.3.7-.3h25.2c.6 0 1 .4 1 1s-.4 1-1 1h-24.8l-7.5 7.5c-.1.1-.3.2-.6.2z" fill="#00aced"/><path d="m815.9 595.5c-.3 0-.5-.1-.7-.3-.4-.4-.4-1 0-1.4l7.8-7.8-7.7-7.7c-.4-.4-.4-1 0-1.4s1-.4 1.4 0l8.4 8.4c.4.4.4 1 0 1.4l-8.5 8.5c-.2.2-.4.3-.7.3z" fill="#00aced"/><g fill="#00bbf1"><circle cx="724.9" cy="681" r=".7"/><path d="m725.5 681.1-.2 9.1-1.1-9.3z"/><circle cx="744.9" cy="686.9" r=".7"/><path d="m745 687.6-9 1.7 8.9-3z"/><circle cx="726.9" cy="671.9" r=".7"/><path d="m727.6 672-.8 9.2-.5-9.4z"/><circle cx="738.3" cy="676.7" r=".7"/><path d="m738.7 677.2-6.1 6.8 5.2-7.8z"/><circle cx="732.7" cy="667.9" r=".7"/><path d="m733.3 668.2-2.8 8.7 1.6-9.2z"/><ellipse cx="722.7" cy="666.1" rx="1" ry=".7" transform="matrix(.01128844 -.9999 .9999 .01128844 48.4487 1381.1714)"/><path d="m723.3 666.1.6 13.1-1.9-13.1z"/><circle cx="722.9" cy="686.2" r=".7"/><path d="m723.6 686.1 1.5 9.1-2.8-9z"/><ellipse cx="719.4" cy="669.1" rx=".7" ry=".9" transform="matrix(.9898 -.1426 .1426 .9898 -88.07 109.4404)"/><path d="m720 669 2.6 12.1-3.9-11.9z"/><ellipse cx="714.9" cy="668.2" rx=".7" ry="1.1" transform="matrix(.9522 -.3053 .3053 .9522 -169.8783 250.1937)"/><path d="m715.5 668 5.4 14.1-6.6-13.7z"/><ellipse cx="735.5" cy="672.5" rx="1.1" ry=".7" transform="matrix(.4979 -.8672 .8672 .4979 -213.9612 975.4276)"/><path d="m736 672.8-6.8 13.5 5.7-14.1z"/><circle cx="713.8" cy="696.2" r=".7"/><path d="m713.8 695.6 9.1-1.1-9 2.4z"/><circle cx="728.7" cy="679.1" r=".7"/><path d="m729.3 679.4-2.3 8.8 1-9.3z"/><circle cx="736.5" cy="682.1" r=".7"/><path d="m736.9 682.7-6.5 6.4 5.6-7.5z"/><ellipse cx="731.5" cy="690" rx=".5" ry=".7" transform="matrix(.8246 -.5657 .5657 .8246 -262.0038 534.7701)"/><path d="m731.9 690.5-5.5 4.7 4.7-5.8z"/><circle cx="713.5" cy="675.1" r=".7"/><path d="m714.1 674.8s.8 1.1.8 1.2c.2.2.3.4.4.7s.4.6.5.9c.4.7.8 1.3 1.2 2 .8 1.4 1.6 2.7 2.4 4.1.6 1.1 1.2 2.2 1.9 3.4-.7-1.1-1.5-2.3-2.2-3.4-.8-1.3-1.6-2.5-2.5-3.7-.4-.6-.9-1.2-1.4-1.8-.2-.3-.5-.6-.7-.9s-.5-.5-.7-.8c-.2-.4-.6-.7-.9-1 .1-.1 1.2-.7 1.2-.7z"/><circle cx="707.1" cy="672.9" r=".7"/><path d="m707.7 672.5s.9 1 1 1.1c.2.2.4.4.5.6.1.3.4.6.7.8.5.6 1 1.2 1.5 1.8 1 1.2 2 2.5 2.9 3.7.8 1 1.6 2 2.3 3.1-.9-1-1.8-2.1-2.7-3.1-1-1.1-2-2.2-3-3.3-.5-.5-1-1.1-1.6-1.6-.3-.3-.6-.5-.8-.7-.3-.2-.6-.4-.8-.7-.3-.4-.7-.6-1-.9-.1 0 1-.8 1-.8z"/><circle cx="745.1" cy="680.9" r=".7"/><path d="m744.7 680.4s-1.1.8-1.2.8c-.2.2-.4.3-.6.5-.2.3-.6.5-.8.7-.6.5-1.3 1-1.9 1.4-1.2 1-2.5 2-3.7 3-1 .8-2 1.6-3 2.5l3.3-2.4c1.2-.9 2.4-1.8 3.7-2.6.6-.4 1.3-.8 1.9-1.2.3-.2.7-.4 1-.5.3-.2.7-.3.9-.5.3-.3.8-.5 1.2-.7.1 0-.8-1-.8-1z"/><circle cx="708.3" cy="679.1" r=".7"/><path d="m708.8 678.7s1 .9 1.1 1c.2.2.4.3.5.6.2.3.5.5.7.8l1.7 1.7c1.1 1.1 2.2 2.3 3.3 3.4.9.9 1.7 1.9 2.6 2.9-1-.9-2-1.9-3-2.8-1.1-1-2.2-2.1-3.3-3-.6-.5-1.1-1-1.7-1.4-.3-.2-.6-.5-.9-.7s-.6-.4-.9-.6c-.3-.3-.7-.6-1.1-.8.1-.2 1-1.1 1-1.1z"/><circle cx="704.9" cy="680.8" r=".7"/><path d="m705.3 680.3s1.2.7 1.2.8c.2.1.4.3.6.5.2.3.6.4.9.6.6.4 1.3.9 1.9 1.4 1.3.9 2.6 1.8 3.8 2.8 1 .8 2 1.6 3.1 2.4-1.1-.8-2.3-1.5-3.4-2.3-1.2-.8-2.5-1.7-3.8-2.4-.6-.4-1.3-.8-2-1.1-.3-.2-.7-.3-1-.5-.3-.1-.7-.3-1-.5-.3-.3-.8-.4-1.2-.6.1 0 .9-1.1.9-1.1z"/><circle cx="706.5" cy="684.5" r=".7"/><path d="m706.8 684s.2.1.2.1c.1 0 .2.1.3.2.2.1.5.3.7.4.5.3 1 .6 1.6.9.5.3 1 .6 1.6.9.1.1.3.2.4.2s.1.1.2.1.1 0 .2.1c1.3.8 2.6 1.5 3.8 2.3 1.1.7 2.2 1.4 3.2 2.1-1.2-.7-2.4-1.3-3.6-2-1.3-.7-2.6-1.4-4-2.1-.7-.3-1.4-.6-2-.9-.2-.1-.3-.1-.5-.2-.1 0-.1-.1-.2-.1h-.1c-.1-.1-.3-.1-.4-.2-.3-.1-.6-.2-.8-.3-.1 0-.1 0-.1-.1 0 0-.1-.1-.1-.1-.1-.1-.3-.1-.4-.2-.2-.1-.4-.1-.6-.2-.1.2.6-.9.6-.9z"/><ellipse cx="703.2" cy="694.7" rx=".7" ry=".5" transform="matrix(.01128873 -.9999 .9999 .01128873 .5488 1389.9766)"/><path d="m703.2 694.1s1.1-.1 1.1-.1c.2 0 .4-.1.6 0 .3.1.6 0 .8 0 .6 0 1.2-.1 1.8-.1 1.2 0 2.4-.1 3.7-.1h3c-1.1.1-2.1.2-3.2.3-1.2.1-2.3.2-3.5.3-.6.1-1.2.2-1.7.3-.3.1-.6.1-.9.2s-.5.2-.8.2-.7.2-1 .3c0 0 .1-1.3.1-1.3z"/><circle cx="702.4" cy="686.8" r=".7"/><path d="m702.6 686.2s.1 0 0 0c.2 0 .3.1.4.1s.2.1.2.1c.1.1.3.1.4.1s.3.1.4.1c.6.2 1.2.4 1.7.5.3.1.6.2.9.3.1 0 .3.1.4.1s.1 0 .2.1c.1 0 .1.1.2.1.2.1.3.1.5.2 1.5.5 3 1 4.5 1.6 1.2.4 2.4.9 3.6 1.4-1.3-.4-2.6-.8-3.9-1.2-.7-.2-1.4-.4-2.2-.7-.1 0-.3-.1-.4-.1s-.1 0-.2-.1c-.3-.1-.6-.2-.8-.3-.6-.2-1.1-.3-1.7-.5-.3-.1-.6-.1-.9-.2-.1 0-.3-.1-.4-.1h-.1c-.1 0-.1 0-.2 0-.6-.1-1.2-.2-1.8-.3-.3 0-.6-.1-1-.1-.1 0-.3-.1-.3-.2 0-.2.2-.2.3-.3s.1-.1.1-.2c.1-.1.1-.3.1-.4 0 .1 0 .1 0 0z"/><circle cx="706.5" cy="690.5" r=".7"/><path d="m706.6 689.9s1.3.2 1.4.3c.3 0 .5.1.7.2.3.2.7.2 1 .3.8.2 1.5.3 2.3.5 1.5.4 3.1.7 4.6 1.1 1.2.3 2.5.7 3.7 1-1.3-.3-2.7-.5-4-.8-1.5-.3-2.9-.6-4.4-.8-.7-.1-1.5-.2-2.2-.3-.4 0-.7-.1-1.1-.1-.3 0-.7 0-1.1-.1s-.9-.1-1.4-.1c.2.1.5-1.2.5-1.2z"/><circle cx="727.1" cy="706.4" r=".7"/><path d="m726.4 706.4-.7-9.2 2 9.2z"/><circle cx="705.1" cy="700.3" r=".7"/><path d="m705.1 699.7 8.9-1.8-8.8 3.1z"/><circle cx="724.5" cy="713.9" r=".7"/><path d="m723.9 713.8.6-9.1.7 9.3z"/><circle cx="713.1" cy="709.3" r=".7"/><path d="m712.6 708.8 6.1-6.8-5.2 7.8z"/><circle cx="718.8" cy="718" r=".7"/><path d="m718.2 717.8 2.7-8.8-1.5 9.3z"/><ellipse cx="728.9" cy="719.7" rx=".7" ry="1" transform="matrix(1 -.00255233 .00255233 1 -1.8346 1.8627)"/><path d="m728.2 719.7-.8-13.1 2.1 13.1z"/><ellipse cx="732.1" cy="716.7" rx=".7" ry=".9" transform="matrix(.9877 -.1563 .1563 .9877 -103.0248 123.2404)"/><path d="m731.4 716.8-2.7-12.1 4 11.9z"/><ellipse cx="736.6" cy="717.5" rx=".7" ry="1.1" transform="matrix(.9479 -.3185 .3185 .9479 -190.1621 271.9554)"/><path d="m736 717.7-5.6-14 6.8 13.6z"/><ellipse cx="716" cy="713.5" rx="1.1" ry=".7" transform="matrix(.4859 -.874 .874 .4859 -255.4988 992.5907)"/><path d="m715.4 713.2 6.7-13.6-5.5 14.2z"/><circle cx="743.5" cy="687.5" r=".7"/><path d="m743.5 688.2-9.1 1.2 9-2.5z"/><circle cx="722.7" cy="706.7" r=".7"/><path d="m722 706.5 2.2-8.9-.9 9.4z"/><circle cx="712.1" cy="705.3" r=".7"/><path d="m711.8 704.7 7.3-5.5-6.6 6.7z"/><circle cx="737.9" cy="710.6" r=".7"/><path d="m737.3 710.9s-.8-1.1-.8-1.2c-.2-.2-.3-.4-.4-.7s-.4-.6-.5-.9c-.4-.7-.8-1.3-1.3-2-.8-1.3-1.6-2.7-2.4-4.1-.6-1.1-1.3-2.2-1.9-3.4.8 1.1 1.5 2.3 2.3 3.4.8 1.2 1.7 2.5 2.5 3.7.4.6.9 1.2 1.4 1.8.2.3.5.6.7.9s.5.5.7.8c.2.4.6.7.9 1-.1.1-1.2.7-1.2.7z"/><circle cx="744.3" cy="712.7" r=".7"/><path d="m743.8 713.1s-.9-1-1-1.1c-.2-.2-.4-.4-.5-.6-.2-.3-.5-.6-.7-.8-.5-.6-1-1.2-1.5-1.8-1-1.2-2-2.4-3-3.7-.8-1-1.6-2-2.4-3l2.7 3c1 1.1 2 2.2 3 3.3l1.6 1.6c.3.3.6.5.8.7.3.2.6.4.8.7.3.4.7.6 1 .9.2 0-.8.8-.8.8z"/><circle cx="705.3" cy="703.8" r=".7"/><path d="m705.6 704.4s1.3-.5 1.3-.5c.3-.1.5-.2.7-.3.3-.2.7-.3 1-.5.7-.3 1.4-.6 2.2-1 1.4-.7 2.9-1.3 4.3-2 1.2-.6 2.3-1.1 3.4-1.7-1.3.5-2.5 1-3.8 1.6-1.4.6-2.8 1.1-4.2 1.6-.7.3-1.4.5-2.1.7-.4.1-.7.2-1.1.3-.3.1-.7.1-1 .3-.4.2-.9.3-1.3.4 0-.1.6 1.1.6 1.1z"/><circle cx="743.7" cy="705.7" r=".7"/><path d="m743.3 706.2s-1.1-.7-1.2-.8c-.2-.1-.4-.3-.6-.5-.2-.3-.6-.4-.9-.6-.6-.5-1.3-.9-1.9-1.4-1.3-.9-2.5-1.9-3.8-2.8-1-.8-2-1.6-3-2.4 1.1.8 2.3 1.5 3.4 2.3 1.2.8 2.5 1.7 3.8 2.4.6.4 1.3.8 2 1.1.3.2.7.3 1 .5.3.1.7.3.9.5.3.3.8.4 1.2.6-.1.1-.9 1.1-.9 1.1z"/><circle cx="744.5" cy="700.4" r=".7"/><path d="m744.3 701s-.2-.1-.2-.1c-.1 0-.2-.1-.4-.1-.2-.1-.5-.2-.7-.3-.6-.2-1.1-.4-1.7-.7s-1.1-.4-1.7-.6c-.1-.1-.3-.1-.4-.2-.1 0-.1-.1-.2-.1s-.1 0-.2 0c-1.4-.5-2.8-1.1-4.2-1.7-1.2-.5-2.4-1-3.5-1.5 1.3.4 2.6.9 3.9 1.3 1.4.5 2.8 1 4.3 1.4.7.2 1.4.4 2.2.6.2 0 .3.1.5.1h.2.1c.1 0 .3.1.4.1.3.1.6.1.9.2h.2s.1 0 .1.1c.1 0 .3.1.4.1.2 0 .4.1.6.1-.1.1-.6 1.3-.6 1.3z"/><ellipse cx="748.2" cy="689.1" rx=".5" ry=".7" transform="matrix(.9933 -.1153 .1153 .9933 -74.4765 90.8908)"/><path d="m748.3 689.7s-1 .2-1.1.3c-.2 0-.4.1-.6.1-.3 0-.6.1-.8.1-.6.1-1.2.2-1.8.3-1.2.2-2.4.4-3.6.5-1 .1-2 .2-3 .3 1-.2 2.1-.4 3.1-.7 1.1-.2 2.3-.5 3.4-.8.6-.2 1.1-.3 1.7-.5.3-.1.6-.2.8-.3s.5-.3.8-.3.7-.2 1-.4c0 .1.1 1.4.1 1.4z"/><circle cx="749" cy="698.1" r=".7"/><path d="m748.9 698.7c-.2 0-.3 0-.4-.1-.1 0-.2-.1-.2-.1-.1-.1-.3-.1-.4-.1s-.3 0-.4-.1c-.6-.1-1.2-.2-1.8-.4-.3-.1-.6-.1-.9-.2-.1 0-.3-.1-.4-.1s-.1 0-.2-.1c-.1 0-.1 0-.2-.1-.2 0-.3-.1-.5-.1-1.5-.3-3.1-.7-4.6-1.1-1.2-.3-2.5-.7-3.7-1 1.3.3 2.7.5 4 .8.7.1 1.5.3 2.2.4.2 0 .3.1.5.1h.2c.3.1.6.1.9.2l1.8.3c.3 0 .6.1.9.1h.5.1.2c.6 0 1.2 0 1.8.1h1c.1 0 .3 0 .3.2s-.2.3-.3.4-.1.1-.1.2-.1.3-.1.4c-.2.2-.2.3-.2.3z"/><circle cx="744.9" cy="693.4" r=".7"/><path d="m744.9 694.1s-1.4.1-1.4.1c-.3 0-.5.1-.8 0s-.7 0-1.1 0c-.8 0-1.6.1-2.4.1-1.6 0-3.2.1-4.7.1-1.3 0-2.6 0-3.9 0 1.4-.1 2.7-.2 4.1-.2 1.5-.1 3-.2 4.5-.3.7-.1 1.5-.2 2.2-.3.4-.1.7-.1 1.1-.2.3-.1.7-.2 1-.2.4 0 .9-.2 1.3-.2.1-.2.1 1.1.1 1.1z"/><ellipse cx="714.8" cy="734.3" rx="1.2" ry="1.1"/><path d="m715.7 733.6 10.4 12.2-12.3-10.9z"/><ellipse cx="748.3" cy="719" rx="1.2" ry="1.1"/><path d="m749.1 719.8-9.9 12.5 8.2-14z"/><ellipse cx="706.9" cy="720.2" rx="1.2" ry="1.1"/><path d="m707.9 719.6 9.7 12.7-11.7-11.5z"/><ellipse cx="727.6" cy="713.4" rx="1.2" ry="1.1"/><path d="m728.7 713.5-.2 15.9-2.1-16.2z"/><ellipse cx="709.8" cy="708.3" rx="1.2" ry="1.1"/><path d="m710.9 708 6.5 14.5-8.7-13.8z"/><ellipse cx="694.4" cy="717.4" rx="1.2" ry="1.7" transform="matrix(.7402 -.6724 .6724 .7402 -302.001 653.3632)"/><path d="m695.3 716.7 16.2 16.4-18-14.9z"/><ellipse cx="718.2" cy="743.3" rx="1.2" ry="1.1"/><path d="m719 742.5 12.6 10-14.2-8.4z"/><ellipse cx="693.6" cy="725.1" rx="1.2" ry="1.6" transform="matrix(.6246 -.781 .781 .6246 -305.8702 813.8632)"/><path d="m694.3 724.2 17.5 12.9-19-11.2z"/><ellipse cx="686.6" cy="729" rx="1.2" ry="1.9" transform="matrix(.4977 -.8674 .8674 .4977 -287.4658 961.7372)"/><path d="m687.2 728.1 23.6 12.2-24.8-10.3z"/><ellipse cx="718.9" cy="711.1" rx="1.2" ry="1.9" transform="matrix(.9782 -.2076 .2076 .9782 -131.988 164.7594)"/><path d="m720 710.9 6.7 25.4-9-25z"/><ellipse cx="717.9" cy="766.8" rx="1.2" ry="1.1"/><path d="m717.1 766 10.8-11.9-9.2 13.5z"/><ellipse cx="717.6" cy="727.5" rx="1.2" ry="1.1"/><path d="m718.7 727.1 7.4 14.1-9.6-13.2z"/><ellipse cx="731.4" cy="722.5" rx="1.2" ry="1.1"/><path d="m732.6 722.7-1.1 15.8-1.2-16.2z"/><ellipse cx="734" cy="738.4" rx=".9" ry="1.2" transform="matrix(.2281 -.9736 .9736 .2281 -152.3345 1284.5582)"/><path d="m735.1 738.6-1.7 12.4-.5-12.9z"/><ellipse cx="692.9" cy="739.6" rx="1.2" ry="1.1"/><path d="m693.2 738.5s2.3.6 2.5.6c.5.1.9.2 1.3.4.5.3 1.2.4 1.8.6 1.3.4 2.7.8 4 1.2 2.7.8 5.3 1.7 7.9 2.6 2.1.7 4.3 1.5 6.4 2.3-2.3-.6-4.6-1.3-7-1.9-2.5-.7-5.1-1.4-7.6-2-1.3-.3-2.6-.6-3.9-.8-.7-.1-1.3-.2-2-.3-.6-.1-1.3-.1-1.8-.3-.7-.3-1.6-.3-2.4-.4.1.2.8-2 .8-2z"/><ellipse cx="681.8" cy="744.1" rx="1.2" ry="1.1"/><path d="m682 742.9s2.4.3 2.5.3c.5.1.9.1 1.3.3.6.2 1.3.2 1.9.3 1.4.2 2.8.4 4.1.6 2.7.4 5.5.9 8.2 1.4 2.2.4 4.5.9 6.7 1.3-2.4-.3-4.8-.6-7.2-.9-2.6-.3-5.2-.7-7.9-.9-1.3-.1-2.6-.2-4-.2-.7 0-1.3 0-2 0-.6 0-1.3.1-1.9 0-.8-.2-1.6 0-2.4 0 .2.1.7-2.2.7-2.2z"/><ellipse cx="741.5" cy="710.9" rx="1.2" ry="1.1"/><path d="m740.3 710.8s-.6 2.3-.6 2.4c-.1.5-.2.9-.2 1.3 0 .6-.2 1.3-.3 1.8-.3 1.3-.5 2.7-.8 4-.5 2.7-1 5.4-1.5 8.1-.4 2.2-.7 4.4-1 6.6.5-2.3 1.1-4.6 1.6-6.9.6-2.5 1.2-5.1 1.9-7.6.3-1.3.7-2.5 1.1-3.7.2-.6.4-1.2.7-1.8.2-.5.6-1.1.7-1.7.1-.8.5-1.5.8-2.2-.1 0-2.4-.3-2.4-.3z"/><ellipse cx="690.7" cy="750.8" rx="1.2" ry="1.1"/><path d="m690.8 749.7s2.4.1 2.6.1c.5 0 .9 0 1.4.1.6.2 1.3.1 1.9.2 1.4.1 2.8.2 4.2.3 2.8.2 5.6.4 8.3.7 2.3.2 4.5.5 6.8.7-2.4-.1-4.8-.2-7.2-.3-2.6-.1-5.3-.2-7.9-.2-1.3 0-2.6.1-4 .1-.7 0-1.3.1-2 .2-.6.1-1.3.3-1.9.2-.8-.1-1.6.1-2.4.2-.1-.1.2-2.3.2-2.3z"/><ellipse cx="688.1" cy="757" rx="1.2" ry="1.1"/><path d="m688 755.9s2.4-.4 2.5-.4c.5-.1.9-.2 1.4-.1.6.1 1.3-.1 1.9-.2 1.4-.2 2.8-.3 4.2-.4 2.8-.3 5.5-.5 8.3-.7 2.3-.2 4.5-.3 6.8-.4-2.4.3-4.8.6-7.2 1-2.6.4-5.2.7-7.8 1.2-1.3.2-2.6.5-3.9.8-.6.2-1.3.3-1.9.5s-1.2.5-1.8.5c-.8 0-1.6.4-2.3.6-.1-.1-.2-2.4-.2-2.4z"/><ellipse cx="694.5" cy="760" rx="1.2" ry="1.1"/><path d="m694.3 758.9s.3-.1.4-.1c.2-.1.5-.1.7-.1.5-.1.9-.2 1.4-.2 1.1-.2 2.1-.4 3.2-.6s2.1-.4 3.1-.6c.3-.1.5-.1.8-.2.1 0 .3 0 .4-.1.1 0 .2-.1.3-.1 2.6-.5 5.2-.9 7.8-1.3 2.2-.4 4.5-.7 6.7-1-2.4.5-4.7 1-7.1 1.5-2.6.6-5.2 1.1-7.7 1.8-1.3.3-2.5.7-3.8 1.1-.3.1-.5.2-.8.3-.1 0-.3.1-.4.1s-.1.1-.2.1c-.2.1-.5.2-.8.2-.5.2-1 .3-1.5.5-.1 0-.2.1-.3.1s-.2 0-.2 0c-.2 0-.5.2-.7.3-.3.1-.7.3-1 .4.1.1-.3-2.1-.3-2.1z"/><ellipse cx="702" cy="777" rx=".9" ry="1.2" transform="matrix(.7331 -.6802 .6802 .7331 -341.1235 684.8919)"/><path d="m701.2 776.2s1.3-1.3 1.4-1.4c.3-.3.5-.5.8-.7.4-.2.7-.6 1.1-1 .8-.7 1.5-1.5 2.3-2.2 1.6-1.5 3.2-2.9 4.8-4.3 1.3-1.1 2.7-2.3 4-3.4-1.3 1.3-2.6 2.6-3.9 4-1.4 1.4-2.8 2.9-4.2 4.4-.7.8-1.3 1.6-1.9 2.4-.3.4-.6.8-.9 1.2s-.5.9-.8 1.2c-.5.4-.7 1-1.1 1.5-.1 0-1.6-1.7-1.6-1.7z"/><ellipse cx="691.7" cy="767.7" rx="1.2" ry="1.1"/><path d="m691.3 766.6s.1 0 0 0c.3-.1.5-.2.7-.3s.3-.1.5-.1c.2-.1.5-.2.7-.3s.5-.2.7-.3c1-.4 1.9-.9 2.9-1.3.5-.2 1-.4 1.5-.6.2-.1.5-.2.7-.3.1 0 .2-.1.3-.1s.2-.1.4-.1c.3-.1.6-.2.8-.3 2.6-1 5.2-2.1 7.8-3 2.1-.8 4.3-1.6 6.4-2.3-2.2 1-4.4 2-6.6 2.9-1.2.5-2.4 1.1-3.6 1.6-.2.1-.5.2-.7.4-.1.1-.2.1-.3.1-.5.2-1 .4-1.5.6-1 .4-1.9.9-2.8 1.4-.5.2-.9.5-1.4.8-.2.1-.5.3-.7.4-.1 0-.1.1-.2.2s-.2.1-.3.2c-.9.6-1.8 1.2-2.7 1.7-.5.3-1 .6-1.4.9-.2.1-.5.3-.7.1s0-.5 0-.8c0-.2 0-.3 0-.4-.1-.2-.2-.4-.3-.7-.1-.2-.1-.3-.2-.4z"/><ellipse cx="701.5" cy="767.8" rx="1.2" ry="1.1"/><path d="m701 766.8s2.1-1.2 2.2-1.3c.4-.2.8-.5 1.2-.6.6-.1 1.2-.6 1.7-.9 1.2-.7 2.4-1.3 3.7-2 2.5-1.3 4.9-2.6 7.4-3.8 2-1 4.1-2 6.1-2.9-2.1 1.2-4.2 2.4-6.3 3.6-2.3 1.3-4.6 2.6-6.8 4-1.1.7-2.2 1.4-3.3 2.2-.5.4-1.1.8-1.6 1.2s-.9.9-1.5 1.1c-.7.3-1.3.9-1.9 1.4.1 0-.9-2-.9-2z"/><ellipse cx="747.3" cy="764.8" rx="1.2" ry="1.1"/><path d="m746.4 765.5-11.5-11.1 13.3 9.6z"/><ellipse cx="711.2" cy="782.1" rx="1.2" ry="1.1"/><path d="m710.3 781.3 9.8-12.6-8.1 14.2z"/><ellipse cx="752.7" cy="777.5" rx="1.2" ry="1.1"/><path d="m751.8 778.2-9.9-12.6 11.8 11.3z"/><ellipse cx="732.2" cy="784.6" rx="1.2" ry="1.1"/><path d="m731 784.5.1-15.9 2.2 16.1z"/><ellipse cx="750" cy="789.4" rx="1.2" ry="1.1"/><path d="m748.9 789.8-6.7-14.5 8.9 13.7z"/><ellipse cx="765.3" cy="780.1" rx="1.2" ry="1.7" transform="matrix(.7307 -.6827 .6827 .7307 -326.4705 732.4738)"/><path d="m764.4 780.8-16.4-16.1 18.1 14.6z"/><ellipse cx="766" cy="772.5" rx="1.2" ry="1.6" transform="matrix(.6139 -.7894 .7894 .6139 -313.9997 902.9742)"/><path d="m765.3 773.3-17.8-12.6 19.2 10.9z"/><ellipse cx="772.9" cy="768.4" rx="1.2" ry="1.9" transform="matrix(.4859 -.874 .874 .4859 -274.1906 1070.6249)"/><path d="m772.3 769.4-23.7-12 24.9 10z"/><ellipse cx="740.9" cy="786.7" rx="1.2" ry="1.9" transform="matrix(.9751 -.2217 .2217 .9751 -155.9603 183.8037)"/><path d="m739.8 787-7.1-25.3 9.3 24.8z"/><ellipse cx="747" cy="721.5" rx="1.2" ry="1.1"/><path d="m747.8 722.3-10.6 12 9-13.6z"/><ellipse cx="741.9" cy="770.3" rx="1.2" ry="1.1"/><path d="m740.8 770.8-7.5-14.1 9.7 13.2z"/><ellipse cx="726.2" cy="780.6" rx="1.2" ry="1.1"/><path d="m725.1 780.2 3.3-15.5-1.1 16.2z"/><ellipse cx="766.5" cy="757.9" rx="1.2" ry="1.1"/><path d="m766.1 759s-2.3-.6-2.5-.6c-.5-.1-.9-.2-1.3-.4-.5-.3-1.2-.4-1.8-.6-1.3-.4-2.7-.8-4-1.2-2.7-.8-5.3-1.6-8-2.5-2.2-.7-4.3-1.4-6.4-2.2 2.3.6 4.7 1.2 7 1.8 2.5.7 5.1 1.3 7.7 1.9 1.3.3 2.6.5 3.9.7.7.1 1.3.2 2 .3.6.1 1.3 0 1.9.2.7.3 1.6.2 2.4.3-.1.1-.9 2.3-.9 2.3z"/><ellipse cx="777.5" cy="753.3" rx="1.2" ry="1.1"/><path d="m777.3 754.4s-2.4-.2-2.5-.3c-.5 0-.9-.1-1.3-.2-.6-.2-1.3-.2-1.9-.3-1.4-.2-2.8-.4-4.1-.6-2.8-.4-5.5-.9-8.2-1.3-2.2-.4-4.5-.8-6.7-1.2 2.4.3 4.8.5 7.2.8 2.6.3 5.2.6 7.9.8 1.3.1 2.6.2 4 .2h2c.6 0 1.3-.2 1.9 0 .8.2 1.6 0 2.4 0-.2-.1-.7 2.1-.7 2.1z"/><ellipse cx="715.4" cy="786.4" rx="1.2" ry="1.1"/><path d="m716.5 786.8s1.1-2.1 1.2-2.2c.2-.4.4-.8.5-1.2.1-.6.5-1.2.8-1.7.6-1.2 1.2-2.5 1.7-3.7 1.1-2.5 2.3-5 3.3-7.5.9-2.1 1.7-4.1 2.6-6.2-1.1 2.1-2.1 4.3-3.2 6.4-1.2 2.3-2.3 4.7-3.6 6.9-.6 1.1-1.3 2.3-2 3.4-.4.6-.7 1.1-1.1 1.6-.3.5-.8 1-1 1.5-.3.7-.9 1.3-1.3 2 0-.1 2.1.7 2.1.7z"/><ellipse cx="768.5" cy="744.9" rx="1.2" ry="1.1"/><path d="m768.6 746s-2.4.3-2.5.4c-.5.1-.9.2-1.4.1-.6-.1-1.3.1-1.9.2-1.4.2-2.8.3-4.2.4-2.8.3-5.6.5-8.3.7-2.3.2-4.5.3-6.8.4 2.4-.3 4.8-.6 7.2-.9 2.6-.3 5.2-.7 7.8-1.1 1.3-.2 2.6-.5 3.9-.8.6-.2 1.3-.3 1.9-.5s1.2-.5 1.8-.5c.8 0 1.6-.4 2.3-.6.1-.1.2 2.2.2 2.2z"/><ellipse cx="763.5" cy="737" rx="1.2" ry="1.1"/><path d="m763.9 738.1s-.3.2-.3.2c-.2.1-.4.2-.7.2-.4.2-.9.3-1.3.5-1 .4-2 .7-3 1.1s-2 .7-3 1.1c-.2.1-.5.2-.7.3-.1 0-.3.1-.4.1s-.2.1-.3.2c-2.5.9-5 1.8-7.5 2.6-2.1.7-4.3 1.4-6.5 2.1 2.2-.9 4.5-1.8 6.7-2.7 2.4-1 4.9-2 7.3-3.1 1.2-.5 2.4-1.1 3.6-1.7.3-.1.5-.3.8-.4.1-.1.3-.1.4-.2l.2-.2c.2-.1.5-.2.7-.4.5-.3.9-.5 1.4-.8.1 0 .2-.1.3-.1s.1 0 .2-.1c.2-.1.4-.2.6-.4.3-.2.6-.4.9-.6-.2.1.6 2.3.6 2.3z"/><ellipse cx="755.2" cy="718" rx=".9" ry="1.2" transform="matrix(.6415 -.7672 .7672 .6415 -280.0728 836.7725)"/><path d="m756 718.8s-1.1 1.5-1.2 1.6c-.2.3-.4.6-.7.8-.4.3-.7.7-1 1.1-.7.8-1.3 1.7-2 2.5-1.4 1.6-2.8 3.3-4.2 4.8-1.2 1.3-2.3 2.6-3.5 3.8 1.1-1.5 2.2-2.9 3.4-4.4 1.2-1.6 2.4-3.2 3.6-4.9.6-.8 1.1-1.7 1.6-2.6.3-.4.5-.9.7-1.3s.3-1 .7-1.3c.4-.4.6-1.1.9-1.6 0-.1 1.7 1.5 1.7 1.5z"/><ellipse cx="766.8" cy="728.8" rx="1.2" ry="1.1"/><path d="m767.3 729.9c-.3.2-.4.3-.6.4-.1.1-.3.1-.4.2-.2.1-.4.2-.6.4-.2.1-.4.3-.7.4-.9.5-1.8 1.1-2.8 1.6-.5.3-.9.5-1.4.8-.2.1-.5.3-.7.4-.1.1-.2.1-.3.2-.1 0-.2.1-.4.2-.3.1-.5.3-.8.4-2.4 1.3-4.9 2.6-7.4 3.8-2 1-4.1 2-6.1 3 2.1-1.2 4.2-2.4 6.2-3.6 1.1-.7 2.3-1.3 3.4-2 .2-.1.5-.3.7-.4.1-.1.2-.1.3-.2.5-.2.9-.5 1.4-.7.9-.5 1.8-1.1 2.7-1.6.4-.3.9-.6 1.3-.9.2-.2.4-.3.6-.5.1-.1.1-.1.2-.2s.2-.2.3-.2c.8-.7 1.7-1.3 2.5-2 .4-.4.9-.7 1.3-1.1.2-.1.4-.3.6-.2.2.2.1.5.1.8 0 .2 0 .3.1.4.1.2.2.4.3.6.1-.2.1-.1.2 0z"/><ellipse cx="755.8" cy="727.5" rx="1.2" ry="1.1"/><path d="m756.6 728.4s-1.7 1.7-1.8 1.8c-.3.3-.6.7-1 .9-.5.3-1 .8-1.4 1.2-1 .9-2 1.9-3 2.8-2 1.9-4.1 3.7-6.2 5.5-1.7 1.5-3.4 2.9-5.2 4.4 1.7-1.7 3.4-3.3 5.1-5 1.9-1.8 3.7-3.7 5.5-5.6.9-1 1.8-1.9 2.6-2.9.4-.5.8-1 1.2-1.5s.7-1.1 1.1-1.5c.6-.5 1-1.2 1.5-1.8 0 0 1.6 1.7 1.6 1.7z"/><path d="m832.3 727.1c-3.9-6-8.7-11.5-14.2-16.1s-11.6-8.4-18.2-11.1c-6.6-2.8-13.6-4.5-20.7-5.1-3.6-.3-7.1-.4-10.7-.2s-7.1.7-10.7 1.4c3.5-.9 7-1.5 10.6-1.9 3.6-.3 7.2-.3 10.8-.1 7.2.5 14.3 2.2 21 5s12.9 6.7 18.3 11.5c2.7 2.4 5.2 5 7.5 7.8 2.4 2.8 4.5 5.7 6.3 8.8z"/><path d="m793.7 746c-2.8-2.3-6.3-3.8-9.8-4.4s-7.2-.5-10.7.2c-3.5.8-6.9 2.2-10 3.9-1.6.9-3.1 1.8-4.6 2.9-1.5 1-3 2.1-4.4 3.2 2.6-2.6 5.5-4.9 8.6-6.8s6.6-3.4 10.2-4.2 7.4-.8 11.1 0c1.8.4 3.6 1 5.2 1.9s3.2 2 4.4 3.3z"/><ellipse cx="991.5" cy="676.3" rx="1.3" ry="1"/><path d="m990.2 676.4.5 14.1 2.1-14.3z"/><ellipse cx="951.2" cy="685.4" rx="1.3" ry="1"/><path d="m951.1 686.4 18.1 2.6-17.9-4.6z"/><ellipse cx="987.4" cy="662.4" rx="1.3" ry="1"/><path d="m986.1 662.6 1.4 14 1.2-14.4z"/><ellipse cx="964.5" cy="669.7" rx="1.3" ry="1"/><path d="m963.6 670.5 12.4 10.4-10.6-11.9z"/><ellipse cx="975.8" cy="656.2" rx="1.3" ry="1"/><path d="m974.6 656.6 5.6 13.4-3.2-14.2z"/><ellipse cx="996" cy="653.4" rx="1.3" ry="1.5" transform="matrix(.999 -.04399359 .04399359 .999 -27.7813 44.4495)"/><path d="m994.7 653.4-1.3 20.2 3.9-20.2z"/><ellipse cx="995.4" cy="684.3" rx="1.3" ry="1"/><path d="m994.1 684.2-3 13.9 5.7-13.8z"/><ellipse cx="1002.5" cy="658" rx="1.4" ry="1.3" transform="matrix(.6174 -.7867 .7867 .6174 -134.0138 1040.4469)"/><path d="m1001.2 657.8-5.1 18.7 7.8-18.4z"/><ellipse cx="1011.6" cy="656.6" rx="1.8" ry="1.3" transform="matrix(.546 -.8378 .8378 .546 -90.8441 1145.6022)"/><path d="m1010.3 656.3-10.8 21.7 13.3-21.1z"/><ellipse cx="970.3" cy="663.3" rx="1.2" ry="1.9" transform="matrix(.6804 -.7328 .7328 .6804 -175.9831 922.9409)"/><path d="m969.1 663.8 13.8 20.7-11.5-21.8z"/><ellipse cx="1013.7" cy="699.7" rx="1.3" ry="1"/><path d="m1013.8 698.7-18.3-1.7 18.2 3.7z"/><ellipse cx="983.9" cy="673.4" rx="1.3" ry="1"/><path d="m982.6 673.8 4.6 13.6-2.1-14.3z"/><ellipse cx="968.2" cy="678.1" rx="1.3" ry="1"/><path d="m967.4 678.8 13.1 9.9-11.4-11.4z"/><ellipse cx="978.2" cy="690" rx="1.2" ry=".9" transform="matrix(.9024 -.4309 .4309 .9024 -201.8776 488.9085)"/><path d="m977.4 690.9 11 7.2-9.5-8.9z"/><ellipse cx="1014.3" cy="667.2" rx="1.3" ry="1"/><path d="m1013.1 666.8s-1.5 1.8-1.6 1.9c-.3.3-.6.6-.8 1-.2.5-.7 1-1.1 1.4-.8 1-1.7 2.1-2.5 3.1-1.6 2.1-3.2 4.2-4.8 6.3-1.3 1.7-2.5 3.5-3.7 5.2 1.5-1.8 3-3.5 4.5-5.3 1.6-1.9 3.3-3.9 5-5.7.9-.9 1.8-1.9 2.7-2.8.5-.4 1-.9 1.4-1.3s1.1-.8 1.4-1.2c.4-.6 1.2-1.1 1.7-1.6.2-.1-2.2-1-2.2-1z"/><ellipse cx="1027.2" cy="663.8" rx="1.3" ry="1"/><path d="m1026.1 663.2s-1.8 1.6-2 1.7c-.4.3-.7.6-.9.9-.3.5-.9.9-1.3 1.3-1 .9-2 1.9-3 2.8-2 1.9-4 3.8-5.9 5.7-1.6 1.6-3.1 3.1-4.7 4.7 1.8-1.6 3.6-3.2 5.4-4.7 2-1.7 4-3.5 6-5.1 1-.8 2.1-1.6 3.2-2.4.6-.4 1.1-.8 1.7-1.2.5-.3 1.2-.7 1.6-1.1.5-.5 1.4-.9 2-1.4 0 0-2.1-1.2-2.1-1.2z"/><ellipse cx="950.8" cy="676.1" rx="1.3" ry="1"/><path d="m951.6 675.3s2.3 1.2 2.4 1.3c.4.2.9.4 1.2.8.4.4 1.1.7 1.7 1 1.3.7 2.5 1.5 3.8 2.2 2.5 1.5 5 3 7.4 4.5 2 1.3 4 2.5 5.9 3.8-2.2-1.2-4.4-2.5-6.7-3.7-2.4-1.3-4.9-2.7-7.4-3.9-1.3-.6-2.5-1.2-3.8-1.8-.7-.3-1.3-.6-2-.8-.6-.2-1.4-.4-1.9-.8-.7-.4-1.6-.7-2.4-1 .1 0 1.8-1.6 1.8-1.6z"/><ellipse cx="1024.7" cy="673.4" rx="1.3" ry="1"/><path d="m1023.8 672.7s-2 1.4-2.1 1.5c-.4.3-.8.5-1.1.9-.4.5-1 .8-1.5 1.2-1.1.9-2.2 1.7-3.4 2.6-2.2 1.7-4.4 3.5-6.6 5.2-1.8 1.4-3.5 2.9-5.2 4.4 2-1.4 4-2.9 6-4.3 2.2-1.6 4.4-3.2 6.6-4.7 1.1-.8 2.3-1.5 3.5-2.2.6-.4 1.2-.7 1.8-1 .5-.3 1.3-.6 1.7-.9.6-.5 1.5-.8 2.2-1.2 0-.1-1.9-1.5-1.9-1.5z"/><ellipse cx="1031.7" cy="676" rx="1.3" ry="1"/><path d="m1030.9 675.2s-2.3 1.1-2.5 1.2c-.5.2-.9.4-1.2.7-.5.4-1.2.7-1.7 1-1.3.7-2.6 1.4-3.9 2.1-2.6 1.4-5.1 2.8-7.7 4.3-2.1 1.2-4.1 2.4-6.1 3.6 2.3-1.2 4.6-2.3 6.9-3.5 2.5-1.3 5-2.5 7.6-3.7 1.3-.6 2.6-1.2 3.9-1.7.7-.3 1.3-.5 2-.8.6-.2 1.4-.4 1.9-.7.7-.4 1.6-.6 2.4-.9 0 .1-1.6-1.5-1.6-1.6z"/><ellipse cx="1028.5" cy="681.7" rx="1.3" ry="1"/><path d="m1027.8 680.9s-.4.1-.4.1c-.2.1-.5.2-.7.3-.5.2-.9.4-1.4.6-1 .5-2.1 1-3.1 1.4s-2.1.9-3.1 1.4c-.3.1-.5.2-.8.3-.1.1-.3.1-.4.2-.1 0-.2.1-.3.1-2.6 1.2-5.1 2.4-7.7 3.6-2.2 1.1-4.4 2.1-6.5 3.2 2.4-1 4.8-2 7.2-3 2.6-1.1 5.3-2.2 8-3.2 1.4-.5 2.7-1 4.1-1.4.3-.1.6-.2.9-.3.1 0 .3-.1.5-.1h.3c.3-.1.6-.2.8-.3.6-.2 1.1-.3 1.7-.5.1 0 .2-.1.3-.1s.1-.1.2-.1c.2-.1.5-.2.8-.2.4-.1.8-.2 1.2-.3-.2 0-1.6-1.7-1.6-1.7z"/><ellipse cx="1035.2" cy="697.3" rx="1" ry="1" transform="matrix(.2078 -.9782 .9782 .2078 137.9156 1564.9818)"/><path d="m1035.2 696.3s-2.1-.2-2.2-.2c-.4 0-.8-.1-1.2 0-.5.1-1.1 0-1.7 0-1.2-.1-2.5-.1-3.7-.1-2.5-.1-4.9-.1-7.4-.1-2 0-4 0-6 .1 2.1.1 4.2.3 6.4.4 2.3.1 4.6.3 7 .5 1.2.1 2.3.3 3.5.5.6.1 1.1.2 1.7.3.5.1 1.1.3 1.6.3.7 0 1.4.2 2.1.4-.1 0-.1-2.1-.1-2.1z"/><ellipse cx="1036.8" cy="685.2" rx="1.3" ry="1"/><path d="m1036.3 684.3h-.1c-.2 0-.5.1-.7.1s-.3.1-.5.2-.5.1-.8.2-.6.1-.9.2c-1.2.3-2.3.5-3.5.8-.6.1-1.2.3-1.7.4-.3.1-.6.1-.9.2-.1 0-.3.1-.4.1-.1.1-.3.1-.4.1-.3.1-.7.2-1 .3-3 .8-6 1.6-9 2.4-2.4.7-4.8 1.4-7.2 2.1 2.6-.6 5.3-1.2 7.9-1.8 1.5-.3 2.9-.7 4.4-1 .3-.1.6-.1.9-.2.1 0 .3-.1.4-.1.6-.2 1.1-.3 1.7-.4 1.1-.3 2.3-.5 3.5-.7.6-.1 1.2-.2 1.8-.3.3 0 .6-.1.9-.1h.3.4c1.2-.1 2.4-.3 3.6-.4.6-.1 1.3-.1 1.9-.2.3 0 .6-.1.6-.3 0-.3-.4-.4-.6-.5-.1-.1-.2-.2-.3-.3-.1-.2-.2-.4-.3-.6.1 0 0-.1 0-.2z"/><ellipse cx="1028.5" cy="690.9" rx="1.3" ry="1"/><path d="m1028.2 689.9s-2.7.4-2.9.4c-.5.1-1 .1-1.5.3-.6.2-1.4.3-2.1.4-1.5.3-3.1.5-4.6.8-3.1.5-6.2 1.1-9.2 1.7-2.5.5-5 1-7.5 1.6 2.7-.4 5.4-.8 8.1-1.2 2.9-.4 5.9-.9 8.9-1.2 1.5-.2 3-.3 4.5-.4.7-.1 1.5-.1 2.3-.1.7 0 1.5 0 2.1-.1.8-.2 1.8-.1 2.7-.1-.1-.1-.8-2.1-.8-2.1z"/><ellipse cx="987.1" cy="715.3" rx="1.3" ry="1"/><path d="m988.4 715.2 1.4-14-4.1 14.1z"/><ellipse cx="1031.2" cy="706" rx="1.3" ry="1"/><path d="m1031.4 705-18.1-2.8 17.7 4.8z"/><ellipse cx="992.2" cy="726.8" rx="1.3" ry="1"/><path d="m993.5 726.7-1.2-14-1.4 14.3z"/><ellipse cx="1015.2" cy="719.7" rx="1.3" ry="1"/><path d="m1016.1 719-12.2-10.5 10.4 12z"/><ellipse cx="1003.7" cy="733.1" rx="1.3" ry="1"/><path d="m1004.9 732.8-5.4-13.5 3 14.2z"/><ellipse cx="983.5" cy="735.7" rx="1.5" ry="1.3" transform="matrix(.00996533 -1 1 .00996533 237.9876 1711.8176)"/><path d="m984.8 735.7 1.6-20.2-4.3 20.2z"/><ellipse cx="977" cy="731.1" rx="1.4" ry="1.3" transform="matrix(.6354 -.7722 .7722 .6354 -208.2912 1021.0407)"/><path d="m978.3 731.2 5.5-18.5-8.1 18.2z"/><ellipse cx="968" cy="732.3" rx="1.8" ry="1.3" transform="matrix(.5617 -.8273 .8273 .5617 -181.6514 1121.7946)"/><path d="m969.2 732.7 11.2-21.6-13.7 20.9z"/><ellipse cx="1009.4" cy="726.1" rx="1.2" ry="1.9" transform="matrix(.6905 -.7233 .7233 .6905 -212.8398 954.8774)"/><path d="m1010.5 725.7-13.3-20.9 11 21.8z"/><ellipse cx="954.2" cy="686.3" rx="1.3" ry="1"/><path d="m954.1 687.3 18.2 1.9-18.1-3.9z"/><ellipse cx="995.9" cy="715.8" rx="1.3" ry="1"/><path d="m997.2 715.5-4.3-13.7 1.8 14.3z"/><ellipse cx="1017.2" cy="713.6" rx="1.3" ry="1"/><path d="m1017.9 712.7-14.7-8.4 13.3 10.2z"/><ellipse cx="965.4" cy="721.7" rx="1.3" ry="1"/><path d="m966.6 722.2s1.6-1.7 1.6-1.8c.3-.3.6-.6.8-1 .2-.5.7-1 1.1-1.4.9-1 1.7-2 2.5-3.1 1.7-2.1 3.3-4.1 4.9-6.2 1.3-1.7 2.6-3.4 3.8-5.2-1.5 1.7-3 3.5-4.6 5.2-1.7 1.9-3.3 3.8-5.1 5.7-.9.9-1.8 1.8-2.8 2.7-.5.4-1 .9-1.5 1.3-.4.4-1.1.8-1.4 1.2-.4.6-1.2 1.1-1.8 1.6.2 0 2.5 1 2.5 1z"/><ellipse cx="952.5" cy="725" rx="1.3" ry="1"/><path d="m953.5 725.6s1.9-1.5 2-1.6c.4-.3.7-.6 1-.9.3-.5.9-.9 1.4-1.3 1-.9 2.1-1.8 3.1-2.8 2-1.9 4-3.7 6-5.6 1.6-1.5 3.2-3.1 4.8-4.7-1.8 1.6-3.7 3.1-5.5 4.7-2 1.7-4 3.4-6.1 5-1.1.8-2.1 1.6-3.3 2.4-.6.4-1.1.8-1.7 1.1-.5.3-1.2.6-1.6 1-.5.5-1.4.9-2.1 1.4-.1.1 2 1.3 2 1.3z"/><ellipse cx="1030.9" cy="711.3" rx="1.3" ry="1"/><path d="m1030.3 712.2s-2.6-.8-2.7-.8c-.5-.2-1-.3-1.4-.5-.5-.3-1.3-.5-2-.7-1.5-.5-2.9-1-4.3-1.5-2.9-1-5.8-2-8.6-3.1-2.3-.9-4.6-1.7-6.9-2.7 2.5.8 5.1 1.6 7.6 2.4 2.8.9 5.6 1.8 8.4 2.5 1.4.4 2.8.8 4.3 1.1.7.2 1.4.3 2.2.5.7.1 1.5.2 2.1.4.8.3 1.8.4 2.6.6-.1 0-1.3 1.8-1.3 1.8z"/><ellipse cx="953.7" cy="714.2" rx="1.3" ry="1"/><path d="m954.5 715s2.3-1.1 2.4-1.2c.5-.2.9-.4 1.2-.7.4-.4 1.2-.7 1.7-1 1.3-.7 2.6-1.4 3.9-2.1 2.6-1.4 5.1-2.9 7.6-4.3 2.1-1.2 4.1-2.4 6.1-3.6-2.3 1.2-4.6 2.3-6.8 3.5-2.5 1.3-5 2.6-7.6 3.7-1.3.6-2.6 1.2-3.9 1.7-.7.3-1.3.5-2 .8-.6.2-1.4.4-1.9.7-.7.4-1.6.7-2.4.9.1 0 1.7 1.6 1.7 1.6z"/><ellipse cx="952" cy="706.1" rx="1.3" ry="1"/><path d="m952.5 707s.4-.1.4-.1c.2 0 .5-.1.7-.2.5-.2 1-.3 1.5-.5 1.1-.3 2.3-.7 3.4-1s2.3-.7 3.4-1c.3-.1.6-.2.9-.2.1 0 .3-.1.4-.1s.2 0 .4-.1c2.8-.8 5.6-1.7 8.4-2.6 2.4-.8 4.8-1.5 7.1-2.3-2.6.7-5.2 1.4-7.8 2-2.8.7-5.7 1.5-8.6 2.1-1.4.3-2.9.6-4.4.9-.3.1-.6.1-1 .2-.2 0-.3.1-.5.1-.1 0-.2 0-.3 0-.3 0-.6.1-.9.2-.6.1-1.2.2-1.8.3-.1 0-.2 0-.3.1-.1 0-.1.1-.2.1-.3.1-.6.1-.8.1-.4 0-.8.1-1.2.1.2.1 1.2 1.9 1.2 1.9z"/><ellipse cx="944.5" cy="688.7" rx="1.1" ry="1" transform="matrix(.8131 -.5821 .5821 .8131 -224.3672 678.459)"/><path d="m944.4 689.7s2.1.4 2.2.4c.4.1.8.2 1.2.1.5-.1 1.1.1 1.7.2 1.2.2 2.4.3 3.6.5 2.4.3 4.8.6 7.3.8 2 .2 4 .4 6 .5-2.1-.3-4.2-.7-6.2-1-2.3-.4-4.6-.7-6.8-1.2-1.1-.2-2.3-.5-3.4-.8-.6-.1-1.1-.3-1.7-.5-.5-.2-1-.4-1.5-.5-.7 0-1.4-.4-2-.6-.1.1-.4 2.1-.4 2.1z"/><ellipse cx="942.9" cy="702.5" rx="1.3" ry="1"/><path d="m943.3 703.5h.1c.2 0 .5-.1.7-.1s.3-.1.5-.2c.3-.1.6-.1.8-.1.3 0 .6-.1.9-.1 1.2-.2 2.4-.4 3.6-.5.6-.1 1.2-.2 1.8-.3.3-.1.6-.1.9-.2.1 0 .3 0 .4-.1.1 0 .3-.1.4-.1.3-.1.7-.1 1-.2 3.1-.5 6.2-1.1 9.2-1.7l7.5-1.5c-2.7.4-5.4.8-8.1 1.2-1.5.2-3 .4-4.5.6-.3 0-.6.1-.9.1-.1 0-.3 0-.4.1-.6.1-1.2.2-1.7.3-1.2.2-2.3.3-3.5.4-.6.1-1.2.1-1.8.1-.3 0-.6 0-.9 0-.1 0-.2 0-.3 0s-.3 0-.4 0c-1.2 0-2.5.1-3.7.1-.7 0-1.3 0-2 .1-.3 0-.6.1-.7.3s.3.4.5.5c.1.1.2.2.2.3.1.2.1.4.2.6s.1.3.2.4z"/><ellipse cx="951.3" cy="695.4" rx="1.3" ry="1"/><path d="m951.3 696.4s2.7.2 2.9.2c.5 0 1 .1 1.6 0 .7-.1 1.5 0 2.2 0 1.6 0 3.2.1 4.8.1 3.2.1 6.3.1 9.5.1 2.6 0 5.2 0 7.8-.1-2.7-.1-5.5-.2-8.2-.4-3-.1-6-.3-9-.5-1.5-.1-3-.3-4.5-.5-.7-.1-1.5-.2-2.2-.3s-1.4-.3-2.1-.3c-.9 0-1.8-.2-2.7-.4-.1.1-.1 2.1-.1 2.1z"/><ellipse cx="1006.7" cy="749.6" rx=".7" ry=".8"/><path d="m1006.1 749.1-6.4 8.4 7.6-7.5z"/><ellipse cx="985.9" cy="739.1" rx=".7" ry=".8"/><path d="m985.4 739.7 6.2 8.5-5.1-9.6z"/><ellipse cx="1011.6" cy="739.9" rx=".7" ry=".8"/><path d="m1011 739.5-6 8.7 7.3-7.9z"/><ellipse cx="998.8" cy="735.2" rx=".7" ry=".8"/><path d="m998.1 735.3.2 10.9 1.2-11z"/><ellipse cx="1009.8" cy="731.8" rx=".7" ry=".8"/><path d="m1009.1 731.5-4 10 5.4-9.5z"/><ellipse cx="1019.4" cy="738" rx="1.1" ry=".7" transform="matrix(.5668 -.8238 .8238 .5668 -166.4436 1159.5032)"/><path d="m1018.8 737.5-10 11.3 11.1-10.3z"/><ellipse cx="1004.6" cy="755.7" rx=".7" ry=".8"/><path d="m1004.1 755.2-7.8 6.9 8.8-5.8z"/><ellipse cx="1019.9" cy="743.3" rx="1" ry=".8" transform="matrix(.6659 -.7461 .7461 .6659 -213.732 1009.2715)"/><path d="m1019.4 742.7-10.8 8.8 11.8-7.6z"/><ellipse cx="1024.3" cy="746" rx="1.2" ry=".8" transform="matrix(.8142 -.5806 .5806 .8142 -242.8002 733.3047)"/><path d="m1023.9 745.3-14.7 8.4 15.4-7z"/><ellipse cx="1004.2" cy="733.7" rx="1.3" ry=".7" transform="matrix(.1707 -.9853 .9853 .1707 109.8913 1597.9484)"/><path d="m1003.5 733.5-4.2 17.4 5.6-17.1z"/><ellipse cx="1004.8" cy="771.8" rx=".7" ry=".8"/><path d="m1005.3 771.3-6.7-8.1 5.7 9.2z"/><ellipse cx="1005" cy="744.9" rx=".7" ry=".8"/><path d="m1004.3 744.6-4.6 9.7 5.9-9.1z"/><ellipse cx="996.4" cy="741.5" rx=".7" ry=".8"/><path d="m995.7 741.6.7 10.9.7-11.1z"/><ellipse cx="994.8" cy="752.4" rx=".7" ry=".6" transform="matrix(.9375 -.348 .348 .9375 -199.6396 393.2126)"/><path d="m994.1 752.6 1.1 8.4.3-8.8z"/><ellipse cx="1020.4" cy="753.2" rx=".7" ry=".8"/><path d="m1020.1 752.5s-1.5.4-1.5.4c-.3.1-.5.1-.8.3s-.8.3-1.1.4c-.8.3-1.7.6-2.5.8-1.6.6-3.3 1.2-4.9 1.8-1.3.5-2.7 1-4 1.6 1.4-.4 2.9-.9 4.3-1.3 1.6-.5 3.2-1 4.7-1.4.8-.2 1.6-.4 2.4-.5.4-.1.8-.1 1.2-.2s.8 0 1.1-.2c.4-.2 1-.2 1.5-.2.1 0-.4-1.5-.4-1.5z"/><ellipse cx="1027.2" cy="756.3" rx=".7" ry=".8"/><path d="m1027.1 755.5s-1.5.2-1.6.2c-.3 0-.6 0-.8.2-.3.2-.8.2-1.2.2-.9.1-1.7.3-2.6.4-1.7.3-3.4.6-5.1 1-1.4.3-2.8.6-4.1.9l4.5-.6c1.6-.2 3.3-.5 4.9-.6.8-.1 1.6-.1 2.5-.2h1.2c.4 0 .8.1 1.2 0 .5-.1 1 0 1.5 0-.1 0-.4-1.5-.4-1.5z"/><ellipse cx="990.2" cy="733.6" rx=".7" ry=".8"/><path d="m990.9 733.4s.4 1.6.4 1.7c.1.3.2.6.1.9 0 .4.1.9.2 1.3.2.9.3 1.8.5 2.8.3 1.8.6 3.7.9 5.5.2 1.5.4 3 .6 4.5-.3-1.6-.7-3.2-1-4.8-.4-1.7-.7-3.5-1.2-5.2-.2-.9-.5-1.7-.7-2.6-.1-.4-.3-.8-.4-1.3-.1-.4-.4-.8-.4-1.2-.1-.5-.3-1-.5-1.5 0 .2 1.5-.1 1.5-.1z"/><ellipse cx="1021.7" cy="760.9" rx=".7" ry=".8"/><path d="m1021.6 760.1s-1.5 0-1.6 0c-.3 0-.6 0-.8.1-.4.1-.8.1-1.2.1-.9.1-1.7.1-2.6.2-1.7.1-3.5.3-5.2.5-1.4.1-2.8.3-4.2.5 1.5-.1 3-.1 4.5-.2 1.6-.1 3.3-.1 4.9-.1.8 0 1.6 0 2.5.1.4 0 .8.1 1.2.1s.8.2 1.2.1c.5-.1 1 .1 1.5.1 0 .1-.2-1.5-.2-1.5z"/><ellipse cx="1023.3" cy="765.2" rx=".7" ry=".8"/><path d="m1023.4 764.4s-1.5-.2-1.6-.3c-.3 0-.6-.1-.8-.1-.4.1-.8-.1-1.2-.1-.9-.1-1.7-.2-2.6-.3-1.7-.2-3.4-.4-5.2-.5-1.4-.1-2.8-.2-4.2-.3 1.5.2 3 .4 4.5.7 1.6.2 3.2.5 4.9.8.8.2 1.6.3 2.4.6.4.1.8.2 1.2.3s.7.3 1.1.3c.5 0 1 .3 1.4.4 0 0 .1-1.5.1-1.5z"/><ellipse cx="1019.3" cy="767.2" rx=".7" ry=".8"/><path d="m1019.4 766.4s-.2-.1-.2-.1c-.1 0-.3-.1-.4-.1-.3-.1-.6-.1-.9-.2-.7-.1-1.3-.3-2-.4s-1.3-.3-2-.4c-.2 0-.3-.1-.5-.1-.1 0-.2 0-.2-.1-.1 0-.1-.1-.2-.1-1.6-.3-3.2-.6-4.8-.9-1.4-.2-2.8-.5-4.2-.7 1.5.4 2.9.7 4.4 1.1l4.8 1.2c.8.2 1.6.5 2.4.8.2.1.3.1.5.2.1 0 .2.1.2.1s.1.1.1.1c.2.1.3.1.5.2.3.1.6.2.9.4h.2.1c.1 0 .3.1.4.2.2.1.4.2.6.3.1.1.3-1.5.3-1.5z"/><ellipse cx="1014.7" cy="778.9" rx=".8" ry=".6" transform="matrix(.5347 -.8451 .8451 .5347 -186.034 1219.9042)"/><path d="m1015.2 778.3s-.8-.9-.8-1c-.2-.2-.3-.4-.5-.5-.3-.1-.5-.4-.7-.7-.5-.5-1-1-1.4-1.5-1-1-2-2-3-2.9-.8-.8-1.6-1.6-2.5-2.3.8.9 1.6 1.8 2.4 2.7.9 1 1.8 2 2.6 3 .4.5.8 1.1 1.2 1.6.2.3.4.6.6.9s.3.6.5.8c.3.3.5.7.7 1-.1.1.9-1.1.9-1.1z"/><ellipse cx="1021.1" cy="772.5" rx=".7" ry=".8"/><path d="m1021.3 771.7c-.2-.1-.3-.2-.4-.2s-.2 0-.3-.1c-.1 0-.3-.1-.4-.2s-.3-.2-.4-.2c-.6-.3-1.2-.6-1.8-.9-.3-.1-.6-.3-.9-.4-.2-.1-.3-.1-.5-.2-.1 0-.1-.1-.2-.1s-.2-.1-.2-.1c-.2-.1-.3-.2-.5-.2-1.6-.7-3.2-1.4-4.8-2.1-1.3-.5-2.6-1.1-4-1.6 1.4.7 2.7 1.3 4.1 2 .8.4 1.5.7 2.3 1.1.2.1.3.1.4.2.1 0 .1.1.2.1.3.1.6.3.9.4l1.8.9c.3.2.6.3.9.5.1.1.3.2.4.3 0 0 .1.1.1.1.1.1.1.1.2.1.6.4 1.1.8 1.7 1.2.3.2.6.4.9.6.1.1.3.2.4.1s0-.4 0-.5 0-.2 0-.3c0-.2.1-.3.2-.5-.1.2-.1.1-.1 0z"/><ellipse cx="1015" cy="772.5" rx=".7" ry=".8"/><path d="m1015.3 771.8s-1.3-.8-1.4-.9c-.3-.2-.5-.3-.8-.4-.4-.1-.7-.4-1-.6-.8-.5-1.5-.9-2.3-1.3-1.5-.9-3.1-1.8-4.6-2.6-1.3-.7-2.5-1.4-3.8-2 1.3.8 2.6 1.6 3.9 2.5 1.4.9 2.8 1.8 4.2 2.8.7.5 1.4 1 2 1.5.3.3.7.5 1 .8.3.2.6.6.9.8.4.2.8.6 1.2 1 .1-.2.7-1.6.7-1.6z"/><ellipse cx="986.5" cy="770.5" rx=".7" ry=".8"/><path d="m987.1 771 7.2-7.6-8.3 6.6z"/><ellipse cx="1009" cy="782.3" rx=".7" ry=".8"/><path d="m1009.5 781.8-6-8.7 4.9 9.8z"/><ellipse cx="983.2" cy="779.2" rx=".7" ry=".8"/><path d="m983.8 779.6 6.1-8.6-7.3 7.8z"/><ellipse cx="995.9" cy="784.1" rx=".7" ry=".8"/><path d="m996.7 784-.1-10.9-1.4 11z"/><ellipse cx="984.9" cy="787.4" rx=".7" ry=".8"/><path d="m985.6 787.6 4.1-9.9-5.5 9.4z"/><ellipse cx="975.4" cy="781" rx="1.1" ry=".7" transform="matrix(.5774 -.8165 .8165 .5774 -225.4129 1126.4575)"/><path d="m975.9 781.5 10.2-11.1-11.3 10z"/><ellipse cx="974.9" cy="775.7" rx="1" ry=".8" transform="matrix(.6759 -.737 .737 .6759 -255.7305 969.9622)"/><path d="m975.4 776.3 11-8.6-11.9 7.4z"/><ellipse cx="970.6" cy="772.9" rx="1.2" ry=".8" transform="matrix(.8227 -.5685 .5685 .8227 -267.3104 688.9158)"/><path d="m971 773.6 14.8-8.2-15.5 6.9z"/><ellipse cx="990.5" cy="785.5" rx="1.3" ry=".7" transform="matrix(.1824 -.9832 .9832 .1824 37.5199 1616.1768)"/><path d="m991.2 785.7 4.4-17.3-5.8 17z"/><ellipse cx="986.7" cy="740.8" rx=".7" ry=".8"/><path d="m986.2 741.4 6.6 8.2-5.6-9.3z"/><ellipse cx="989.9" cy="774.3" rx=".7" ry=".8"/><path d="m990.6 774.6 4.7-9.6-6.1 9z"/><ellipse cx="999.6" cy="781.3" rx=".7" ry=".8"/><path d="m1000.3 781.1-2-10.7.6 11.1z"/><ellipse cx="974.6" cy="765.8" rx=".7" ry=".8"/><path d="m974.9 766.5s1.5-.4 1.5-.4c.3-.1.6-.1.8-.3.3-.2.8-.3 1.1-.4.8-.3 1.7-.5 2.5-.8 1.7-.5 3.3-1.1 4.9-1.7 1.3-.5 2.7-1 4-1.5-1.4.4-2.9.8-4.3 1.3-1.6.5-3.2.9-4.8 1.3-.8.2-1.6.4-2.4.5-.4.1-.8.1-1.2.2-.4 0-.8 0-1.2.2-.5.2-1 .2-1.5.2.1-.1.6 1.4.6 1.4z"/><ellipse cx="967.8" cy="762.6" rx=".7" ry=".8"/><path d="m967.9 763.4s1.5-.2 1.6-.2c.3 0 .6 0 .8-.2.3-.2.8-.2 1.2-.2.9-.1 1.7-.3 2.6-.4 1.7-.3 3.4-.6 5.1-.9 1.4-.3 2.8-.6 4.2-.9-1.5.2-3 .4-4.5.6-1.6.2-3.3.4-4.9.5-.8.1-1.6.1-2.5.1-.4 0-.8 0-1.2 0s-.8-.1-1.2 0c-.5.1-1 0-1.5 0 0 0 .3 1.6.3 1.6z"/><ellipse cx="1006.3" cy="785.3" rx=".7" ry=".8"/><path d="m1005.7 785.6s-.7-1.5-.7-1.5c-.1-.3-.3-.5-.3-.8-.1-.4-.3-.8-.5-1.2-.4-.8-.7-1.7-1.1-2.6-.7-1.7-1.4-3.4-2.1-5.2-.5-1.4-1.1-2.8-1.6-4.2.7 1.5 1.3 2.9 2 4.4.7 1.6 1.4 3.2 2.2 4.7.4.8.8 1.6 1.2 2.3.2.4.4.8.7 1.1.2.3.5.7.6 1 .2.5.5.9.8 1.3.1.1-1.2.7-1.2.7z"/><ellipse cx="973.4" cy="756.8" rx=".7" ry=".8"/><path d="m973.3 757.6s1.5.2 1.6.3c.3 0 .6.1.8.1.4-.1.8.1 1.2.1.9.1 1.7.2 2.6.3 1.7.2 3.4.3 5.2.5 1.4.1 2.8.2 4.2.3-1.5-.2-3-.4-4.5-.6-1.6-.2-3.2-.5-4.9-.8-.8-.2-1.6-.3-2.4-.5-.4-.1-.8-.2-1.2-.3s-.8-.3-1.1-.3c-.5 0-1-.3-1.4-.4 0-.3-.1 1.3-.1 1.3z"/><ellipse cx="976.5" cy="751.4" rx=".7" ry=".8"/><path d="m976.3 752.2s.2.1.2.1c.1.1.3.1.4.2.3.1.6.2.8.3.6.2 1.2.5 1.9.7.6.3 1.2.5 1.9.8.2.1.3.1.5.2.1 0 .2.1.2.1.1 0 .1.1.2.1 1.5.6 3.1 1.2 4.6 1.8 1.3.5 2.7 1 4 1.4-1.4-.6-2.8-1.2-4.2-1.9-1.5-.7-3-1.4-4.5-2.1-.7-.4-1.5-.8-2.2-1.2-.2-.1-.3-.2-.5-.3-.1 0-.2-.1-.2-.1s-.1-.1-.1-.1c-.1-.1-.3-.2-.4-.3-.3-.2-.6-.4-.9-.5-.1 0-.1-.1-.2-.1h-.1c-.1-.1-.3-.2-.4-.2-.2-.1-.4-.3-.6-.4 0 0-.4 1.5-.4 1.5z"/><ellipse cx="981.7" cy="738.4" rx=".8" ry=".6" transform="matrix(.628 -.7782 .7782 .628 -209.4777 1038.5995)"/><path d="m981.1 738.9s.7 1 .7 1.1c.1.2.2.4.4.5.3.2.4.5.6.8.4.6.8 1.1 1.3 1.7.8 1.1 1.7 2.2 2.6 3.3.7.9 1.5 1.8 2.2 2.6-.7-1-1.4-2-2.1-3-.8-1.1-1.5-2.2-2.2-3.4-.4-.6-.7-1.2-1-1.8-.2-.3-.3-.6-.5-.9-.1-.3-.2-.7-.4-.9-.3-.3-.4-.7-.5-1.1 0 .1-1.1 1.1-1.1 1.1z"/><ellipse cx="974.5" cy="745.8" rx=".7" ry=".8"/><path d="m974.1 746.5s.1.1 0 0c.2.1.3.2.4.3s.2.1.3.1c.1.1.3.2.4.2.1.1.3.2.4.3.6.4 1.1.7 1.7 1.1.3.2.6.4.9.5.1.1.3.2.4.3.1 0 .1.1.2.1s.1.1.2.1c.2.1.3.2.5.3 1.5.9 3.1 1.8 4.6 2.6 1.3.7 2.5 1.4 3.8 2-1.3-.8-2.6-1.6-3.9-2.5-.7-.5-1.4-.9-2.1-1.4-.1-.1-.3-.2-.4-.3s-.1-.1-.2-.1c-.3-.2-.6-.3-.9-.5-.6-.3-1.1-.7-1.7-1.1-.3-.2-.5-.4-.8-.6-.1-.1-.3-.2-.4-.3 0 0-.1-.1-.1-.1-.1-.1-.1-.1-.2-.2-.5-.5-1-.9-1.6-1.4-.3-.2-.6-.5-.8-.7-.1-.1-.3-.2-.4-.1s-.1.4-.1.5 0 .2-.1.3-.1.3-.2.4c.2.1.2.2.1.2z"/><ellipse cx="981.3" cy="745" rx=".7" ry=".8"/><path d="m980.8 745.5s1.1 1.2 1.1 1.2c.2.2.4.5.6.6.3.2.6.6.9.9l1.9 1.9c1.3 1.3 2.6 2.5 3.9 3.8 1.1 1 2.1 2 3.2 3-1.1-1.1-2.1-2.3-3.2-3.4-1.2-1.3-2.3-2.5-3.4-3.8-.6-.7-1.1-1.3-1.6-2-.3-.3-.5-.7-.8-1-.2-.3-.4-.7-.7-1-.4-.3-.6-.8-.9-1.3-.1 0-1 1.1-1 1.1z"/><path d="m900.9 735.9c.6-4.9 3-9.5 6.1-13.4l1.2-1.5c.4-.5.9-.9 1.3-1.4.4-.4.9-.9 1.3-1.3l1.4-1.2c.5-.4 1-.8 1.5-1.2l1.5-1.1c1.1-.7 2.1-1.4 3.2-2 4.4-2.4 9.2-4.1 14.1-4.9 1.2-.1 2.5-.4 3.7-.4l1.9-.1h1.9c2.5 0 5 .3 7.4.8-2.5-.2-4.9-.5-7.4-.3-.6 0-1.2 0-1.8.1l-1.8.2c-1.2.1-2.4.4-3.6.5-4.8.9-9.5 2.6-13.7 5-4.3 2.3-8.1 5.5-11.3 9.3-.4.4-.8.9-1.1 1.4l-1.1 1.5c-.7 1-1.3 2.1-1.9 3.1-1.4 2.2-2.3 4.5-2.8 6.9z"/><path d="m914 751.6c1.2-1.7 3.2-2.7 5.2-3.3 1-.3 2-.6 3-.8l1.5-.3 1.5-.2c4.1-.6 8.3-.6 12.4-.1 4.1.6 8.2 1.6 12 3.2.9.4 1.9.8 2.8 1.3l1.4.7 1.3.8c1.8 1 3.5 2.2 5.1 3.5-1.7-1.1-3.5-2.2-5.3-3.1l-1.4-.7-1.4-.6c-.9-.4-1.9-.8-2.8-1.1-3.8-1.4-7.8-2.4-11.8-2.9-2-.3-4-.4-6.1-.5-2 0-4.1.1-6.1.3l-1.5.2-1.5.2c-1 .2-2 .4-3 .6-2 .5-3.9 1.3-5.3 2.8z"/></g></svg>