<?xml version="1.0" encoding="utf-8"?>
<!-- Generator: Adobe Illustrator 25.2.3, SVG Export Plug-In . SVG Version: 6.00 Build 0)  -->
<svg version="1.1" id="Layer_1" xmlns="http://www.w3.org/2000/svg" xmlns:xlink="http://www.w3.org/1999/xlink" x="0px" y="0px"
	 viewBox="0 0 1920 1080" style="enable-background:new 0 0 1920 1080;" xml:space="preserve">
<style type="text/css">
	.st0{fill:#00ACED;}
	.st1{fill:#00BBF1;}
	.st2{fill:#FFFFFF;}
	.st3{fill:#D5D5D5;}
</style>
<g>
	<g>
		<path class="st0" d="M846.4,228.5h-78.8c-0.6,0-1-0.4-1-1v-49c0-0.6,0.4-1,1-1h78.8c0.6,0,1,0.4,1,1v49
			C847.4,228,846.9,228.5,846.4,228.5z M768.5,226.5h76.8v-47h-76.8V226.5z"/>
		<path class="st0" d="M807,204c-0.2,0-0.4-0.1-0.5-0.2L767,179.3c-0.5-0.3-0.6-0.9-0.3-1.4c0.3-0.5,0.9-0.6,1.4-0.3l38.9,24.2
			l38.9-24.2c0.5-0.3,1.1-0.1,1.4,0.3c0.3,0.5,0.1,1.1-0.3,1.4l-39.4,24.5C807.3,203.9,807.1,204,807,204z"/>
	</g>
	<path class="st1" d="M755.4,179.4h-38c-0.6,0-1-0.4-1-1s0.4-1,1-1h38c0.6,0,1,0.4,1,1S756,179.4,755.4,179.4z"/>
	<path class="st1" d="M755.4,191.7h-19c-0.6,0-1-0.4-1-1s0.4-1,1-1h19c0.6,0,1,0.4,1,1S756,191.7,755.4,191.7z"/>
	<path class="st1" d="M745.9,204H725c-0.6,0-1-0.4-1-1s0.4-1,1-1h20.9c0.6,0,1,0.4,1,1S746.5,204,745.9,204z"/>
	<path class="st1" d="M751.2,215.8h-15.7c-0.6,0-1-0.4-1-1s0.4-1,1-1h15.7c0.6,0,1,0.4,1,1S751.8,215.8,751.2,215.8z"/>
	<path class="st1" d="M755.4,228.5h-38c-0.6,0-1-0.4-1-1s0.4-1,1-1h38c0.6,0,1,0.4,1,1S756,228.5,755.4,228.5z"/>
</g>
<g>
	<path class="st0" d="M564.1,217.1c-9.5,0-17.3-7.8-17.3-17.3s7.8-17.3,17.3-17.3c9.5,0,17.3,7.8,17.3,17.3S573.6,217.1,564.1,217.1
		z M564.1,184.4c-8.4,0-15.3,6.9-15.3,15.3c0,8.4,6.9,15.3,15.3,15.3s15.3-6.9,15.3-15.3C579.4,191.3,572.5,184.4,564.1,184.4z"/>
	<g>
		<path class="st0" d="M564.5,209h-0.9v-1.9c-1.3-0.1-2.2-0.4-2.9-0.8c-1.1-0.7-1.7-2-1.6-3.8h2.6c0.1,0.8,0.2,1.4,0.4,1.7
			c0.3,0.4,0.8,0.7,1.5,0.8v-4.2l-0.8-0.2c-1.2-0.4-2.1-0.9-2.6-1.5c-0.5-0.7-0.8-1.4-0.8-2.4c0-0.6,0.1-1.2,0.3-1.7
			c0.2-0.5,0.5-0.9,0.8-1.3c0.5-0.5,1-0.8,1.5-1c0.3-0.1,0.8-0.2,1.5-0.2v-1.3h0.9v1.3c1.1,0.1,1.9,0.3,2.5,0.8
			c1.1,0.7,1.7,1.8,1.7,3.4h-2.6c-0.1-0.6-0.1-1-0.3-1.3c-0.2-0.5-0.7-0.7-1.3-0.8v3.7c1.5,0.5,2.6,1,3.1,1.4
			c0.9,0.7,1.3,1.6,1.3,2.9c0,1.6-0.6,2.8-1.8,3.6c-0.7,0.5-1.6,0.7-2.6,0.8V209z M563.6,194.7c-0.6,0-1,0.2-1.3,0.5
			c-0.3,0.3-0.4,0.7-0.4,1.2c0,0.5,0.2,1,0.6,1.3c0.2,0.2,0.6,0.3,1.1,0.5V194.7z M564.5,204.9c0.5-0.1,0.9-0.2,1.1-0.4
			c0.4-0.3,0.6-0.8,0.6-1.6c0-0.6-0.2-1-0.6-1.3c-0.2-0.2-0.6-0.4-1.1-0.6V204.9z"/>
	</g>
</g>
<g>
	<g>
		<g>
			<line class="st2" x1="557" y1="267.1" x2="577.3" y2="267.1"/>
			<path d="M577.3,268.1H557c-0.6,0-1-0.4-1-1s0.4-1,1-1h20.4c0.6,0,1,0.4,1,1S577.9,268.1,577.3,268.1z"/>
		</g>
		<path d="M573.8,271.7c-0.3,0-0.5-0.1-0.7-0.3c-0.4-0.4-0.4-1,0-1.4l3-3l-2.8-2.8c-0.4-0.4-0.4-1,0-1.4c0.4-0.4,1-0.4,1.4,0
			l3.5,3.5c0.4,0.4,0.4,1,0,1.4l-3.7,3.7C574.3,271.6,574,271.7,573.8,271.7z"/>
	</g>
	<g>
		<g>
			<line class="st2" x1="571.1" y1="275" x2="550.8" y2="275"/>
			<path d="M571.1,276h-20.4c-0.6,0-1-0.4-1-1s0.4-1,1-1h20.4c0.6,0,1,0.4,1,1S571.7,276,571.1,276z"/>
		</g>
		<path d="M554.1,279.7c-0.3,0-0.5-0.1-0.7-0.3l-3.5-3.5c-0.4-0.4-0.4-1,0-1.4l3.7-3.7c0.4-0.4,1-0.4,1.4,0s0.4,1,0,1.4l-3,3
			l2.8,2.8c0.4,0.4,0.4,1,0,1.4C554.6,279.6,554.4,279.7,554.1,279.7z"/>
	</g>
</g>
<g>
	<g>
		<path class="st2" d="M579.7,330.2c-2.3,6.5-8.4,11.1-15.7,11.1c-9.2,0-16.6-7.4-16.6-16.6c0-0.1,0-0.2,0-0.3"/>
		<path d="M564.1,342.3c-9.7,0-17.6-7.9-17.6-17.6l0-0.3c0-0.5,0.5-1,1-1c0,0,0,0,0,0c0.6,0,1,0.5,1,1l0,0.3c0,8.6,7,15.6,15.6,15.6
			c6.6,0,12.5-4.2,14.7-10.4c0.2-0.5,0.8-0.8,1.3-0.6c0.5,0.2,0.8,0.8,0.6,1.3C578.2,337.5,571.5,342.3,564.1,342.3z"/>
	</g>
	<g>
		<path class="st2" d="M548.5,318.9c2.3-6.3,8.4-10.8,15.6-10.8c9.2,0,16.6,7.4,16.6,16.6"/>
		<path d="M580.7,325.7c-0.6,0-1-0.4-1-1c0-8.6-7-15.6-15.6-15.6c-6.5,0-12.4,4.1-14.7,10.2c-0.2,0.5-0.8,0.8-1.3,0.6
			c-0.5-0.2-0.8-0.8-0.6-1.3c2.5-6.9,9.2-11.5,16.5-11.5c9.7,0,17.6,7.9,17.6,17.6C581.7,325.2,581.2,325.7,580.7,325.7z"/>
	</g>
	<g>
		<polyline class="st2" points="582.8,322.4 580.8,324.7 578.5,322.6 		"/>
		<path d="M580.8,325.7c-0.2,0-0.5-0.1-0.7-0.3l-2.2-2.1c-0.4-0.4-0.4-1-0.1-1.4c0.4-0.4,1-0.4,1.4-0.1l1.5,1.4l1.4-1.5
			c0.4-0.4,1-0.4,1.4-0.1s0.4,1,0.1,1.4l-2.1,2.2C581.3,325.6,581,325.7,580.8,325.7z"/>
	</g>
	<g>
		<polyline class="st2" points="545.3,325.8 547.6,323.8 549.6,326.1 		"/>
		<path d="M549.6,327.1c-0.3,0-0.6-0.1-0.8-0.3l-1.3-1.5l-1.5,1.3c-0.4,0.4-1,0.3-1.4-0.1c-0.4-0.4-0.3-1,0.1-1.4l2.3-2
			c0.2-0.2,0.5-0.3,0.7-0.2c0.3,0,0.5,0.1,0.7,0.3l2,2.3c0.4,0.4,0.3,1-0.1,1.4C550.1,327,549.8,327.1,549.6,327.1z"/>
	</g>
</g>
<g>
	<g>
		<path class="st2" d="M570.5,385.5c0.8,0,1.2,0,1.2,0c0.8,0,1.5,0.7,1.5,1.5v15.4c0,0.8-0.7,1.5-1.5,1.5h-15.4
			c-0.8,0-1.5-0.7-1.5-1.5V387c0-0.8,0.7-1.5,1.5-1.5c0,0,0.5,0,1.4,0"/>
		<path d="M571.8,404.8h-15.4c-1.4,0-2.5-1.1-2.5-2.5V387c0-1.4,1.1-2.5,2.5-2.5h1.4c0.6,0,1,0.4,1,1s-0.4,1-1,1h-1.4
			c-0.3,0-0.5,0.2-0.5,0.5v15.4c0,0.3,0.2,0.5,0.5,0.5h15.4c0.3,0,0.5-0.2,0.5-0.5V387c0-0.3-0.2-0.5-0.5-0.5h-1.2c-0.6,0-1-0.4-1-1
			s0.4-1,1-1h1.2c1.4,0,2.5,1.1,2.5,2.5v15.4C574.2,403.7,573.1,404.8,571.8,404.8z"/>
	</g>
	<g>
		<line class="st2" x1="564.1" y1="378" x2="564.1" y2="398.4"/>
		<path d="M564.1,399.4c-0.6,0-1-0.4-1-1V378c0-0.6,0.4-1,1-1s1,0.4,1,1v20.4C565.1,398.9,564.6,399.4,564.1,399.4z"/>
	</g>
	<path d="M564.2,399.6c-0.3,0-0.5-0.1-0.7-0.3l-3.7-3.7c-0.4-0.4-0.4-1,0-1.4s1-0.4,1.4,0l3,3l2.8-2.8c0.4-0.4,1-0.4,1.4,0
		c0.4,0.4,0.4,1,0,1.4l-3.5,3.5C564.7,399.5,564.4,399.6,564.2,399.6z"/>
</g>
<g>
	<path d="M564.1,467.4c-9.5,0-17.3-7.8-17.3-17.3s7.8-17.3,17.3-17.3s17.3,7.8,17.3,17.3S573.6,467.4,564.1,467.4z M564.1,434.8
		c-8.4,0-15.3,6.9-15.3,15.3s6.9,15.3,15.3,15.3s15.3-6.9,15.3-15.3S572.5,434.8,564.1,434.8z"/>
	<path d="M561.1,457.4c-0.3,0-0.5-0.1-0.7-0.3l-4.5-4.5c-0.4-0.4-0.4-1,0-1.4s1-0.4,1.4,0l3.8,3.8l9.7-9.7c0.4-0.4,1-0.4,1.4,0
		s0.4,1,0,1.4l-10.4,10.4C561.6,457.3,561.4,457.4,561.1,457.4z"/>
</g>
<g>
	<path d="M564.1,530c-9.5,0-17.3-7.8-17.3-17.3c0-9.5,7.8-17.3,17.3-17.3s17.3,7.8,17.3,17.3C581.4,522.3,573.6,530,564.1,530z
		 M564.1,497.4c-8.4,0-15.3,6.9-15.3,15.3c0,8.4,6.9,15.3,15.3,15.3c8.4,0,15.3-6.9,15.3-15.3C579.4,504.3,572.5,497.4,564.1,497.4z
		"/>
	<g>
		<path d="M573,514c-1-1.3-2.5-2.5-4.1-3.7c-0.1-1-0.2-2-0.5-3l0,0c0.4-0.1,0.8-0.2,1.1-0.2c1.9-0.3,3.3-0.1,3.7,0.7
			c0.4,0.7,0,2-1.2,3.4l-0.4,0.5l1,0.8l0.4-0.5c1.5-1.9,2-3.7,1.3-4.9c-0.7-1.2-2.5-1.7-5-1.3c-1.6,0.3-3.4,0.9-5.3,1.7
			c-0.9-0.4-1.9-0.8-2.8-1.1c0.7-2.5,1.8-4,2.8-4c0.8,0,1.7,1,2.4,2.7l0.2,0.6l1.2-0.5l-0.2-0.6c-0.9-2.3-2.2-3.6-3.6-3.6
			c-1.4,0-2.7,1.3-3.6,3.7c-0.6,1.5-1,3.4-1.2,5.4c-0.9,0.6-1.6,1.2-2.4,1.9c-1.8-1.9-2.6-3.5-2.1-4.4c0.4-0.7,1.7-1,3.5-0.7
			l0.6,0.1l0.2-1.3l-0.6-0.1c-2.4-0.3-4.1,0.1-4.8,1.3c-0.7,1.2-0.2,3,1.4,5c1,1.3,2.5,2.5,4.1,3.7c0.1,1,0.3,2,0.5,3
			c-2.5,0.6-4.3,0.4-4.9-0.4c-0.4-0.7,0-2,1.2-3.4l0.4-0.5l-1-0.8l-0.4,0.5c-1.5,1.9-2,3.7-1.3,4.9c0.5,0.9,1.7,1.4,3.3,1.4
			c0.5,0,1.1,0,1.7-0.1c1.6-0.3,3.4-0.9,5.3-1.7c0.9,0.4,1.9,0.8,2.8,1.1c-0.7,2.5-1.8,4-2.8,4c-0.8,0-1.7-1-2.4-2.7l-0.2-0.6
			l-1.2,0.5l0.2,0.6c0.9,2.3,2.2,3.5,3.6,3.5c1.4,0,2.7-1.3,3.6-3.7c0.6-1.5,1-3.4,1.2-5.4c0.9-0.6,1.6-1.2,2.3-1.9l0,0
			c1.8,1.9,2.6,3.5,2.1,4.4c-0.4,0.7-1.7,1-3.6,0.7l-0.6-0.1l-0.2,1.3l0.6,0.1c0.5,0.1,1,0.1,1.5,0.1c1.7,0,2.8-0.5,3.4-1.4
			C575.1,517.8,574.6,516,573,514z M567.2,507.7c0.1,0.5,0.2,1.1,0.3,1.7c-0.3-0.2-0.6-0.4-0.9-0.6c-0.3-0.2-0.6-0.4-1-0.5
			C566.1,508.1,566.6,507.9,567.2,507.7z M567.7,513.1c0,0.7,0,1.4-0.1,2.1c-0.6,0.4-1.1,0.7-1.7,1.1c-0.6,0.4-1.2,0.7-1.8,1
			c-0.6-0.3-1.2-0.6-1.8-1c-0.6-0.4-1.2-0.7-1.8-1.1c0-0.7-0.1-1.4-0.1-2.1c0-0.7,0-1.4,0.1-2.1c0.6-0.4,1.1-0.7,1.7-1.1
			c0.6-0.3,1.2-0.7,1.8-1c0.6,0.3,1.2,0.6,1.8,1c0.6,0.4,1.2,0.7,1.8,1.1C567.7,511.7,567.7,512.4,567.7,513.1z M560.9,507.7
			c0.5,0.2,1.1,0.4,1.6,0.6c-0.3,0.2-0.6,0.3-1,0.5c-0.3,0.2-0.6,0.4-0.9,0.6C560.7,508.8,560.8,508.2,560.9,507.7z M557.8,513.1
			c0.4-0.4,0.9-0.7,1.3-1.1c0,0.4,0,0.7,0,1.1c0,0.4,0,0.7,0,1.1C558.7,513.8,558.2,513.5,557.8,513.1z M561,518.5
			c-0.1-0.5-0.2-1.1-0.3-1.7c0.3,0.2,0.6,0.4,0.9,0.6c0.3,0.2,0.6,0.4,1,0.5C562,518.1,561.5,518.3,561,518.5z M567.2,518.5
			c-0.5-0.2-1.1-0.4-1.6-0.6c0.3-0.2,0.6-0.3,1-0.5c0.3-0.2,0.6-0.4,0.9-0.6C567.4,517.4,567.3,517.9,567.2,518.5z M569,512
			c0.5,0.4,0.9,0.7,1.3,1.1c-0.4,0.4-0.9,0.7-1.3,1.1c0-0.4,0-0.7,0-1.1C569,512.7,569,512.3,569,512z"/>
		<circle cx="564" cy="513.1" r="1.5"/>
	</g>
</g>
<g>
	<path d="M564.1,592.6c-9.5,0-17.3-7.8-17.3-17.3s7.8-17.3,17.3-17.3s17.3,7.8,17.3,17.3S573.6,592.6,564.1,592.6z M564.1,560
		c-8.4,0-15.3,6.9-15.3,15.3s6.9,15.3,15.3,15.3c8.4,0,15.3-6.9,15.3-15.3S572.5,560,564.1,560z"/>
	<g>
		<path d="M565.4,570.3h-2.8v-2.6h2.8V570.3z M562.6,571.6h2.8v10.6h-2.8V571.6z"/>
	</g>
</g>
<g>
	<path class="st3" d="M564.1,655.2c-4.1,0-7.5-3.4-7.5-7.5s3.4-7.5,7.5-7.5s7.5,3.4,7.5,7.5S568.2,655.2,564.1,655.2z M564.1,641.2
		c-3.6,0-6.5,2.9-6.5,6.5s2.9,6.5,6.5,6.5s6.5-2.9,6.5-6.5S567.7,641.2,564.1,641.2z"/>
	<g>
		<path class="st3" d="M562.7,651.8v-0.4c0.8-0.1,0.9-0.1,0.9-1v-2.7c0-0.8,0-0.8-0.8-1v-0.3c0.7-0.1,1.3-0.3,1.8-0.5
			c0,0.5,0,1.1,0,1.6v2.8c0,0.9,0.1,0.9,0.9,1v0.4H562.7z M564.1,644.7c-0.4,0-0.7-0.3-0.7-0.7c0-0.4,0.3-0.7,0.7-0.7
			c0.4,0,0.7,0.3,0.7,0.7C564.7,644.4,564.4,644.7,564.1,644.7z"/>
	</g>
</g>
<g>
	<path class="st0" d="M846.4,319.6h-78.8c-0.6,0-1-0.4-1-1v-49c0-0.6,0.4-1,1-1h78.8c0.6,0,1,0.4,1,1v49
		C847.4,319.2,846.9,319.6,846.4,319.6z M768.5,317.6h76.8v-47h-76.8V317.6z"/>
	<path class="st0" d="M807,295.1c-0.2,0-0.4-0.1-0.5-0.2L767,270.5c-0.5-0.3-0.6-0.9-0.3-1.4c0.3-0.5,0.9-0.6,1.4-0.3L807,293
		l38.9-24.2c0.5-0.3,1.1-0.1,1.4,0.3c0.3,0.5,0.1,1.1-0.3,1.4L807.5,295C807.3,295.1,807.1,295.1,807,295.1z"/>
</g>
<g>
	<g>
		<circle class="st2" cx="807" cy="444.8" r="79.8"/>
		<path class="st0" d="M807,525.6c-44.5,0-80.8-36.2-80.8-80.8s36.2-80.8,80.8-80.8s80.8,36.2,80.8,80.8S851.5,525.6,807,525.6z
			 M807,366.1c-43.4,0-78.8,35.3-78.8,78.8c0,43.4,35.3,78.8,78.8,78.8c43.4,0,78.8-35.3,78.8-78.8
			C885.7,401.4,850.4,366.1,807,366.1z"/>
	</g>
	<g>
		<polyline class="st2" points="805.6,389 805.6,454 840.2,437.2 		"/>
		<path class="st0" d="M805.6,455c-0.2,0-0.4-0.1-0.5-0.2c-0.3-0.2-0.5-0.5-0.5-0.8V389c0-0.6,0.4-1,1-1s1,0.4,1,1v63.5l33.1-16.2
			c0.5-0.2,1.1,0,1.3,0.5c0.2,0.5,0,1.1-0.5,1.3l-34.6,16.9C805.9,455,805.8,455,805.6,455z"/>
	</g>
</g>
<g>
	<g>
		<circle class="st2" cx="807" cy="586.1" r="28.7"/>
		<path class="st0" d="M807,615.8c-16.4,0-29.7-13.3-29.7-29.7c0-16.4,13.3-29.7,29.7-29.7s29.7,13.3,29.7,29.7
			C836.7,602.5,823.3,615.8,807,615.8z M807,558.4c-15.3,0-27.7,12.4-27.7,27.7c0,15.3,12.4,27.7,27.7,27.7
			c15.3,0,27.7-12.4,27.7-27.7C834.7,570.8,822.2,558.4,807,558.4z"/>
	</g>
	<g>
		<polyline class="st2" points="789.2,593.7 797,585.9 822.2,585.9 		"/>
		<path class="st0" d="M789.2,594.7c-0.3,0-0.5-0.1-0.7-0.3c-0.4-0.4-0.4-1,0-1.4l7.7-7.7c0.2-0.2,0.4-0.3,0.7-0.3h25.2
			c0.6,0,1,0.4,1,1s-0.4,1-1,1h-24.8l-7.5,7.5C789.7,594.6,789.5,594.7,789.2,594.7z"/>
	</g>
	<path class="st0" d="M815.9,595.5c-0.3,0-0.5-0.1-0.7-0.3c-0.4-0.4-0.4-1,0-1.4l7.8-7.8l-7.7-7.7c-0.4-0.4-0.4-1,0-1.4s1-0.4,1.4,0
		l8.4,8.4c0.4,0.4,0.4,1,0,1.4l-8.5,8.5C816.4,595.4,816.2,595.5,815.9,595.5z"/>
</g>
<g>
	<g>
		<g>
			<circle class="st1" cx="724.9" cy="681" r="0.7"/>
			<polygon class="st1" points="725.5,681.1 725.3,690.2 724.2,680.9 			"/>
		</g>
		<g>
			<circle class="st1" cx="744.9" cy="686.9" r="0.7"/>
			<polygon class="st1" points="745,687.6 736,689.3 744.9,686.3 			"/>
		</g>
		<g>
			<circle class="st1" cx="726.9" cy="671.9" r="0.7"/>
			<polygon class="st1" points="727.6,672 726.8,681.2 726.3,671.8 			"/>
		</g>
		<g>
			<circle class="st1" cx="738.3" cy="676.7" r="0.7"/>
			<polygon class="st1" points="738.7,677.2 732.6,684 737.8,676.2 			"/>
		</g>
		<g>
			<circle class="st1" cx="732.7" cy="667.9" r="0.7"/>
			<polygon class="st1" points="733.3,668.2 730.5,676.9 732.1,667.7 			"/>
		</g>
		<g>
			
				<ellipse transform="matrix(1.128844e-02 -0.9999 0.9999 1.128844e-02 48.4487 1381.1714)" class="st1" cx="722.7" cy="666.1" rx="1" ry="0.7"/>
			<polygon class="st1" points="723.3,666.1 723.9,679.2 722,666.1 			"/>
		</g>
		<g>
			<circle class="st1" cx="722.9" cy="686.2" r="0.7"/>
			<polygon class="st1" points="723.6,686.1 725.1,695.2 722.3,686.2 			"/>
		</g>
		<g>
			
				<ellipse transform="matrix(0.9898 -0.1426 0.1426 0.9898 -88.07 109.4404)" class="st1" cx="719.4" cy="669.1" rx="0.7" ry="0.9"/>
			<polygon class="st1" points="720,669 722.6,681.1 718.7,669.2 			"/>
		</g>
		<g>
			
				<ellipse transform="matrix(0.9522 -0.3053 0.3053 0.9522 -169.8783 250.1937)" class="st1" cx="714.9" cy="668.2" rx="0.7" ry="1.1"/>
			<polygon class="st1" points="715.5,668 720.9,682.1 714.3,668.4 			"/>
		</g>
		<g>
			
				<ellipse transform="matrix(0.4979 -0.8672 0.8672 0.4979 -213.9612 975.4276)" class="st1" cx="735.5" cy="672.5" rx="1.1" ry="0.7"/>
			<polygon class="st1" points="736,672.8 729.2,686.3 734.9,672.2 			"/>
		</g>
		<g>
			<circle class="st1" cx="713.8" cy="696.2" r="0.7"/>
			<polygon class="st1" points="713.8,695.6 722.9,694.5 713.9,696.9 			"/>
		</g>
		<g>
			<circle class="st1" cx="728.7" cy="679.1" r="0.7"/>
			<polygon class="st1" points="729.3,679.4 727,688.2 728,678.9 			"/>
		</g>
		<g>
			<circle class="st1" cx="736.5" cy="682.1" r="0.7"/>
			<polygon class="st1" points="736.9,682.7 730.4,689.1 736,681.6 			"/>
		</g>
		<g>
			
				<ellipse transform="matrix(0.8246 -0.5657 0.5657 0.8246 -262.0038 534.7701)" class="st1" cx="731.5" cy="690" rx="0.5" ry="0.7"/>
			<polygon class="st1" points="731.9,690.5 726.4,695.2 731.1,689.4 			"/>
		</g>
		<g>
			<circle class="st1" cx="713.5" cy="675.1" r="0.7"/>
			<path class="st1" d="M714.1,674.8c0,0,0.8,1.1,0.8,1.2c0.2,0.2,0.3,0.4,0.4,0.7c0.1,0.3,0.4,0.6,0.5,0.9c0.4,0.7,0.8,1.3,1.2,2
				c0.8,1.4,1.6,2.7,2.4,4.1c0.6,1.1,1.2,2.2,1.9,3.4c-0.7-1.1-1.5-2.3-2.2-3.4c-0.8-1.3-1.6-2.5-2.5-3.7c-0.4-0.6-0.9-1.2-1.4-1.8
				c-0.2-0.3-0.5-0.6-0.7-0.9c-0.2-0.3-0.5-0.5-0.7-0.8c-0.2-0.4-0.6-0.7-0.9-1C713,675.4,714.1,674.8,714.1,674.8z"/>
		</g>
		<g>
			<circle class="st1" cx="707.1" cy="672.9" r="0.7"/>
			<path class="st1" d="M707.7,672.5c0,0,0.9,1,1,1.1c0.2,0.2,0.4,0.4,0.5,0.6c0.1,0.3,0.4,0.6,0.7,0.8c0.5,0.6,1,1.2,1.5,1.8
				c1,1.2,2,2.5,2.9,3.7c0.8,1,1.6,2,2.3,3.1c-0.9-1-1.8-2.1-2.7-3.1c-1-1.1-2-2.2-3-3.3c-0.5-0.5-1-1.1-1.6-1.6
				c-0.3-0.3-0.6-0.5-0.8-0.7c-0.3-0.2-0.6-0.4-0.8-0.7c-0.3-0.4-0.7-0.6-1-0.9C706.6,673.3,707.7,672.5,707.7,672.5z"/>
		</g>
		<g>
			<circle class="st1" cx="745.1" cy="680.9" r="0.7"/>
			<path class="st1" d="M744.7,680.4c0,0-1.1,0.8-1.2,0.8c-0.2,0.2-0.4,0.3-0.6,0.5c-0.2,0.3-0.6,0.5-0.8,0.7
				c-0.6,0.5-1.3,1-1.9,1.4c-1.2,1-2.5,2-3.7,3c-1,0.8-2,1.6-3,2.5c1.1-0.8,2.2-1.6,3.3-2.4c1.2-0.9,2.4-1.8,3.7-2.6
				c0.6-0.4,1.3-0.8,1.9-1.2c0.3-0.2,0.7-0.4,1-0.5c0.3-0.2,0.7-0.3,0.9-0.5c0.3-0.3,0.8-0.5,1.2-0.7
				C745.6,681.4,744.7,680.4,744.7,680.4z"/>
		</g>
		<g>
			<circle class="st1" cx="708.3" cy="679.1" r="0.7"/>
			<path class="st1" d="M708.8,678.7c0,0,1,0.9,1.1,1c0.2,0.2,0.4,0.3,0.5,0.6c0.2,0.3,0.5,0.5,0.7,0.8c0.6,0.6,1.1,1.1,1.7,1.7
				c1.1,1.1,2.2,2.3,3.3,3.4c0.9,0.9,1.7,1.9,2.6,2.9c-1-0.9-2-1.9-3-2.8c-1.1-1-2.2-2.1-3.3-3c-0.6-0.5-1.1-1-1.7-1.4
				c-0.3-0.2-0.6-0.5-0.9-0.7c-0.3-0.2-0.6-0.4-0.9-0.6c-0.3-0.3-0.7-0.6-1.1-0.8C707.9,679.6,708.8,678.7,708.8,678.7z"/>
		</g>
		<g>
			<circle class="st1" cx="704.9" cy="680.8" r="0.7"/>
			<path class="st1" d="M705.3,680.3c0,0,1.2,0.7,1.2,0.8c0.2,0.1,0.4,0.3,0.6,0.5c0.2,0.3,0.6,0.4,0.9,0.6c0.6,0.4,1.3,0.9,1.9,1.4
				c1.3,0.9,2.6,1.8,3.8,2.8c1,0.8,2,1.6,3.1,2.4c-1.1-0.8-2.3-1.5-3.4-2.3c-1.2-0.8-2.5-1.7-3.8-2.4c-0.6-0.4-1.3-0.8-2-1.1
				c-0.3-0.2-0.7-0.3-1-0.5c-0.3-0.1-0.7-0.3-1-0.5c-0.3-0.3-0.8-0.4-1.2-0.6C704.5,681.4,705.3,680.3,705.3,680.3z"/>
		</g>
		<g>
			<circle class="st1" cx="706.5" cy="684.5" r="0.7"/>
			<path class="st1" d="M706.8,684c0,0,0.2,0.1,0.2,0.1c0.1,0,0.2,0.1,0.3,0.2c0.2,0.1,0.5,0.3,0.7,0.4c0.5,0.3,1,0.6,1.6,0.9
				c0.5,0.3,1,0.6,1.6,0.9c0.1,0.1,0.3,0.2,0.4,0.2c0.1,0,0.1,0.1,0.2,0.1c0.1,0,0.1,0,0.2,0.1c1.3,0.8,2.6,1.5,3.8,2.3
				c1.1,0.7,2.2,1.4,3.2,2.1c-1.2-0.7-2.4-1.3-3.6-2c-1.3-0.7-2.6-1.4-4-2.1c-0.7-0.3-1.4-0.6-2-0.9c-0.2-0.1-0.3-0.1-0.5-0.2
				c-0.1,0-0.1-0.1-0.2-0.1c0,0-0.1,0-0.1,0c-0.1-0.1-0.3-0.1-0.4-0.2c-0.3-0.1-0.6-0.2-0.8-0.3c-0.1,0-0.1,0-0.1-0.1
				c0,0-0.1-0.1-0.1-0.1c-0.1-0.1-0.3-0.1-0.4-0.2c-0.2-0.1-0.4-0.1-0.6-0.2C706.1,685.1,706.8,684,706.8,684z"/>
		</g>
		<g>
			
				<ellipse transform="matrix(1.128873e-02 -0.9999 0.9999 1.128873e-02 0.5488 1389.9766)" class="st1" cx="703.2" cy="694.7" rx="0.7" ry="0.5"/>
			<path class="st1" d="M703.2,694.1c0,0,1.1-0.1,1.1-0.1c0.2,0,0.4-0.1,0.6,0c0.3,0.1,0.6,0,0.8,0c0.6,0,1.2-0.1,1.8-0.1
				c1.2,0,2.4-0.1,3.7-0.1c1,0,2,0,3,0c-1.1,0.1-2.1,0.2-3.2,0.3c-1.2,0.1-2.3,0.2-3.5,0.3c-0.6,0.1-1.2,0.2-1.7,0.3
				c-0.3,0.1-0.6,0.1-0.9,0.2c-0.3,0.1-0.5,0.2-0.8,0.2c-0.3,0-0.7,0.2-1,0.3C703.1,695.4,703.2,694.1,703.2,694.1z"/>
		</g>
		<g>
			<circle class="st1" cx="702.4" cy="686.8" r="0.7"/>
			<path class="st1" d="M702.6,686.2C702.6,686.2,702.7,686.2,702.6,686.2c0.2,0,0.3,0.1,0.4,0.1c0.1,0,0.2,0.1,0.2,0.1
				c0.1,0.1,0.3,0.1,0.4,0.1c0.1,0,0.3,0.1,0.4,0.1c0.6,0.2,1.2,0.4,1.7,0.5c0.3,0.1,0.6,0.2,0.9,0.3c0.1,0,0.3,0.1,0.4,0.1
				c0.1,0,0.1,0,0.2,0.1c0.1,0,0.1,0.1,0.2,0.1c0.2,0.1,0.3,0.1,0.5,0.2c1.5,0.5,3,1,4.5,1.6c1.2,0.4,2.4,0.9,3.6,1.4
				c-1.3-0.4-2.6-0.8-3.9-1.2c-0.7-0.2-1.4-0.4-2.2-0.7c-0.1,0-0.3-0.1-0.4-0.1c-0.1,0-0.1,0-0.2-0.1c-0.3-0.1-0.6-0.2-0.8-0.3
				c-0.6-0.2-1.1-0.3-1.7-0.5c-0.3-0.1-0.6-0.1-0.9-0.2c-0.1,0-0.3-0.1-0.4-0.1c0,0-0.1,0-0.1,0c-0.1,0-0.1,0-0.2,0c0,0,0,0,0,0
				c-0.6-0.1-1.2-0.2-1.8-0.3c-0.3,0-0.6-0.1-1-0.1c-0.1,0-0.3-0.1-0.3-0.2c0-0.2,0.2-0.2,0.3-0.3c0.1-0.1,0.1-0.1,0.1-0.2
				c0.1-0.1,0.1-0.3,0.1-0.4C702.6,686.3,702.6,686.3,702.6,686.2z"/>
		</g>
		<g>
			<circle class="st1" cx="706.5" cy="690.5" r="0.7"/>
			<path class="st1" d="M706.6,689.9c0,0,1.3,0.2,1.4,0.3c0.3,0,0.5,0.1,0.7,0.2c0.3,0.2,0.7,0.2,1,0.3c0.8,0.2,1.5,0.3,2.3,0.5
				c1.5,0.4,3.1,0.7,4.6,1.1c1.2,0.3,2.5,0.7,3.7,1c-1.3-0.3-2.7-0.5-4-0.8c-1.5-0.3-2.9-0.6-4.4-0.8c-0.7-0.1-1.5-0.2-2.2-0.3
				c-0.4,0-0.7-0.1-1.1-0.1c-0.3,0-0.7,0-1.1-0.1c-0.4-0.1-0.9-0.1-1.4-0.1C706.3,691.2,706.6,689.9,706.6,689.9z"/>
		</g>
		<g>
			<circle class="st1" cx="727.1" cy="706.4" r="0.7"/>
			<polygon class="st1" points="726.4,706.4 725.7,697.2 727.7,706.4 			"/>
		</g>
		<g>
			<circle class="st1" cx="705.1" cy="700.3" r="0.7"/>
			<polygon class="st1" points="705.1,699.7 714,697.9 705.2,701 			"/>
		</g>
		<g>
			<circle class="st1" cx="724.5" cy="713.9" r="0.7"/>
			<polygon class="st1" points="723.9,713.8 724.5,704.7 725.2,714 			"/>
		</g>
		<g>
			<circle class="st1" cx="713.1" cy="709.3" r="0.7"/>
			<polygon class="st1" points="712.6,708.8 718.7,702 713.5,709.8 			"/>
		</g>
		<g>
			<circle class="st1" cx="718.8" cy="718" r="0.7"/>
			<polygon class="st1" points="718.2,717.8 720.9,709 719.4,718.3 			"/>
		</g>
		<g>
			
				<ellipse transform="matrix(1 -2.552326e-03 2.552326e-03 1 -1.8346 1.8627)" class="st1" cx="728.9" cy="719.7" rx="0.7" ry="1"/>
			<polygon class="st1" points="728.2,719.7 727.4,706.6 729.5,719.7 			"/>
		</g>
		<g>
			
				<ellipse transform="matrix(0.9877 -0.1563 0.1563 0.9877 -103.0248 123.2404)" class="st1" cx="732.1" cy="716.7" rx="0.7" ry="0.9"/>
			<polygon class="st1" points="731.4,716.8 728.7,704.7 732.7,716.6 			"/>
		</g>
		<g>
			
				<ellipse transform="matrix(0.9479 -0.3185 0.3185 0.9479 -190.1621 271.9554)" class="st1" cx="736.6" cy="717.5" rx="0.7" ry="1.1"/>
			<polygon class="st1" points="736,717.7 730.4,703.7 737.2,717.3 			"/>
		</g>
		<g>
			
				<ellipse transform="matrix(0.4859 -0.874 0.874 0.4859 -255.4988 992.5907)" class="st1" cx="716" cy="713.5" rx="1.1" ry="0.7"/>
			<polygon class="st1" points="715.4,713.2 722.1,699.6 716.6,713.8 			"/>
		</g>
		<g>
			<circle class="st1" cx="743.5" cy="687.5" r="0.7"/>
			<polygon class="st1" points="743.5,688.2 734.4,689.4 743.4,686.9 			"/>
		</g>
		<g>
			<circle class="st1" cx="722.7" cy="706.7" r="0.7"/>
			<polygon class="st1" points="722,706.5 724.2,697.6 723.3,707 			"/>
		</g>
		<g>
			<circle class="st1" cx="712.1" cy="705.3" r="0.7"/>
			<polygon class="st1" points="711.8,704.7 719.1,699.2 712.5,705.9 			"/>
		</g>
		<g>
			<circle class="st1" cx="737.9" cy="710.6" r="0.7"/>
			<path class="st1" d="M737.3,710.9c0,0-0.8-1.1-0.8-1.2c-0.2-0.2-0.3-0.4-0.4-0.7c-0.1-0.3-0.4-0.6-0.5-0.9
				c-0.4-0.7-0.8-1.3-1.3-2c-0.8-1.3-1.6-2.7-2.4-4.1c-0.6-1.1-1.3-2.2-1.9-3.4c0.8,1.1,1.5,2.3,2.3,3.4c0.8,1.2,1.7,2.5,2.5,3.7
				c0.4,0.6,0.9,1.2,1.4,1.8c0.2,0.3,0.5,0.6,0.7,0.9c0.2,0.3,0.5,0.5,0.7,0.8c0.2,0.4,0.6,0.7,0.9,1
				C738.4,710.3,737.3,710.9,737.3,710.9z"/>
		</g>
		<g>
			<circle class="st1" cx="744.3" cy="712.7" r="0.7"/>
			<path class="st1" d="M743.8,713.1c0,0-0.9-1-1-1.1c-0.2-0.2-0.4-0.4-0.5-0.6c-0.2-0.3-0.5-0.6-0.7-0.8c-0.5-0.6-1-1.2-1.5-1.8
				c-1-1.2-2-2.4-3-3.7c-0.8-1-1.6-2-2.4-3c0.9,1,1.8,2,2.7,3c1,1.1,2,2.2,3,3.3c0.5,0.5,1.1,1.1,1.6,1.6c0.3,0.3,0.6,0.5,0.8,0.7
				c0.3,0.2,0.6,0.4,0.8,0.7c0.3,0.4,0.7,0.6,1,0.9C744.8,712.3,743.8,713.1,743.8,713.1z"/>
		</g>
		<g>
			<circle class="st1" cx="705.3" cy="703.8" r="0.7"/>
			<path class="st1" d="M705.6,704.4c0,0,1.3-0.5,1.3-0.5c0.3-0.1,0.5-0.2,0.7-0.3c0.3-0.2,0.7-0.3,1-0.5c0.7-0.3,1.4-0.6,2.2-1
				c1.4-0.7,2.9-1.3,4.3-2c1.2-0.6,2.3-1.1,3.4-1.7c-1.3,0.5-2.5,1-3.8,1.6c-1.4,0.6-2.8,1.1-4.2,1.6c-0.7,0.3-1.4,0.5-2.1,0.7
				c-0.4,0.1-0.7,0.2-1.1,0.3c-0.3,0.1-0.7,0.1-1,0.3c-0.4,0.2-0.9,0.3-1.3,0.4C705,703.2,705.6,704.4,705.6,704.4z"/>
		</g>
		<g>
			<circle class="st1" cx="743.7" cy="705.7" r="0.7"/>
			<path class="st1" d="M743.3,706.2c0,0-1.1-0.7-1.2-0.8c-0.2-0.1-0.4-0.3-0.6-0.5c-0.2-0.3-0.6-0.4-0.9-0.6
				c-0.6-0.5-1.3-0.9-1.9-1.4c-1.3-0.9-2.5-1.9-3.8-2.8c-1-0.8-2-1.6-3-2.4c1.1,0.8,2.3,1.5,3.4,2.3c1.2,0.8,2.5,1.7,3.8,2.4
				c0.6,0.4,1.3,0.8,2,1.1c0.3,0.2,0.7,0.3,1,0.5c0.3,0.1,0.7,0.3,0.9,0.5c0.3,0.3,0.8,0.4,1.2,0.6
				C744.1,705.2,743.3,706.2,743.3,706.2z"/>
		</g>
		<g>
			<circle class="st1" cx="744.5" cy="700.4" r="0.7"/>
			<path class="st1" d="M744.3,701c0,0-0.2-0.1-0.2-0.1c-0.1,0-0.2-0.1-0.4-0.1c-0.2-0.1-0.5-0.2-0.7-0.3c-0.6-0.2-1.1-0.4-1.7-0.7
				s-1.1-0.4-1.7-0.6c-0.1-0.1-0.3-0.1-0.4-0.2c-0.1,0-0.1-0.1-0.2-0.1c-0.1,0-0.1,0-0.2,0c-1.4-0.5-2.8-1.1-4.2-1.7
				c-1.2-0.5-2.4-1-3.5-1.5c1.3,0.4,2.6,0.9,3.9,1.3c1.4,0.5,2.8,1,4.3,1.4c0.7,0.2,1.4,0.4,2.2,0.6c0.2,0,0.3,0.1,0.5,0.1
				c0.1,0,0.2,0,0.2,0c0,0,0.1,0,0.1,0c0.1,0,0.3,0.1,0.4,0.1c0.3,0.1,0.6,0.1,0.9,0.2c0.1,0,0.1,0,0.2,0c0,0,0.1,0,0.1,0.1
				c0.1,0,0.3,0.1,0.4,0.1c0.2,0,0.4,0.1,0.6,0.1C744.8,699.8,744.3,701,744.3,701z"/>
		</g>
		<g>
			
				<ellipse transform="matrix(0.9933 -0.1153 0.1153 0.9933 -74.4765 90.8908)" class="st1" cx="748.2" cy="689.1" rx="0.5" ry="0.7"/>
			<path class="st1" d="M748.3,689.7c0,0-1,0.2-1.1,0.3c-0.2,0-0.4,0.1-0.6,0.1c-0.3,0-0.6,0.1-0.8,0.1c-0.6,0.1-1.2,0.2-1.8,0.3
				c-1.2,0.2-2.4,0.4-3.6,0.5c-1,0.1-2,0.2-3,0.3c1-0.2,2.1-0.4,3.1-0.7c1.1-0.2,2.3-0.5,3.4-0.8c0.6-0.2,1.1-0.3,1.7-0.5
				c0.3-0.1,0.6-0.2,0.8-0.3c0.2-0.1,0.5-0.3,0.8-0.3c0.3,0,0.7-0.2,1-0.4C748.2,688.4,748.3,689.7,748.3,689.7z"/>
		</g>
		<g>
			<circle class="st1" cx="749" cy="698.1" r="0.7"/>
			<path class="st1" d="M748.9,698.7C748.9,698.7,748.8,698.7,748.9,698.7c-0.2,0-0.3,0-0.4-0.1c-0.1,0-0.2-0.1-0.2-0.1
				c-0.1-0.1-0.3-0.1-0.4-0.1c-0.1,0-0.3,0-0.4-0.1c-0.6-0.1-1.2-0.2-1.8-0.4c-0.3-0.1-0.6-0.1-0.9-0.2c-0.1,0-0.3-0.1-0.4-0.1
				c-0.1,0-0.1,0-0.2-0.1c-0.1,0-0.1,0-0.2-0.1c-0.2,0-0.3-0.1-0.5-0.1c-1.5-0.3-3.1-0.7-4.6-1.1c-1.2-0.3-2.5-0.7-3.7-1
				c1.3,0.3,2.7,0.5,4,0.8c0.7,0.1,1.5,0.3,2.2,0.4c0.2,0,0.3,0.1,0.5,0.1c0.1,0,0.1,0,0.2,0c0.3,0.1,0.6,0.1,0.9,0.2
				c0.6,0.1,1.2,0.2,1.8,0.3c0.3,0,0.6,0.1,0.9,0.1c0.2,0,0.3,0,0.5,0c0,0,0.1,0,0.1,0c0.1,0,0.1,0,0.2,0c0,0,0,0,0,0
				c0.6,0,1.2,0,1.8,0.1c0.3,0,0.7,0,1,0c0.1,0,0.3,0,0.3,0.2c0,0.2-0.2,0.3-0.3,0.4c-0.1,0.1-0.1,0.1-0.1,0.2
				c0,0.1-0.1,0.3-0.1,0.4C748.9,698.6,748.9,698.7,748.9,698.7z"/>
		</g>
		<g>
			<circle class="st1" cx="744.9" cy="693.4" r="0.7"/>
			<path class="st1" d="M744.9,694.1c0,0-1.4,0.1-1.4,0.1c-0.3,0-0.5,0.1-0.8,0c-0.3-0.1-0.7,0-1.1,0c-0.8,0-1.6,0.1-2.4,0.1
				c-1.6,0-3.2,0.1-4.7,0.1c-1.3,0-2.6,0-3.9,0c1.4-0.1,2.7-0.2,4.1-0.2c1.5-0.1,3-0.2,4.5-0.3c0.7-0.1,1.5-0.2,2.2-0.3
				c0.4-0.1,0.7-0.1,1.1-0.2c0.3-0.1,0.7-0.2,1-0.2c0.4,0,0.9-0.2,1.3-0.2C744.9,692.8,744.9,694.1,744.9,694.1z"/>
		</g>
	</g>
	<g>
		<g>
			<ellipse class="st1" cx="714.8" cy="734.3" rx="1.2" ry="1.1"/>
			<polygon class="st1" points="715.7,733.6 726.1,745.8 713.8,734.9 			"/>
		</g>
		<g>
			<ellipse class="st1" cx="748.3" cy="719" rx="1.2" ry="1.1"/>
			<polygon class="st1" points="749.1,719.8 739.2,732.3 747.4,718.3 			"/>
		</g>
		<g>
			<ellipse class="st1" cx="706.9" cy="720.2" rx="1.2" ry="1.1"/>
			<polygon class="st1" points="707.9,719.6 717.6,732.3 705.9,720.8 			"/>
		</g>
		<g>
			<ellipse class="st1" cx="727.6" cy="713.4" rx="1.2" ry="1.1"/>
			<polygon class="st1" points="728.7,713.5 728.5,729.4 726.4,713.2 			"/>
		</g>
		<g>
			<ellipse class="st1" cx="709.8" cy="708.3" rx="1.2" ry="1.1"/>
			<polygon class="st1" points="710.9,708 717.4,722.5 708.7,708.7 			"/>
		</g>
		<g>
			
				<ellipse transform="matrix(0.7402 -0.6724 0.6724 0.7402 -302.001 653.3632)" class="st1" cx="694.4" cy="717.4" rx="1.2" ry="1.7"/>
			<polygon class="st1" points="695.3,716.7 711.5,733.1 693.5,718.2 			"/>
		</g>
		<g>
			<ellipse class="st1" cx="718.2" cy="743.3" rx="1.2" ry="1.1"/>
			<polygon class="st1" points="719,742.5 731.6,752.5 717.4,744.1 			"/>
		</g>
		<g>
			
				<ellipse transform="matrix(0.6246 -0.781 0.781 0.6246 -305.8702 813.8632)" class="st1" cx="693.6" cy="725.1" rx="1.2" ry="1.6"/>
			<polygon class="st1" points="694.3,724.2 711.8,737.1 692.8,725.9 			"/>
		</g>
		<g>
			
				<ellipse transform="matrix(0.4977 -0.8674 0.8674 0.4977 -287.4658 961.7372)" class="st1" cx="686.6" cy="729" rx="1.2" ry="1.9"/>
			<polygon class="st1" points="687.2,728.1 710.8,740.3 686,730 			"/>
		</g>
		<g>
			
				<ellipse transform="matrix(0.9782 -0.2076 0.2076 0.9782 -131.988 164.7594)" class="st1" cx="718.9" cy="711.1" rx="1.2" ry="1.9"/>
			<polygon class="st1" points="720,710.9 726.7,736.3 717.7,711.3 			"/>
		</g>
		<g>
			<ellipse class="st1" cx="717.9" cy="766.8" rx="1.2" ry="1.1"/>
			<polygon class="st1" points="717.1,766 727.9,754.1 718.7,767.6 			"/>
		</g>
		<g>
			<ellipse class="st1" cx="717.6" cy="727.5" rx="1.2" ry="1.1"/>
			<polygon class="st1" points="718.7,727.1 726.1,741.2 716.5,728 			"/>
		</g>
		<g>
			<ellipse class="st1" cx="731.4" cy="722.5" rx="1.2" ry="1.1"/>
			<polygon class="st1" points="732.6,722.7 731.5,738.5 730.3,722.3 			"/>
		</g>
		<g>
			
				<ellipse transform="matrix(0.2281 -0.9736 0.9736 0.2281 -152.3345 1284.5582)" class="st1" cx="734" cy="738.4" rx="0.9" ry="1.2"/>
			<polygon class="st1" points="735.1,738.6 733.4,751 732.9,738.1 			"/>
		</g>
		<g>
			<ellipse class="st1" cx="692.9" cy="739.6" rx="1.2" ry="1.1"/>
			<path class="st1" d="M693.2,738.5c0,0,2.3,0.6,2.5,0.6c0.5,0.1,0.9,0.2,1.3,0.4c0.5,0.3,1.2,0.4,1.8,0.6c1.3,0.4,2.7,0.8,4,1.2
				c2.7,0.8,5.3,1.7,7.9,2.6c2.1,0.7,4.3,1.5,6.4,2.3c-2.3-0.6-4.6-1.3-7-1.9c-2.5-0.7-5.1-1.4-7.6-2c-1.3-0.3-2.6-0.6-3.9-0.8
				c-0.7-0.1-1.3-0.2-2-0.3c-0.6-0.1-1.3-0.1-1.8-0.3c-0.7-0.3-1.6-0.3-2.4-0.4C692.5,740.7,693.2,738.5,693.2,738.5z"/>
		</g>
		<g>
			<ellipse class="st1" cx="681.8" cy="744.1" rx="1.2" ry="1.1"/>
			<path class="st1" d="M682,742.9c0,0,2.4,0.3,2.5,0.3c0.5,0.1,0.9,0.1,1.3,0.3c0.6,0.2,1.3,0.2,1.9,0.3c1.4,0.2,2.8,0.4,4.1,0.6
				c2.7,0.4,5.5,0.9,8.2,1.4c2.2,0.4,4.5,0.9,6.7,1.3c-2.4-0.3-4.8-0.6-7.2-0.9c-2.6-0.3-5.2-0.7-7.9-0.9c-1.3-0.1-2.6-0.2-4-0.2
				c-0.7,0-1.3,0-2,0c-0.6,0-1.3,0.1-1.9,0c-0.8-0.2-1.6,0-2.4,0C681.5,745.2,682,742.9,682,742.9z"/>
		</g>
		<g>
			<ellipse class="st1" cx="741.5" cy="710.9" rx="1.2" ry="1.1"/>
			<path class="st1" d="M740.3,710.8c0,0-0.6,2.3-0.6,2.4c-0.1,0.5-0.2,0.9-0.2,1.3c0,0.6-0.2,1.3-0.3,1.8c-0.3,1.3-0.5,2.7-0.8,4
				c-0.5,2.7-1,5.4-1.5,8.1c-0.4,2.2-0.7,4.4-1,6.6c0.5-2.3,1.1-4.6,1.6-6.9c0.6-2.5,1.2-5.1,1.9-7.6c0.3-1.3,0.7-2.5,1.1-3.7
				c0.2-0.6,0.4-1.2,0.7-1.8c0.2-0.5,0.6-1.1,0.7-1.7c0.1-0.8,0.5-1.5,0.8-2.2C742.6,711.1,740.3,710.8,740.3,710.8z"/>
		</g>
		<g>
			<ellipse class="st1" cx="690.7" cy="750.8" rx="1.2" ry="1.1"/>
			<path class="st1" d="M690.8,749.7c0,0,2.4,0.1,2.6,0.1c0.5,0,0.9,0,1.4,0.1c0.6,0.2,1.3,0.1,1.9,0.2c1.4,0.1,2.8,0.2,4.2,0.3
				c2.8,0.2,5.6,0.4,8.3,0.7c2.3,0.2,4.5,0.5,6.8,0.7c-2.4-0.1-4.8-0.2-7.2-0.3c-2.6-0.1-5.3-0.2-7.9-0.2c-1.3,0-2.6,0.1-4,0.1
				c-0.7,0-1.3,0.1-2,0.2c-0.6,0.1-1.3,0.3-1.9,0.2c-0.8-0.1-1.6,0.1-2.4,0.2C690.5,751.9,690.8,749.7,690.8,749.7z"/>
		</g>
		<g>
			<ellipse class="st1" cx="688.1" cy="757" rx="1.2" ry="1.1"/>
			<path class="st1" d="M688,755.9c0,0,2.4-0.4,2.5-0.4c0.5-0.1,0.9-0.2,1.4-0.1c0.6,0.1,1.3-0.1,1.9-0.2c1.4-0.2,2.8-0.3,4.2-0.4
				c2.8-0.3,5.5-0.5,8.3-0.7c2.3-0.2,4.5-0.3,6.8-0.4c-2.4,0.3-4.8,0.6-7.2,1c-2.6,0.4-5.2,0.7-7.8,1.2c-1.3,0.2-2.6,0.5-3.9,0.8
				c-0.6,0.2-1.3,0.3-1.9,0.5c-0.6,0.2-1.2,0.5-1.8,0.5c-0.8,0-1.6,0.4-2.3,0.6C688.1,758.2,688,755.9,688,755.9z"/>
		</g>
		<g>
			<ellipse class="st1" cx="694.5" cy="760" rx="1.2" ry="1.1"/>
			<path class="st1" d="M694.3,758.9c0,0,0.3-0.1,0.4-0.1c0.2-0.1,0.5-0.1,0.7-0.1c0.5-0.1,0.9-0.2,1.4-0.2c1.1-0.2,2.1-0.4,3.2-0.6
				c1.1-0.2,2.1-0.4,3.1-0.6c0.3-0.1,0.5-0.1,0.8-0.2c0.1,0,0.3,0,0.4-0.1c0.1,0,0.2-0.1,0.3-0.1c2.6-0.5,5.2-0.9,7.8-1.3
				c2.2-0.4,4.5-0.7,6.7-1c-2.4,0.5-4.7,1-7.1,1.5c-2.6,0.6-5.2,1.1-7.7,1.8c-1.3,0.3-2.5,0.7-3.8,1.1c-0.3,0.1-0.5,0.2-0.8,0.3
				c-0.1,0-0.3,0.1-0.4,0.1c-0.1,0-0.1,0.1-0.2,0.1c-0.2,0.1-0.5,0.2-0.8,0.2c-0.5,0.2-1,0.3-1.5,0.5c-0.1,0-0.2,0.1-0.3,0.1
				c-0.1,0-0.2,0-0.2,0c-0.2,0-0.5,0.2-0.7,0.3c-0.3,0.1-0.7,0.3-1,0.4C694.7,761.1,694.3,758.9,694.3,758.9z"/>
		</g>
		<g>
			
				<ellipse transform="matrix(0.7331 -0.6802 0.6802 0.7331 -341.1235 684.8919)" class="st1" cx="702" cy="777" rx="0.9" ry="1.2"/>
			<path class="st1" d="M701.2,776.2c0,0,1.3-1.3,1.4-1.4c0.3-0.3,0.5-0.5,0.8-0.7c0.4-0.2,0.7-0.6,1.1-1c0.8-0.7,1.5-1.5,2.3-2.2
				c1.6-1.5,3.2-2.9,4.8-4.3c1.3-1.1,2.7-2.3,4-3.4c-1.3,1.3-2.6,2.6-3.9,4c-1.4,1.4-2.8,2.9-4.2,4.4c-0.7,0.8-1.3,1.6-1.9,2.4
				c-0.3,0.4-0.6,0.8-0.9,1.2c-0.3,0.4-0.5,0.9-0.8,1.2c-0.5,0.4-0.7,1-1.1,1.5C702.7,777.9,701.2,776.2,701.2,776.2z"/>
		</g>
		<g>
			<ellipse class="st1" cx="691.7" cy="767.7" rx="1.2" ry="1.1"/>
			<path class="st1" d="M691.3,766.6C691.3,766.6,691.4,766.6,691.3,766.6c0.3-0.1,0.5-0.2,0.7-0.3c0.2-0.1,0.3-0.1,0.5-0.1
				c0.2-0.1,0.5-0.2,0.7-0.3c0.2-0.1,0.5-0.2,0.7-0.3c1-0.4,1.9-0.9,2.9-1.3c0.5-0.2,1-0.4,1.5-0.6c0.2-0.1,0.5-0.2,0.7-0.3
				c0.1,0,0.2-0.1,0.3-0.1c0.1,0,0.2-0.1,0.4-0.1c0.3-0.1,0.6-0.2,0.8-0.3c2.6-1,5.2-2.1,7.8-3c2.1-0.8,4.3-1.6,6.4-2.3
				c-2.2,1-4.4,2-6.6,2.9c-1.2,0.5-2.4,1.1-3.6,1.6c-0.2,0.1-0.5,0.2-0.7,0.4c-0.1,0.1-0.2,0.1-0.3,0.1c-0.5,0.2-1,0.4-1.5,0.6
				c-1,0.4-1.9,0.9-2.8,1.4c-0.5,0.2-0.9,0.5-1.4,0.8c-0.2,0.1-0.5,0.3-0.7,0.4c-0.1,0-0.1,0.1-0.2,0.2c-0.1,0.1-0.2,0.1-0.3,0.2
				c0,0,0,0,0,0c-0.9,0.6-1.8,1.2-2.7,1.7c-0.5,0.3-1,0.6-1.4,0.9c-0.2,0.1-0.5,0.3-0.7,0.1c-0.2-0.2,0-0.5,0-0.8c0-0.2,0-0.3,0-0.4
				c-0.1-0.2-0.2-0.4-0.3-0.7C691.4,766.8,691.4,766.7,691.3,766.6z"/>
		</g>
		<g>
			<ellipse class="st1" cx="701.5" cy="767.8" rx="1.2" ry="1.1"/>
			<path class="st1" d="M701,766.8c0,0,2.1-1.2,2.2-1.3c0.4-0.2,0.8-0.5,1.2-0.6c0.6-0.1,1.2-0.6,1.7-0.9c1.2-0.7,2.4-1.3,3.7-2
				c2.5-1.3,4.9-2.6,7.4-3.8c2-1,4.1-2,6.1-2.9c-2.1,1.2-4.2,2.4-6.3,3.6c-2.3,1.3-4.6,2.6-6.8,4c-1.1,0.7-2.2,1.4-3.3,2.2
				c-0.5,0.4-1.1,0.8-1.6,1.2c-0.5,0.4-0.9,0.9-1.5,1.1c-0.7,0.3-1.3,0.9-1.9,1.4C702,768.8,701,766.8,701,766.8z"/>
		</g>
		<g>
			<ellipse class="st1" cx="747.3" cy="764.8" rx="1.2" ry="1.1"/>
			<polygon class="st1" points="746.4,765.5 734.9,754.4 748.2,764 			"/>
		</g>
		<g>
			<ellipse class="st1" cx="711.2" cy="782.1" rx="1.2" ry="1.1"/>
			<polygon class="st1" points="710.3,781.3 720.1,768.7 712,782.9 			"/>
		</g>
		<g>
			<ellipse class="st1" cx="752.7" cy="777.5" rx="1.2" ry="1.1"/>
			<polygon class="st1" points="751.8,778.2 741.9,765.6 753.7,776.9 			"/>
		</g>
		<g>
			<ellipse class="st1" cx="732.2" cy="784.6" rx="1.2" ry="1.1"/>
			<polygon class="st1" points="731,784.5 731.1,768.6 733.3,784.7 			"/>
		</g>
		<g>
			<ellipse class="st1" cx="750" cy="789.4" rx="1.2" ry="1.1"/>
			<polygon class="st1" points="748.9,789.8 742.2,775.3 751.1,789 			"/>
		</g>
		<g>
			
				<ellipse transform="matrix(0.7307 -0.6827 0.6827 0.7307 -326.4705 732.4738)" class="st1" cx="765.3" cy="780.1" rx="1.2" ry="1.7"/>
			<polygon class="st1" points="764.4,780.8 748,764.7 766.1,779.3 			"/>
		</g>
		<g>
			
				<ellipse transform="matrix(0.6139 -0.7894 0.7894 0.6139 -313.9997 902.9742)" class="st1" cx="766" cy="772.5" rx="1.2" ry="1.6"/>
			<polygon class="st1" points="765.3,773.3 747.5,760.7 766.7,771.6 			"/>
		</g>
		<g>
			
				<ellipse transform="matrix(0.4859 -0.874 0.874 0.4859 -274.1906 1070.6249)" class="st1" cx="772.9" cy="768.4" rx="1.2" ry="1.9"/>
			<polygon class="st1" points="772.3,769.4 748.6,757.4 773.5,767.4 			"/>
		</g>
		<g>
			
				<ellipse transform="matrix(0.9751 -0.2217 0.2217 0.9751 -155.9603 183.8037)" class="st1" cx="740.9" cy="786.7" rx="1.2" ry="1.9"/>
			<polygon class="st1" points="739.8,787 732.7,761.7 742,786.5 			"/>
		</g>
		<g>
			<ellipse class="st1" cx="747" cy="721.5" rx="1.2" ry="1.1"/>
			<polygon class="st1" points="747.8,722.3 737.2,734.3 746.2,720.7 			"/>
		</g>
		<g>
			<ellipse class="st1" cx="741.9" cy="770.3" rx="1.2" ry="1.1"/>
			<polygon class="st1" points="740.8,770.8 733.3,756.7 743,769.9 			"/>
		</g>
		<g>
			<ellipse class="st1" cx="726.2" cy="780.6" rx="1.2" ry="1.1"/>
			<polygon class="st1" points="725.1,780.2 728.4,764.7 727.3,780.9 			"/>
		</g>
		<g>
			<ellipse class="st1" cx="766.5" cy="757.9" rx="1.2" ry="1.1"/>
			<path class="st1" d="M766.1,759c0,0-2.3-0.6-2.5-0.6c-0.5-0.1-0.9-0.2-1.3-0.4c-0.5-0.3-1.2-0.4-1.8-0.6c-1.3-0.4-2.7-0.8-4-1.2
				c-2.7-0.8-5.3-1.6-8-2.5c-2.2-0.7-4.3-1.4-6.4-2.2c2.3,0.6,4.7,1.2,7,1.8c2.5,0.7,5.1,1.3,7.7,1.9c1.3,0.3,2.6,0.5,3.9,0.7
				c0.7,0.1,1.3,0.2,2,0.3c0.6,0.1,1.3,0,1.9,0.2c0.7,0.3,1.6,0.2,2.4,0.3C766.9,756.8,766.1,759,766.1,759z"/>
		</g>
		<g>
			<ellipse class="st1" cx="777.5" cy="753.3" rx="1.2" ry="1.1"/>
			<path class="st1" d="M777.3,754.4c0,0-2.4-0.2-2.5-0.3c-0.5,0-0.9-0.1-1.3-0.2c-0.6-0.2-1.3-0.2-1.9-0.3
				c-1.4-0.2-2.8-0.4-4.1-0.6c-2.8-0.4-5.5-0.9-8.2-1.3c-2.2-0.4-4.5-0.8-6.7-1.2c2.4,0.3,4.8,0.5,7.2,0.8c2.6,0.3,5.2,0.6,7.9,0.8
				c1.3,0.1,2.6,0.2,4,0.2c0.7,0,1.3,0,2,0c0.6,0,1.3-0.2,1.9,0c0.8,0.2,1.6,0,2.4,0C777.8,752.2,777.3,754.4,777.3,754.4z"/>
		</g>
		<g>
			<ellipse class="st1" cx="715.4" cy="786.4" rx="1.2" ry="1.1"/>
			<path class="st1" d="M716.5,786.8c0,0,1.1-2.1,1.2-2.2c0.2-0.4,0.4-0.8,0.5-1.2c0.1-0.6,0.5-1.2,0.8-1.7c0.6-1.2,1.2-2.5,1.7-3.7
				c1.1-2.5,2.3-5,3.3-7.5c0.9-2.1,1.7-4.1,2.6-6.2c-1.1,2.1-2.1,4.3-3.2,6.4c-1.2,2.3-2.3,4.7-3.6,6.9c-0.6,1.1-1.3,2.3-2,3.4
				c-0.4,0.6-0.7,1.1-1.1,1.6c-0.3,0.5-0.8,1-1,1.5c-0.3,0.7-0.9,1.3-1.3,2C714.4,786,716.5,786.8,716.5,786.8z"/>
		</g>
		<g>
			<ellipse class="st1" cx="768.5" cy="744.9" rx="1.2" ry="1.1"/>
			<path class="st1" d="M768.6,746c0,0-2.4,0.3-2.5,0.4c-0.5,0.1-0.9,0.2-1.4,0.1c-0.6-0.1-1.3,0.1-1.9,0.2
				c-1.4,0.2-2.8,0.3-4.2,0.4c-2.8,0.3-5.6,0.5-8.3,0.7c-2.3,0.2-4.5,0.3-6.8,0.4c2.4-0.3,4.8-0.6,7.2-0.9c2.6-0.3,5.2-0.7,7.8-1.1
				c1.3-0.2,2.6-0.5,3.9-0.8c0.6-0.2,1.3-0.3,1.9-0.5c0.6-0.2,1.2-0.5,1.8-0.5c0.8,0,1.6-0.4,2.3-0.6
				C768.5,743.7,768.6,746,768.6,746z"/>
		</g>
		<g>
			<ellipse class="st1" cx="763.5" cy="737" rx="1.2" ry="1.1"/>
			<path class="st1" d="M763.9,738.1c0,0-0.3,0.2-0.3,0.2c-0.2,0.1-0.4,0.2-0.7,0.2c-0.4,0.2-0.9,0.3-1.3,0.5c-1,0.4-2,0.7-3,1.1
				c-1,0.4-2,0.7-3,1.1c-0.2,0.1-0.5,0.2-0.7,0.3c-0.1,0-0.3,0.1-0.4,0.1c-0.1,0-0.2,0.1-0.3,0.2c-2.5,0.9-5,1.8-7.5,2.6
				c-2.1,0.7-4.3,1.4-6.5,2.1c2.2-0.9,4.5-1.8,6.7-2.7c2.4-1,4.9-2,7.3-3.1c1.2-0.5,2.4-1.1,3.6-1.7c0.3-0.1,0.5-0.3,0.8-0.4
				c0.1-0.1,0.3-0.1,0.4-0.2c0.1-0.1,0.1-0.1,0.2-0.2c0.2-0.1,0.5-0.2,0.7-0.4c0.5-0.3,0.9-0.5,1.4-0.8c0.1,0,0.2-0.1,0.3-0.1
				c0.1,0,0.1,0,0.2-0.1c0.2-0.1,0.4-0.2,0.6-0.4c0.3-0.2,0.6-0.4,0.9-0.6C763.1,735.9,763.9,738.1,763.9,738.1z"/>
		</g>
		<g>
			
				<ellipse transform="matrix(0.6415 -0.7672 0.7672 0.6415 -280.0728 836.7725)" class="st1" cx="755.2" cy="718" rx="0.9" ry="1.2"/>
			<path class="st1" d="M756,718.8c0,0-1.1,1.5-1.2,1.6c-0.2,0.3-0.4,0.6-0.7,0.8c-0.4,0.3-0.7,0.7-1,1.1c-0.7,0.8-1.3,1.7-2,2.5
				c-1.4,1.6-2.8,3.3-4.2,4.8c-1.2,1.3-2.3,2.6-3.5,3.8c1.1-1.5,2.2-2.9,3.4-4.4c1.2-1.6,2.4-3.2,3.6-4.9c0.6-0.8,1.1-1.7,1.6-2.6
				c0.3-0.4,0.5-0.9,0.7-1.3c0.2-0.4,0.3-1,0.7-1.3c0.4-0.4,0.6-1.1,0.9-1.6C754.3,717.2,756,718.8,756,718.8z"/>
		</g>
		<g>
			<ellipse class="st1" cx="766.8" cy="728.8" rx="1.2" ry="1.1"/>
			<path class="st1" d="M767.3,729.9C767.3,729.9,767.2,729.9,767.3,729.9c-0.3,0.2-0.4,0.3-0.6,0.4c-0.1,0.1-0.3,0.1-0.4,0.2
				c-0.2,0.1-0.4,0.2-0.6,0.4c-0.2,0.1-0.4,0.3-0.7,0.4c-0.9,0.5-1.8,1.1-2.8,1.6c-0.5,0.3-0.9,0.5-1.4,0.8
				c-0.2,0.1-0.5,0.3-0.7,0.4c-0.1,0.1-0.2,0.1-0.3,0.2c-0.1,0-0.2,0.1-0.4,0.2c-0.3,0.1-0.5,0.3-0.8,0.4c-2.4,1.3-4.9,2.6-7.4,3.8
				c-2,1-4.1,2-6.1,3c2.1-1.2,4.2-2.4,6.2-3.6c1.1-0.7,2.3-1.3,3.4-2c0.2-0.1,0.5-0.3,0.7-0.4c0.1-0.1,0.2-0.1,0.3-0.2
				c0.5-0.2,0.9-0.5,1.4-0.7c0.9-0.5,1.8-1.1,2.7-1.6c0.4-0.3,0.9-0.6,1.3-0.9c0.2-0.2,0.4-0.3,0.6-0.5c0.1-0.1,0.1-0.1,0.2-0.2
				c0.1-0.1,0.2-0.2,0.3-0.2c0,0,0,0,0,0c0.8-0.7,1.7-1.3,2.5-2c0.4-0.4,0.9-0.7,1.3-1.1c0.2-0.1,0.4-0.3,0.6-0.2
				c0.2,0.2,0.1,0.5,0.1,0.8c0,0.2,0,0.3,0.1,0.4c0.1,0.2,0.2,0.4,0.3,0.6C767.2,729.7,767.2,729.8,767.3,729.9z"/>
		</g>
		<g>
			<ellipse class="st1" cx="755.8" cy="727.5" rx="1.2" ry="1.1"/>
			<path class="st1" d="M756.6,728.4c0,0-1.7,1.7-1.8,1.8c-0.3,0.3-0.6,0.7-1,0.9c-0.5,0.3-1,0.8-1.4,1.2c-1,0.9-2,1.9-3,2.8
				c-2,1.9-4.1,3.7-6.2,5.5c-1.7,1.5-3.4,2.9-5.2,4.4c1.7-1.7,3.4-3.3,5.1-5c1.9-1.8,3.7-3.7,5.5-5.6c0.9-1,1.8-1.9,2.6-2.9
				c0.4-0.5,0.8-1,1.2-1.5c0.4-0.5,0.7-1.1,1.1-1.5c0.6-0.5,1-1.2,1.5-1.8C755,726.7,756.6,728.4,756.6,728.4z"/>
		</g>
	</g>
	<path class="st1" d="M832.3,727.1c-3.9-6-8.7-11.5-14.2-16.1c-5.5-4.6-11.6-8.4-18.2-11.1c-6.6-2.8-13.6-4.5-20.7-5.1
		c-3.6-0.3-7.1-0.4-10.7-0.2c-3.6,0.2-7.1,0.7-10.7,1.4c3.5-0.9,7-1.5,10.6-1.9c3.6-0.3,7.2-0.3,10.8-0.1c7.2,0.5,14.3,2.2,21,5
		c6.7,2.8,12.9,6.7,18.3,11.5c2.7,2.4,5.2,5,7.5,7.8C828.4,721.1,830.5,724,832.3,727.1z"/>
	<path class="st1" d="M793.7,746c-2.8-2.3-6.3-3.8-9.8-4.4c-3.5-0.6-7.2-0.5-10.7,0.2c-3.5,0.8-6.9,2.2-10,3.9
		c-1.6,0.9-3.1,1.8-4.6,2.9c-1.5,1-3,2.1-4.4,3.2c2.6-2.6,5.5-4.9,8.6-6.8c3.1-1.9,6.6-3.4,10.2-4.2c3.6-0.8,7.4-0.8,11.1,0
		c1.8,0.4,3.6,1,5.2,1.9C790.9,743.6,792.5,744.7,793.7,746z"/>
</g>
<g>
	<g>
		<g>
			<ellipse class="st1" cx="991.5" cy="676.3" rx="1.3" ry="1"/>
			<polygon class="st1" points="990.2,676.4 990.7,690.5 992.8,676.2 			"/>
		</g>
		<g>
			<ellipse class="st1" cx="951.2" cy="685.4" rx="1.3" ry="1"/>
			<polygon class="st1" points="951.1,686.4 969.2,689 951.3,684.4 			"/>
		</g>
		<g>
			<ellipse class="st1" cx="987.4" cy="662.4" rx="1.3" ry="1"/>
			<polygon class="st1" points="986.1,662.6 987.5,676.6 988.7,662.2 			"/>
		</g>
		<g>
			<ellipse class="st1" cx="964.5" cy="669.7" rx="1.3" ry="1"/>
			<polygon class="st1" points="963.6,670.5 976,680.9 965.4,669 			"/>
		</g>
		<g>
			<ellipse class="st1" cx="975.8" cy="656.2" rx="1.3" ry="1"/>
			<polygon class="st1" points="974.6,656.6 980.2,670 977,655.8 			"/>
		</g>
		<g>
			
				<ellipse transform="matrix(0.999 -4.399359e-02 4.399359e-02 0.999 -27.7813 44.4495)" class="st1" cx="996" cy="653.4" rx="1.3" ry="1.5"/>
			<polygon class="st1" points="994.7,653.4 993.4,673.6 997.3,653.4 			"/>
		</g>
		<g>
			<ellipse class="st1" cx="995.4" cy="684.3" rx="1.3" ry="1"/>
			<polygon class="st1" points="994.1,684.2 991.1,698.1 996.8,684.3 			"/>
		</g>
		<g>
			
				<ellipse transform="matrix(0.6174 -0.7867 0.7867 0.6174 -134.0138 1040.4469)" class="st1" cx="1002.5" cy="658" rx="1.4" ry="1.3"/>
			<polygon class="st1" points="1001.2,657.8 996.1,676.5 1003.9,658.1 			"/>
		</g>
		<g>
			
				<ellipse transform="matrix(0.546 -0.8378 0.8378 0.546 -90.8441 1145.6022)" class="st1" cx="1011.6" cy="656.6" rx="1.8" ry="1.3"/>
			<polygon class="st1" points="1010.3,656.3 999.5,678 1012.8,656.9 			"/>
		</g>
		<g>
			
				<ellipse transform="matrix(0.6804 -0.7328 0.7328 0.6804 -175.9831 922.9409)" class="st1" cx="970.3" cy="663.3" rx="1.2" ry="1.9"/>
			<polygon class="st1" points="969.1,663.8 982.9,684.5 971.4,662.7 			"/>
		</g>
		<g>
			<ellipse class="st1" cx="1013.7" cy="699.7" rx="1.3" ry="1"/>
			<polygon class="st1" points="1013.8,698.7 995.5,697 1013.7,700.7 			"/>
		</g>
		<g>
			<ellipse class="st1" cx="983.9" cy="673.4" rx="1.3" ry="1"/>
			<polygon class="st1" points="982.6,673.8 987.2,687.4 985.1,673.1 			"/>
		</g>
		<g>
			<ellipse class="st1" cx="968.2" cy="678.1" rx="1.3" ry="1"/>
			<polygon class="st1" points="967.4,678.8 980.5,688.7 969.1,677.3 			"/>
		</g>
		<g>
			
				<ellipse transform="matrix(0.9024 -0.4309 0.4309 0.9024 -201.8776 488.9085)" class="st1" cx="978.2" cy="690" rx="1.2" ry="0.9"/>
			<polygon class="st1" points="977.4,690.9 988.4,698.1 978.9,689.2 			"/>
		</g>
		<g>
			<ellipse class="st1" cx="1014.3" cy="667.2" rx="1.3" ry="1"/>
			<path class="st1" d="M1013.1,666.8c0,0-1.5,1.8-1.6,1.9c-0.3,0.3-0.6,0.6-0.8,1c-0.2,0.5-0.7,1-1.1,1.4c-0.8,1-1.7,2.1-2.5,3.1
				c-1.6,2.1-3.2,4.2-4.8,6.3c-1.3,1.7-2.5,3.5-3.7,5.2c1.5-1.8,3-3.5,4.5-5.3c1.6-1.9,3.3-3.9,5-5.7c0.9-0.9,1.8-1.9,2.7-2.8
				c0.5-0.4,1-0.9,1.4-1.3c0.4-0.4,1.1-0.8,1.4-1.2c0.4-0.6,1.2-1.1,1.7-1.6C1015.5,667.7,1013.1,666.8,1013.1,666.8z"/>
		</g>
		<g>
			<ellipse class="st1" cx="1027.2" cy="663.8" rx="1.3" ry="1"/>
			<path class="st1" d="M1026.1,663.2c0,0-1.8,1.6-2,1.7c-0.4,0.3-0.7,0.6-0.9,0.9c-0.3,0.5-0.9,0.9-1.3,1.3c-1,0.9-2,1.9-3,2.8
				c-2,1.9-4,3.8-5.9,5.7c-1.6,1.6-3.1,3.1-4.7,4.7c1.8-1.6,3.6-3.2,5.4-4.7c2-1.7,4-3.5,6-5.1c1-0.8,2.1-1.6,3.2-2.4
				c0.6-0.4,1.1-0.8,1.7-1.2c0.5-0.3,1.2-0.7,1.6-1.1c0.5-0.5,1.4-0.9,2-1.4C1028.2,664.4,1026.1,663.2,1026.1,663.2z"/>
		</g>
		<g>
			<ellipse class="st1" cx="950.8" cy="676.1" rx="1.3" ry="1"/>
			<path class="st1" d="M951.6,675.3c0,0,2.3,1.2,2.4,1.3c0.4,0.2,0.9,0.4,1.2,0.8c0.4,0.4,1.1,0.7,1.7,1c1.3,0.7,2.5,1.5,3.8,2.2
				c2.5,1.5,5,3,7.4,4.5c2,1.3,4,2.5,5.9,3.8c-2.2-1.2-4.4-2.5-6.7-3.7c-2.4-1.3-4.9-2.7-7.4-3.9c-1.3-0.6-2.5-1.2-3.8-1.8
				c-0.7-0.3-1.3-0.6-2-0.8c-0.6-0.2-1.4-0.4-1.9-0.8c-0.7-0.4-1.6-0.7-2.4-1C949.9,676.9,951.6,675.3,951.6,675.3z"/>
		</g>
		<g>
			<ellipse class="st1" cx="1024.7" cy="673.4" rx="1.3" ry="1"/>
			<path class="st1" d="M1023.8,672.7c0,0-2,1.4-2.1,1.5c-0.4,0.3-0.8,0.5-1.1,0.9c-0.4,0.5-1,0.8-1.5,1.2c-1.1,0.9-2.2,1.7-3.4,2.6
				c-2.2,1.7-4.4,3.5-6.6,5.2c-1.8,1.4-3.5,2.9-5.2,4.4c2-1.4,4-2.9,6-4.3c2.2-1.6,4.4-3.2,6.6-4.7c1.1-0.8,2.3-1.5,3.5-2.2
				c0.6-0.4,1.2-0.7,1.8-1c0.5-0.3,1.3-0.6,1.7-0.9c0.6-0.5,1.5-0.8,2.2-1.2C1025.7,674.1,1023.8,672.7,1023.8,672.7z"/>
		</g>
		<g>
			<ellipse class="st1" cx="1031.7" cy="676" rx="1.3" ry="1"/>
			<path class="st1" d="M1030.9,675.2c0,0-2.3,1.1-2.5,1.2c-0.5,0.2-0.9,0.4-1.2,0.7c-0.5,0.4-1.2,0.7-1.7,1
				c-1.3,0.7-2.6,1.4-3.9,2.1c-2.6,1.4-5.1,2.8-7.7,4.3c-2.1,1.2-4.1,2.4-6.1,3.6c2.3-1.2,4.6-2.3,6.9-3.5c2.5-1.3,5-2.5,7.6-3.7
				c1.3-0.6,2.6-1.2,3.9-1.7c0.7-0.3,1.3-0.5,2-0.8c0.6-0.2,1.4-0.4,1.9-0.7c0.7-0.4,1.6-0.6,2.4-0.9
				C1032.5,676.9,1030.9,675.3,1030.9,675.2z"/>
		</g>
		<g>
			<ellipse class="st1" cx="1028.5" cy="681.7" rx="1.3" ry="1"/>
			<path class="st1" d="M1027.8,680.9c0,0-0.4,0.1-0.4,0.1c-0.2,0.1-0.5,0.2-0.7,0.3c-0.5,0.2-0.9,0.4-1.4,0.6c-1,0.5-2.1,1-3.1,1.4
				s-2.1,0.9-3.1,1.4c-0.3,0.1-0.5,0.2-0.8,0.3c-0.1,0.1-0.3,0.1-0.4,0.2c-0.1,0-0.2,0.1-0.3,0.1c-2.6,1.2-5.1,2.4-7.7,3.6
				c-2.2,1.1-4.4,2.1-6.5,3.2c2.4-1,4.8-2,7.2-3c2.6-1.1,5.3-2.2,8-3.2c1.4-0.5,2.7-1,4.1-1.4c0.3-0.1,0.6-0.2,0.9-0.3
				c0.1,0,0.3-0.1,0.5-0.1c0.1,0,0.2,0,0.3,0c0.3-0.1,0.6-0.2,0.8-0.3c0.6-0.2,1.1-0.3,1.7-0.5c0.1,0,0.2-0.1,0.3-0.1
				c0.1,0,0.1-0.1,0.2-0.1c0.2-0.1,0.5-0.2,0.8-0.2c0.4-0.1,0.8-0.2,1.2-0.3C1029.2,682.6,1027.8,680.9,1027.8,680.9z"/>
		</g>
		<g>
			
				<ellipse transform="matrix(0.2078 -0.9782 0.9782 0.2078 137.9156 1564.9818)" class="st1" cx="1035.2" cy="697.3" rx="1" ry="1"/>
			<path class="st1" d="M1035.2,696.3c0,0-2.1-0.2-2.2-0.2c-0.4,0-0.8-0.1-1.2,0c-0.5,0.1-1.1,0-1.7,0c-1.2-0.1-2.5-0.1-3.7-0.1
				c-2.5-0.1-4.9-0.1-7.4-0.1c-2,0-4,0-6,0.1c2.1,0.1,4.2,0.3,6.4,0.4c2.3,0.1,4.6,0.3,7,0.5c1.2,0.1,2.3,0.3,3.5,0.5
				c0.6,0.1,1.1,0.2,1.7,0.3c0.5,0.1,1.1,0.3,1.6,0.3c0.7,0,1.4,0.2,2.1,0.4C1035.2,698.4,1035.2,696.3,1035.2,696.3z"/>
		</g>
		<g>
			<ellipse class="st1" cx="1036.8" cy="685.2" rx="1.3" ry="1"/>
			<path class="st1" d="M1036.3,684.3c0,0-0.1,0-0.1,0c-0.2,0-0.5,0.1-0.7,0.1c-0.2,0-0.3,0.1-0.5,0.2c-0.2,0.1-0.5,0.1-0.8,0.2
				c-0.3,0.1-0.6,0.1-0.9,0.2c-1.2,0.3-2.3,0.5-3.5,0.8c-0.6,0.1-1.2,0.3-1.7,0.4c-0.3,0.1-0.6,0.1-0.9,0.2c-0.1,0-0.3,0.1-0.4,0.1
				c-0.1,0.1-0.3,0.1-0.4,0.1c-0.3,0.1-0.7,0.2-1,0.3c-3,0.8-6,1.6-9,2.4c-2.4,0.7-4.8,1.4-7.2,2.1c2.6-0.6,5.3-1.2,7.9-1.8
				c1.5-0.3,2.9-0.7,4.4-1c0.3-0.1,0.6-0.1,0.9-0.2c0.1,0,0.3-0.1,0.4-0.1c0.6-0.2,1.1-0.3,1.7-0.4c1.1-0.3,2.3-0.5,3.5-0.7
				c0.6-0.1,1.2-0.2,1.8-0.3c0.3,0,0.6-0.1,0.9-0.1c0.1,0,0.2,0,0.3,0c0.1,0,0.3,0,0.4,0c0,0,0,0,0,0c1.2-0.1,2.4-0.3,3.6-0.4
				c0.6-0.1,1.3-0.1,1.9-0.2c0.3,0,0.6-0.1,0.6-0.3c0-0.3-0.4-0.4-0.6-0.5c-0.1-0.1-0.2-0.2-0.3-0.3c-0.1-0.2-0.2-0.4-0.3-0.6
				C1036.4,684.5,1036.3,684.4,1036.3,684.3z"/>
		</g>
		<g>
			<ellipse class="st1" cx="1028.5" cy="690.9" rx="1.3" ry="1"/>
			<path class="st1" d="M1028.2,689.9c0,0-2.7,0.4-2.9,0.4c-0.5,0.1-1,0.1-1.5,0.3c-0.6,0.2-1.4,0.3-2.1,0.4
				c-1.5,0.3-3.1,0.5-4.6,0.8c-3.1,0.5-6.2,1.1-9.2,1.7c-2.5,0.5-5,1-7.5,1.6c2.7-0.4,5.4-0.8,8.1-1.2c2.9-0.4,5.9-0.9,8.9-1.2
				c1.5-0.2,3-0.3,4.5-0.4c0.7-0.1,1.5-0.1,2.3-0.1c0.7,0,1.5,0,2.1-0.1c0.8-0.2,1.8-0.1,2.7-0.1
				C1028.9,691.9,1028.2,689.9,1028.2,689.9z"/>
		</g>
		<g>
			<ellipse class="st1" cx="987.1" cy="715.3" rx="1.3" ry="1"/>
			<polygon class="st1" points="988.4,715.2 989.8,701.2 985.7,715.3 			"/>
		</g>
		<g>
			<ellipse class="st1" cx="1031.2" cy="706" rx="1.3" ry="1"/>
			<polygon class="st1" points="1031.4,705 1013.3,702.2 1031,707 			"/>
		</g>
		<g>
			<ellipse class="st1" cx="992.2" cy="726.8" rx="1.3" ry="1"/>
			<polygon class="st1" points="993.5,726.7 992.3,712.7 990.9,727 			"/>
		</g>
		<g>
			<ellipse class="st1" cx="1015.2" cy="719.7" rx="1.3" ry="1"/>
			<polygon class="st1" points="1016.1,719 1003.9,708.5 1014.3,720.5 			"/>
		</g>
		<g>
			<ellipse class="st1" cx="1003.7" cy="733.1" rx="1.3" ry="1"/>
			<polygon class="st1" points="1004.9,732.8 999.5,719.3 1002.5,733.5 			"/>
		</g>
		<g>
			
				<ellipse transform="matrix(9.965328e-03 -1 1 9.965328e-03 237.9876 1711.8176)" class="st1" cx="983.5" cy="735.7" rx="1.5" ry="1.3"/>
			<polygon class="st1" points="984.8,735.7 986.4,715.5 982.1,735.7 			"/>
		</g>
		<g>
			
				<ellipse transform="matrix(0.6354 -0.7722 0.7722 0.6354 -208.2912 1021.0407)" class="st1" cx="977" cy="731.1" rx="1.4" ry="1.3"/>
			<polygon class="st1" points="978.3,731.2 983.8,712.7 975.7,730.9 			"/>
		</g>
		<g>
			
				<ellipse transform="matrix(0.5617 -0.8273 0.8273 0.5617 -181.6514 1121.7946)" class="st1" cx="968" cy="732.3" rx="1.8" ry="1.3"/>
			<polygon class="st1" points="969.2,732.7 980.4,711.1 966.7,732 			"/>
		</g>
		<g>
			
				<ellipse transform="matrix(0.6905 -0.7233 0.7233 0.6905 -212.8398 954.8774)" class="st1" cx="1009.4" cy="726.1" rx="1.2" ry="1.9"/>
			<polygon class="st1" points="1010.5,725.7 997.2,704.8 1008.2,726.6 			"/>
		</g>
		<g>
			<ellipse class="st1" cx="954.2" cy="686.3" rx="1.3" ry="1"/>
			<polygon class="st1" points="954.1,687.3 972.3,689.2 954.2,685.3 			"/>
		</g>
		<g>
			<ellipse class="st1" cx="995.9" cy="715.8" rx="1.3" ry="1"/>
			<polygon class="st1" points="997.2,715.5 992.9,701.8 994.7,716.1 			"/>
		</g>
		<g>
			<ellipse class="st1" cx="1017.2" cy="713.6" rx="1.3" ry="1"/>
			<polygon class="st1" points="1017.9,712.7 1003.2,704.3 1016.5,714.5 			"/>
		</g>
		<g>
			<ellipse class="st1" cx="965.4" cy="721.7" rx="1.3" ry="1"/>
			<path class="st1" d="M966.6,722.2c0,0,1.6-1.7,1.6-1.8c0.3-0.3,0.6-0.6,0.8-1c0.2-0.5,0.7-1,1.1-1.4c0.9-1,1.7-2,2.5-3.1
				c1.7-2.1,3.3-4.1,4.9-6.2c1.3-1.7,2.6-3.4,3.8-5.2c-1.5,1.7-3,3.5-4.6,5.2c-1.7,1.9-3.3,3.8-5.1,5.7c-0.9,0.9-1.8,1.8-2.8,2.7
				c-0.5,0.4-1,0.9-1.5,1.3c-0.4,0.4-1.1,0.8-1.4,1.2c-0.4,0.6-1.2,1.1-1.8,1.6C964.3,721.2,966.6,722.2,966.6,722.2z"/>
		</g>
		<g>
			<ellipse class="st1" cx="952.5" cy="725" rx="1.3" ry="1"/>
			<path class="st1" d="M953.5,725.6c0,0,1.9-1.5,2-1.6c0.4-0.3,0.7-0.6,1-0.9c0.3-0.5,0.9-0.9,1.4-1.3c1-0.9,2.1-1.8,3.1-2.8
				c2-1.9,4-3.7,6-5.6c1.6-1.5,3.2-3.1,4.8-4.7c-1.8,1.6-3.7,3.1-5.5,4.7c-2,1.7-4,3.4-6.1,5c-1.1,0.8-2.1,1.6-3.3,2.4
				c-0.6,0.4-1.1,0.8-1.7,1.1c-0.5,0.3-1.2,0.6-1.6,1c-0.5,0.5-1.4,0.9-2.1,1.4C951.4,724.4,953.5,725.6,953.5,725.6z"/>
		</g>
		<g>
			<ellipse class="st1" cx="1030.9" cy="711.3" rx="1.3" ry="1"/>
			<path class="st1" d="M1030.3,712.2c0,0-2.6-0.8-2.7-0.8c-0.5-0.2-1-0.3-1.4-0.5c-0.5-0.3-1.3-0.5-2-0.7c-1.5-0.5-2.9-1-4.3-1.5
				c-2.9-1-5.8-2-8.6-3.1c-2.3-0.9-4.6-1.7-6.9-2.7c2.5,0.8,5.1,1.6,7.6,2.4c2.8,0.9,5.6,1.8,8.4,2.5c1.4,0.4,2.8,0.8,4.3,1.1
				c0.7,0.2,1.4,0.3,2.2,0.5c0.7,0.1,1.5,0.2,2.1,0.4c0.8,0.3,1.8,0.4,2.6,0.6C1031.5,710.4,1030.3,712.2,1030.3,712.2z"/>
		</g>
		<g>
			<ellipse class="st1" cx="953.7" cy="714.2" rx="1.3" ry="1"/>
			<path class="st1" d="M954.5,715c0,0,2.3-1.1,2.4-1.2c0.5-0.2,0.9-0.4,1.2-0.7c0.4-0.4,1.2-0.7,1.7-1c1.3-0.7,2.6-1.4,3.9-2.1
				c2.6-1.4,5.1-2.9,7.6-4.3c2.1-1.2,4.1-2.4,6.1-3.6c-2.3,1.2-4.6,2.3-6.8,3.5c-2.5,1.3-5,2.6-7.6,3.7c-1.3,0.6-2.6,1.2-3.9,1.7
				c-0.7,0.3-1.3,0.5-2,0.8c-0.6,0.2-1.4,0.4-1.9,0.7c-0.7,0.4-1.6,0.7-2.4,0.9C952.9,713.4,954.5,715,954.5,715z"/>
		</g>
		<g>
			<ellipse class="st1" cx="952" cy="706.1" rx="1.3" ry="1"/>
			<path class="st1" d="M952.5,707c0,0,0.4-0.1,0.4-0.1c0.2,0,0.5-0.1,0.7-0.2c0.5-0.2,1-0.3,1.5-0.5c1.1-0.3,2.3-0.7,3.4-1
				c1.1-0.3,2.3-0.7,3.4-1c0.3-0.1,0.6-0.2,0.9-0.2c0.1,0,0.3-0.1,0.4-0.1c0.1,0,0.2,0,0.4-0.1c2.8-0.8,5.6-1.7,8.4-2.6
				c2.4-0.8,4.8-1.5,7.1-2.3c-2.6,0.7-5.2,1.4-7.8,2c-2.8,0.7-5.7,1.5-8.6,2.1c-1.4,0.3-2.9,0.6-4.4,0.9c-0.3,0.1-0.6,0.1-1,0.2
				c-0.2,0-0.3,0.1-0.5,0.1c-0.1,0-0.2,0-0.3,0c-0.3,0-0.6,0.1-0.9,0.2c-0.6,0.1-1.2,0.2-1.8,0.3c-0.1,0-0.2,0-0.3,0.1
				c-0.1,0-0.1,0.1-0.2,0.1c-0.3,0.1-0.6,0.1-0.8,0.1c-0.4,0-0.8,0.1-1.2,0.1C951.5,705.2,952.5,707,952.5,707z"/>
		</g>
		<g>
			
				<ellipse transform="matrix(0.8131 -0.5821 0.5821 0.8131 -224.3672 678.459)" class="st1" cx="944.5" cy="688.7" rx="1.1" ry="1"/>
			<path class="st1" d="M944.4,689.7c0,0,2.1,0.4,2.2,0.4c0.4,0.1,0.8,0.2,1.2,0.1c0.5-0.1,1.1,0.1,1.7,0.2c1.2,0.2,2.4,0.3,3.6,0.5
				c2.4,0.3,4.8,0.6,7.3,0.8c2,0.2,4,0.4,6,0.5c-2.1-0.3-4.2-0.7-6.2-1c-2.3-0.4-4.6-0.7-6.8-1.2c-1.1-0.2-2.3-0.5-3.4-0.8
				c-0.6-0.1-1.1-0.3-1.7-0.5c-0.5-0.2-1-0.4-1.5-0.5c-0.7,0-1.4-0.4-2-0.6C944.7,687.7,944.4,689.7,944.4,689.7z"/>
		</g>
		<g>
			<ellipse class="st1" cx="942.9" cy="702.5" rx="1.3" ry="1"/>
			<path class="st1" d="M943.3,703.5c0,0,0.1,0,0.1,0c0.2,0,0.5-0.1,0.7-0.1c0.2,0,0.3-0.1,0.5-0.2c0.3-0.1,0.6-0.1,0.8-0.1
				c0.3,0,0.6-0.1,0.9-0.1c1.2-0.2,2.4-0.4,3.6-0.5c0.6-0.1,1.2-0.2,1.8-0.3c0.3-0.1,0.6-0.1,0.9-0.2c0.1,0,0.3,0,0.4-0.1
				c0.1,0,0.3-0.1,0.4-0.1c0.3-0.1,0.7-0.1,1-0.2c3.1-0.5,6.2-1.1,9.2-1.7c2.5-0.5,5-1,7.5-1.5c-2.7,0.4-5.4,0.8-8.1,1.2
				c-1.5,0.2-3,0.4-4.5,0.6c-0.3,0-0.6,0.1-0.9,0.1c-0.1,0-0.3,0-0.4,0.1c-0.6,0.1-1.2,0.2-1.7,0.3c-1.2,0.2-2.3,0.3-3.5,0.4
				c-0.6,0.1-1.2,0.1-1.8,0.1c-0.3,0-0.6,0-0.9,0c-0.1,0-0.2,0-0.3,0c-0.1,0-0.3,0-0.4,0c0,0,0,0,0,0c-1.2,0-2.5,0.1-3.7,0.1
				c-0.7,0-1.3,0-2,0.1c-0.3,0-0.6,0.1-0.7,0.3c-0.1,0.2,0.3,0.4,0.5,0.5c0.1,0.1,0.2,0.2,0.2,0.3c0.1,0.2,0.1,0.4,0.2,0.6
				C943.2,703.3,943.2,703.4,943.3,703.5z"/>
		</g>
		<g>
			<ellipse class="st1" cx="951.3" cy="695.4" rx="1.3" ry="1"/>
			<path class="st1" d="M951.3,696.4c0,0,2.7,0.2,2.9,0.2c0.5,0,1,0.1,1.6,0c0.7-0.1,1.5,0,2.2,0c1.6,0,3.2,0.1,4.8,0.1
				c3.2,0.1,6.3,0.1,9.5,0.1c2.6,0,5.2,0,7.8-0.1c-2.7-0.1-5.5-0.2-8.2-0.4c-3-0.1-6-0.3-9-0.5c-1.5-0.1-3-0.3-4.5-0.5
				c-0.7-0.1-1.5-0.2-2.2-0.3c-0.7-0.1-1.4-0.3-2.1-0.3c-0.9,0-1.8-0.2-2.7-0.4C951.3,694.4,951.3,696.4,951.3,696.4z"/>
		</g>
	</g>
	<g>
		<g>
			<ellipse class="st1" cx="1006.7" cy="749.6" rx="0.7" ry="0.8"/>
			<polygon class="st1" points="1006.1,749.1 999.7,757.5 1007.3,750 			"/>
		</g>
		<g>
			<ellipse class="st1" cx="985.9" cy="739.1" rx="0.7" ry="0.8"/>
			<polygon class="st1" points="985.4,739.7 991.6,748.2 986.5,738.6 			"/>
		</g>
		<g>
			<ellipse class="st1" cx="1011.6" cy="739.9" rx="0.7" ry="0.8"/>
			<polygon class="st1" points="1011,739.5 1005,748.2 1012.3,740.3 			"/>
		</g>
		<g>
			<ellipse class="st1" cx="998.8" cy="735.2" rx="0.7" ry="0.8"/>
			<polygon class="st1" points="998.1,735.3 998.3,746.2 999.5,735.2 			"/>
		</g>
		<g>
			<ellipse class="st1" cx="1009.8" cy="731.8" rx="0.7" ry="0.8"/>
			<polygon class="st1" points="1009.1,731.5 1005.1,741.5 1010.5,732 			"/>
		</g>
		<g>
			
				<ellipse transform="matrix(0.5668 -0.8238 0.8238 0.5668 -166.4436 1159.5032)" class="st1" cx="1019.4" cy="738" rx="1.1" ry="0.7"/>
			<polygon class="st1" points="1018.8,737.5 1008.8,748.8 1019.9,738.5 			"/>
		</g>
		<g>
			<ellipse class="st1" cx="1004.6" cy="755.7" rx="0.7" ry="0.8"/>
			<polygon class="st1" points="1004.1,755.2 996.3,762.1 1005.1,756.3 			"/>
		</g>
		<g>
			
				<ellipse transform="matrix(0.6659 -0.7461 0.7461 0.6659 -213.732 1009.2715)" class="st1" cx="1019.9" cy="743.3" rx="1" ry="0.8"/>
			<polygon class="st1" points="1019.4,742.7 1008.6,751.5 1020.4,743.9 			"/>
		</g>
		<g>
			
				<ellipse transform="matrix(0.8142 -0.5806 0.5806 0.8142 -242.8002 733.3047)" class="st1" cx="1024.3" cy="746" rx="1.2" ry="0.8"/>
			<polygon class="st1" points="1023.9,745.3 1009.2,753.7 1024.6,746.7 			"/>
		</g>
		<g>
			
				<ellipse transform="matrix(0.1707 -0.9853 0.9853 0.1707 109.8913 1597.9484)" class="st1" cx="1004.2" cy="733.7" rx="1.3" ry="0.7"/>
			<polygon class="st1" points="1003.5,733.5 999.3,750.9 1004.9,733.8 			"/>
		</g>
		<g>
			<ellipse class="st1" cx="1004.8" cy="771.8" rx="0.7" ry="0.8"/>
			<polygon class="st1" points="1005.3,771.3 998.6,763.2 1004.3,772.4 			"/>
		</g>
		<g>
			<ellipse class="st1" cx="1005" cy="744.9" rx="0.7" ry="0.8"/>
			<polygon class="st1" points="1004.3,744.6 999.7,754.3 1005.6,745.2 			"/>
		</g>
		<g>
			<ellipse class="st1" cx="996.4" cy="741.5" rx="0.7" ry="0.8"/>
			<polygon class="st1" points="995.7,741.6 996.4,752.5 997.1,741.4 			"/>
		</g>
		<g>
			
				<ellipse transform="matrix(0.9375 -0.348 0.348 0.9375 -199.6396 393.2126)" class="st1" cx="994.8" cy="752.4" rx="0.7" ry="0.6"/>
			<polygon class="st1" points="994.1,752.6 995.2,761 995.5,752.2 			"/>
		</g>
		<g>
			<ellipse class="st1" cx="1020.4" cy="753.2" rx="0.7" ry="0.8"/>
			<path class="st1" d="M1020.1,752.5c0,0-1.5,0.4-1.5,0.4c-0.3,0.1-0.5,0.1-0.8,0.3c-0.3,0.2-0.8,0.3-1.1,0.4
				c-0.8,0.3-1.7,0.6-2.5,0.8c-1.6,0.6-3.3,1.2-4.9,1.8c-1.3,0.5-2.7,1-4,1.6c1.4-0.4,2.9-0.9,4.3-1.3c1.6-0.5,3.2-1,4.7-1.4
				c0.8-0.2,1.6-0.4,2.4-0.5c0.4-0.1,0.8-0.1,1.2-0.2c0.4-0.1,0.8,0,1.1-0.2c0.4-0.2,1-0.2,1.5-0.2
				C1020.6,754,1020.1,752.5,1020.1,752.5z"/>
		</g>
		<g>
			<ellipse class="st1" cx="1027.2" cy="756.3" rx="0.7" ry="0.8"/>
			<path class="st1" d="M1027.1,755.5c0,0-1.5,0.2-1.6,0.2c-0.3,0-0.6,0-0.8,0.2c-0.3,0.2-0.8,0.2-1.2,0.2c-0.9,0.1-1.7,0.3-2.6,0.4
				c-1.7,0.3-3.4,0.6-5.1,1c-1.4,0.3-2.8,0.6-4.1,0.9c1.5-0.2,3-0.4,4.5-0.6c1.6-0.2,3.3-0.5,4.9-0.6c0.8-0.1,1.6-0.1,2.5-0.2
				c0.4,0,0.8,0,1.2,0c0.4,0,0.8,0.1,1.2,0c0.5-0.1,1,0,1.5,0C1027.4,757,1027.1,755.5,1027.1,755.5z"/>
		</g>
		<g>
			<ellipse class="st1" cx="990.2" cy="733.6" rx="0.7" ry="0.8"/>
			<path class="st1" d="M990.9,733.4c0,0,0.4,1.6,0.4,1.7c0.1,0.3,0.2,0.6,0.1,0.9c0,0.4,0.1,0.9,0.2,1.3c0.2,0.9,0.3,1.8,0.5,2.8
				c0.3,1.8,0.6,3.7,0.9,5.5c0.2,1.5,0.4,3,0.6,4.5c-0.3-1.6-0.7-3.2-1-4.8c-0.4-1.7-0.7-3.5-1.2-5.2c-0.2-0.9-0.5-1.7-0.7-2.6
				c-0.1-0.4-0.3-0.8-0.4-1.3c-0.1-0.4-0.4-0.8-0.4-1.2c-0.1-0.5-0.3-1-0.5-1.5C989.4,733.7,990.9,733.4,990.9,733.4z"/>
		</g>
		<g>
			<ellipse class="st1" cx="1021.7" cy="760.9" rx="0.7" ry="0.8"/>
			<path class="st1" d="M1021.6,760.1c0,0-1.5,0-1.6,0c-0.3,0-0.6,0-0.8,0.1c-0.4,0.1-0.8,0.1-1.2,0.1c-0.9,0.1-1.7,0.1-2.6,0.2
				c-1.7,0.1-3.5,0.3-5.2,0.5c-1.4,0.1-2.8,0.3-4.2,0.5c1.5-0.1,3-0.1,4.5-0.2c1.6-0.1,3.3-0.1,4.9-0.1c0.8,0,1.6,0,2.5,0.1
				c0.4,0,0.8,0.1,1.2,0.1c0.4,0,0.8,0.2,1.2,0.1c0.5-0.1,1,0.1,1.5,0.1C1021.8,761.7,1021.6,760.1,1021.6,760.1z"/>
		</g>
		<g>
			<ellipse class="st1" cx="1023.3" cy="765.2" rx="0.7" ry="0.8"/>
			<path class="st1" d="M1023.4,764.4c0,0-1.5-0.2-1.6-0.3c-0.3,0-0.6-0.1-0.8-0.1c-0.4,0.1-0.8-0.1-1.2-0.1
				c-0.9-0.1-1.7-0.2-2.6-0.3c-1.7-0.2-3.4-0.4-5.2-0.5c-1.4-0.1-2.8-0.2-4.2-0.3c1.5,0.2,3,0.4,4.5,0.7c1.6,0.2,3.2,0.5,4.9,0.8
				c0.8,0.2,1.6,0.3,2.4,0.6c0.4,0.1,0.8,0.2,1.2,0.3c0.4,0.1,0.7,0.3,1.1,0.3c0.5,0,1,0.3,1.4,0.4
				C1023.3,765.9,1023.4,764.4,1023.4,764.4z"/>
		</g>
		<g>
			<ellipse class="st1" cx="1019.3" cy="767.2" rx="0.7" ry="0.8"/>
			<path class="st1" d="M1019.4,766.4c0,0-0.2-0.1-0.2-0.1c-0.1,0-0.3-0.1-0.4-0.1c-0.3-0.1-0.6-0.1-0.9-0.2c-0.7-0.1-1.3-0.3-2-0.4
				c-0.7-0.1-1.3-0.3-2-0.4c-0.2,0-0.3-0.1-0.5-0.1c-0.1,0-0.2,0-0.2-0.1c-0.1,0-0.1-0.1-0.2-0.1c-1.6-0.3-3.2-0.6-4.8-0.9
				c-1.4-0.2-2.8-0.5-4.2-0.7c1.5,0.4,2.9,0.7,4.4,1.1c1.6,0.4,3.2,0.8,4.8,1.2c0.8,0.2,1.6,0.5,2.4,0.8c0.2,0.1,0.3,0.1,0.5,0.2
				c0.1,0,0.2,0.1,0.2,0.1c0,0,0.1,0.1,0.1,0.1c0.2,0.1,0.3,0.1,0.5,0.2c0.3,0.1,0.6,0.2,0.9,0.4c0.1,0,0.1,0,0.2,0c0,0,0.1,0,0.1,0
				c0.1,0,0.3,0.1,0.4,0.2c0.2,0.1,0.4,0.2,0.6,0.3C1019.2,768,1019.4,766.4,1019.4,766.4z"/>
		</g>
		<g>
			
				<ellipse transform="matrix(0.5347 -0.8451 0.8451 0.5347 -186.034 1219.9042)" class="st1" cx="1014.7" cy="778.9" rx="0.8" ry="0.6"/>
			<path class="st1" d="M1015.2,778.3c0,0-0.8-0.9-0.8-1c-0.2-0.2-0.3-0.4-0.5-0.5c-0.3-0.1-0.5-0.4-0.7-0.7c-0.5-0.5-1-1-1.4-1.5
				c-1-1-2-2-3-2.9c-0.8-0.8-1.6-1.6-2.5-2.3c0.8,0.9,1.6,1.8,2.4,2.7c0.9,1,1.8,2,2.6,3c0.4,0.5,0.8,1.1,1.2,1.6
				c0.2,0.3,0.4,0.6,0.6,0.9c0.2,0.3,0.3,0.6,0.5,0.8c0.3,0.3,0.5,0.7,0.7,1C1014.2,779.5,1015.2,778.3,1015.2,778.3z"/>
		</g>
		<g>
			<ellipse class="st1" cx="1021.1" cy="772.5" rx="0.7" ry="0.8"/>
			<path class="st1" d="M1021.3,771.7C1021.3,771.7,1021.2,771.7,1021.3,771.7c-0.2-0.1-0.3-0.2-0.4-0.2c-0.1,0-0.2,0-0.3-0.1
				c-0.1,0-0.3-0.1-0.4-0.2c-0.1-0.1-0.3-0.2-0.4-0.2c-0.6-0.3-1.2-0.6-1.8-0.9c-0.3-0.1-0.6-0.3-0.9-0.4c-0.2-0.1-0.3-0.1-0.5-0.2
				c-0.1,0-0.1-0.1-0.2-0.1c-0.1,0-0.2-0.1-0.2-0.1c-0.2-0.1-0.3-0.2-0.5-0.2c-1.6-0.7-3.2-1.4-4.8-2.1c-1.3-0.5-2.6-1.1-4-1.6
				c1.4,0.7,2.7,1.3,4.1,2c0.8,0.4,1.5,0.7,2.3,1.1c0.2,0.1,0.3,0.1,0.4,0.2c0.1,0,0.1,0.1,0.2,0.1c0.3,0.1,0.6,0.3,0.9,0.4
				c0.6,0.3,1.2,0.6,1.8,0.9c0.3,0.2,0.6,0.3,0.9,0.5c0.1,0.1,0.3,0.2,0.4,0.3c0,0,0.1,0.1,0.1,0.1c0.1,0.1,0.1,0.1,0.2,0.1
				c0,0,0,0,0,0c0.6,0.4,1.1,0.8,1.7,1.2c0.3,0.2,0.6,0.4,0.9,0.6c0.1,0.1,0.3,0.2,0.4,0.1c0.1-0.1,0-0.4,0-0.5c0-0.1,0-0.2,0-0.3
				c0-0.2,0.1-0.3,0.2-0.5C1021.3,771.9,1021.3,771.8,1021.3,771.7z"/>
		</g>
		<g>
			<ellipse class="st1" cx="1015" cy="772.5" rx="0.7" ry="0.8"/>
			<path class="st1" d="M1015.3,771.8c0,0-1.3-0.8-1.4-0.9c-0.3-0.2-0.5-0.3-0.8-0.4c-0.4-0.1-0.7-0.4-1-0.6
				c-0.8-0.5-1.5-0.9-2.3-1.3c-1.5-0.9-3.1-1.8-4.6-2.6c-1.3-0.7-2.5-1.4-3.8-2c1.3,0.8,2.6,1.6,3.9,2.5c1.4,0.9,2.8,1.8,4.2,2.8
				c0.7,0.5,1.4,1,2,1.5c0.3,0.3,0.7,0.5,1,0.8c0.3,0.2,0.6,0.6,0.9,0.8c0.4,0.2,0.8,0.6,1.2,1
				C1014.7,773.2,1015.3,771.8,1015.3,771.8z"/>
		</g>
		<g>
			<ellipse class="st1" cx="986.5" cy="770.5" rx="0.7" ry="0.8"/>
			<polygon class="st1" points="987.1,771 994.3,763.4 986,770 			"/>
		</g>
		<g>
			<ellipse class="st1" cx="1009" cy="782.3" rx="0.7" ry="0.8"/>
			<polygon class="st1" points="1009.5,781.8 1003.5,773.1 1008.4,782.9 			"/>
		</g>
		<g>
			<ellipse class="st1" cx="983.2" cy="779.2" rx="0.7" ry="0.8"/>
			<polygon class="st1" points="983.8,779.6 989.9,771 982.6,778.8 			"/>
		</g>
		<g>
			<ellipse class="st1" cx="995.9" cy="784.1" rx="0.7" ry="0.8"/>
			<polygon class="st1" points="996.7,784 996.6,773.1 995.2,784.1 			"/>
		</g>
		<g>
			<ellipse class="st1" cx="984.9" cy="787.4" rx="0.7" ry="0.8"/>
			<polygon class="st1" points="985.6,787.6 989.7,777.7 984.2,787.1 			"/>
		</g>
		<g>
			
				<ellipse transform="matrix(0.5774 -0.8165 0.8165 0.5774 -225.4129 1126.4575)" class="st1" cx="975.4" cy="781" rx="1.1" ry="0.7"/>
			<polygon class="st1" points="975.9,781.5 986.1,770.4 974.8,780.4 			"/>
		</g>
		<g>
			
				<ellipse transform="matrix(0.6759 -0.737 0.737 0.6759 -255.7305 969.9622)" class="st1" cx="974.9" cy="775.7" rx="1" ry="0.8"/>
			<polygon class="st1" points="975.4,776.3 986.4,767.7 974.5,775.1 			"/>
		</g>
		<g>
			
				<ellipse transform="matrix(0.8227 -0.5685 0.5685 0.8227 -267.3104 688.9158)" class="st1" cx="970.6" cy="772.9" rx="1.2" ry="0.8"/>
			<polygon class="st1" points="971,773.6 985.8,765.4 970.3,772.3 			"/>
		</g>
		<g>
			
				<ellipse transform="matrix(0.1824 -0.9832 0.9832 0.1824 37.5199 1616.1768)" class="st1" cx="990.5" cy="785.5" rx="1.3" ry="0.7"/>
			<polygon class="st1" points="991.2,785.7 995.6,768.4 989.8,785.4 			"/>
		</g>
		<g>
			<ellipse class="st1" cx="986.7" cy="740.8" rx="0.7" ry="0.8"/>
			<polygon class="st1" points="986.2,741.4 992.8,749.6 987.2,740.3 			"/>
		</g>
		<g>
			<ellipse class="st1" cx="989.9" cy="774.3" rx="0.7" ry="0.8"/>
			<polygon class="st1" points="990.6,774.6 995.3,765 989.2,774 			"/>
		</g>
		<g>
			<ellipse class="st1" cx="999.6" cy="781.3" rx="0.7" ry="0.8"/>
			<polygon class="st1" points="1000.3,781.1 998.3,770.4 998.9,781.5 			"/>
		</g>
		<g>
			<ellipse class="st1" cx="974.6" cy="765.8" rx="0.7" ry="0.8"/>
			<path class="st1" d="M974.9,766.5c0,0,1.5-0.4,1.5-0.4c0.3-0.1,0.6-0.1,0.8-0.3c0.3-0.2,0.8-0.3,1.1-0.4c0.8-0.3,1.7-0.5,2.5-0.8
				c1.7-0.5,3.3-1.1,4.9-1.7c1.3-0.5,2.7-1,4-1.5c-1.4,0.4-2.9,0.8-4.3,1.3c-1.6,0.5-3.2,0.9-4.8,1.3c-0.8,0.2-1.6,0.4-2.4,0.5
				c-0.4,0.1-0.8,0.1-1.2,0.2c-0.4,0-0.8,0-1.2,0.2c-0.5,0.2-1,0.2-1.5,0.2C974.4,765,974.9,766.5,974.9,766.5z"/>
		</g>
		<g>
			<ellipse class="st1" cx="967.8" cy="762.6" rx="0.7" ry="0.8"/>
			<path class="st1" d="M967.9,763.4c0,0,1.5-0.2,1.6-0.2c0.3,0,0.6,0,0.8-0.2c0.3-0.2,0.8-0.2,1.2-0.2c0.9-0.1,1.7-0.3,2.6-0.4
				c1.7-0.3,3.4-0.6,5.1-0.9c1.4-0.3,2.8-0.6,4.2-0.9c-1.5,0.2-3,0.4-4.5,0.6c-1.6,0.2-3.3,0.4-4.9,0.5c-0.8,0.1-1.6,0.1-2.5,0.1
				c-0.4,0-0.8,0-1.2,0c-0.4,0-0.8-0.1-1.2,0c-0.5,0.1-1,0-1.5,0C967.6,761.8,967.9,763.4,967.9,763.4z"/>
		</g>
		<g>
			<ellipse class="st1" cx="1006.3" cy="785.3" rx="0.7" ry="0.8"/>
			<path class="st1" d="M1005.7,785.6c0,0-0.7-1.5-0.7-1.5c-0.1-0.3-0.3-0.5-0.3-0.8c-0.1-0.4-0.3-0.8-0.5-1.2
				c-0.4-0.8-0.7-1.7-1.1-2.6c-0.7-1.7-1.4-3.4-2.1-5.2c-0.5-1.4-1.1-2.8-1.6-4.2c0.7,1.5,1.3,2.9,2,4.4c0.7,1.6,1.4,3.2,2.2,4.7
				c0.4,0.8,0.8,1.6,1.2,2.3c0.2,0.4,0.4,0.8,0.7,1.1c0.2,0.3,0.5,0.7,0.6,1c0.2,0.5,0.5,0.9,0.8,1.3
				C1007,785,1005.7,785.6,1005.7,785.6z"/>
		</g>
		<g>
			<ellipse class="st1" cx="973.4" cy="756.8" rx="0.7" ry="0.8"/>
			<path class="st1" d="M973.3,757.6c0,0,1.5,0.2,1.6,0.3c0.3,0,0.6,0.1,0.8,0.1c0.4-0.1,0.8,0.1,1.2,0.1c0.9,0.1,1.7,0.2,2.6,0.3
				c1.7,0.2,3.4,0.3,5.2,0.5c1.4,0.1,2.8,0.2,4.2,0.3c-1.5-0.2-3-0.4-4.5-0.6c-1.6-0.2-3.2-0.5-4.9-0.8c-0.8-0.2-1.6-0.3-2.4-0.5
				c-0.4-0.1-0.8-0.2-1.2-0.3c-0.4-0.1-0.8-0.3-1.1-0.3c-0.5,0-1-0.3-1.4-0.4C973.4,756,973.3,757.6,973.3,757.6z"/>
		</g>
		<g>
			<ellipse class="st1" cx="976.5" cy="751.4" rx="0.7" ry="0.8"/>
			<path class="st1" d="M976.3,752.2c0,0,0.2,0.1,0.2,0.1c0.1,0.1,0.3,0.1,0.4,0.2c0.3,0.1,0.6,0.2,0.8,0.3c0.6,0.2,1.2,0.5,1.9,0.7
				c0.6,0.3,1.2,0.5,1.9,0.8c0.2,0.1,0.3,0.1,0.5,0.2c0.1,0,0.2,0.1,0.2,0.1c0.1,0,0.1,0.1,0.2,0.1c1.5,0.6,3.1,1.2,4.6,1.8
				c1.3,0.5,2.7,1,4,1.4c-1.4-0.6-2.8-1.2-4.2-1.9c-1.5-0.7-3-1.4-4.5-2.1c-0.7-0.4-1.5-0.8-2.2-1.2c-0.2-0.1-0.3-0.2-0.5-0.3
				c-0.1,0-0.2-0.1-0.2-0.1c0,0-0.1-0.1-0.1-0.1c-0.1-0.1-0.3-0.2-0.4-0.3c-0.3-0.2-0.6-0.4-0.9-0.5c-0.1,0-0.1-0.1-0.2-0.1
				c0,0-0.1,0-0.1,0c-0.1-0.1-0.3-0.2-0.4-0.2c-0.2-0.1-0.4-0.3-0.6-0.4C976.7,750.7,976.3,752.2,976.3,752.2z"/>
		</g>
		<g>
			
				<ellipse transform="matrix(0.628 -0.7782 0.7782 0.628 -209.4777 1038.5995)" class="st1" cx="981.7" cy="738.4" rx="0.8" ry="0.6"/>
			<path class="st1" d="M981.1,738.9c0,0,0.7,1,0.7,1.1c0.1,0.2,0.2,0.4,0.4,0.5c0.3,0.2,0.4,0.5,0.6,0.8c0.4,0.6,0.8,1.1,1.3,1.7
				c0.8,1.1,1.7,2.2,2.6,3.3c0.7,0.9,1.5,1.8,2.2,2.6c-0.7-1-1.4-2-2.1-3c-0.8-1.1-1.5-2.2-2.2-3.4c-0.4-0.6-0.7-1.2-1-1.8
				c-0.2-0.3-0.3-0.6-0.5-0.9c-0.1-0.3-0.2-0.7-0.4-0.9c-0.3-0.3-0.4-0.7-0.5-1.1C982.2,737.9,981.1,738.9,981.1,738.9z"/>
		</g>
		<g>
			<ellipse class="st1" cx="974.5" cy="745.8" rx="0.7" ry="0.8"/>
			<path class="st1" d="M974.1,746.5C974.1,746.5,974.2,746.6,974.1,746.5c0.2,0.1,0.3,0.2,0.4,0.3c0.1,0.1,0.2,0.1,0.3,0.1
				c0.1,0.1,0.3,0.2,0.4,0.2c0.1,0.1,0.3,0.2,0.4,0.3c0.6,0.4,1.1,0.7,1.7,1.1c0.3,0.2,0.6,0.4,0.9,0.5c0.1,0.1,0.3,0.2,0.4,0.3
				c0.1,0,0.1,0.1,0.2,0.1c0.1,0,0.1,0.1,0.2,0.1c0.2,0.1,0.3,0.2,0.5,0.3c1.5,0.9,3.1,1.8,4.6,2.6c1.3,0.7,2.5,1.4,3.8,2
				c-1.3-0.8-2.6-1.6-3.9-2.5c-0.7-0.5-1.4-0.9-2.1-1.4c-0.1-0.1-0.3-0.2-0.4-0.3c-0.1-0.1-0.1-0.1-0.2-0.1
				c-0.3-0.2-0.6-0.3-0.9-0.5c-0.6-0.3-1.1-0.7-1.7-1.1c-0.3-0.2-0.5-0.4-0.8-0.6c-0.1-0.1-0.3-0.2-0.4-0.3c0,0-0.1-0.1-0.1-0.1
				c-0.1-0.1-0.1-0.1-0.2-0.2c0,0,0,0,0,0c-0.5-0.5-1-0.9-1.6-1.4c-0.3-0.2-0.6-0.5-0.8-0.7c-0.1-0.1-0.3-0.2-0.4-0.1
				c-0.1,0.1-0.1,0.4-0.1,0.5c0,0.1,0,0.2-0.1,0.3c-0.1,0.1-0.1,0.3-0.2,0.4C974.2,746.4,974.2,746.5,974.1,746.5z"/>
		</g>
		<g>
			<ellipse class="st1" cx="981.3" cy="745" rx="0.7" ry="0.8"/>
			<path class="st1" d="M980.8,745.5c0,0,1.1,1.2,1.1,1.2c0.2,0.2,0.4,0.5,0.6,0.6c0.3,0.2,0.6,0.6,0.9,0.9c0.6,0.6,1.3,1.3,1.9,1.9
				c1.3,1.3,2.6,2.5,3.9,3.8c1.1,1,2.1,2,3.2,3c-1.1-1.1-2.1-2.3-3.2-3.4c-1.2-1.3-2.3-2.5-3.4-3.8c-0.6-0.7-1.1-1.3-1.6-2
				c-0.3-0.3-0.5-0.7-0.8-1c-0.2-0.3-0.4-0.7-0.7-1c-0.4-0.3-0.6-0.8-0.9-1.3C981.7,744.4,980.8,745.5,980.8,745.5z"/>
		</g>
	</g>
	<path class="st1" d="M900.9,735.9c0.6-4.9,3-9.5,6.1-13.4l1.2-1.5c0.4-0.5,0.9-0.9,1.3-1.4c0.4-0.4,0.9-0.9,1.3-1.3l1.4-1.2
		c0.5-0.4,1-0.8,1.5-1.2l1.5-1.1c1.1-0.7,2.1-1.4,3.2-2c4.4-2.4,9.2-4.1,14.1-4.9c1.2-0.1,2.5-0.4,3.7-0.4l1.9-0.1
		c0.6,0,1.2,0,1.9,0c2.5,0,5,0.3,7.4,0.8c-2.5-0.2-4.9-0.5-7.4-0.3c-0.6,0-1.2,0-1.8,0.1l-1.8,0.2c-1.2,0.1-2.4,0.4-3.6,0.5
		c-4.8,0.9-9.5,2.6-13.7,5c-4.3,2.3-8.1,5.5-11.3,9.3c-0.4,0.4-0.8,0.9-1.1,1.4l-1.1,1.5c-0.7,1-1.3,2.1-1.9,3.1
		C902.3,731.2,901.4,733.5,900.9,735.9z"/>
	<path class="st1" d="M914,751.6c1.2-1.7,3.2-2.7,5.2-3.3c1-0.3,2-0.6,3-0.8l1.5-0.3l1.5-0.2c4.1-0.6,8.3-0.6,12.4-0.1
		c4.1,0.6,8.2,1.6,12,3.2c0.9,0.4,1.9,0.8,2.8,1.3l1.4,0.7l1.3,0.8c1.8,1,3.5,2.2,5.1,3.5c-1.7-1.1-3.5-2.2-5.3-3.1l-1.4-0.7
		l-1.4-0.6c-0.9-0.4-1.9-0.8-2.8-1.1c-3.8-1.4-7.8-2.4-11.8-2.9c-2-0.3-4-0.4-6.1-0.5c-2,0-4.1,0.1-6.1,0.3l-1.5,0.2l-1.5,0.2
		c-1,0.2-2,0.4-3,0.6C917.3,749.3,915.4,750.1,914,751.6z"/>
</g>
</svg>
