<svg version="1.1" xmlns="http://www.w3.org/2000/svg" viewBox="0 0 100 100" style="enable-background:new 0 0 100 100;">
	<path d="M86.776,33.97l-7.106-6.611l4.926-5.294c1.151-1.239,1.835-2.915,1.876-4.6c0.043-1.796-0.61-3.413-1.84-4.554
		c-2.465-2.288-6.641-1.974-9.12,0.689L41.613,50.008c-7.916-3.722-17.394-1.937-23.437,4.547
		c-7.612,8.179-7.153,21.027,1.023,28.642c3.784,3.521,8.658,5.436,13.797,5.436c0.246,0,0.492-0.004,0.739-0.013
		c5.411-0.193,10.42-2.482,14.104-6.444c6.037-6.478,7.143-16.063,2.863-23.705l14.529-15.606l7.104,6.616
		c0.291,0.271,0.677,0.406,1.076,0.401c0.398-0.014,0.774-0.187,1.045-0.478l4.109-4.422c0.563-0.606,0.529-1.555-0.076-2.119
		l-7.104-6.615l2.126-2.279l7.102,6.62c0.29,0.271,0.669,0.41,1.075,0.402c0.398-0.014,0.773-0.186,1.045-0.477l4.117-4.422
		c0.271-0.291,0.416-0.678,0.401-1.076C87.239,34.617,87.068,34.241,86.776,33.97z M81.562,37.37l-7.101-6.619
		c-0.605-0.564-1.555-0.532-2.119,0.074l-4.173,4.474c-0.271,0.291-0.416,0.678-0.402,1.076s0.186,0.774,0.477,1.045l7.105,6.617
		l-2.066,2.224l-7.104-6.615c-0.291-0.271-0.667-0.422-1.076-0.401c-0.397,0.014-0.773,0.186-1.044,0.477L47.986,56.985l-0.015,0.01
		c-0.672,0.457-0.859,1.366-0.42,2.051c4.258,6.641,3.474,15.311-1.907,21.085c-3.139,3.376-7.406,5.325-12.015,5.49
		c-4.592,0.152-9.007-1.478-12.385-4.62c-6.966-6.487-7.357-17.435-0.873-24.402c3.364-3.608,7.977-5.51,12.651-5.51
		c2.812,0,5.647,0.688,8.245,2.106c0.351,0.192,0.765,0.235,1.147,0.121c0.381-0.114,0.702-0.375,0.891-0.725l34.4-36.948
		c1.35-1.448,3.63-1.698,4.884-0.535c0.591,0.548,0.903,1.359,0.882,2.284c-0.023,0.961-0.415,1.919-1.074,2.628l-5.947,6.392
		c-0.271,0.292-0.415,0.679-0.4,1.076s0.187,0.773,0.478,1.044l7.106,6.611L81.562,37.37z"/>
	<path d="M32.999,61.242c-1.873,0.031-3.621,0.789-4.923,2.135c-1.303,1.346-2.003,3.117-1.973,4.989
		c0.063,3.826,3.196,6.896,7.009,6.896c0.039,0,0.078-0.001,0.116-0.001c1.873-0.031,3.621-0.789,4.923-2.134
		c1.302-1.346,2.002-3.118,1.972-4.99c-0.031-1.872-0.789-3.621-2.135-4.923S34.871,61.252,32.999,61.242z M35.996,71.04
		c-0.745,0.77-1.745,1.203-2.816,1.221c-0.022,0.001-0.044,0.001-0.067,0.001c-2.181,0-3.974-1.756-4.01-3.944
		c-0.018-1.071,0.383-2.084,1.128-2.854c0.745-0.77,1.746-1.203,2.817-1.221c0.022-0.001,0.045-0.001,0.067-0.001
		c1.046,0,2.034,0.399,2.788,1.129c0.77,0.745,1.204,1.744,1.221,2.815C37.142,69.257,36.741,70.271,35.996,71.04z"/>

</svg>
