<svg version="1.1" id="Layer_1" xmlns="http://www.w3.org/2000/svg" x="0" y="0" viewBox="0 0 153.9 172.2" style="enable-background:new 0 0 153.9 172.2" xml:space="preserve"><style>.st0{fill:#00a1ed}</style><path class="st0" d="M107.3 114.2c-6.2 0-10.6 5.4-10.6 11.2 0 4.9 3.3 8.4 9 8.4 6.2 0 10.6-5.3 10.6-11.2 0-4.9-3.3-8.4-9-8.4zm-1.5 16c-3.1 0-4.9-1.9-4.9-5 0-3.8 2.6-7.4 6.3-7.4 3.1 0 4.9 1.9 4.9 5 0 3.8-2.6 7.4-6.3 7.4zm20.6-8.2c-1.9-.7-3.6-1.3-3.6-2.4 0-1.2 1.2-2.2 3.3-2.2 2.3 0 4.6 1.2 5.5 2.5l2.1-2.7c-1.5-1.8-4.4-3.1-7.6-3.1-4.8 0-7.4 2.9-7.4 6.1 0 3.1 3.2 4.3 5.9 5.2 2 .7 3.7 1.3 3.7 2.6s-1.3 2.5-3.4 2.5c-2.7 0-5.3-1.5-6.4-2.9l-2.4 2.8c1.9 2.1 5 3.3 8.4 3.3 4.9 0 7.8-2.9 7.8-6.4.1-3.1-3.2-4.3-5.9-5.3zm-70.5-3.5 1-4.4h-.2c-2.7 0-4.7.8-6.5 2.7l.5-2.3h-4.3l-4.2 18.9h4.3l2.8-12.7c1-1.2 2.8-2.5 4.8-2.5.7 0 1.4.1 1.6.2.1 0 .2.1.2.1zm10.4-4.4c-6.1 0-10.8 5-10.8 11.4 0 5.2 3.6 8.5 9.5 8.5 2.4 0 4.9-.8 6.6-2.1l.1-.1-1.4-3.1-.1.1c-1.2.9-3.1 1.5-4.9 1.5-3.6 0-5.6-2.2-5.6-4.3v-.5h14.4v-.1c.2-.6.3-1.9.3-2.9.2-5.1-3.1-8.4-8.1-8.4zm4.4 8.2H60.3c.5-2.3 2.7-4.7 5.7-4.7 2.9 0 4.8 1.7 4.8 4.3-.1.1-.1.3-.1.4zm16.1-8.2c-6.1 0-10.8 5-10.8 11.4 0 5.2 3.6 8.5 9.5 8.5 2.4 0 4.9-.8 6.6-2.1l.1-.1-1.4-3.1-.1.1c-1.2.9-3.1 1.5-4.9 1.5-3.6 0-5.6-2.2-5.6-4.3v-.5h14.4v-.1c.2-.6.3-1.9.3-2.9.3-5.1-3.1-8.4-8.1-8.4zm4.5 8.2H80.9c.5-2.3 2.7-4.7 5.7-4.7 2.9 0 4.8 1.7 4.8 4.3v.4zm-47.7-8.6h-5.7l.4-1.9c.8-3.6 2.4-5.2 5-5.2 1 0 2.1.2 2.9.8l.1.1 1.8-3.3-.1-.1c-1.5-.9-3.3-1.4-5.1-1.3-4.8 0-7.9 3-9.3 8.9l-.4 1.9h-4.6l-.9 4h4.6l-2.5 11.1-1 3.4-.6 2c-1 3.5-2.7 5.1-5.3 5-1 0-2-.3-2.9-1l-.1-.1-2 3.2.1.1c1.5 1 3.2 1.5 5 1.6h.6c4.5 0 7.6-2.8 9.2-8.4l.6-2.1.1-.3 3.5-14.4h5.7l.9-4zM75.9 10C51 10 30.7 30.2 30.7 55.1s20.2 45.1 45.1 45.1S121 80 121 55.1 100.9 10 75.9 10zM59.8 84.3c-2.9 0-5.7-1.1-7.9-3C37.5 68 36.6 45.6 49.8 31.1c6.7-7.3 16.2-11.4 26.1-11.4 1.8 0 3.7.1 5.5.4h.2c-6.1 2.5-10.5 8.1-11.5 14.6-.1.6-.2 1.4-.2 2.1v1.3c-.1 4.4.1 8.9.6 13.3L59 55.6c-.8.3-1.2 1.2-.9 1.9l.5 1.3c1.5 4.3 6.3 6.5 10.6 5 .4-.2 1-.4 1.4-.6l1.1-.6.3-.2v.4c.2 3.2.1 6.5-.2 9.7h-.1c0 .3 0 .6-.1 1.1-.1.6-.2 1.3-.4 1.9-1.4 5.3-6.1 8.8-11.4 8.8zm16.1 6.3c-1.9 0-4-.2-6-.5 6.5-2.7 10.9-8.7 11.7-15.7.8-5.8.8-11.8-.1-17.6l11.7-6.9c1.3-.8 1.8-2.4 1.3-3.8l-.1-.3c-.5-1.5-2.2-2.3-3.7-1.7L80.4 48h-.2v-.1c-.4-3-.5-6.2-.4-9.2.4-9 5.7-12.7 12.2-12.6 2.7.1 5.2 1 7.4 2.6.5.4 1 .9 1.5 1.4 13.9 13.6 14 36 .2 50-6.7 6.8-15.7 10.5-25.2 10.5z"/></svg>