<?xml version="1.0" standalone="no"?>
<!DOCTYPE svg PUBLIC "-//W3C//DTD SVG 20010904//EN"
 "http://www.w3.org/TR/2001/REC-SVG-20010904/DTD/svg10.dtd">
<svg version="1.0" xmlns="http://www.w3.org/2000/svg"
 width="700.000000pt" height="700.000000pt" viewBox="0 0 700.000000 700.000000"
 preserveAspectRatio="xMidYMid meet">
<metadata>
Created by potrace 1.14, written by Peter Selinger 2001-2017
</metadata>
<g transform="translate(0.000000,700.000000) scale(0.100000,-0.100000)"
fill="#000000" stroke="none">
<path d="M3276 6990 c-1100 -76 -2082 -647 -2690 -1563 -317 -478 -507 -1011
-567 -1592 -16 -154 -16 -516 0 -670 152 -1477 1191 -2687 2625 -3055 275 -70
546 -103 856 -103 235 0 380 12 597 49 1251 213 2306 1116 2712 2320 130 384
184 717 184 1124 0 235 -12 380 -49 597 -216 1264 -1125 2321 -2342 2722 -415
137 -904 200 -1326 171z m489 -760 c50 -5 108 -13 129 -16 l39 -6 -89 -47
c-421 -218 -705 -605 -784 -1066 -34 -201 -27 -790 15 -1180 8 -71 13 -130 12
-131 -1 -1 -195 -72 -432 -159 -236 -87 -444 -164 -462 -172 -43 -20 -76 -87
-64 -128 17 -60 76 -192 109 -245 132 -213 397 -330 647 -287 72 13 114 28
204 74 63 32 119 60 124 62 16 6 1 -668 -17 -784 -48 -298 -135 -486 -297
-641 -35 -33 -93 -80 -128 -103 -265 -180 -629 -204 -915 -61 -111 55 -192
118 -321 251 -411 423 -658 928 -752 1539 -25 163 -25 576 0 745 76 510 269
959 584 1355 82 104 281 304 383 386 445 359 959 566 1525 617 90 8 406 6 490
-3z m1064 -490 c169 -22 310 -74 445 -164 89 -59 252 -221 371 -368 167 -207
340 -510 429 -749 307 -832 200 -1753 -290 -2489 -425 -640 -1115 -1076 -1880
-1190 -254 -38 -563 -37 -793 2 l-63 10 99 53 c151 78 247 149 368 270 223
222 364 493 415 801 65 391 74 903 24 1322 -9 75 -13 137 -8 141 5 4 198 119
429 255 231 137 441 261 466 277 123 77 151 239 66 366 -44 66 -104 98 -182
97 -52 -1 -114 -22 -469 -158 -224 -86 -412 -156 -416 -156 -17 0 -35 276 -35
545 0 304 8 375 62 540 111 342 360 548 718 594 96 12 157 12 244 1z"/>
</g>
</svg>
