<?xml version="1.0" encoding="utf-8"?>
<!-- Generator: Adobe Illustrator 23.0.1, SVG Export Plug-In . SVG Version: 6.00 Build 0)  -->
<svg version="1.1" id="Layer_1" xmlns="http://www.w3.org/2000/svg" xmlns:xlink="http://www.w3.org/1999/xlink" x="0px" y="0px"
	 viewBox="0 0 130 130" style="enable-background:new 0 0 130 130;" xml:space="preserve">
<style type="text/css">
	.st0{clip-path:url(#SVGID_2_);}
</style>
<g>
	<defs>
		<rect id="SVGID_1_" x="14.9" y="20" width="102.1" height="91.4"/>
	</defs>
	<clipPath id="SVGID_2_">
		<use xlink:href="#SVGID_1_"  style="overflow:visible;"/>
	</clipPath>
	<path class="st0" d="M116.7,109.2c-4.8-5.8-4.9-11.7-4.9-11.8c0-0.7-0.6-1.4-1.4-1.4c-0.1,0-0.2,0-0.3,0c-0.1,0-0.2,0-0.3,0H60.9
		c-0.1,0-0.2,0-0.3,0c-0.1,0-0.2,0-0.3,0c-0.8,0-1.4,0.6-1.4,1.4c0,0.1-0.1,5.9-4.9,11.8c-0.5,0.6-0.4,1.4,0.2,1.9
		c0.3,0.2,0.6,0.3,0.9,0.3c0.1,0,0.2,0,0.3,0c0.1,0,0.2,0,0.3,0h59.4c0.1,0,0.2,0,0.3,0c0.1,0,0.2,0,0.3,0c0.3,0,0.6-0.1,0.9-0.3
		C117.1,110.6,117.2,109.8,116.7,109.2 M61.6,98.8h47.6c0.2,2,1.1,5.8,3.8,9.9H57.9C60.6,104.6,61.4,100.8,61.6,98.8"/>
	<path class="st0" d="M77.1,69.3l-3.3,3.3c-0.5,0.5-0.8,1.2-0.8,2c0,0.8,0.3,1.5,0.8,2l6.2,6.2c0.5,0.5,1.2,0.8,2,0.8
		c0.8,0,1.5-0.3,2-0.8l21.5-21.5c1.1-1.1,1.1-2.9,0-4l-6.2-6.2c-1.1-1.1-2.9-1.1-4,0L92,54.4l-20-20l3.3-3.3c1.1-1.1,1.1-2.9,0-4
		l-6.2-6.2c-1.1-1.1-2.9-1.1-4,0L43.6,42.3c-0.5,0.5-0.8,1.2-0.8,2c0,0.8,0.3,1.5,0.8,2l6.2,6.2c0.5,0.6,1.3,0.8,2,0.8
		c0.7,0,1.4-0.3,2-0.8l3.3-3.3l4.7,4.7l-46,46c-1.1,1.1-1.1,2.9,0,4l6.7,6.7c0.6,0.5,1.3,0.8,2,0.8c0.7,0,1.4-0.3,2-0.8l46-46
		L77.1,69.3z M97.3,53C97.3,53,97.3,53,97.3,53c0.1,0,0.1,0,0.1,0l6.2,6.2c0,0,0,0.1,0,0.1L82.1,80.9c0,0-0.1,0-0.1,0l-6.2-6.2
		c0,0,0,0,0-0.1c0,0,0-0.1,0-0.1l4.3-4.3l13-13L97.3,53z M51.9,50.6c0,0-0.1,0-0.1,0l-6.2-6.2c0,0,0,0,0-0.1c0,0,0-0.1,0-0.1
		L67,22.8c0,0,0,0,0.1,0c0,0,0,0,0.1,0l6.2,6.2c0,0,0,0.1,0,0.1l-4.3,4.3L51.9,50.6z M70.1,36.3l20,20L82,64.4l-2.9,2.9l-5.7-5.7
		L64.7,53l0,0l0,0L59,47.3L70.1,36.3z M24.5,108.7c0,0-0.1,0-0.1,0l-6.7-6.7c0,0,0-0.1,0-0.1l46-46l6.8,6.8L24.5,108.7z"/>
</g>
</svg>
