<?xml version="1.0" encoding="utf-8"?>
<!-- Generator: Adobe Illustrator 26.1.0, SVG Export Plug-In . SVG Version: 6.00 Build 0)  -->
<svg version="1.1" id="Layer_1" xmlns="http://www.w3.org/2000/svg" xmlns:xlink="http://www.w3.org/1999/xlink" x="0px" y="0px"
	 viewBox="0 0 34.6 34.6" style="enable-background:new 0 0 34.6 34.6;" xml:space="preserve">
<style type="text/css">
	.st0{fill:none;stroke:#000000;stroke-width:2;stroke-miterlimit:10;}
	.st1{fill:none;stroke:#000000;stroke-width:1.5;stroke-miterlimit:10;}
</style>
<circle class="st0" cx="17.4" cy="17.4" r="16.2"/>
<g>
	<path class="st1" d="M18.1,19.6L17,20.7c-0.1,0.1-0.4,0.1-0.5,0l-4.1-4.1c-0.1-0.1-0.1-0.4,0-0.5l1.1-1.1c0.1-0.1,0.4-0.1,0.5,0
		l4.1,4.1C18.3,19.2,18.3,19.5,18.1,19.6z"/>
	<path class="st1" d="M27.7,10l-1,1c-0.2,0.2-0.4,0.2-0.6,0l-4-4c-0.2-0.2-0.2-0.4,0-0.6l1-1c0.2-0.2,0.4-0.2,0.6,0l4,4
		C27.9,9.6,27.9,9.8,27.7,10z"/>
	
		<rect x="14.4" y="10.8" transform="matrix(0.7071 -0.7071 0.7071 0.7071 -3.3419 18.0017)" class="st1" width="11.3" height="4.4"/>
	<polygon class="st1" points="20.6,15.6 22.7,13.6 32.7,23.6 31.2,26.3 	"/>
</g>
<path class="st1" d="M21,29.4H10.1c-0.5,0-0.9-0.4-0.9-0.9V27c0-0.5,0.4-0.9,0.9-0.9H21c0.5,0,0.9,0.4,0.9,0.9v1.6
	C21.9,29.1,21.5,29.4,21,29.4z"/>
</svg>
