<?xml version="1.0" encoding="utf-8"?>
<!-- Generator: Adobe Illustrator 25.2.3, SVG Export Plug-In . SVG Version: 6.00 Build 0)  -->
<svg version="1.1" id="Layer_1" xmlns="http://www.w3.org/2000/svg" xmlns:xlink="http://www.w3.org/1999/xlink" x="0px" y="0px"
	 viewBox="0 0 100 100" style="enable-background:new 0 0 100 100;" xml:space="preserve">
<style type="text/css">
	.st0{fill:#FFFFFF;}
</style>
<path class="st0" d="M50.5,15.6c-19.2,0-34.8,15.6-34.8,34.8s15.6,34.8,34.8,34.8s34.8-15.6,34.8-34.8S69.8,15.6,50.5,15.6z
	 M38.2,72.9c-2.4,0-4.5-0.9-6.1-2.3l0,0c-4.3-4-7.4-9.4-8.5-15.4c-0.3-1.5-0.4-3.1-0.4-4.7c0-15.1,12.2-27.3,27.3-27.3
	c1.5,0,2.9,0.1,4.3,0.3h0.1c-4.7,2.1-8,6-8.8,11.3l0,0l0,0c-0.1,0.5-0.1,1-0.1,1.5l0,0c0,0,0,0.1,0,0.3c0,0.1,0,0.1,0,0.2
	c0,0.2,0,0.3,0,0.5l0,0c-0.1,2.3-0.1,5.9,0.5,10.3l-8.8,3.2c-0.6,0.2-0.9,0.9-0.7,1.5l0.4,1c1.4,3.8,5.8,5.3,9.3,3.3l0.8-0.5
	l0.2-0.1v0.3c0.2,3.3,0,5.9-0.2,7.5h-0.1c0,0.3,0,0.5-0.1,0.8C47.2,65.5,47,66,47,66.1C45.9,70.1,42.4,72.9,38.2,72.9z M50.5,77.8
	c-1.6,0-3.1-0.1-4.6-0.4l0,0l0,0c4.9-2.2,8.4-6.4,9-12.1c0.3-2.1,0.8-7.4-0.1-13.6l9-5.4c1-0.6,1.4-1.8,1-2.9l-0.1-0.2
	c-0.4-1.2-1.7-1.7-2.9-1.3l-8,2.9h-0.1v-0.1c-0.4-3.7-0.4-6.1-0.3-7.1l0,0c0.3-6.9,4.4-9.8,9.4-9.7c2.1,0,4.1,0.8,5.7,2
	c0.4,0.3,0.8,0.7,1.1,1.1c4.1,4,6.9,9.4,7.8,15.3c0.2,1.3,0.3,2.7,0.3,4.1C77.9,65.5,65.6,77.8,50.5,77.8z"/>
</svg>
