<?xml version="1.0" encoding="utf-8"?>
<!-- Generator: Adobe Illustrator 25.2.3, SVG Export Plug-In . SVG Version: 6.00 Build 0)  -->
<svg version="1.1" id="Layer_1" xmlns="http://www.w3.org/2000/svg" xmlns:xlink="http://www.w3.org/1999/xlink" x="0px" y="0px"
	 viewBox="0 0 100 100" style="enable-background:new 0 0 100 100;" xml:space="preserve">
<style type="text/css">
	.st0{fill:#FFFFFF;}
</style>
<path class="st0" d="M50.5,15.6c-19.2,0-34.8,15.6-34.8,34.8s15.6,34.8,34.8,34.8s34.8-15.6,34.8-34.8S69.8,15.6,50.5,15.6z
	 M38.2,72.9c-2.4,0-4.5-0.9-6.1-2.3l0,0c-4.3-4-7.4-9.4-8.5-15.4c-0.3-1.5-0.4-3.1-0.4-4.7c0-15.1,12.2-27.3,27.3-27.3
	c1.5,0,2.9,0.1,4.3,0.3h0.1c-4.7,2.1-8,6-8.8,11.3l0,0l0,0c-0.1,0.5-0.1,1-0.1,1.5l0,0c0,0,0,0.1,0,0.3c0,0.1,0,0.1,0,0.2
	c0,0.2,0,0.3,0,0.5l0,0c-0.1,2.3-0.1,5.9,0.5,10.3l-8.8,3.2c-0.6,0.2-0.9,0.9-0.7,1.5l0.4,1c1.4,3.8,5.8,5.3,9.3,3.3l0.8-0.5
	l0.2-0.1v0.3c0.2,3.3,0,5.9-0.2,7.5h-0.1c0,0.3,0,0.5-0.1,0.8C47.2,65.5,47,66,47,66.1C45.9,70.1,42.4,72.9,38.2,72.9z M50.5,77.8
	c-1.6,0-3.1-0.1-4.6-0.4l0,0l0,0c4.9-2.2,8.4-6.4,9-12.1c0.3-2.1,0.8-7.4-0.1-13.6l9-5.4c1-0.6,1.4-1.8,1-2.9l-0.1-0.2
	c-0.4-1.2-1.7-1.7-2.9-1.3l-8,2.9h-0.1v-0.1c-0.4-3.7-0.4-6.1-0.3-7.1l0,0c0.3-6.9,4.4-9.8,9.4-9.7c2.1,0,4.1,0.8,5.7,2
	c0.4,0.3,0.8,0.7,1.1,1.1c4.1,4,6.9,9.4,7.8,15.3c0.2,1.3,0.3,2.7,0.3,4.1C77.9,65.5,65.6,77.8,50.5,77.8z"/>
<g>
	<path class="st0" d="M12.9,49.6c0-5.2,3.9-8.6,8.8-8.6c3.9,0,5.9,2,7.2,4.1l-3.1,1.5c-0.7-1.3-2.2-2.4-4.1-2.4
		c-2.9,0-5.1,2.3-5.1,5.5s2.2,5.5,5.1,5.5c1.9,0,3.3-1.1,4.1-2.4l3.1,1.4c-1.2,2.1-3.3,4.1-7.2,4.1C16.9,58.2,12.9,54.7,12.9,49.6z"
		/>
	<path class="st0" d="M31,41.2h3.5v13.5h7v3.1H31C31,57.9,31,41.2,31,41.2z"/>
	<path class="st0" d="M54.6,55h-7.5l-1.1,2.9h-3.9l6.5-16.7h4.4l6.4,16.7h-3.9L54.6,55z M48.1,51.9h5.5l-2.8-7.7L48.1,51.9z"/>
	<path class="st0" d="M61.1,41.2h3.5V58h-3.5V41.2z"/>
	<path class="st0" d="M82.5,45.9l-4.7,12h-1.5l-4.6-12v12h-3.5V41.2h5l4.1,10.5l4.1-10.5h5V58h-3.6C82.5,58,82.5,45.9,82.5,45.9z"/>
</g>
<g>
	<path class="st0" d="M23.8,67.6l-2.6-3.9h1.3l1.8,2.9l1.8-2.9h1.3L25,67.6v2.8h-1.2V67.6z"/>
	<path class="st0" d="M26.7,67.9c0-1.4,0.9-2.5,2.5-2.5c1.5,0,2.5,1.1,2.5,2.5s-0.9,2.5-2.5,2.5C27.7,70.4,26.7,69.3,26.7,67.9z
		 M30.6,67.9c0-0.8-0.5-1.6-1.4-1.6s-1.4,0.7-1.4,1.6s0.5,1.6,1.4,1.6S30.6,68.8,30.6,67.9z"/>
	<path class="st0" d="M36,69.7c-0.4,0.4-0.9,0.8-1.7,0.8c-1,0-1.5-0.5-1.5-1.5v-3.4h1v3c0,0.7,0.4,1,1,1c0.5,0,1-0.3,1.2-0.6v-3.4h1
		v4.8h-1V69.7z"/>
	<path class="st0" d="M38.4,65.5h1v0.7c0.4-0.5,0.9-0.8,1.6-0.8v1c-0.1,0-0.2,0-0.3,0c-0.4,0-1,0.3-1.2,0.6v3.3h-1L38.4,65.5
		L38.4,65.5z"/>
	<path class="st0" d="M44.5,63.7h4.6v1h-3.4v1.7H49v1h-3.3v2.9h-1.2V63.7z"/>
	<path class="st0" d="M52.5,67.8h-1.2v2.5h-1.2v-6.7H53c1.3,0,2.2,0.9,2.2,2.1s-0.8,1.8-1.6,2l1.6,2.6h-1.3L52.5,67.8z M52.9,64.7
		h-1.6v2.1h1.6c0.7,0,1.1-0.4,1.1-1.1S53.6,64.7,52.9,64.7z"/>
	<path class="st0" d="M56.4,63.7H61v1h-3.4v1.7h3.3v1h-3.3v1.8H61v1h-4.6V63.7z"/>
	<path class="st0" d="M62.2,63.7h4.6v1h-3.4v1.7h3.3v1h-3.3v1.8h3.4v1h-4.6C62.2,70.2,62.2,63.7,62.2,63.7z"/>
	<path class="st0" d="M71.1,63.5c2,0,3.4,1.5,3.4,3.4s-1.4,3.4-3.4,3.4S67.6,69,67.6,67S69.1,63.5,71.1,63.5z M71.1,64.6
		c-1.3,0-2.2,1-2.2,2.4s0.9,2.4,2.2,2.4c1.3,0,2.2-1,2.2-2.4C73.3,65.6,72.4,64.6,71.1,64.6z"/>
	<path class="st0" d="M75.8,68.5c0.5,0.5,1.2,0.9,2.1,0.9c1,0,1.3-0.5,1.3-0.9c0-0.6-0.7-0.8-1.5-1c-1.1-0.3-2.4-0.6-2.4-2
		c0-1.1,1-1.9,2.4-1.9c1,0,1.9,0.3,2.5,0.9l-0.7,0.9c-0.5-0.5-1.2-0.8-1.9-0.8c-0.7,0-1.1,0.3-1.1,0.8s0.7,0.7,1.5,0.9
		c1.1,0.3,2.4,0.6,2.4,2.1c0,1.1-0.8,2.1-2.6,2.1c-1.2,0-2.1-0.4-2.7-1.1L75.8,68.5z"/>
	<path class="st0" d="M33.4,75.5c2,0,3.4,1.5,3.4,3.4s-1.4,3.4-3.4,3.4S30,81,30,79S31.4,75.5,33.4,75.5z M33.4,76.6
		c-1.3,0-2.2,1-2.2,2.4s0.9,2.4,2.2,2.4s2.2-1,2.2-2.4C35.6,77.6,34.7,76.6,33.4,76.6z"/>
	<path class="st0" d="M37.9,75.7h2.9c1.4,0,2.2,1,2.2,2.1s-0.8,2.1-2.2,2.1H39v2.5h-1.2L37.9,75.7L37.9,75.7z M40.7,76.7h-1.6v2.1
		h1.6c0.7,0,1.1-0.4,1.1-1.1S41.4,76.7,40.7,76.7z"/>
	<path class="st0" d="M45.6,76.7h-2v-1h5.2v1h-2v5.6h-1.2V76.7z"/>
	<path class="st0" d="M49.8,75.7H51v6.7h-1.2V75.7z"/>
	<path class="st0" d="M55.5,75.5c2,0,3.4,1.5,3.4,3.4s-1.4,3.4-3.4,3.4S52.1,81,52.1,79S53.5,75.5,55.5,75.5z M55.5,76.6
		c-1.3,0-2.2,1-2.2,2.4s0.9,2.4,2.2,2.4s2.2-1,2.2-2.4S56.8,76.6,55.5,76.6z"/>
	<path class="st0" d="M61.2,77.5v4.9H60v-6.7h1.2l3.4,4.7v-4.7h1.2v6.7h-1.1L61.2,77.5z"/>
	<path class="st0" d="M67.5,80.5c0.5,0.5,1.2,0.9,2.1,0.9c1,0,1.3-0.5,1.3-0.9c0-0.6-0.7-0.8-1.5-1c-1.1-0.3-2.4-0.6-2.4-2
		c0-1.1,1-1.9,2.4-1.9c1,0,1.9,0.3,2.5,0.9l-0.7,0.9c-0.5-0.5-1.2-0.8-1.9-0.8c-0.7,0-1.1,0.3-1.1,0.8s0.7,0.7,1.5,0.9
		c1.1,0.3,2.4,0.6,2.4,2.1c0,1.1-0.8,2.1-2.6,2.1c-1.2,0-2.1-0.4-2.7-1.1L67.5,80.5z"/>
</g>
</svg>
