<?xml version="1.0" encoding="utf-8"?>
<!-- Generator: Adobe Illustrator 25.2.3, SVG Export Plug-In . SVG Version: 6.00 Build 0)  -->
<svg version="1.2" baseProfile="tiny" id="Layer_1" xmlns="http://www.w3.org/2000/svg" xmlns:xlink="http://www.w3.org/1999/xlink"
	 x="0px" y="0px" viewBox="0 0 100 100" overflow="visible" xml:space="preserve">
<path fill="#FFFFFF" d="M50.5,15.6c-19.2,0-34.8,15.6-34.8,34.8s15.6,34.8,34.8,34.8s34.8-15.6,34.8-34.8S69.8,15.6,50.5,15.6z
	 M38.2,72.9c-2.4,0-4.5-0.9-6.1-2.3l0,0c-4.3-4-7.4-9.4-8.5-15.4c-0.3-1.5-0.4-3.1-0.4-4.7c0-15.1,12.2-27.3,27.3-27.3
	c1.5,0,2.9,0.1,4.3,0.3c0,0,0.1,0,0.1,0c-4.7,2.1-8,6-8.8,11.3l0,0c0,0,0,0,0,0C46,35.3,46,35.8,46,36.3l0,0c0,0,0,0.1,0,0.3
	c0,0.1,0,0.1,0,0.2c0,0.2,0,0.3,0,0.5l0,0c-0.1,2.3-0.1,5.9,0.5,10.3l-8.8,3.2c-0.6,0.2-0.9,0.9-0.7,1.5l0.4,1
	c1.4,3.8,5.8,5.3,9.3,3.3l0.8-0.5l0.2-0.1l0,0.3c0.2,3.3,0,5.9-0.2,7.5l-0.1,0c0,0.3,0,0.5-0.1,0.8c-0.1,0.9-0.3,1.4-0.3,1.5
	C45.9,70.1,42.4,72.9,38.2,72.9z M50.5,77.8c-1.6,0-3.1-0.1-4.6-0.4c0,0,0,0,0,0h0c4.9-2.2,8.4-6.4,9-12.1c0.3-2.1,0.8-7.4-0.1-13.6
	l9-5.4c1-0.6,1.4-1.8,1-2.9l-0.1-0.2c-0.4-1.2-1.7-1.7-2.9-1.3l-8,2.9l-0.1,0l0-0.1c-0.4-3.7-0.4-6.1-0.3-7.1l0,0
	c0.3-6.9,4.4-9.8,9.4-9.7c2.1,0,4.1,0.8,5.7,2c0.4,0.3,0.8,0.7,1.1,1.1c4.1,4,6.9,9.4,7.8,15.3c0.2,1.3,0.3,2.7,0.3,4.1
	C77.9,65.5,65.6,77.8,50.5,77.8z"/>
<g>
	<path fill="#FFFFFF" d="M14.9,51.4c0-4.7,3.5-7.8,8-7.8c3.5,0,5.4,1.8,6.5,3.7l-2.8,1.4c-0.6-1.2-2-2.2-3.7-2.2
		c-2.6,0-4.6,2.1-4.6,5s2,5,4.6,5c1.7,0,3-1,3.7-2.2l2.8,1.3c-1.1,1.9-3,3.7-6.5,3.7C18.5,59.2,14.9,56,14.9,51.4z"/>
	<path fill="#FFFFFF" d="M31.3,43.8h3.2v12.3h6.4v2.8h-9.6V43.8z"/>
	<path fill="#FFFFFF" d="M52.8,56.3h-6.8l-1,2.6h-3.5l5.9-15.2h4l5.8,15.2h-3.5L52.8,56.3z M46.9,53.5h5l-2.5-7L46.9,53.5z"/>
	<path fill="#FFFFFF" d="M58.7,43.8h3.2v15.2h-3.2V43.8z"/>
	<path fill="#FFFFFF" d="M78.1,48l-4.3,10.9h-1.4L68.2,48v10.9h-3.2V43.8h4.5l3.7,9.5l3.7-9.5h4.5v15.2h-3.3V48z"/>
</g>
<g>
	<path fill="#FFFFFF" d="M23.8,68.6l-2.6-3.9h1.3l1.8,2.9l1.8-2.9h1.3L25,68.6v2.8h-1.2V68.6z"/>
	<path fill="#FFFFFF" d="M26.7,68.9c0-1.4,0.9-2.5,2.5-2.5c1.5,0,2.5,1.1,2.5,2.5c0,1.4-0.9,2.5-2.5,2.5
		C27.7,71.4,26.7,70.3,26.7,68.9z M30.6,68.9c0-0.8-0.5-1.6-1.4-1.6c-0.9,0-1.4,0.7-1.4,1.6c0,0.9,0.5,1.6,1.4,1.6
		C30.1,70.5,30.6,69.8,30.6,68.9z"/>
	<path fill="#FFFFFF" d="M36,70.7c-0.4,0.4-0.9,0.8-1.7,0.8c-1,0-1.5-0.5-1.5-1.5v-3.4h1v3c0,0.7,0.4,1,1,1c0.5,0,1-0.3,1.2-0.6
		v-3.4h1v4.8h-1V70.7z"/>
	<path fill="#FFFFFF" d="M38.4,66.5h1v0.7c0.4-0.5,0.9-0.8,1.6-0.8v1c-0.1,0-0.2,0-0.3,0c-0.4,0-1,0.3-1.2,0.6v3.3h-1V66.5z"/>
	<path fill="#FFFFFF" d="M44.5,64.7h4.6v1h-3.4v1.7H49v1h-3.3v2.9h-1.2V64.7z"/>
	<path fill="#FFFFFF" d="M52.5,68.8h-1.2v2.5h-1.2v-6.7h2.9c1.3,0,2.2,0.9,2.2,2.1c0,1.2-0.8,1.8-1.6,2l1.6,2.6h-1.3L52.5,68.8z
		 M52.9,65.7h-1.6v2.1h1.6c0.7,0,1.1-0.4,1.1-1.1S53.6,65.7,52.9,65.7z"/>
	<path fill="#FFFFFF" d="M56.4,64.7H61v1h-3.4v1.7h3.3v1h-3.3v1.8H61v1h-4.6V64.7z"/>
	<path fill="#FFFFFF" d="M62.2,64.7h4.6v1h-3.4v1.7h3.3v1h-3.3v1.8h3.4v1h-4.6V64.7z"/>
	<path fill="#FFFFFF" d="M71.1,64.5c2,0,3.4,1.5,3.4,3.4s-1.4,3.4-3.4,3.4S67.6,70,67.6,68S69.1,64.5,71.1,64.5z M71.1,65.6
		c-1.3,0-2.2,1-2.2,2.4c0,1.4,0.9,2.4,2.2,2.4c1.3,0,2.2-1,2.2-2.4C73.3,66.6,72.4,65.6,71.1,65.6z"/>
	<path fill="#FFFFFF" d="M75.8,69.5c0.5,0.5,1.2,0.9,2.1,0.9c1,0,1.3-0.5,1.3-0.9c0-0.6-0.7-0.8-1.5-1c-1.1-0.3-2.4-0.6-2.4-2
		c0-1.1,1-1.9,2.4-1.9c1,0,1.9,0.3,2.5,0.9l-0.7,0.9c-0.5-0.5-1.2-0.8-1.9-0.8c-0.7,0-1.1,0.3-1.1,0.8c0,0.5,0.7,0.7,1.5,0.9
		c1.1,0.3,2.4,0.6,2.4,2.1c0,1.1-0.8,2.1-2.6,2.1c-1.2,0-2.1-0.4-2.7-1.1L75.8,69.5z"/>
	<path fill="#FFFFFF" d="M33.4,76.5c2,0,3.4,1.5,3.4,3.4s-1.4,3.4-3.4,3.4S30,82,30,80S31.4,76.5,33.4,76.5z M33.4,77.6
		c-1.3,0-2.2,1-2.2,2.4c0,1.4,0.9,2.4,2.2,2.4c1.3,0,2.2-1,2.2-2.4C35.6,78.6,34.7,77.6,33.4,77.6z"/>
	<path fill="#FFFFFF" d="M37.9,76.7h2.9c1.4,0,2.2,1,2.2,2.1c0,1.1-0.8,2.1-2.2,2.1h-1.8v2.5h-1.2V76.7z M40.7,77.7h-1.6v2.1h1.6
		c0.7,0,1.1-0.4,1.1-1.1S41.4,77.7,40.7,77.7z"/>
	<path fill="#FFFFFF" d="M45.6,77.7h-2v-1h5.2v1h-2v5.6h-1.2V77.7z"/>
	<path fill="#FFFFFF" d="M49.8,76.7H51v6.7h-1.2V76.7z"/>
	<path fill="#FFFFFF" d="M55.5,76.5c2,0,3.4,1.5,3.4,3.4s-1.4,3.4-3.4,3.4S52.1,82,52.1,80S53.5,76.5,55.5,76.5z M55.5,77.6
		c-1.3,0-2.2,1-2.2,2.4c0,1.4,0.9,2.4,2.2,2.4c1.3,0,2.2-1,2.2-2.4C57.7,78.6,56.8,77.6,55.5,77.6z"/>
	<path fill="#FFFFFF" d="M61.2,78.5v4.9H60v-6.7h1.2l3.4,4.7v-4.7h1.2v6.7h-1.1L61.2,78.5z"/>
	<path fill="#FFFFFF" d="M67.5,81.5c0.5,0.5,1.2,0.9,2.1,0.9c1,0,1.3-0.5,1.3-0.9c0-0.6-0.7-0.8-1.5-1c-1.1-0.3-2.4-0.6-2.4-2
		c0-1.1,1-1.9,2.4-1.9c1,0,1.9,0.3,2.5,0.9l-0.7,0.9c-0.5-0.5-1.2-0.8-1.9-0.8c-0.7,0-1.1,0.3-1.1,0.8c0,0.5,0.7,0.7,1.5,0.9
		c1.1,0.3,2.4,0.6,2.4,2.1c0,1.1-0.8,2.1-2.6,2.1c-1.2,0-2.1-0.4-2.7-1.1L67.5,81.5z"/>
</g>
</svg>
