<svg xmlns="http://www.w3.org/2000/svg" viewBox="0 0 24 24">
    <path d="M3.502 12.838s0-.39 0 0c0-.39 0-.39 0 0 0-.39 0-.39 0 0l1.945-1.945v-.778h-.778l-.778.778C4.28 7.003 7.78 3.89 12.06 3.89c3.112 0 5.835 1.945 7.39 4.668 0 .389.39.389.779.389s.389-.39.389-.778c-1.945-2.723-5.057-5.057-8.558-5.057-4.28 0-8.17 3.112-8.947 7.39l-.778-.777h-.39c-.388 0-.388.389 0 .778l1.168 2.334c0-.39 0-.39.389 0-.39 0-.39 0 0 0-.39 0-.39 0 0 0-.39 0-.39 0 0 0zM22.174 14.005l-1.167-1.945-2.723 1.556v.778c0 .389.389 0 .778 0l.778-.778c-.39 3.89-3.89 7.002-8.17 7.002-3.111-.39-5.834-2.334-7.39-5.057 0-.39-.39-.39-.778-.39-.39 0-.39.39-.39.779 1.946 3.112 5.058 5.446 8.948 5.446 4.279 0 8.169-3.501 8.558-7.78l.778 1.167.389.389h.389v-1.167z" />
</svg>