<?xml version="1.0" encoding="iso-8859-1"?>
<!-- Generator: Adobe Illustrator 19.0.0, SVG Export Plug-In . SVG Version: 6.00 Build 0)  -->
<svg version="1.1" id="Capa_1" xmlns="http://www.w3.org/2000/svg" xmlns:xlink="http://www.w3.org/1999/xlink" x="0px" y="0px"
	 viewBox="0 0 511.995 511.995" style="enable-background:new 0 0 511.995 511.995;" xml:space="preserve">
<g>
	<g>
		<path fill="#00a1ed" d="M469.491,149.441L326.624,6.378c-8.49-8.511-22.234-8.49-30.723-0.022c-8.49,8.468-8.49,22.212-0.022,30.723
			l106.087,106.217H184.451c-81.508,0-148.013,66.31-148.296,147.883v199.103c0,12.007,9.705,21.712,21.712,21.712
			s21.712-9.705,21.712-21.712V291.245c0.195-57.646,47.246-104.523,104.871-104.523h217.081L295.857,292.526
			c-8.468,8.511-8.468,22.234,0.022,30.723c4.234,4.212,9.792,6.34,15.351,6.34c5.558,0,11.138-2.128,15.372-6.362L469.47,180.142
			C477.959,171.653,477.959,157.909,469.491,149.441z"/>
	</g>
</g>
<g>
</g>
<g>
</g>
<g>
</g>
<g>
</g>
<g>
</g>
<g>
</g>
<g>
</g>
<g>
</g>
<g>
</g>
<g>
</g>
<g>
</g>
<g>
</g>
<g>
</g>
<g>
</g>
<g>
</g>
</svg>
