<svg xmlns="http://www.w3.org/2000/svg" width="34.622" height="34.623" viewBox="0 0 34.622 34.623">
  <path id="Path_8" data-name="Path 8" d="M564.059,217.072A17.312,17.312,0,1,1,581.37,199.76,17.331,17.331,0,0,1,564.059,217.072Zm0-32.623A15.312,15.312,0,1,0,579.37,199.76,15.328,15.328,0,0,0,564.059,184.449Z" transform="translate(-546.748 -182.449)" fill="#00aced"/>
  <g id="Group_3" data-name="Group 3" transform="translate(-546.748 -182.449)">
    <path id="Path_9" data-name="Path 9" d="M564.532,209h-.947v-1.943a6.656,6.656,0,0,1-2.871-.84,4.213,4.213,0,0,1-1.641-3.828h2.637a4.766,4.766,0,0,0,.381,1.65,2.009,2.009,0,0,0,1.494.85v-4.17l-.791-.235a5.057,5.057,0,0,1-2.632-1.523,3.7,3.7,0,0,1-.766-2.354,4.387,4.387,0,0,1,.3-1.65,3.758,3.758,0,0,1,.835-1.279,3.72,3.72,0,0,1,1.543-.957,7.03,7.03,0,0,1,1.513-.244v-1.3h.947V192.5a4.874,4.874,0,0,1,2.489.781,3.837,3.837,0,0,1,1.7,3.389h-2.568a3.561,3.561,0,0,0-.29-1.27,1.5,1.5,0,0,0-1.332-.761v3.72a12.242,12.242,0,0,1,3.112,1.416,3.458,3.458,0,0,1,1.312,2.891,3.882,3.882,0,0,1-1.806,3.574,5.735,5.735,0,0,1-2.618.8Zm-.947-14.346a1.723,1.723,0,0,0-1.26.454,1.663,1.663,0,0,0-.41,1.187,1.556,1.556,0,0,0,.616,1.3,3.476,3.476,0,0,0,1.054.488Zm.947,10.2a2.434,2.434,0,0,0,1.111-.351,1.808,1.808,0,0,0,.608-1.553,1.66,1.66,0,0,0-.569-1.328,4.134,4.134,0,0,0-1.15-.586Z" fill="#00aced"/>
  </g>
</svg>
