<svg xmlns="http://www.w3.org/2000/svg" width="15.05" height="15.051" viewBox="0 0 15.05 15.051">
  <g id="Group_24" data-name="Group 24" transform="translate(-556.534 -640.165)">
    <path id="Path_32" data-name="Path 32" d="M564.059,655.216a7.526,7.526,0,1,1,7.525-7.526A7.534,7.534,0,0,1,564.059,655.216Zm0-14.051a6.526,6.526,0,1,0,6.525,6.525A6.533,6.533,0,0,0,564.059,641.165Z" fill="#999999"/>
    <g id="Group_23" data-name="Group 23">
      <path id="Path_33" data-name="Path 33" d="M562.728,651.764V651.4c.81-.076.9-.14.9-1.015v-2.651c0-.8-.038-.847-.81-.976v-.309a8.4,8.4,0,0,0,1.826-.515v4.451c0,.875.091.939.927,1.015v.362Zm1.338-7.088a.7.7,0,0,1-.682-.682.7.7,0,0,1,.7-.708.672.672,0,0,1,.656.708A.684.684,0,0,1,564.066,644.676Z" fill="#999999"/>
    </g>
  </g>
</svg>