<svg xmlns="http://www.w3.org/2000/svg" width="357.497" height="138.678" viewBox="0 0 357.497 138.678">
  <g id="Group_120" data-name="Group 120" transform="translate(-680.592 -651.886)">
    <g id="Group_75" data-name="Group 75">
      <g id="Group_32" data-name="Group 32">
        <circle id="Ellipse_4" data-name="Ellipse 4" cx="0.661" cy="0.661" r="0.661" transform="translate(724.231 680.346)" fill="#00bbf1"/>
        <path id="Path_43" data-name="Path 43" d="M725.548,681.081l-.246,9.156-1.066-9.3Z" fill="#00bbf1"/>
      </g>
      <g id="Group_33" data-name="Group 33">
        <circle id="Ellipse_5" data-name="Ellipse 5" cx="0.661" cy="0.661" r="0.661" transform="translate(744.267 686.274)" fill="#00bbf1"/>
        <path id="Path_44" data-name="Path 44" d="M744.995,687.592l-9,1.706,8.864-3.02Z" fill="#00bbf1"/>
      </g>
      <g id="Group_34" data-name="Group 34">
        <circle id="Ellipse_6" data-name="Ellipse 6" cx="0.661" cy="0.661" r="0.661" transform="translate(726.265 671.276)" fill="#00bbf1"/>
        <path id="Path_45" data-name="Path 45" d="M727.577,672.045l-.728,9.13-.575-9.347Z" fill="#00bbf1"/>
      </g>
      <g id="Group_35" data-name="Group 35">
        <circle id="Ellipse_7" data-name="Ellipse 7" cx="0.661" cy="0.661" r="0.661" transform="translate(737.631 676.071)" fill="#00bbf1"/>
        <path id="Path_46" data-name="Path 46" d="M738.74,677.216l-6.168,6.77,5.272-7.74Z" fill="#00bbf1"/>
      </g>
      <g id="Group_36" data-name="Group 36">
        <circle id="Ellipse_8" data-name="Ellipse 8" cx="0.661" cy="0.661" r="0.661" transform="translate(732.023 667.251)" fill="#00bbf1"/>
        <path id="Path_47" data-name="Path 47" d="M733.293,668.167l-2.808,8.718,1.59-9.229Z" fill="#00bbf1"/>
      </g>
      <g id="Group_37" data-name="Group 37">
        <ellipse id="Ellipse_9" data-name="Ellipse 9" cx="0.952" cy="0.661" rx="0.952" ry="0.661" transform="translate(721.979 667.031) rotate(-89.353)" fill="#00bbf1"/>
        <path id="Path_48" data-name="Path 48" d="M723.311,666.094l.634,13.156-1.955-13.171Z" fill="#00bbf1"/>
      </g>
      <g id="Group_38" data-name="Group 38">
        <circle id="Ellipse_10" data-name="Ellipse 10" cx="0.661" cy="0.661" r="0.661" transform="translate(722.255 685.53)" fill="#00bbf1"/>
        <path id="Path_49" data-name="Path 49" d="M723.574,686.139l1.483,9.038-2.8-8.936Z" fill="#00bbf1"/>
      </g>
      <g id="Group_39" data-name="Group 39">
        <ellipse id="Ellipse_11" data-name="Ellipse 11" cx="0.661" cy="0.895" rx="0.661" ry="0.895" transform="translate(718.608 668.279) rotate(-8.2)" fill="#00bbf1"/>
        <path id="Path_50" data-name="Path 50" d="M720.043,668.976l2.539,12.13-3.846-11.942Z" fill="#00bbf1"/>
      </g>
      <g id="Group_40" data-name="Group 40">
        <ellipse id="Ellipse_12" data-name="Ellipse 12" cx="0.661" cy="1.094" rx="0.661" ry="1.094" transform="translate(713.94 667.34) rotate(-17.778)" fill="#00bbf1"/>
        <path id="Path_51" data-name="Path 51" d="M715.532,667.978l5.358,14.147-6.616-13.744Z" fill="#00bbf1"/>
      </g>
      <g id="Group_41" data-name="Group 41">
        <ellipse id="Ellipse_13" data-name="Ellipse 13" cx="1.094" cy="0.661" rx="1.094" ry="0.661" transform="translate(734.333 673.122) rotate(-60.136)" fill="#00bbf1"/>
        <path id="Path_52" data-name="Path 52" d="M736.023,672.831l-6.844,13.491,5.7-14.149Z" fill="#00bbf1"/>
      </g>
      <g id="Group_42" data-name="Group 42">
        <circle id="Ellipse_14" data-name="Ellipse 14" cx="0.661" cy="0.661" r="0.661" transform="translate(713.169 695.577)" fill="#00bbf1"/>
        <path id="Path_53" data-name="Path 53" d="M713.806,695.577l9.092-1.1-9.046,2.423Z" fill="#00bbf1"/>
      </g>
      <g id="Group_43" data-name="Group 43">
        <circle id="Ellipse_15" data-name="Ellipse 15" cx="0.661" cy="0.661" r="0.661" transform="translate(728.006 678.482)" fill="#00bbf1"/>
        <path id="Path_54" data-name="Path 54" d="M729.29,679.36l-2.26,8.876,1.013-9.31Z" fill="#00bbf1"/>
      </g>
      <g id="Group_44" data-name="Group 44">
        <circle id="Ellipse_16" data-name="Ellipse 16" cx="0.661" cy="0.661" r="0.661" transform="translate(735.791 681.484)" fill="#00bbf1"/>
        <path id="Path_55" data-name="Path 55" d="M736.874,682.652l-6.509,6.443,5.663-7.458Z" fill="#00bbf1"/>
      </g>
      <g id="Group_45" data-name="Group 45">
        <ellipse id="Ellipse_17" data-name="Ellipse 17" cx="0.516" cy="0.661" rx="0.516" ry="0.661" transform="matrix(0.825, -0.566, 0.566, 0.825, 730.7, 689.704)" fill="#00bbf1"/>
        <path id="Path_56" data-name="Path 56" d="M731.873,690.5l-5.435,4.677,4.687-5.767Z" fill="#00bbf1"/>
      </g>
      <g id="Group_46" data-name="Group 46">
        <circle id="Ellipse_18" data-name="Ellipse 18" cx="0.661" cy="0.661" r="0.661" transform="translate(712.881 674.438)" fill="#00bbf1"/>
        <path id="Path_57" data-name="Path 57" d="M714.121,674.781c.017-.009.76,1.141.8,1.206a2.529,2.529,0,0,1,.378.674,4.4,4.4,0,0,0,.537.93q.621,1.007,1.229,2.022,1.215,2.031,2.374,4.094.943,1.682,1.851,3.384l-2.22-3.444c-.809-1.255-1.619-2.511-2.485-3.729-.435-.61-.883-1.211-1.351-1.8-.234-.292-.474-.581-.718-.864a4.925,4.925,0,0,1-.687-.8,5.783,5.783,0,0,0-.869-1.038Z" fill="#00bbf1"/>
      </g>
      <g id="Group_47" data-name="Group 47">
        <circle id="Ellipse_19" data-name="Ellipse 19" cx="0.661" cy="0.661" r="0.661" transform="translate(706.474 672.212)" fill="#00bbf1"/>
        <path id="Path_58" data-name="Path 58" d="M707.661,672.474c.016-.012.918,1.017.971,1.076a2.554,2.554,0,0,1,.472.611,4.334,4.334,0,0,0,.667.842q.761.906,1.51,1.822,1.5,1.832,2.946,3.7,1.179,1.526,2.325,3.077l-2.7-3.083c-.984-1.124-1.968-2.248-3-3.326-.519-.541-1.05-1.07-1.6-1.581q-.411-.383-.836-.75a4.912,4.912,0,0,1-.8-.694,5.767,5.767,0,0,0-1.011-.9Z" fill="#00bbf1"/>
      </g>
      <g id="Group_48" data-name="Group 48">
        <circle id="Ellipse_20" data-name="Ellipse 20" cx="0.661" cy="0.661" r="0.661" transform="translate(744.473 680.224)" fill="#00bbf1"/>
        <path id="Path_59" data-name="Path 59" d="M744.709,680.378c-.012-.015-1.122.787-1.186.832a2.55,2.55,0,0,0-.6.491,4.336,4.336,0,0,1-.837.672q-.945.713-1.879,1.439-1.869,1.45-3.7,2.953-1.49,1.224-2.953,2.481l3.318-2.4c1.21-.876,2.421-1.752,3.669-2.573.627-.411,1.262-.809,1.911-1.184q.486-.281.982-.544a4.952,4.952,0,0,0,.932-.5,5.761,5.761,0,0,1,1.187-.652Z" fill="#00bbf1"/>
      </g>
      <g id="Group_49" data-name="Group 49">
        <circle id="Ellipse_21" data-name="Ellipse 21" cx="0.661" cy="0.661" r="0.661" transform="translate(707.686 678.458)" fill="#00bbf1"/>
        <path id="Path_60" data-name="Path 60" d="M708.834,678.673c.015-.013,1.008.928,1.066.982a2.556,2.556,0,0,1,.526.565,4.322,4.322,0,0,0,.742.777q.841.831,1.671,1.674,1.66,1.688,3.275,3.418,1.316,1.41,2.6,2.85l-2.971-2.821c-1.084-1.029-2.168-2.058-3.3-3.036-.566-.491-1.144-.969-1.737-1.427-.3-.228-.6-.452-.9-.669a5.054,5.054,0,0,1-.857-.618,5.771,5.771,0,0,0-1.09-.8Z" fill="#00bbf1"/>
      </g>
      <g id="Group_50" data-name="Group 50">
        <circle id="Ellipse_22" data-name="Ellipse 22" cx="0.661" cy="0.661" r="0.661" transform="translate(704.216 680.178)" fill="#00bbf1"/>
        <path id="Path_61" data-name="Path 61" d="M705.28,680.316c.012-.015,1.153.74,1.22.783a2.563,2.563,0,0,1,.616.466,4.366,4.366,0,0,0,.864.637q.974.673,1.936,1.36,1.927,1.374,3.815,2.8,1.54,1.161,3.053,2.358l-3.414-2.266c-1.245-.826-2.49-1.652-3.771-2.42-.643-.386-1.294-.757-1.958-1.1-.331-.174-.666-.343-1-.5a4.979,4.979,0,0,1-.951-.461,5.832,5.832,0,0,0-1.212-.6Z" fill="#00bbf1"/>
      </g>
      <g id="Group_51" data-name="Group 51">
        <circle id="Ellipse_23" data-name="Ellipse 23" cx="0.661" cy="0.661" r="0.661" transform="translate(705.821 683.881)" fill="#00bbf1"/>
        <path id="Path_62" data-name="Path 62" d="M706.839,683.987a1.85,1.85,0,0,1,.2.089,2.58,2.58,0,0,1,.337.2l.688.418q.777.469,1.557.933t1.565.921l.393.228c.065.037.129.079.2.113s.114.038.171.072q1.925,1.147,3.819,2.344,1.63,1.029,3.238,2.1l-3.591-1.974c-1.309-.719-2.619-1.439-3.959-2.1-.673-.331-1.353-.646-2.043-.938-.152-.064-.3-.127-.456-.188a1.164,1.164,0,0,0-.226-.085.855.855,0,0,1-.132-.024c-.141-.051-.277-.117-.416-.174q-.418-.171-.842-.33a.481.481,0,0,1-.146-.075.763.763,0,0,0-.1-.079,2.22,2.22,0,0,0-.394-.154c-.191-.064-.384-.121-.574-.189Z" fill="#00bbf1"/>
      </g>
      <g id="Group_52" data-name="Group 52">
        <ellipse id="Ellipse_24" data-name="Ellipse 24" cx="0.661" cy="0.511" rx="0.661" ry="0.511" transform="translate(702.635 695.366) rotate(-89.353)" fill="#00bbf1"/>
        <path id="Path_63" data-name="Path 63" d="M703.16,694.05c0-.019,1.058-.1,1.119-.111a1.523,1.523,0,0,1,.6,0,2.629,2.629,0,0,0,.83-.014q.915-.049,1.83-.083,1.832-.066,3.662-.069,1.491,0,2.984.039l-3.165.253c-1.154.092-2.309.185-3.459.345-.577.08-1.152.178-1.725.3-.286.062-.571.129-.855.2a3.114,3.114,0,0,1-.8.207,3.6,3.6,0,0,0-1.03.25Z" fill="#00bbf1"/>
      </g>
      <g id="Group_53" data-name="Group 53">
        <circle id="Ellipse_25" data-name="Ellipse 25" cx="0.661" cy="0.661" r="0.661" transform="translate(701.704 686.167)" fill="#00bbf1"/>
        <path id="Path_64" data-name="Path 64" d="M702.6,686.211c0-.006.058.01.062.012.115.028.231.059.344.1a1.573,1.573,0,0,1,.235.127,2.078,2.078,0,0,0,.4.127c.142.042.287.08.428.127q.868.259,1.732.541c.287.093.575.189.861.285l.429.147a1.021,1.021,0,0,1,.188.073,1.1,1.1,0,0,0,.209.08l.489.166q2.239.763,4.458,1.588,1.807.672,3.6,1.384l-3.92-1.191c-.722-.22-1.445-.439-2.17-.65a2.636,2.636,0,0,0-.441-.111.9.9,0,0,1-.193-.065q-.417-.155-.842-.291-.849-.272-1.718-.47-.44-.1-.884-.181c-.148-.027-.3-.059-.448-.077-.047-.005-.089.007-.135.005-.071,0-.144-.02-.214-.03h-.009l-1.813-.259-.969-.139c-.136-.019-.3-.068-.322-.2-.024-.163.183-.247.288-.328a.435.435,0,0,0,.142-.2c.054-.126.1-.257.148-.385Z" fill="#00bbf1"/>
      </g>
      <g id="Group_54" data-name="Group 54">
        <circle id="Ellipse_26" data-name="Ellipse 26" cx="0.661" cy="0.661" r="0.661" transform="translate(705.81 689.86)" fill="#00bbf1"/>
        <path id="Path_65" data-name="Path 65" d="M706.644,689.884c.005-.019,1.348.245,1.426.259a2.565,2.565,0,0,1,.747.2,4.31,4.31,0,0,0,1.042.259q1.155.252,2.308.521,2.305.535,4.6,1.134,1.866.489,3.72,1.018l-4.019-.794c-1.466-.289-2.932-.578-4.409-.8-.741-.112-1.485-.206-2.231-.275q-.559-.052-1.12-.084a4.935,4.935,0,0,1-1.055-.063,5.786,5.786,0,0,0-1.351-.1Z" fill="#00bbf1"/>
      </g>
      <g id="Group_55" data-name="Group 55">
        <circle id="Ellipse_27" data-name="Ellipse 27" cx="0.661" cy="0.661" r="0.661" transform="translate(726.42 705.722)" fill="#00bbf1"/>
        <path id="Path_66" data-name="Path 66" d="M726.42,706.375l-.68-9.134,2,9.148Z" fill="#00bbf1"/>
      </g>
      <g id="Group_56" data-name="Group 56">
        <circle id="Ellipse_28" data-name="Ellipse 28" cx="0.661" cy="0.661" r="0.661" transform="translate(704.469 699.681)" fill="#00bbf1"/>
        <path id="Path_67" data-name="Path 67" d="M705.053,699.686l8.974-1.83L705.206,701Z" fill="#00bbf1"/>
      </g>
      <g id="Group_57" data-name="Group 57">
        <circle id="Ellipse_29" data-name="Ellipse 29" cx="0.661" cy="0.661" r="0.661" transform="translate(723.856 713.265)" fill="#00bbf1"/>
        <path id="Path_68" data-name="Path 68" d="M723.863,713.826l.6-9.139.7,9.338Z" fill="#00bbf1"/>
      </g>
      <g id="Group_58" data-name="Group 58">
        <circle id="Ellipse_30" data-name="Ellipse 30" cx="0.661" cy="0.661" r="0.661" transform="translate(712.425 708.627)" fill="#00bbf1"/>
        <path id="Path_69" data-name="Path 69" d="M712.63,708.809l6.074-6.855-5.164,7.812Z" fill="#00bbf1"/>
      </g>
      <g id="Group_59" data-name="Group 59">
        <circle id="Ellipse_31" data-name="Ellipse 31" cx="0.661" cy="0.661" r="0.661" transform="translate(718.154 717.369)" fill="#00bbf1"/>
        <path id="Path_70" data-name="Path 70" d="M718.2,717.783l2.687-8.756-1.462,9.25Z" fill="#00bbf1"/>
      </g>
      <g id="Group_60" data-name="Group 60">
        <ellipse id="Ellipse_32" data-name="Ellipse 32" cx="0.661" cy="0.952" rx="0.661" ry="0.952" transform="translate(728.209 718.765) rotate(-0.146)" fill="#00bbf1"/>
        <path id="Path_71" data-name="Path 71" d="M728.212,719.717l-.816-13.146,2.137,13.142Z" fill="#00bbf1"/>
      </g>
      <g id="Group_61" data-name="Group 61">
        <ellipse id="Ellipse_33" data-name="Ellipse 33" cx="0.661" cy="0.895" rx="0.661" ry="0.895" transform="translate(731.299 715.905) rotate(-8.993)" fill="#00bbf1"/>
        <path id="Path_72" data-name="Path 72" d="M731.439,716.79,728.732,704.7l4.011,11.887Z" fill="#00bbf1"/>
      </g>
      <g id="Group_62" data-name="Group 62">
        <ellipse id="Ellipse_34" data-name="Ellipse 34" cx="0.661" cy="1.094" rx="0.661" ry="1.094" transform="matrix(0.948, -0.318, 0.318, 0.948, 735.615, 716.689)" fill="#00bbf1"/>
        <path id="Path_73" data-name="Path 73" d="M735.963,717.726l-5.554-14.072,6.806,13.651Z" fill="#00bbf1"/>
      </g>
      <g id="Group_63" data-name="Group 63">
        <ellipse id="Ellipse_35" data-name="Ellipse 35" cx="1.094" cy="0.661" rx="1.094" ry="0.661" transform="matrix(0.486, -0.874, 0.874, 0.486, 714.875, 714.112)" fill="#00bbf1"/>
        <path id="Path_74" data-name="Path 74" d="M715.407,713.156l6.656-13.585-5.5,14.227Z" fill="#00bbf1"/>
      </g>
      <g id="Group_64" data-name="Group 64">
        <circle id="Ellipse_36" data-name="Ellipse 36" cx="0.661" cy="0.661" r="0.661" transform="translate(742.794 686.879)" fill="#00bbf1"/>
        <path id="Path_75" data-name="Path 75" d="M743.487,688.2l-9.076,1.228,9.011-2.548Z" fill="#00bbf1"/>
      </g>
      <g id="Group_65" data-name="Group 65">
        <circle id="Ellipse_37" data-name="Ellipse 37" cx="0.661" cy="0.661" r="0.661" transform="translate(722.015 706.083)" fill="#00bbf1"/>
        <path id="Path_76" data-name="Path 76" d="M722.049,706.535l2.137-8.906-.884,9.323Z" fill="#00bbf1"/>
      </g>
      <g id="Group_66" data-name="Group 66">
        <circle id="Ellipse_38" data-name="Ellipse 38" cx="0.661" cy="0.661" r="0.661" transform="translate(711.443 704.645)" fill="#00bbf1"/>
        <path id="Path_77" data-name="Path 77" d="M711.753,704.746l7.314-5.512-6.612,6.632Z" fill="#00bbf1"/>
      </g>
      <g id="Group_67" data-name="Group 67">
        <circle id="Ellipse_39" data-name="Ellipse 39" cx="0.661" cy="0.661" r="0.661" transform="translate(737.195 709.917)" fill="#00bbf1"/>
        <path id="Path_78" data-name="Path 78" d="M737.281,710.9c-.017.009-.776-1.13-.821-1.2a2.523,2.523,0,0,1-.387-.668,4.345,4.345,0,0,0-.549-.922q-.636-1-1.257-2.005-1.244-2.014-2.43-4.061-.969-1.668-1.9-3.358l2.268,3.412c.827,1.245,1.654,2.489,2.537,3.7.442.6.9,1.2,1.376,1.777q.357.434.729.854a4.937,4.937,0,0,1,.7.794,5.8,5.8,0,0,0,.884,1.026Z" fill="#00bbf1"/>
      </g>
      <g id="Group_68" data-name="Group 68">
        <circle id="Ellipse_40" data-name="Ellipse 40" cx="0.661" cy="0.661" r="0.661" transform="translate(743.632 712.054)" fill="#00bbf1"/>
        <path id="Path_79" data-name="Path 79" d="M743.771,713.121c-.015.012-.932-1-.985-1.063a2.563,2.563,0,0,1-.481-.6,4.311,4.311,0,0,0-.678-.833q-.774-.894-1.535-1.8-1.524-1.812-3-3.663-1.2-1.511-2.367-3.045l2.74,3.045c1,1.11,2,2.221,3.049,3.285.526.533,1.064,1.055,1.62,1.558q.417.377.846.738a4.964,4.964,0,0,1,.807.683,5.773,5.773,0,0,0,1.023.887Z" fill="#00bbf1"/>
      </g>
      <g id="Group_69" data-name="Group 69">
        <circle id="Ellipse_41" data-name="Ellipse 41" cx="0.661" cy="0.661" r="0.661" transform="translate(704.633 703.143)" fill="#00bbf1"/>
        <path id="Path_80" data-name="Path 80" d="M705.588,704.394c.009.017,1.274-.505,1.348-.534a2.569,2.569,0,0,0,.694-.338,4.346,4.346,0,0,1,.971-.459q1.083-.474,2.161-.962,2.155-.978,4.283-2.014,1.734-.844,3.449-1.727l-3.786,1.566c-1.38.571-2.761,1.142-4.166,1.65-.705.255-1.416.493-2.134.707q-.539.16-1.082.3a4.938,4.938,0,0,0-1.022.268,5.746,5.746,0,0,1-1.306.359Z" fill="#00bbf1"/>
      </g>
      <g id="Group_70" data-name="Group 70">
        <circle id="Ellipse_42" data-name="Ellipse 42" cx="0.661" cy="0.661" r="0.661" transform="translate(743.017 705.034)" fill="#00bbf1"/>
        <path id="Path_81" data-name="Path 81" d="M743.271,706.215c-.012.015-1.149-.747-1.215-.79a2.544,2.544,0,0,1-.613-.469,4.326,4.326,0,0,0-.861-.642q-.969-.68-1.928-1.372-1.92-1.385-3.8-2.821-1.533-1.171-3.039-2.376l3.4,2.285c1.24.833,2.481,1.666,3.758,2.442.64.389,1.289.764,1.951,1.116q.5.264,1,.509a5.041,5.041,0,0,1,.949.466,5.8,5.8,0,0,0,1.208.61Z" fill="#00bbf1"/>
      </g>
      <g id="Group_71" data-name="Group 71">
        <circle id="Ellipse_43" data-name="Ellipse 43" cx="0.661" cy="0.661" r="0.661" transform="translate(743.875 699.746)" fill="#00bbf1"/>
        <path id="Path_82" data-name="Path 82" d="M744.277,701.014c0,.007-.2-.051-.212-.054a2.738,2.738,0,0,1-.367-.143l-.748-.3q-.846-.332-1.694-.656t-1.7-.641l-.426-.158c-.07-.026-.141-.057-.212-.078s-.119-.018-.181-.042q-2.091-.8-4.161-1.662-1.782-.738-3.547-1.516L734.9,697.1c1.412.487,2.826.974,4.259,1.4.719.212,1.442.408,2.172.578.16.037.32.074.481.108a1.283,1.283,0,0,0,.238.046.739.739,0,0,1,.133,0c.148.027.293.069.44.1.294.066.589.126.885.183a.472.472,0,0,1,.157.049.73.73,0,0,0,.113.061,2.337,2.337,0,0,0,.415.085c.2.03.4.054.6.089Z" fill="#00bbf1"/>
      </g>
      <g id="Group_72" data-name="Group 72">
        <ellipse id="Ellipse_44" data-name="Ellipse 44" cx="0.511" cy="0.661" rx="0.511" ry="0.661" transform="matrix(0.993, -0.115, 0.115, 0.993, 747.659, 688.476)" fill="#00bbf1"/>
        <path id="Path_83" data-name="Path 83" d="M748.319,689.729c0,.019-1.036.239-1.1.252a1.528,1.528,0,0,1-.593.076,2.6,2.6,0,0,0-.822.119q-.9.165-1.8.314-1.808.3-3.623.532-1.48.191-2.965.338l3.107-.651c1.133-.238,2.267-.476,3.388-.78.562-.153,1.12-.322,1.673-.516.276-.1.55-.2.822-.311a3.115,3.115,0,0,1,.771-.306,3.592,3.592,0,0,0,.99-.379Z" fill="#00bbf1"/>
      </g>
      <g id="Group_73" data-name="Group 73">
        <circle id="Ellipse_45" data-name="Ellipse 45" cx="0.661" cy="0.661" r="0.661" transform="translate(748.38 697.438)" fill="#00bbf1"/>
        <path id="Path_84" data-name="Path 84" d="M748.871,698.736c0,.006-.058,0-.063-.005-.117-.016-.236-.035-.351-.059a1.54,1.54,0,0,1-.248-.1,2.146,2.146,0,0,0-.407-.084c-.146-.027-.294-.049-.439-.081q-.891-.168-1.779-.356-.444-.094-.886-.193l-.443-.1a1,1,0,0,1-.194-.053,1.126,1.126,0,0,0-.216-.057l-.5-.114q-2.307-.523-4.6-1.111-1.869-.477-3.726-1l4.023.772c.742.143,1.484.285,2.227.419a2.66,2.66,0,0,0,.451.063.928.928,0,0,1,.2.045c.287.073.577.14.868.2q.871.181,1.758.287.449.054.9.087c.151.012.3.027.455.029.047,0,.087-.016.133-.019.071,0,.145.005.216.007h.009l1.83.067.979.036c.136.005.307.036.341.168.041.16-.156.265-.252.356a.446.446,0,0,0-.121.21c-.039.132-.071.266-.106.4Z" fill="#00bbf1"/>
      </g>
      <g id="Group_74" data-name="Group 74">
        <circle id="Ellipse_46" data-name="Ellipse 46" cx="0.661" cy="0.661" r="0.661" transform="translate(744.22 692.778)" fill="#00bbf1"/>
        <path id="Path_85" data-name="Path 85" d="M744.873,694.1c0,.02-1.366.1-1.445.108a2.56,2.56,0,0,1-.772,0,4.389,4.389,0,0,0-1.074.011q-1.182.047-2.365.077-2.365.061-4.732.057-1.929,0-3.857-.049l4.09-.242c1.491-.089,2.983-.178,4.469-.334.745-.078,1.489-.174,2.228-.295q.555-.09,1.105-.2a4.993,4.993,0,0,1,1.037-.2,5.792,5.792,0,0,0,1.331-.247Z" fill="#00bbf1"/>
      </g>
    </g>
    <g id="Group_119" data-name="Group 119">
      <g id="Group_76" data-name="Group 76">
        <ellipse id="Ellipse_47" data-name="Ellipse 47" cx="1.167" cy="1.145" rx="1.167" ry="1.145" transform="translate(713.626 733.142)" fill="#00bbf1"/>
        <path id="Path_86" data-name="Path 86" d="M715.75,733.632l10.365,12.193-12.279-10.882Z" fill="#00bbf1"/>
      </g>
      <g id="Group_77" data-name="Group 77">
        <ellipse id="Ellipse_48" data-name="Ellipse 48" cx="1.167" cy="1.145" rx="1.167" ry="1.145" transform="translate(747.105 717.887)" fill="#00bbf1"/>
        <path id="Path_87" data-name="Path 87" d="M749.128,719.81l-9.935,12.534,8.222-14.09Z" fill="#00bbf1"/>
      </g>
      <g id="Group_78" data-name="Group 78">
        <ellipse id="Ellipse_49" data-name="Ellipse 49" cx="1.167" cy="1.145" rx="1.167" ry="1.145" transform="translate(705.73 719.01)" fill="#00bbf1"/>
        <path id="Path_88" data-name="Path 88" d="M707.887,719.55l9.7,12.712-11.678-11.5Z" fill="#00bbf1"/>
      </g>
      <g id="Group_79" data-name="Group 79">
        <ellipse id="Ellipse_50" data-name="Ellipse 50" cx="1.167" cy="1.145" rx="1.167" ry="1.145" transform="translate(726.394 712.22)" fill="#00bbf1"/>
        <path id="Path_89" data-name="Path 89" d="M728.721,713.482l-.269,15.878L726.4,713.248Z" fill="#00bbf1"/>
      </g>
      <g id="Group_80" data-name="Group 80">
        <ellipse id="Ellipse_51" data-name="Ellipse 51" cx="1.167" cy="1.145" rx="1.167" ry="1.145" transform="translate(708.661 707.173)" fill="#00bbf1"/>
        <path id="Path_90" data-name="Path 90" d="M710.933,707.953l6.459,14.56-8.67-13.829Z" fill="#00bbf1"/>
      </g>
      <g id="Group_81" data-name="Group 81">
        <ellipse id="Ellipse_52" data-name="Ellipse 52" cx="1.157" cy="1.664" rx="1.157" ry="1.664" transform="translate(692.423 716.993) rotate(-42.255)" fill="#00bbf1"/>
        <path id="Path_91" data-name="Path 91" d="M695.282,716.7l16.2,16.388-17.973-14.893Z" fill="#00bbf1"/>
      </g>
      <g id="Group_82" data-name="Group 82">
        <ellipse id="Ellipse_53" data-name="Ellipse 53" cx="1.167" cy="1.145" rx="1.167" ry="1.145" transform="translate(717.062 742.151)" fill="#00bbf1"/>
        <path id="Path_92" data-name="Path 92" d="M719.042,742.475l12.52,10.058-14.147-8.416Z" fill="#00bbf1"/>
      </g>
      <g id="Group_83" data-name="Group 83">
        <ellipse id="Ellipse_54" data-name="Ellipse 54" cx="1.154" cy="1.57" rx="1.154" ry="1.57" transform="matrix(0.625, -0.781, 0.781, 0.625, 691.615, 724.987)" fill="#00bbf1"/>
        <path id="Path_93" data-name="Path 93" d="M694.318,724.194l17.531,12.87L692.8,725.938Z" fill="#00bbf1"/>
      </g>
      <g id="Group_84" data-name="Group 84">
        <ellipse id="Ellipse_55" data-name="Ellipse 55" cx="1.151" cy="1.923" rx="1.151" ry="1.923" transform="translate(684.334 729.091) rotate(-60.154)" fill="#00bbf1"/>
        <path id="Path_94" data-name="Path 94" d="M687.173,728.066,710.8,740.329l-24.82-10.3Z" fill="#00bbf1"/>
      </g>
      <g id="Group_85" data-name="Group 85">
        <ellipse id="Ellipse_56" data-name="Ellipse 56" cx="1.166" cy="1.898" rx="1.166" ry="1.898" transform="translate(717.322 709.505) rotate(-11.984)" fill="#00bbf1"/>
        <path id="Path_95" data-name="Path 95" d="M720,710.891l6.685,25.4-8.972-24.939Z" fill="#00bbf1"/>
      </g>
      <g id="Group_86" data-name="Group 86">
        <ellipse id="Ellipse_57" data-name="Ellipse 57" cx="1.167" cy="1.145" rx="1.167" ry="1.145" transform="translate(716.752 765.637)" fill="#00bbf1"/>
        <path id="Path_96" data-name="Path 96" d="M717.117,765.95l10.763-11.857-9.16,13.521Z" fill="#00bbf1"/>
      </g>
      <g id="Group_87" data-name="Group 87">
        <ellipse id="Ellipse_58" data-name="Ellipse 58" cx="1.167" cy="1.145" rx="1.167" ry="1.145" transform="translate(716.453 726.39)" fill="#00bbf1"/>
        <path id="Path_97" data-name="Path 97" d="M718.7,727.1l7.369,14.138-9.53-13.272Z" fill="#00bbf1"/>
      </g>
      <g id="Group_88" data-name="Group 88">
        <ellipse id="Ellipse_59" data-name="Ellipse 59" cx="1.167" cy="1.145" rx="1.167" ry="1.145" transform="translate(730.277 721.372)" fill="#00bbf1"/>
        <path id="Path_98" data-name="Path 98" d="M732.6,722.692l-1.1,15.844-1.2-16.195Z" fill="#00bbf1"/>
      </g>
      <g id="Group_89" data-name="Group 89">
        <ellipse id="Ellipse_60" data-name="Ellipse 60" cx="0.896" cy="1.166" rx="0.896" ry="1.166" transform="translate(732.664 738.962) rotate(-76.813)" fill="#00bbf1"/>
        <path id="Path_99" data-name="Path 99" d="M735.135,738.637l-1.741,12.315-.522-12.875Z" fill="#00bbf1"/>
      </g>
      <g id="Group_90" data-name="Group 90">
        <ellipse id="Ellipse_61" data-name="Ellipse 61" cx="1.167" cy="1.145" rx="1.167" ry="1.145" transform="translate(691.684 738.467)" fill="#00bbf1"/>
        <path id="Path_100" data-name="Path 100" d="M693.247,738.535c.012-.032,2.339.612,2.474.648a4.552,4.552,0,0,1,1.287.443,7.724,7.724,0,0,0,1.8.594q2,.6,3.99,1.223,3.981,1.25,7.928,2.6,3.215,1.1,6.405,2.279l-6.963-1.934c-2.539-.706-5.08-1.411-7.65-2-1.289-.3-2.584-.564-3.888-.788q-.978-.168-1.961-.3a8.931,8.931,0,0,1-1.848-.257,10.377,10.377,0,0,0-2.364-.355Z" fill="#00bbf1"/>
      </g>
      <g id="Group_91" data-name="Group 91">
        <ellipse id="Ellipse_62" data-name="Ellipse 62" cx="1.167" cy="1.145" rx="1.167" ry="1.145" transform="translate(680.592 742.915)" fill="#00bbf1"/>
        <path id="Path_101" data-name="Path 101" d="M681.991,742.938c.007-.033,2.4.271,2.544.287a4.586,4.586,0,0,1,1.339.254,7.826,7.826,0,0,0,1.867.331q2.065.3,4.129.638,4.125.668,8.23,1.443,3.345.633,6.676,1.338l-7.177-.917c-2.617-.335-5.235-.669-7.865-.886-1.319-.109-2.641-.189-3.964-.224-.661-.017-1.323-.024-1.984-.017a8.9,8.9,0,0,1-1.867.01,10.393,10.393,0,0,0-2.392-.012Z" fill="#00bbf1"/>
      </g>
      <g id="Group_92" data-name="Group 92">
        <ellipse id="Ellipse_63" data-name="Ellipse 63" cx="1.167" cy="1.145" rx="1.167" ry="1.145" transform="translate(740.312 709.78)" fill="#00bbf1"/>
        <path id="Path_102" data-name="Path 102" d="M740.325,710.753c-.033-.005-.567,2.31-.6,2.443a4.332,4.332,0,0,0-.217,1.322,7.432,7.432,0,0,1-.326,1.834q-.42,2.01-.81,4.025-.781,4.031-1.451,8.082-.546,3.3-1.017,6.613l1.591-6.93c.581-2.527,1.162-5.055,1.859-7.554.349-1.253.728-2.5,1.15-3.73q.315-.924.666-1.834a8.552,8.552,0,0,0,.652-1.718,9.9,9.9,0,0,1,.811-2.208Z" fill="#00bbf1"/>
      </g>
      <g id="Group_93" data-name="Group 93">
        <ellipse id="Ellipse_64" data-name="Ellipse 64" cx="1.167" cy="1.145" rx="1.167" ry="1.145" transform="translate(689.492 749.651)" fill="#00bbf1"/>
        <path id="Path_103" data-name="Path 103" d="M690.785,749.657c0-.033,2.421.053,2.56.056a4.578,4.578,0,0,1,1.358.133,7.822,7.822,0,0,0,1.889.16q2.086.117,4.172.262,4.169.291,8.33.693,3.39.327,6.773.729l-7.232-.265c-2.637-.1-5.276-.192-7.915-.171-1.324.011-2.647.051-3.968.136q-.99.063-1.977.162a8.883,8.883,0,0,1-1.859.179,10.39,10.39,0,0,0-2.382.2Z" fill="#00bbf1"/>
      </g>
      <g id="Group_94" data-name="Group 94">
        <ellipse id="Ellipse_65" data-name="Ellipse 65" cx="1.167" cy="1.145" rx="1.167" ry="1.145" transform="translate(686.903 755.867)" fill="#00bbf1"/>
        <path id="Path_104" data-name="Path 104" d="M687.993,755.869c0-.033,2.394-.358,2.532-.379a4.576,4.576,0,0,1,1.36-.1,7.832,7.832,0,0,0,1.889-.162q2.076-.239,4.155-.449,4.16-.422,8.327-.731,3.4-.252,6.8-.431l-7.17.966c-2.615.352-5.23.705-7.826,1.174-1.3.235-2.6.5-3.885.807q-.963.229-1.919.495a8.916,8.916,0,0,1-1.8.491,10.392,10.392,0,0,0-2.311.605Z" fill="#00bbf1"/>
      </g>
      <g id="Group_95" data-name="Group 95">
        <ellipse id="Ellipse_66" data-name="Ellipse 66" cx="1.167" cy="1.145" rx="1.167" ry="1.145" transform="translate(693.354 758.844)" fill="#00bbf1"/>
        <path id="Path_105" data-name="Path 105" d="M694.347,758.857c0-.013.344-.1.369-.112a4.887,4.887,0,0,1,.685-.122q.7-.12,1.4-.244,1.58-.279,3.155-.571t3.149-.6c.262-.05.524-.1.786-.153.13-.025.265-.044.393-.077.109-.029.2-.082.31-.1q3.891-.714,7.8-1.328,3.364-.529,6.74-.985l-7.064,1.549c-2.575.564-5.152,1.13-7.7,1.809-1.277.34-2.547.71-3.8,1.121-.275.09-.549.183-.823.277a2.239,2.239,0,0,0-.4.15,1.355,1.355,0,0,1-.2.12c-.246.095-.505.165-.755.25q-.755.257-1.5.536a.864.864,0,0,1-.282.069,1.307,1.307,0,0,0-.226.014,3.988,3.988,0,0,0-.7.251c-.328.135-.651.283-.982.411Z" fill="#00bbf1"/>
      </g>
      <g id="Group_96" data-name="Group 96">
        <ellipse id="Ellipse_67" data-name="Ellipse 67" cx="0.895" cy="1.155" rx="0.895" ry="1.155" transform="matrix(0.733, -0.68, 0.68, 0.733, 700.543, 776.797)" fill="#00bbf1"/>
        <path id="Path_106" data-name="Path 106" d="M701.224,776.167c-.022-.026,1.279-1.35,1.352-1.427a2.681,2.681,0,0,1,.792-.685,4.568,4.568,0,0,0,1.085-.97q1.155-1.113,2.329-2.206,2.348-2.186,4.772-4.287,1.975-1.713,4-3.37l-3.9,3.957c-1.422,1.443-2.844,2.887-4.181,4.414-.671.765-1.32,1.552-1.936,2.367q-.461.612-.9,1.246a5.378,5.378,0,0,1-.823,1.189,6.269,6.269,0,0,0-1.073,1.507Z" fill="#00bbf1"/>
      </g>
      <g id="Group_97" data-name="Group 97">
        <ellipse id="Ellipse_68" data-name="Ellipse 68" cx="1.167" cy="1.145" rx="1.167" ry="1.145" transform="translate(690.566 766.538)" fill="#00bbf1"/>
        <path id="Path_107" data-name="Path 107" d="M691.326,766.61c0-.01.089-.052.1-.056.185-.094.375-.187.567-.268a2.715,2.715,0,0,1,.461-.1,3.8,3.8,0,0,0,.673-.289c.238-.109.474-.226.715-.326q1.457-.657,2.928-1.281.735-.312,1.475-.616l.74-.3a1.821,1.821,0,0,1,.334-.12,2.032,2.032,0,0,0,.37-.136l.841-.344q3.861-1.575,7.764-3.044,3.182-1.2,6.388-2.326l-6.587,2.943c-1.214.542-2.428,1.085-3.635,1.642a4.642,4.642,0,0,0-.714.362,1.584,1.584,0,0,1-.332.135q-.733.279-1.455.588-1.441.62-2.827,1.358-.7.374-1.382.777c-.229.135-.464.266-.684.414-.068.046-.11.111-.173.161-.1.077-.213.139-.318.207l-.013.008-2.706,1.741-1.447.931c-.2.13-.48.258-.664.1-.222-.185-.045-.531,0-.756a.745.745,0,0,0-.04-.418c-.077-.226-.17-.448-.254-.671Z" fill="#00bbf1"/>
      </g>
      <g id="Group_98" data-name="Group 98">
        <ellipse id="Ellipse_69" data-name="Ellipse 69" cx="1.167" cy="1.145" rx="1.167" ry="1.145" transform="translate(700.322 766.636)" fill="#00bbf1"/>
        <path id="Path_108" data-name="Path 108" d="M700.974,766.753c-.014-.03,2.074-1.227,2.194-1.3a4.522,4.522,0,0,1,1.219-.6A7.738,7.738,0,0,0,706.07,764q1.827-1,3.668-1.97,3.68-1.944,7.414-3.79,3.044-1.5,6.12-2.941l-6.254,3.575c-2.281,1.3-4.562,2.608-6.78,4.012-1.112.7-2.209,1.433-3.279,2.2q-.8.573-1.581,1.175a8.686,8.686,0,0,1-1.472,1.127,10.238,10.238,0,0,0-1.9,1.424Z" fill="#00bbf1"/>
      </g>
      <g id="Group_99" data-name="Group 99">
        <ellipse id="Ellipse_70" data-name="Ellipse 70" cx="1.167" cy="1.145" rx="1.167" ry="1.145" transform="translate(746.163 763.645)" fill="#00bbf1"/>
        <path id="Path_109" data-name="Path 109" d="M746.445,765.538l-11.568-11.1,13.336,9.608Z" fill="#00bbf1"/>
      </g>
      <g id="Group_100" data-name="Group 100">
        <ellipse id="Ellipse_71" data-name="Ellipse 71" cx="1.167" cy="1.145" rx="1.167" ry="1.145" transform="translate(710.014 780.95)" fill="#00bbf1"/>
        <path id="Path_110" data-name="Path 110" d="M710.314,781.329l9.757-12.668-8.023,14.2Z" fill="#00bbf1"/>
      </g>
      <g id="Group_101" data-name="Group 101">
        <ellipse id="Ellipse_72" data-name="Ellipse 72" cx="1.167" cy="1.145" rx="1.167" ry="1.145" transform="translate(751.573 776.398)" fill="#00bbf1"/>
        <path id="Path_111" data-name="Path 111" d="M751.758,778.162l-9.875-12.58,11.839,11.342Z" fill="#00bbf1"/>
      </g>
      <g id="Group_102" data-name="Group 102">
        <ellipse id="Ellipse_73" data-name="Ellipse 73" cx="1.167" cy="1.145" rx="1.167" ry="1.145" transform="translate(731.006 783.468)" fill="#00bbf1"/>
        <path id="Path_112" data-name="Path 112" d="M731.011,784.513l.045-15.881,2.279,16.083Z" fill="#00bbf1"/>
      </g>
      <g id="Group_103" data-name="Group 103">
        <ellipse id="Ellipse_74" data-name="Ellipse 74" cx="1.167" cy="1.145" rx="1.167" ry="1.145" transform="translate(748.809 788.273)" fill="#00bbf1"/>
        <path id="Path_113" data-name="Path 113" d="M748.875,789.8l-6.663-14.471,8.864,13.71Z" fill="#00bbf1"/>
      </g>
      <g id="Group_104" data-name="Group 104">
        <ellipse id="Ellipse_75" data-name="Ellipse 75" cx="1.157" cy="1.664" rx="1.157" ry="1.664" transform="translate(763.293 779.656) rotate(-43.052)" fill="#00bbf1"/>
        <path id="Path_114" data-name="Path 114" d="M764.4,780.842l-16.434-16.166,18.181,14.647Z" fill="#00bbf1"/>
      </g>
      <g id="Group_105" data-name="Group 105">
        <ellipse id="Ellipse_76" data-name="Ellipse 76" cx="1.154" cy="1.57" rx="1.154" ry="1.57" transform="matrix(0.614, -0.789, 0.789, 0.614, 764.057, 772.399)" fill="#00bbf1"/>
        <path id="Path_115" data-name="Path 115" d="M765.26,773.334,747.549,760.7l19.2,10.867Z" fill="#00bbf1"/>
      </g>
      <g id="Group_106" data-name="Group 106">
        <ellipse id="Ellipse_77" data-name="Ellipse 77" cx="1.151" cy="1.923" rx="1.151" ry="1.923" transform="translate(770.694 768.445) rotate(-60.931)" fill="#00bbf1"/>
        <path id="Path_116" data-name="Path 116" d="M772.35,769.365l-23.794-11.94,24.963,9.957Z" fill="#00bbf1"/>
      </g>
      <g id="Group_107" data-name="Group 107">
        <ellipse id="Ellipse_78" data-name="Ellipse 78" cx="1.166" cy="1.898" rx="1.166" ry="1.898" transform="translate(739.351 785.149) rotate(-12.807)" fill="#00bbf1"/>
        <path id="Path_117" data-name="Path 117" d="M739.768,786.985l-7.042-25.3,9.322,24.815Z" fill="#00bbf1"/>
      </g>
      <g id="Group_108" data-name="Group 108">
        <ellipse id="Ellipse_79" data-name="Ellipse 79" cx="1.167" cy="1.145" rx="1.167" ry="1.145" transform="translate(745.86 720.362)" fill="#00bbf1"/>
        <path id="Path_118" data-name="Path 118" d="M747.84,722.329l-10.595,12,8.968-13.644Z" fill="#00bbf1"/>
      </g>
      <g id="Group_109" data-name="Group 109">
        <ellipse id="Ellipse_80" data-name="Ellipse 80" cx="1.167" cy="1.145" rx="1.167" ry="1.145" transform="translate(740.746 769.164)" fill="#00bbf1"/>
        <path id="Path_119" data-name="Path 119" d="M740.839,770.757l-7.568-14.036,9.716,13.142Z" fill="#00bbf1"/>
      </g>
      <g id="Group_110" data-name="Group 110">
        <ellipse id="Ellipse_81" data-name="Ellipse 81" cx="1.167" cy="1.145" rx="1.167" ry="1.145" transform="translate(725.054 779.412)" fill="#00bbf1"/>
        <path id="Path_120" data-name="Path 120" d="M725.1,780.232l3.257-15.556-1.019,16.207Z" fill="#00bbf1"/>
      </g>
      <g id="Group_111" data-name="Group 111">
        <ellipse id="Ellipse_82" data-name="Ellipse 82" cx="1.167" cy="1.145" rx="1.167" ry="1.145" transform="translate(765.343 756.753)" fill="#00bbf1"/>
        <path id="Path_121" data-name="Path 121" d="M766.129,758.981c-.012.031-2.348-.581-2.483-.615a4.547,4.547,0,0,1-1.294-.426,7.778,7.778,0,0,0-1.8-.569q-2.008-.571-4.008-1.169-4-1.194-7.963-2.5-3.231-1.061-6.438-2.192l6.991,1.84c2.549.671,5.1,1.342,7.677,1.9,1.293.279,2.592.529,3.9.736q.979.155,1.964.274a8.89,8.89,0,0,1,1.852.232,10.366,10.366,0,0,0,2.369.322Z" fill="#00bbf1"/>
      </g>
      <g id="Group_112" data-name="Group 112">
        <ellipse id="Ellipse_83" data-name="Ellipse 83" cx="1.167" cy="1.145" rx="1.167" ry="1.145" transform="translate(776.371 752.154)" fill="#00bbf1"/>
        <path id="Path_122" data-name="Path 122" d="M777.321,754.425c-.006.033-2.409-.239-2.547-.252a4.572,4.572,0,0,1-1.343-.237,7.85,7.85,0,0,0-1.871-.3q-2.071-.277-4.138-.582-4.134-.61-8.249-1.331-3.354-.588-6.694-1.248l7.189.82c2.621.3,5.243.6,7.876.78,1.321.091,2.644.152,3.967.169q.993.013,1.984-.01a8.919,8.919,0,0,1,1.867-.035,10.408,10.408,0,0,0,2.392-.02Z" fill="#00bbf1"/>
      </g>
      <g id="Group_113" data-name="Group 113">
        <ellipse id="Ellipse_84" data-name="Ellipse 84" cx="1.167" cy="1.145" rx="1.167" ry="1.145" transform="translate(714.273 785.265)" fill="#00bbf1"/>
        <path id="Path_123" data-name="Path 123" d="M716.521,786.841c.032.012,1.1-2.117,1.163-2.239a4.362,4.362,0,0,0,.524-1.237,7.47,7.47,0,0,1,.752-1.709q.883-1.859,1.741-3.73,1.715-3.742,3.325-7.529,1.313-3.085,2.555-6.2l-3.189,6.377c-1.163,2.325-2.327,4.651-3.6,6.923-.637,1.139-1.3,2.264-2,3.366q-.527.825-1.083,1.632a8.553,8.553,0,0,0-1.04,1.521,10.022,10.022,0,0,1-1.312,1.963Z" fill="#00bbf1"/>
      </g>
      <g id="Group_114" data-name="Group 114">
        <ellipse id="Ellipse_85" data-name="Ellipse 85" cx="1.167" cy="1.145" rx="1.167" ry="1.145" transform="translate(767.356 743.726)" fill="#00bbf1"/>
        <path id="Path_124" data-name="Path 124" d="M768.593,746.014c0,.033-2.4.345-2.533.365a4.55,4.55,0,0,1-1.361.092,7.829,7.829,0,0,0-1.89.153q-2.078.227-4.158.426-4.161.4-8.331.684-3.4.234-6.8.394l7.176-.927c2.616-.337,5.233-.676,7.832-1.13,1.3-.228,2.6-.485,3.889-.785q.966-.227,1.922-.485a8.861,8.861,0,0,1,1.8-.481,10.423,10.423,0,0,0,2.315-.592Z" fill="#00bbf1"/>
      </g>
      <g id="Group_115" data-name="Group 115">
        <ellipse id="Ellipse_86" data-name="Ellipse 86" cx="1.167" cy="1.145" rx="1.167" ry="1.145" transform="translate(762.319 735.863)" fill="#00bbf1"/>
        <path id="Path_125" data-name="Path 125" d="M763.852,738.095a3.666,3.666,0,0,1-.344.173,4.865,4.865,0,0,1-.653.233l-1.338.474q-1.506.539-3.01,1.088t-3,1.113l-.748.282c-.124.047-.253.088-.374.142-.1.046-.178.113-.288.152q-3.711,1.352-7.456,2.609-3.223,1.081-6.472,2.093l6.694-2.7c2.44-.985,4.881-1.972,7.274-3.065,1.2-.549,2.388-1.124,3.554-1.739.256-.135.51-.271.764-.41a2.206,2.206,0,0,0,.368-.214,1.3,1.3,0,0,1,.178-.152c.226-.135.468-.247.7-.372q.7-.378,1.387-.778a.889.889,0,0,1,.266-.116,1.275,1.275,0,0,0,.22-.051,4.052,4.052,0,0,0,.649-.364c.3-.188.592-.388.9-.569Z" fill="#00bbf1"/>
      </g>
      <g id="Group_116" data-name="Group 116">
        <ellipse id="Ellipse_87" data-name="Ellipse 87" cx="0.893" cy="1.158" rx="0.893" ry="1.158" transform="translate(753.702 717.958) rotate(-50.1)" fill="#00bbf1"/>
        <path id="Path_126" data-name="Path 126" d="M756.03,718.781c.025.023-1.1,1.5-1.158,1.584a2.671,2.671,0,0,1-.7.778,4.532,4.532,0,0,0-.951,1.1q-1,1.246-2.025,2.477-2.047,2.459-4.182,4.845-1.739,1.945-3.533,3.84l3.357-4.41c1.224-1.608,2.449-3.217,3.579-4.9.566-.843,1.109-1.7,1.615-2.589q.378-.664.727-1.347a5.343,5.343,0,0,1,.663-1.282,6.245,6.245,0,0,0,.871-1.628Z" fill="#00bbf1"/>
      </g>
      <g id="Group_117" data-name="Group 117">
        <ellipse id="Ellipse_88" data-name="Ellipse 88" cx="1.167" cy="1.145" rx="1.167" ry="1.145" transform="translate(765.594 727.695)" fill="#00bbf1"/>
        <path id="Path_127" data-name="Path 127" d="M767.281,729.866c.005.009-.082.06-.089.065-.175.113-.353.224-.536.325a2.7,2.7,0,0,1-.447.151,3.812,3.812,0,0,0-.638.357c-.225.133-.447.273-.677.4q-1.377.8-2.773,1.576-.7.387-1.4.764l-.7.377a1.838,1.838,0,0,1-.319.154,1.922,1.922,0,0,0-.353.173l-.8.429q-3.671,1.963-7.4,3.829-3.035,1.52-6.1,2.972l6.235-3.607c1.15-.664,2.3-1.329,3.44-2.007a4.789,4.789,0,0,0,.671-.435,1.638,1.638,0,0,1,.315-.168q.7-.352,1.384-.735,1.368-.765,2.666-1.642.656-.444,1.291-.916c.213-.158.434-.312.637-.482.062-.053.1-.122.154-.178.089-.087.2-.16.295-.238l.012-.01,2.5-2.01,1.339-1.076c.187-.15.449-.3.649-.172.241.161.1.524.082.752a.738.738,0,0,0,.085.412c.1.216.216.427.325.64Z" fill="#00bbf1"/>
      </g>
      <g id="Group_118" data-name="Group 118">
        <ellipse id="Ellipse_89" data-name="Ellipse 89" cx="1.167" cy="1.145" rx="1.167" ry="1.145" transform="translate(754.639 726.402)" fill="#00bbf1"/>
        <path id="Path_128" data-name="Path 128" d="M756.568,728.415c.022.026-1.693,1.7-1.791,1.8a4.446,4.446,0,0,1-1.025.883,7.6,7.6,0,0,0-1.41,1.245q-1.513,1.416-3.045,2.811-3.064,2.792-6.206,5.5-2.559,2.206-5.169,4.358l5.138-5c1.873-1.825,3.746-3.65,5.533-5.557.9-.956,1.771-1.933,2.61-2.938q.629-.753,1.23-1.528a8.6,8.6,0,0,1,1.136-1.454,10.084,10.084,0,0,0,1.476-1.847Z" fill="#00bbf1"/>
      </g>
    </g>
    <path id="Path_129" data-name="Path 129" d="M832.308,727.149a72.8,72.8,0,0,0-14.169-16.05,70.909,70.909,0,0,0-49.606-16.482,71.58,71.58,0,0,0-10.661,1.37,64.621,64.621,0,0,1,10.626-1.859,69.722,69.722,0,0,1,10.815-.075,66.486,66.486,0,0,1,39.325,16.465,69.451,69.451,0,0,1,7.536,7.758A64.807,64.807,0,0,1,832.308,727.149Z" fill="#00bbf1"/>
    <path id="Path_130" data-name="Path 130" d="M793.738,746.04a21.463,21.463,0,0,0-9.784-4.413,27.231,27.231,0,0,0-10.691.241,37.86,37.86,0,0,0-10.041,3.912,50.882,50.882,0,0,0-4.622,2.875c-1.514,1.01-2.962,2.12-4.412,3.234a48.731,48.731,0,0,1,8.648-6.774,33.715,33.715,0,0,1,10.211-4.223,25.447,25.447,0,0,1,11.061-.015,22.145,22.145,0,0,1,5.21,1.892A17.96,17.96,0,0,1,793.738,746.04Z" fill="#00bbf1"/>
  </g>
  <g id="Group_209" data-name="Group 209" transform="translate(-680.592 -651.886)">
    <g id="Group_164" data-name="Group 164">
      <g id="Group_121" data-name="Group 121">
        <ellipse id="Ellipse_90" data-name="Ellipse 90" cx="1.328" cy="1.014" rx="1.328" ry="1.014" transform="translate(990.149 675.293)" fill="#00bbf1"/>
        <path id="Path_131" data-name="Path 131" d="M990.158,676.42l.5,14.053,2.143-14.281Z" fill="#00bbf1"/>
      </g>
      <g id="Group_122" data-name="Group 122">
        <ellipse id="Ellipse_91" data-name="Ellipse 91" cx="1.328" cy="1.014" rx="1.328" ry="1.014" transform="translate(949.873 684.392)" fill="#00bbf1"/>
        <path id="Path_132" data-name="Path 132" d="M951.066,686.414l18.089,2.618L951.336,684.4Z" fill="#00bbf1"/>
      </g>
      <g id="Group_123" data-name="Group 123">
        <ellipse id="Ellipse_92" data-name="Ellipse 92" cx="1.328" cy="1.014" rx="1.328" ry="1.014" transform="translate(986.06 661.37)" fill="#00bbf1"/>
        <path id="Path_133" data-name="Path 133" d="M986.078,662.551l1.464,14.014,1.155-14.347Z" fill="#00bbf1"/>
      </g>
      <g id="Group_124" data-name="Group 124">
        <ellipse id="Ellipse_93" data-name="Ellipse 93" cx="1.328" cy="1.014" rx="1.328" ry="1.014" transform="translate(963.213 668.73)" fill="#00bbf1"/>
        <path id="Path_134" data-name="Path 134" d="M963.64,670.488l12.4,10.392L965.443,669Z" fill="#00bbf1"/>
      </g>
      <g id="Group_125" data-name="Group 125">
        <ellipse id="Ellipse_94" data-name="Ellipse 94" cx="1.328" cy="1.014" rx="1.328" ry="1.014" transform="translate(974.486 655.192)" fill="#00bbf1"/>
        <path id="Path_135" data-name="Path 135" d="M974.589,656.6l5.645,13.381-3.2-14.166Z" fill="#00bbf1"/>
      </g>
      <g id="Group_126" data-name="Group 126">
        <ellipse id="Ellipse_95" data-name="Ellipse 95" cx="1.328" cy="1.461" rx="1.328" ry="1.461" transform="translate(994.592 652.003) rotate(-2.521)" fill="#00bbf1"/>
        <path id="Path_136" data-name="Path 136" d="M994.655,653.416l-1.275,20.193,3.931-20.216Z" fill="#00bbf1"/>
      </g>
      <g id="Group_127" data-name="Group 127">
        <ellipse id="Ellipse_96" data-name="Ellipse 96" cx="1.328" cy="1.014" rx="1.328" ry="1.014" transform="translate(994.121 683.249)" fill="#00bbf1"/>
        <path id="Path_137" data-name="Path 137" d="M994.125,684.185l-2.98,13.873,5.628-13.717Z" fill="#00bbf1"/>
      </g>
      <g id="Group_128" data-name="Group 128">
        <ellipse id="Ellipse_97" data-name="Ellipse 97" cx="1.413" cy="1.292" rx="1.413" ry="1.292" transform="translate(1000.649 658.299) rotate(-51.876)" fill="#00bbf1"/>
        <path id="Path_138" data-name="Path 138" d="M1001.223,657.841l-5.1,18.619,7.732-18.33Z" fill="#00bbf1"/>
      </g>
      <g id="Group_129" data-name="Group 129">
        <ellipse id="Ellipse_98" data-name="Ellipse 98" cx="1.759" cy="1.267" rx="1.759" ry="1.267" transform="matrix(0.546, -0.838, 0.838, 0.546, 1009.534, 657.4)" fill="#00bbf1"/>
        <path id="Path_139" data-name="Path 139" d="M1010.291,656.308,999.52,678.023l13.3-21.1Z" fill="#00bbf1"/>
      </g>
      <g id="Group_130" data-name="Group 130">
        <ellipse id="Ellipse_99" data-name="Ellipse 99" cx="1.198" cy="1.861" rx="1.198" ry="1.861" transform="matrix(0.68, -0.733, 0.733, 0.68, 968.072, 662.864)" fill="#00bbf1"/>
        <path id="Path_140" data-name="Path 140" d="M969.1,663.757l13.757,20.709L971.4,662.748Z" fill="#00bbf1"/>
      </g>
      <g id="Group_131" data-name="Group 131">
        <ellipse id="Ellipse_100" data-name="Ellipse 100" cx="1.328" cy="1.014" rx="1.328" ry="1.014" transform="translate(1012.386 698.672)" fill="#00bbf1"/>
        <path id="Path_141" data-name="Path 141" d="M1013.761,698.672l-18.277-1.693,18.184,3.719Z" fill="#00bbf1"/>
      </g>
      <g id="Group_132" data-name="Group 132">
        <ellipse id="Ellipse_101" data-name="Ellipse 101" cx="1.328" cy="1.014" rx="1.328" ry="1.014" transform="translate(982.561 672.432)" fill="#00bbf1"/>
        <path id="Path_142" data-name="Path 142" d="M982.635,673.779l4.544,13.624-2.036-14.29Z" fill="#00bbf1"/>
      </g>
      <g id="Group_133" data-name="Group 133">
        <ellipse id="Ellipse_102" data-name="Ellipse 102" cx="1.328" cy="1.014" rx="1.328" ry="1.014" transform="translate(966.911 677.04)" fill="#00bbf1"/>
        <path id="Path_143" data-name="Path 143" d="M967.389,678.833l13.084,9.89-11.384-11.448Z" fill="#00bbf1"/>
      </g>
      <g id="Group_134" data-name="Group 134">
        <ellipse id="Ellipse_103" data-name="Ellipse 103" cx="1.188" cy="0.885" rx="1.188" ry="0.885" transform="translate(976.74 689.758) rotate(-25.527)" fill="#00bbf1"/>
        <path id="Path_144" data-name="Path 144" d="M977.443,690.88l10.925,7.179-9.423-8.852Z" fill="#00bbf1"/>
      </g>
      <g id="Group_135" data-name="Group 135">
        <ellipse id="Ellipse_104" data-name="Ellipse 104" cx="1.328" cy="1.014" rx="1.328" ry="1.014" transform="translate(1012.964 666.224)" fill="#00bbf1"/>
        <path id="Path_145" data-name="Path 145" d="M1013.128,666.75c-.034-.013-1.527,1.751-1.615,1.852a3.766,3.766,0,0,0-.759,1.034,6.509,6.509,0,0,1-1.08,1.427q-1.248,1.547-2.47,3.1-2.442,3.118-4.772,6.285-1.9,2.58-3.722,5.194l4.463-5.286c1.627-1.927,3.256-3.855,5-5.724.873-.937,1.775-1.86,2.716-2.757q.707-.674,1.443-1.326a8.556,8.556,0,0,0,1.381-1.233,10.022,10.022,0,0,1,1.747-1.594Z" fill="#00bbf1"/>
      </g>
      <g id="Group_136" data-name="Group 136">
        <ellipse id="Ellipse_105" data-name="Ellipse 105" cx="1.328" cy="1.014" rx="1.328" ry="1.014" transform="translate(1025.844 662.807)" fill="#00bbf1"/>
        <path id="Path_146" data-name="Path 146" d="M1026.113,663.209c-.031-.018-1.845,1.562-1.952,1.652a4.269,4.269,0,0,0-.948.939,7.358,7.358,0,0,1-1.34,1.291q-1.531,1.391-3.036,2.8-3.012,2.813-5.921,5.686-2.371,2.343-4.674,4.724l5.424-4.732c1.978-1.725,3.957-3.451,6.036-5.107,1.042-.83,2.11-1.642,3.213-2.425q.827-.588,1.681-1.151a9.672,9.672,0,0,0,1.6-1.066,11.191,11.191,0,0,1,2.032-1.382Z" fill="#00bbf1"/>
      </g>
      <g id="Group_137" data-name="Group 137">
        <ellipse id="Ellipse_106" data-name="Ellipse 106" cx="1.328" cy="1.014" rx="1.328" ry="1.014" transform="translate(949.459 675.105)" fill="#00bbf1"/>
        <path id="Path_147" data-name="Path 147" d="M951.64,675.342c.025-.023,2.255,1.208,2.385,1.278a5.072,5.072,0,0,1,1.2.753,8.765,8.765,0,0,0,1.684,1.031q1.9,1.094,3.776,2.208,3.758,2.229,7.433,4.534,3,1.879,5.937,3.809l-6.67-3.689c-2.432-1.345-4.866-2.69-7.376-3.95-1.259-.631-2.537-1.241-3.841-1.817q-.978-.432-1.975-.836a11.18,11.18,0,0,1-1.873-.766,13.057,13.057,0,0,0-2.385-1Z" fill="#00bbf1"/>
      </g>
      <g id="Group_138" data-name="Group 138">
        <ellipse id="Ellipse_107" data-name="Ellipse 107" cx="1.328" cy="1.014" rx="1.328" ry="1.014" transform="translate(1023.407 672.394)" fill="#00bbf1"/>
        <path id="Path_148" data-name="Path 148" d="M1023.755,672.724c-.029-.02-2.026,1.426-2.143,1.508a4.577,4.577,0,0,0-1.057.868,7.908,7.908,0,0,1-1.491,1.191q-1.691,1.277-3.36,2.571-3.337,2.589-6.582,5.245-2.643,2.166-5.224,4.375l5.972-4.33c2.178-1.579,4.357-3.158,6.626-4.66,1.139-.754,2.3-1.487,3.493-2.19q.894-.527,1.812-1.028a10.35,10.35,0,0,0,1.724-.948,12.054,12.054,0,0,1,2.19-1.234Z" fill="#00bbf1"/>
      </g>
      <g id="Group_139" data-name="Group 139">
        <ellipse id="Ellipse_108" data-name="Ellipse 108" cx="1.328" cy="1.014" rx="1.328" ry="1.014" transform="translate(1030.382 675.035)" fill="#00bbf1"/>
        <path id="Path_149" data-name="Path 149" d="M1030.9,675.246c-.025-.023-2.319,1.137-2.452,1.2a5.231,5.231,0,0,0-1.238.716,9.027,9.027,0,0,1-1.738.977q-1.955,1.034-3.892,2.089-3.873,2.109-7.669,4.3-3.094,1.783-6.136,3.62l6.862-3.478c2.5-1.268,5.006-2.536,7.582-3.716,1.291-.591,2.6-1.161,3.935-1.7q1-.4,2.017-.774a11.482,11.482,0,0,0,1.913-.707,13.425,13.425,0,0,1,2.436-.926Z" fill="#00bbf1"/>
      </g>
      <g id="Group_140" data-name="Group 140">
        <ellipse id="Ellipse_109" data-name="Ellipse 109" cx="1.328" cy="1.014" rx="1.328" ry="1.014" transform="translate(1027.157 680.719)" fill="#00bbf1"/>
        <path id="Path_150" data-name="Path 150" d="M1027.765,680.881c-.009-.01-.374.128-.4.137a5.812,5.812,0,0,0-.678.313l-1.382.641q-1.562.723-3.131,1.433t-3.146,1.413l-.789.35c-.131.058-.26.123-.395.174-.115.044-.229.058-.343.11q-3.868,1.761-7.677,3.6-3.277,1.581-6.509,3.218l7.218-3.03c2.631-1.1,5.265-2.209,7.96-3.221,1.352-.507,2.719-.991,4.106-1.439q.456-.148.916-.29a3.125,3.125,0,0,1,.455-.13,1.946,1.946,0,0,0,.265-.036c.283-.078.557-.18.836-.267q.84-.264,1.692-.507a1.117,1.117,0,0,0,.294-.115,1.426,1.426,0,0,1,.2-.121,5.357,5.357,0,0,1,.791-.237c.384-.1.773-.185,1.154-.29Z" fill="#00bbf1"/>
      </g>
      <g id="Group_141" data-name="Group 141">
        <ellipse id="Ellipse_110" data-name="Ellipse 110" cx="1.013" cy="1.028" rx="1.013" ry="1.028" transform="translate(1033.959 698.119) rotate(-78.005)" fill="#00bbf1"/>
        <path id="Path_151" data-name="Path 151" d="M1035.16,696.328c0-.029-2.126-.161-2.248-.171a4.028,4.028,0,0,0-1.2,0,6.818,6.818,0,0,1-1.67-.021q-1.839-.076-3.679-.127-3.68-.1-7.36-.107-3,0-6,.06l6.362.389c2.32.142,4.64.284,6.952.53,1.16.123,2.317.272,3.467.46q.862.141,1.72.313a7.878,7.878,0,0,0,1.614.318,9.124,9.124,0,0,1,2.071.384Z" fill="#00bbf1"/>
      </g>
      <g id="Group_142" data-name="Group 142">
        <ellipse id="Ellipse_111" data-name="Ellipse 111" cx="1.328" cy="1.014" rx="1.328" ry="1.014" transform="translate(1035.433 684.227)" fill="#00bbf1"/>
        <path id="Path_152" data-name="Path 152" d="M1036.286,684.295a.517.517,0,0,0-.124.018c-.231.044-.464.091-.69.147a3.548,3.548,0,0,0-.473.2,5.29,5.29,0,0,1-.8.2c-.287.064-.578.122-.861.2q-1.746.4-3.481.83-.867.216-1.731.438l-.863.225a2.544,2.544,0,0,0-.378.112,2.673,2.673,0,0,1-.419.123l-.983.254q-4.5,1.173-8.962,2.439-3.633,1.031-7.237,2.124l7.88-1.829c1.452-.337,2.9-.674,4.362-1a6.847,6.847,0,0,1,.888-.169,2.189,2.189,0,0,0,.386-.1q.84-.236,1.694-.445,1.705-.417,3.454-.722.883-.155,1.775-.278c.3-.042.6-.09.9-.118.093-.009.178.011.271.008.143-.005.289-.031.43-.046l.018,0,3.644-.4,1.949-.213c.272-.029.607-.1.646-.312.048-.25-.368-.379-.578-.5a.707.707,0,0,1-.287-.3c-.107-.194-.2-.394-.3-.591Z" fill="#00bbf1"/>
      </g>
      <g id="Group_143" data-name="Group 143">
        <ellipse id="Ellipse_112" data-name="Ellipse 112" cx="1.328" cy="1.014" rx="1.328" ry="1.014" transform="translate(1027.179 689.897)" fill="#00bbf1"/>
        <path id="Path_153" data-name="Path 153" d="M1028.158,689.932c-.01-.028-2.711.377-2.867.4a6.364,6.364,0,0,0-1.5.3,10.983,10.983,0,0,1-2.094.4q-2.325.389-4.641.8-4.633.824-9.236,1.742-3.75.748-7.479,1.562l8.08-1.219c2.946-.444,5.894-.888,8.864-1.229,1.489-.171,2.984-.317,4.484-.423q1.124-.079,2.251-.128a12.968,12.968,0,0,0,2.121-.1,15.168,15.168,0,0,1,2.715-.147Z" fill="#00bbf1"/>
      </g>
      <g id="Group_144" data-name="Group 144">
        <ellipse id="Ellipse_113" data-name="Ellipse 113" cx="1.328" cy="1.014" rx="1.328" ry="1.014" transform="translate(985.749 714.243)" fill="#00bbf1"/>
        <path id="Path_154" data-name="Path 154" d="M988.4,715.246l1.367-14.02-4.022,14.043Z" fill="#00bbf1"/>
      </g>
      <g id="Group_145" data-name="Group 145">
        <ellipse id="Ellipse_114" data-name="Ellipse 114" cx="1.328" cy="1.014" rx="1.328" ry="1.014" transform="translate(1029.875 704.972)" fill="#00bbf1"/>
        <path id="Path_155" data-name="Path 155" d="M1031.356,704.978l-18.04-2.809,17.733,4.823Z" fill="#00bbf1"/>
      </g>
      <g id="Group_146" data-name="Group 146">
        <ellipse id="Ellipse_115" data-name="Ellipse 115" cx="1.328" cy="1.014" rx="1.328" ry="1.014" transform="translate(990.904 725.822)" fill="#00bbf1"/>
        <path id="Path_156" data-name="Path 156" d="M993.544,726.683l-1.21-14.028-1.415,14.334Z" fill="#00bbf1"/>
      </g>
      <g id="Group_147" data-name="Group 147">
        <ellipse id="Ellipse_116" data-name="Ellipse 116" cx="1.328" cy="1.014" rx="1.328" ry="1.014" transform="translate(1013.882 718.704)" fill="#00bbf1"/>
        <path id="Path_157" data-name="Path 157" d="M1016.125,718.983l-12.21-10.522,10.38,11.992Z" fill="#00bbf1"/>
      </g>
      <g id="Group_148" data-name="Group 148">
        <ellipse id="Ellipse_117" data-name="Ellipse 117" cx="1.328" cy="1.014" rx="1.328" ry="1.014" transform="translate(1002.365 732.122)" fill="#00bbf1"/>
        <path id="Path_158" data-name="Path 158" d="M1004.924,732.756l-5.4-13.44,2.939,14.2Z" fill="#00bbf1"/>
      </g>
      <g id="Group_149" data-name="Group 149">
        <ellipse id="Ellipse_118" data-name="Ellipse 118" cx="1.461" cy="1.328" rx="1.461" ry="1.328" transform="matrix(0.01, -1, 1, 0.01, 982.133, 737.171)" fill="#00bbf1"/>
        <path id="Path_159" data-name="Path 159" d="M984.8,735.726l1.641-20.178-4.3,20.173Z" fill="#00bbf1"/>
      </g>
      <g id="Group_150" data-name="Group 150">
        <ellipse id="Ellipse_119" data-name="Ellipse 119" cx="1.418" cy="1.287" rx="1.418" ry="1.287" transform="translate(975.109 731.351) rotate(-50.553)" fill="#00bbf1"/>
        <path id="Path_160" data-name="Path 160" d="M978.315,731.232l5.44-18.563-8.063,18.246Z" fill="#00bbf1"/>
      </g>
      <g id="Group_151" data-name="Group 151">
        <ellipse id="Ellipse_120" data-name="Ellipse 120" cx="1.765" cy="1.263" rx="1.765" ry="1.263" transform="matrix(0.562, -0.827, 0.827, 0.562, 965.926, 733.097)" fill="#00bbf1"/>
        <path id="Path_161" data-name="Path 161" d="M969.22,732.669l11.164-21.6L966.7,732.023Z" fill="#00bbf1"/>
      </g>
      <g id="Group_152" data-name="Group 152">
        <ellipse id="Ellipse_121" data-name="Ellipse 121" cx="1.202" cy="1.854" rx="1.202" ry="1.854" transform="matrix(0.69, -0.723, 0.723, 0.69, 1007.211, 725.737)" fill="#00bbf1"/>
        <path id="Path_162" data-name="Path 162" d="M1010.543,725.656,997.162,704.8l11.059,21.837Z" fill="#00bbf1"/>
      </g>
      <g id="Group_153" data-name="Group 153">
        <ellipse id="Ellipse_122" data-name="Ellipse 122" cx="1.328" cy="1.014" rx="1.328" ry="1.014" transform="translate(952.834 685.321)" fill="#00bbf1"/>
        <path id="Path_163" data-name="Path 163" d="M954.1,687.347l18.245,1.885-18.115-3.911Z" fill="#00bbf1"/>
      </g>
      <g id="Group_154" data-name="Group 154">
        <ellipse id="Ellipse_123" data-name="Ellipse 123" cx="1.328" cy="1.014" rx="1.328" ry="1.014" transform="translate(994.603 714.798)" fill="#00bbf1"/>
        <path id="Path_164" data-name="Path 164" d="M997.191,715.492l-4.3-13.67,1.776,14.31Z" fill="#00bbf1"/>
      </g>
      <g id="Group_155" data-name="Group 155">
        <ellipse id="Ellipse_124" data-name="Ellipse 124" cx="1.328" cy="1.014" rx="1.328" ry="1.014" transform="translate(1015.855 712.59)" fill="#00bbf1"/>
        <path id="Path_165" data-name="Path 165" d="M1017.888,712.745l-14.7-8.461,13.292,10.179Z" fill="#00bbf1"/>
      </g>
      <g id="Group_156" data-name="Group 156">
        <ellipse id="Ellipse_125" data-name="Ellipse 125" cx="1.328" cy="1.014" rx="1.328" ry="1.014" transform="translate(964.09 720.683)" fill="#00bbf1"/>
        <path id="Path_166" data-name="Path 166" d="M966.573,722.2c.034.015,1.559-1.734,1.649-1.834a3.826,3.826,0,0,0,.778-1.026,6.564,6.564,0,0,1,1.1-1.415q1.277-1.533,2.526-3.078,2.5-3.091,4.885-6.234,1.945-2.56,3.816-5.154l-4.558,5.238c-1.662,1.91-3.325,3.82-5.1,5.671-.89.928-1.807,1.841-2.765,2.728q-.719.666-1.467,1.311a8.662,8.662,0,0,0-1.4,1.218,10.1,10.1,0,0,1-1.775,1.575Z" fill="#00bbf1"/>
      </g>
      <g id="Group_157" data-name="Group 157">
        <ellipse id="Ellipse_126" data-name="Ellipse 126" cx="1.328" cy="1.014" rx="1.328" ry="1.014" transform="translate(951.15 723.964)" fill="#00bbf1"/>
        <path id="Path_167" data-name="Path 167" d="M953.525,725.6c.031.018,1.874-1.542,1.982-1.631a4.319,4.319,0,0,0,.965-.928,7.418,7.418,0,0,1,1.363-1.278q1.557-1.374,3.087-2.764,3.062-2.78,6.023-5.622,2.414-2.317,4.76-4.674l-5.51,4.674c-2.009,1.7-4.019,3.409-6.128,5.042-1.057.819-2.14,1.62-3.257,2.392q-.837.578-1.7,1.133a9.77,9.77,0,0,0-1.621,1.049,11.325,11.325,0,0,1-2.057,1.36Z" fill="#00bbf1"/>
      </g>
      <g id="Group_158" data-name="Group 158">
        <ellipse id="Ellipse_127" data-name="Ellipse 127" cx="1.328" cy="1.014" rx="1.328" ry="1.014" transform="translate(1029.545 710.285)" fill="#00bbf1"/>
        <path id="Path_168" data-name="Path 168" d="M1030.28,712.206c-.017.026-2.561-.775-2.709-.82a5.859,5.859,0,0,1-1.4-.52,10.173,10.173,0,0,0-1.951-.7q-2.18-.728-4.346-1.478-4.332-1.5-8.609-3.09-3.486-1.3-6.933-2.651l7.61,2.4c2.775.876,5.551,1.753,8.376,2.532,1.417.391,2.845.757,4.289,1.086q1.081.246,2.175.462a12.594,12.594,0,0,1,2.055.413,14.571,14.571,0,0,0,2.624.55Z" fill="#00bbf1"/>
      </g>
      <g id="Group_159" data-name="Group 159">
        <ellipse id="Ellipse_128" data-name="Ellipse 128" cx="1.328" cy="1.014" rx="1.328" ry="1.014" transform="translate(952.386 713.187)" fill="#00bbf1"/>
        <path id="Path_169" data-name="Path 169" d="M954.531,715c.024.023,2.309-1.147,2.442-1.213a5.155,5.155,0,0,0,1.233-.721,8.931,8.931,0,0,1,1.731-.984q1.947-1.043,3.876-2.106,3.856-2.125,7.638-4.331,3.081-1.8,6.108-3.646l-6.836,3.507c-2.493,1.279-4.987,2.557-7.554,3.748-1.287.6-2.592,1.173-3.922,1.713q-1,.4-2.012.782a11.4,11.4,0,0,0-1.907.715,13.387,13.387,0,0,1-2.43.936Z" fill="#00bbf1"/>
      </g>
      <g id="Group_160" data-name="Group 160">
        <ellipse id="Ellipse_129" data-name="Ellipse 129" cx="1.328" cy="1.014" rx="1.328" ry="1.014" transform="translate(950.661 705.071)" fill="#00bbf1"/>
        <path id="Path_170" data-name="Path 170" d="M952.509,707.018c.006.011.4-.078.426-.083a6.582,6.582,0,0,0,.737-.221q.751-.228,1.505-.453,1.7-.508,3.4-1.007t3.414-.984l.856-.243c.141-.04.283-.087.427-.12.124-.028.239-.028.363-.064q4.2-1.234,8.365-2.551,3.582-1.134,7.13-2.327l-7.786,2.05c-2.839.747-5.68,1.494-8.561,2.142-1.445.325-2.9.626-4.367.887-.321.057-.643.113-.966.166a3.185,3.185,0,0,1-.478.07,2.01,2.01,0,0,0-.269,0c-.3.04-.589.1-.883.155q-.887.152-1.78.28a1.218,1.218,0,0,0-.316.076,1.684,1.684,0,0,1-.227.093,5.882,5.882,0,0,1-.833.13c-.4.047-.8.083-1.2.137Z" fill="#00bbf1"/>
      </g>
      <g id="Group_161" data-name="Group 161">
        <ellipse id="Ellipse_130" data-name="Ellipse 130" cx="1.053" cy="0.989" rx="1.053" ry="0.989" transform="translate(943.106 688.497) rotate(-35.595)" fill="#00bbf1"/>
        <path id="Path_171" data-name="Path 171" d="M944.384,689.7c0,.029,2.083.365,2.2.386a3.939,3.939,0,0,0,1.191.116,6.776,6.776,0,0,1,1.653.183q1.812.254,3.628.482,3.633.458,7.283.816,2.976.293,5.96.52l-6.246-1c-2.278-.365-4.556-.73-6.809-1.2-1.129-.234-2.252-.494-3.363-.792q-.832-.224-1.654-.477a7.445,7.445,0,0,0-1.548-.47,8.687,8.687,0,0,1-1.991-.582Z" fill="#00bbf1"/>
      </g>
      <g id="Group_162" data-name="Group 162">
        <ellipse id="Ellipse_131" data-name="Ellipse 131" cx="1.328" cy="1.014" rx="1.328" ry="1.014" transform="translate(941.604 701.528)" fill="#00bbf1"/>
        <path id="Path_172" data-name="Path 172" d="M943.274,703.521a.554.554,0,0,0,.126-.008c.236-.025.474-.054.707-.091a3.637,3.637,0,0,0,.5-.157,5.637,5.637,0,0,1,.818-.13c.294-.04.592-.075.883-.124q1.793-.258,3.576-.546.893-.146,1.782-.3l.889-.155a2.608,2.608,0,0,0,.391-.081,2.773,2.773,0,0,1,.435-.088l1.012-.174q4.638-.8,9.247-1.7,3.756-.735,7.49-1.532l-8.088,1.186c-1.491.219-2.982.437-4.476.642a6.883,6.883,0,0,1-.9.1,2.142,2.142,0,0,0-.4.069q-.868.167-1.746.307-1.754.277-3.534.44-.9.082-1.8.134c-.3.017-.61.041-.913.045-.094,0-.176-.025-.268-.029-.143-.007-.292.006-.435.01h-.017l-3.679.1-1.968.055c-.274.008-.618.055-.686.258-.082.246.315.407.507.547a.658.658,0,0,1,.243.322c.079.2.142.409.213.612Z" fill="#00bbf1"/>
      </g>
      <g id="Group_163" data-name="Group 163">
        <ellipse id="Ellipse_132" data-name="Ellipse 132" cx="1.328" cy="1.014" rx="1.328" ry="1.014" transform="translate(949.967 694.376)" fill="#00bbf1"/>
        <path id="Path_173" data-name="Path 173" d="M951.31,696.4c0,.029,2.747.156,2.905.165a6.716,6.716,0,0,0,1.553,0,11.369,11.369,0,0,1,2.158.017q2.376.07,4.754.118,4.755.093,9.513.088,3.876-.006,7.753-.076l-8.221-.372c-3-.136-6-.272-8.984-.512-1.5-.12-2.993-.267-4.48-.452q-1.113-.14-2.221-.309a12.715,12.715,0,0,0-2.084-.313,14.97,14.97,0,0,1-2.676-.379Z" fill="#00bbf1"/>
      </g>
    </g>
    <g id="Group_208" data-name="Group 208">
      <g id="Group_165" data-name="Group 165">
        <ellipse id="Ellipse_133" data-name="Ellipse 133" cx="0.725" cy="0.785" rx="0.725" ry="0.785" transform="translate(1006.008 748.789)" fill="#00bbf1"/>
        <path id="Path_174" data-name="Path 174" d="M1006.139,749.124l-6.436,8.358,7.624-7.459Z" fill="#00bbf1"/>
      </g>
      <g id="Group_166" data-name="Group 166">
        <ellipse id="Ellipse_134" data-name="Ellipse 134" cx="0.725" cy="0.785" rx="0.725" ry="0.785" transform="translate(985.221 738.332)" fill="#00bbf1"/>
        <path id="Path_175" data-name="Path 175" d="M985.413,739.65l6.169,8.592-5.105-9.658Z" fill="#00bbf1"/>
      </g>
      <g id="Group_167" data-name="Group 167">
        <ellipse id="Ellipse_135" data-name="Ellipse 135" cx="0.725" cy="0.785" rx="0.725" ry="0.785" transform="translate(1010.912 739.102)" fill="#00bbf1"/>
        <path id="Path_176" data-name="Path 176" d="M1011.021,739.472,1005,748.186l7.251-7.884Z" fill="#00bbf1"/>
      </g>
      <g id="Group_168" data-name="Group 168">
        <ellipse id="Ellipse_136" data-name="Ellipse 136" cx="0.725" cy="0.785" rx="0.725" ry="0.785" transform="translate(998.081 734.447)" fill="#00bbf1"/>
        <path id="Path_177" data-name="Path 177" d="M998.085,735.313l.167,10.884,1.274-11.044Z" fill="#00bbf1"/>
      </g>
      <g id="Group_169" data-name="Group 169">
        <ellipse id="Ellipse_137" data-name="Ellipse 137" cx="0.725" cy="0.785" rx="0.725" ry="0.785" transform="translate(1009.092 730.988)" fill="#00bbf1"/>
        <path id="Path_178" data-name="Path 178" d="M1009.13,731.522l-4.01,9.981,5.384-9.479Z" fill="#00bbf1"/>
      </g>
      <g id="Group_170" data-name="Group 170">
        <ellipse id="Ellipse_138" data-name="Ellipse 138" cx="1.098" cy="0.747" rx="1.098" ry="0.747" transform="matrix(0.567, -0.824, 0.824, 0.567, 1018.16, 738.511)" fill="#00bbf1"/>
        <path id="Path_179" data-name="Path 179" d="M1018.848,737.517l-10.062,11.233,11.16-10.208Z" fill="#00bbf1"/>
      </g>
      <g id="Group_171" data-name="Group 171">
        <ellipse id="Ellipse_139" data-name="Ellipse 139" cx="0.725" cy="0.785" rx="0.725" ry="0.785" transform="translate(1003.875 754.964)" fill="#00bbf1"/>
        <path id="Path_180" data-name="Path 180" d="M1004.095,755.186l-7.774,6.895,8.784-5.769Z" fill="#00bbf1"/>
      </g>
      <g id="Group_172" data-name="Group 172">
        <ellipse id="Ellipse_140" data-name="Ellipse 140" cx="1.021" cy="0.755" rx="1.021" ry="0.755" transform="translate(1018.673 743.512) rotate(-48.251)" fill="#00bbf1"/>
        <path id="Path_181" data-name="Path 181" d="M1019.447,742.655l-10.885,8.822,11.825-7.627Z" fill="#00bbf1"/>
      </g>
      <g id="Group_173" data-name="Group 173">
        <ellipse id="Ellipse_141" data-name="Ellipse 141" cx="1.229" cy="0.766" rx="1.229" ry="0.766" transform="translate(1022.809 746.073) rotate(-35.493)" fill="#00bbf1"/>
        <path id="Path_182" data-name="Path 182" d="M1023.883,745.309l-14.669,8.406,15.411-7.057Z" fill="#00bbf1"/>
      </g>
      <g id="Group_174" data-name="Group 174">
        <ellipse id="Ellipse_142" data-name="Ellipse 142" cx="1.296" cy="0.727" rx="1.296" ry="0.727" transform="translate(1003.273 734.846) rotate(-80.173)" fill="#00bbf1"/>
        <path id="Path_183" data-name="Path 183" d="M1003.5,733.536l-4.151,17.408,5.571-17.095Z" fill="#00bbf1"/>
      </g>
      <g id="Group_175" data-name="Group 175">
        <ellipse id="Ellipse_143" data-name="Ellipse 143" cx="0.725" cy="0.785" rx="0.725" ry="0.785" transform="translate(1004.068 771.063)" fill="#00bbf1"/>
        <path id="Path_184" data-name="Path 184" d="M1005.29,771.278l-6.683-8.127,5.688,9.268Z" fill="#00bbf1"/>
      </g>
      <g id="Group_176" data-name="Group 176">
        <ellipse id="Ellipse_144" data-name="Ellipse 144" cx="0.725" cy="0.785" rx="0.725" ry="0.785" transform="translate(1004.253 744.161)" fill="#00bbf1"/>
        <path id="Path_185" data-name="Path 185" d="M1004.307,744.649l-4.576,9.691,5.918-9.1Z" fill="#00bbf1"/>
      </g>
      <g id="Group_177" data-name="Group 177">
        <ellipse id="Ellipse_145" data-name="Ellipse 145" cx="0.725" cy="0.785" rx="0.725" ry="0.785" transform="translate(995.669 740.72)" fill="#00bbf1"/>
        <path id="Path_186" data-name="Path 186" d="M995.678,741.626l.685,10.86.747-11.1Z" fill="#00bbf1"/>
      </g>
      <g id="Group_178" data-name="Group 178">
        <ellipse id="Ellipse_146" data-name="Ellipse 146" cx="0.73" cy="0.609" rx="0.73" ry="0.609" transform="translate(993.909 752.046) rotate(-20.365)" fill="#00bbf1"/>
        <path id="Path_187" data-name="Path 187" d="M994.1,752.555,995.183,761l.324-8.826Z" fill="#00bbf1"/>
      </g>
      <g id="Group_179" data-name="Group 179">
        <ellipse id="Ellipse_147" data-name="Ellipse 147" cx="0.725" cy="0.785" rx="0.725" ry="0.785" transform="translate(1019.633 752.438)" fill="#00bbf1"/>
        <path id="Path_188" data-name="Path 188" d="M1020.112,752.485c-.008-.021-1.453.42-1.537.444a2.7,2.7,0,0,0-.8.3,4.456,4.456,0,0,1-1.116.407q-1.24.411-2.478.839-2.472.856-4.922,1.785-2,.758-3.978,1.563l4.324-1.327c1.577-.483,3.154-.966,4.75-1.372.8-.2,1.6-.387,2.415-.54q.606-.116,1.217-.207a5.065,5.065,0,0,0,1.148-.176,5.863,5.863,0,0,1,1.468-.243Z" fill="#00bbf1"/>
      </g>
      <g id="Group_180" data-name="Group 180">
        <ellipse id="Ellipse_148" data-name="Ellipse 148" cx="0.725" cy="0.785" rx="0.725" ry="0.785" transform="translate(1026.52 755.487)" fill="#00bbf1"/>
        <path id="Path_189" data-name="Path 189" d="M1027.1,755.5c-.005-.022-1.494.186-1.58.2a2.585,2.585,0,0,0-.831.175,4.458,4.458,0,0,1-1.159.226q-1.284.21-2.564.438-2.562.456-5.11.989-2.078.434-4.146.917l4.457-.629c1.624-.229,3.25-.458,4.883-.607.819-.075,1.64-.13,2.462-.154q.615-.018,1.232-.011a5.055,5.055,0,0,0,1.159.007,5.855,5.855,0,0,1,1.485-.009Z" fill="#00bbf1"/>
      </g>
      <g id="Group_181" data-name="Group 181">
        <ellipse id="Ellipse_149" data-name="Ellipse 149" cx="0.725" cy="0.785" rx="0.725" ry="0.785" transform="translate(989.439 732.775)" fill="#00bbf1"/>
        <path id="Path_190" data-name="Path 190" d="M990.879,733.442c.021,0,.353,1.583.373,1.674a3.252,3.252,0,0,1,.135.907,5.518,5.518,0,0,0,.2,1.257q.259,1.377.5,2.759.486,2.763.9,5.539.337,2.263.631,4.533l-.988-4.75c-.361-1.732-.722-3.465-1.154-5.178-.217-.859-.452-1.712-.714-2.557-.131-.421-.269-.841-.414-1.257a6.252,6.252,0,0,1-.4-1.177,7.217,7.217,0,0,0-.5-1.514Z" fill="#00bbf1"/>
      </g>
      <g id="Group_182" data-name="Group 182">
        <ellipse id="Ellipse_150" data-name="Ellipse 150" cx="0.725" cy="0.785" rx="0.725" ry="0.785" transform="translate(1020.994 760.105)" fill="#00bbf1"/>
        <path id="Path_191" data-name="Path 191" d="M1021.64,760.109c0-.022-1.5.037-1.589.039a2.581,2.581,0,0,0-.843.091,4.424,4.424,0,0,1-1.173.109q-1.3.081-2.591.18-2.589.2-5.172.475-2.106.223-4.206.5l4.491-.181c1.637-.066,3.276-.132,4.914-.117.822.007,1.644.035,2.465.093.409.029.819.066,1.227.111a5.041,5.041,0,0,0,1.154.123,5.849,5.849,0,0,1,1.479.139Z" fill="#00bbf1"/>
      </g>
      <g id="Group_183" data-name="Group 183">
        <ellipse id="Ellipse_151" data-name="Ellipse 151" cx="0.725" cy="0.785" rx="0.725" ry="0.785" transform="translate(1022.602 764.365)" fill="#00bbf1"/>
        <path id="Path_192" data-name="Path 192" d="M1023.374,764.367c0-.023-1.486-.246-1.572-.26a2.611,2.611,0,0,0-.845-.068,4.4,4.4,0,0,1-1.173-.112q-1.289-.162-2.58-.307-2.582-.289-5.17-.5-2.11-.172-4.222-.3l4.452.662c1.623.241,3.247.483,4.859.8.809.161,1.614.342,2.412.553.4.106.8.218,1.192.34a5.1,5.1,0,0,0,1.117.336,5.983,5.983,0,0,1,1.435.415Z" fill="#00bbf1"/>
      </g>
      <g id="Group_184" data-name="Group 184">
        <ellipse id="Ellipse_152" data-name="Ellipse 152" cx="0.725" cy="0.785" rx="0.725" ry="0.785" transform="translate(1018.596 766.407)" fill="#00bbf1"/>
        <path id="Path_193" data-name="Path 193" d="M1019.429,766.416a2.173,2.173,0,0,0-.229-.078,2.785,2.785,0,0,0-.426-.083l-.869-.167q-.98-.192-1.958-.391t-1.956-.41l-.488-.1c-.081-.017-.164-.03-.244-.053s-.121-.056-.193-.07q-2.415-.489-4.842-.91-2.09-.363-4.185-.675l4.386,1.061c1.6.387,3.2.774,4.78,1.24.794.233,1.582.486,2.362.769q.256.093.511.189a1.314,1.314,0,0,1,.248.1,1,1,0,0,0,.125.083c.153.064.314.113.469.171q.469.175.932.367a.518.518,0,0,0,.175.048.74.74,0,0,1,.141.009,2.355,2.355,0,0,1,.436.172c.2.093.4.194.609.282Z" fill="#00bbf1"/>
      </g>
      <g id="Group_185" data-name="Group 185">
        <ellipse id="Ellipse_153" data-name="Ellipse 153" cx="0.763" cy="0.577" rx="0.763" ry="0.577" transform="translate(1013.791 779.212) rotate(-57.678)" fill="#00bbf1"/>
        <path id="Path_194" data-name="Path 194" d="M1015.159,778.281c.013-.018-.794-.925-.84-.979a1.737,1.737,0,0,0-.492-.469,2.968,2.968,0,0,1-.673-.665q-.717-.764-1.446-1.512-1.458-1.5-2.964-2.939-1.226-1.173-2.483-2.309l2.421,2.712c.882.989,1.765,1.979,2.6,3.025.416.525.819,1.064,1.2,1.623q.285.42.556.854a3.683,3.683,0,0,0,.51.815,4.293,4.293,0,0,1,.667,1.033Z" fill="#00bbf1"/>
      </g>
      <g id="Group_186" data-name="Group 186">
        <ellipse id="Ellipse_154" data-name="Ellipse 154" cx="0.725" cy="0.785" rx="0.725" ry="0.785" transform="translate(1020.327 771.68)" fill="#00bbf1"/>
        <path id="Path_195" data-name="Path 195" d="M1021.3,771.73c0-.007-.056-.036-.06-.038-.115-.065-.233-.129-.352-.184a1.45,1.45,0,0,0-.287-.071,2.3,2.3,0,0,1-.417-.2c-.148-.074-.294-.154-.445-.223q-.9-.45-1.817-.878-.457-.215-.916-.422c-.153-.07-.306-.138-.46-.207a1.049,1.049,0,0,0-.207-.082,1.259,1.259,0,0,1-.23-.093l-.522-.236q-2.4-1.08-4.821-2.087-1.976-.82-3.967-1.594l4.09,2.017c.754.372,1.508.744,2.258,1.126a2.859,2.859,0,0,1,.443.248.957.957,0,0,0,.206.093q.456.19.9.4.9.425,1.755.931c.289.17.576.348.858.532.142.093.288.182.425.284.042.032.068.076.107.11.061.053.133.1.2.142l.008.006,1.68,1.193.9.638c.125.089.3.177.411.072.139-.127.029-.365,0-.519a.56.56,0,0,1,.025-.287c.048-.154.106-.306.158-.459Z" fill="#00bbf1"/>
      </g>
      <g id="Group_187" data-name="Group 187">
        <ellipse id="Ellipse_155" data-name="Ellipse 155" cx="0.725" cy="0.785" rx="0.725" ry="0.785" transform="translate(1014.269 771.747)" fill="#00bbf1"/>
        <path id="Path_196" data-name="Path 196" d="M1015.313,771.828c.01-.021-1.287-.841-1.361-.889a2.72,2.72,0,0,0-.757-.412,4.691,4.691,0,0,1-1.046-.588q-1.134-.683-2.277-1.35-2.285-1.332-4.6-2.6-1.89-1.031-3.8-2.016l3.884,2.45c1.416.894,2.832,1.788,4.21,2.751.69.482,1.371.982,2.035,1.507q.5.393.982.806a5.53,5.53,0,0,0,.914.772,6.437,6.437,0,0,1,1.181.976Z" fill="#00bbf1"/>
      </g>
      <g id="Group_188" data-name="Group 188">
        <ellipse id="Ellipse_156" data-name="Ellipse 156" cx="0.725" cy="0.785" rx="0.725" ry="0.785" transform="translate(985.806 769.698)" fill="#00bbf1"/>
        <path id="Path_197" data-name="Path 197" d="M987.079,770.995l7.183-7.611-8.281,6.586Z" fill="#00bbf1"/>
      </g>
      <g id="Group_189" data-name="Group 189">
        <ellipse id="Ellipse_157" data-name="Ellipse 157" cx="0.725" cy="0.785" rx="0.725" ry="0.785" transform="translate(1008.251 781.559)" fill="#00bbf1"/>
        <path id="Path_198" data-name="Path 198" d="M1009.514,781.819l-6.058-8.683,4.982,9.734Z" fill="#00bbf1"/>
      </g>
      <g id="Group_190" data-name="Group 190">
        <ellipse id="Ellipse_158" data-name="Ellipse 158" cx="0.725" cy="0.785" rx="0.725" ry="0.785" transform="translate(982.447 778.439)" fill="#00bbf1"/>
        <path id="Path_199" data-name="Path 199" d="M983.781,779.648l6.132-8.623-7.351,7.774Z" fill="#00bbf1"/>
      </g>
      <g id="Group_191" data-name="Group 191">
        <ellipse id="Ellipse_159" data-name="Ellipse 159" cx="0.725" cy="0.785" rx="0.725" ry="0.785" transform="translate(995.217 783.286)" fill="#00bbf1"/>
        <path id="Path_200" data-name="Path 200" d="M996.663,784l-.028-10.886L995.22,784.14Z" fill="#00bbf1"/>
      </g>
      <g id="Group_192" data-name="Group 192">
        <ellipse id="Ellipse_160" data-name="Ellipse 160" cx="0.725" cy="0.785" rx="0.725" ry="0.785" transform="translate(984.163 786.579)" fill="#00bbf1"/>
        <path id="Path_201" data-name="Path 201" d="M985.571,787.625l4.138-9.92-5.5,9.4Z" fill="#00bbf1"/>
      </g>
      <g id="Group_193" data-name="Group 193">
        <ellipse id="Ellipse_161" data-name="Ellipse 161" cx="1.097" cy="0.747" rx="1.097" ry="0.747" transform="matrix(0.577, -0.816, 0.816, 0.577, 974.144, 781.429)" fill="#00bbf1"/>
        <path id="Path_202" data-name="Path 202" d="M975.93,781.485l10.2-11.081-11.289,10.04Z" fill="#00bbf1"/>
      </g>
      <g id="Group_194" data-name="Group 194">
        <ellipse id="Ellipse_162" data-name="Ellipse 162" cx="1.02" cy="0.756" rx="1.02" ry="0.756" transform="translate(973.688 775.975) rotate(-47.477)" fill="#00bbf1"/>
        <path id="Path_203" data-name="Path 203" d="M975.4,776.339l11-8.658-11.921,7.449Z" fill="#00bbf1"/>
      </g>
      <g id="Group_195" data-name="Group 195">
        <ellipse id="Ellipse_163" data-name="Ellipse 163" cx="1.227" cy="0.767" rx="1.227" ry="0.767" transform="translate(969.186 773.006) rotate(-34.648)" fill="#00bbf1"/>
        <path id="Path_204" data-name="Path 204" d="M970.995,773.619l14.774-8.185-15.5,6.826Z" fill="#00bbf1"/>
      </g>
      <g id="Group_196" data-name="Group 196">
        <ellipse id="Ellipse_164" data-name="Ellipse 164" cx="1.296" cy="0.727" rx="1.296" ry="0.727" transform="translate(989.567 786.67) rotate(-79.492)" fill="#00bbf1"/>
        <path id="Path_205" data-name="Path 205" d="M991.225,785.7l4.373-17.345-5.789,17.01Z" fill="#00bbf1"/>
      </g>
      <g id="Group_197" data-name="Group 197">
        <ellipse id="Ellipse_165" data-name="Ellipse 165" cx="0.725" cy="0.785" rx="0.725" ry="0.785" transform="translate(985.994 740.029)" fill="#00bbf1"/>
        <path id="Path_206" data-name="Path 206" d="M986.213,741.377l6.579,8.227-5.569-9.353Z" fill="#00bbf1"/>
      </g>
      <g id="Group_198" data-name="Group 198">
        <ellipse id="Ellipse_166" data-name="Ellipse 166" cx="0.725" cy="0.785" rx="0.725" ry="0.785" transform="translate(989.169 773.481)" fill="#00bbf1"/>
        <path id="Path_207" data-name="Path 207" d="M990.56,774.572l4.7-9.621-6.033,9.008Z" fill="#00bbf1"/>
      </g>
      <g id="Group_199" data-name="Group 199">
        <ellipse id="Ellipse_167" data-name="Ellipse 167" cx="0.725" cy="0.785" rx="0.725" ry="0.785" transform="translate(998.913 780.505)" fill="#00bbf1"/>
        <path id="Path_208" data-name="Path 208" d="M1000.332,781.067,998.31,770.4l.633,11.109Z" fill="#00bbf1"/>
      </g>
      <g id="Group_200" data-name="Group 200">
        <ellipse id="Ellipse_168" data-name="Ellipse 168" cx="0.725" cy="0.785" rx="0.725" ry="0.785" transform="translate(973.896 764.973)" fill="#00bbf1"/>
        <path id="Path_209" data-name="Path 209" d="M974.857,766.5c.008.022,1.458-.4,1.542-.421a2.638,2.638,0,0,0,.8-.292,4.479,4.479,0,0,1,1.121-.39q1.248-.391,2.489-.8,2.482-.82,4.945-1.712,2.005-.727,4-1.5l-4.341,1.262c-1.583.459-3.166.919-4.767,1.3-.8.191-1.609.362-2.421.5-.4.07-.812.134-1.22.188a5.032,5.032,0,0,0-1.15.159,5.877,5.877,0,0,1-1.471.221Z" fill="#00bbf1"/>
      </g>
      <g id="Group_201" data-name="Group 201">
        <ellipse id="Ellipse_169" data-name="Ellipse 169" cx="0.725" cy="0.785" rx="0.725" ry="0.785" transform="translate(967.049 761.821)" fill="#00bbf1"/>
        <path id="Path_210" data-name="Path 210" d="M967.908,763.377c0,.023,1.495-.163,1.581-.173a2.569,2.569,0,0,0,.834-.162,4.425,4.425,0,0,1,1.162-.209q1.285-.191,2.569-.4,2.566-.418,5.123-.912,2.082-.4,4.156-.855l-4.464.562c-1.627.205-3.256.409-4.891.534-.819.062-1.641.1-2.463.116q-.615.009-1.232-.007a5.056,5.056,0,0,0-1.159-.024,5.817,5.817,0,0,1-1.485-.014Z" fill="#00bbf1"/>
      </g>
      <g id="Group_202" data-name="Group 202">
        <ellipse id="Ellipse_170" data-name="Ellipse 170" cx="0.725" cy="0.785" rx="0.725" ry="0.785" transform="translate(1005.607 784.517)" fill="#00bbf1"/>
        <path id="Path_211" data-name="Path 211" d="M1005.66,785.6c-.02.009-.683-1.451-.722-1.535a3.179,3.179,0,0,1-.326-.847,5.374,5.374,0,0,0-.466-1.172q-.549-1.274-1.081-2.557-1.065-2.565-2.065-5.16-.815-2.117-1.586-4.25l1.98,4.371c.722,1.594,1.445,3.188,2.233,4.745.395.781.807,1.552,1.243,2.308.218.377.441.75.672,1.118a6.013,6.013,0,0,1,.646,1.043,6.96,6.96,0,0,0,.815,1.346Z" fill="#00bbf1"/>
      </g>
      <g id="Group_203" data-name="Group 203">
        <ellipse id="Ellipse_171" data-name="Ellipse 171" cx="0.725" cy="0.785" rx="0.725" ry="0.785" transform="translate(972.646 756.043)" fill="#00bbf1"/>
        <path id="Path_212" data-name="Path 212" d="M973.327,757.612c0,.023,1.488.237,1.573.25a2.553,2.553,0,0,0,.845.063,4.442,4.442,0,0,1,1.174.105q1.29.156,2.582.292,2.583.273,5.173.469,2.109.16,4.223.27l-4.456-.635c-1.624-.232-3.249-.464-4.863-.775-.809-.156-1.615-.332-2.415-.538q-.6-.154-1.193-.333a5.165,5.165,0,0,0-1.119-.33,5.926,5.926,0,0,1-1.437-.405Z" fill="#00bbf1"/>
      </g>
      <g id="Group_204" data-name="Group 204">
        <ellipse id="Ellipse_172" data-name="Ellipse 172" cx="0.725" cy="0.785" rx="0.725" ry="0.785" transform="translate(975.774 750.654)" fill="#00bbf1"/>
        <path id="Path_213" data-name="Path 213" d="M976.271,752.184a2.168,2.168,0,0,0,.213.118,2.82,2.82,0,0,0,.406.16l.831.325q.936.369,1.869.746t1.863.763l.464.193c.077.032.157.06.232.1s.111.077.179.1q2.3.926,4.63,1.788,2,.741,4.018,1.434l-4.156-1.852c-1.515-.676-3.031-1.352-4.517-2.1-.745-.376-1.482-.771-2.206-1.192-.159-.093-.317-.186-.475-.281a1.348,1.348,0,0,1-.228-.147.831.831,0,0,0-.111-.1c-.14-.092-.291-.169-.435-.255q-.434-.26-.861-.534a.524.524,0,0,0-.165-.079.746.746,0,0,1-.137-.035,2.378,2.378,0,0,1-.4-.25c-.186-.128-.368-.265-.557-.39Z" fill="#00bbf1"/>
      </g>
      <g id="Group_205" data-name="Group 205">
        <ellipse id="Ellipse_173" data-name="Ellipse 173" cx="0.756" cy="0.582" rx="0.756" ry="0.582" transform="translate(980.739 738.642) rotate(-51.095)" fill="#00bbf1"/>
        <path id="Path_214" data-name="Path 214" d="M981.128,738.945c-.016.015.68,1.026.719,1.085a1.764,1.764,0,0,0,.433.533,3.041,3.041,0,0,1,.59.752q.622.856,1.258,1.7,1.27,1.686,2.6,3.322,1.08,1.332,2.194,2.631l-2.084-3.022c-.761-1.1-1.521-2.2-2.222-3.357-.352-.578-.689-1.168-1-1.775q-.235-.455-.452-.923a3.793,3.793,0,0,0-.412-.879,4.441,4.441,0,0,1-.54-1.116Z" fill="#00bbf1"/>
      </g>
      <g id="Group_206" data-name="Group 206">
        <ellipse id="Ellipse_174" data-name="Ellipse 174" cx="0.725" cy="0.785" rx="0.725" ry="0.785" transform="translate(973.74 745.055)" fill="#00bbf1"/>
        <path id="Path_215" data-name="Path 215" d="M974.142,746.543c0,.006.051.041.055.044.109.078.22.154.333.224a1.647,1.647,0,0,0,.277.1,2.25,2.25,0,0,1,.4.245c.139.091.277.187.42.272q.855.552,1.722,1.081.434.264.87.524l.437.258a1.106,1.106,0,0,0,.2.1,1.165,1.165,0,0,1,.219.119l.5.294q2.28,1.345,4.592,2.624,1.884,1.043,3.79,2.038L984.077,752c-.713-.456-1.427-.912-2.136-1.377a2.966,2.966,0,0,1-.416-.3.992.992,0,0,0-.2-.116q-.435-.241-.86-.5-.849-.523-1.655-1.125-.406-.3-.8-.628c-.133-.108-.27-.214-.4-.331-.038-.036-.06-.083-.1-.121-.056-.06-.123-.11-.183-.164l-.008-.006-1.555-1.378-.831-.738c-.116-.1-.279-.209-.4-.118-.15.111-.063.359-.051.516a.556.556,0,0,1-.053.282c-.062.149-.134.293-.2.439Z" fill="#00bbf1"/>
      </g>
      <g id="Group_207" data-name="Group 207">
        <ellipse id="Ellipse_175" data-name="Ellipse 175" cx="0.725" cy="0.785" rx="0.725" ry="0.785" transform="translate(980.542 744.169)" fill="#00bbf1"/>
        <path id="Path_216" data-name="Path 216" d="M980.794,745.549c-.013.017,1.051,1.164,1.112,1.231a2.871,2.871,0,0,0,.637.606,4.9,4.9,0,0,1,.875.853q.939.97,1.891,1.927,1.9,1.912,3.853,3.769,1.59,1.513,3.21,2.987l-3.19-3.43c-1.163-1.25-2.327-2.5-3.436-3.809-.557-.655-1.1-1.325-1.621-2.014q-.39-.516-.763-1.047a5.941,5.941,0,0,0-.706-1,6.825,6.825,0,0,1-.916-1.266Z" fill="#00bbf1"/>
      </g>
    </g>
    <path id="Path_217" data-name="Path 217" d="M900.915,735.919a27.323,27.323,0,0,1,6.064-13.448l1.183-1.454c.386-.493.86-.905,1.286-1.362.446-.438.858-.911,1.331-1.32l1.414-1.232a16.168,16.168,0,0,1,1.463-1.17l1.5-1.121c1.055-.669,2.085-1.386,3.18-1.986a44.23,44.23,0,0,1,14.081-4.9c1.239-.138,2.465-.381,3.712-.418l1.862-.116c.622-.021,1.244,0,1.866,0a41.641,41.641,0,0,1,7.386.8,47.889,47.889,0,0,0-7.382-.307c-.614.028-1.229.025-1.841.071l-1.833.182c-1.225.081-2.426.367-3.636.547a45.534,45.534,0,0,0-13.726,5.009,39.545,39.545,0,0,0-11.254,9.256,14.879,14.879,0,0,0-1.139,1.437l-1.092,1.478a32.984,32.984,0,0,0-1.9,3.147A24.741,24.741,0,0,0,900.915,735.919Z" fill="#00bbf1"/>
    <path id="Path_218" data-name="Path 218" d="M913.973,751.635a10.3,10.3,0,0,1,5.15-3.328,26.308,26.308,0,0,1,3.008-.769l1.518-.32,1.533-.24a46.121,46.121,0,0,1,12.393-.1,47.726,47.726,0,0,1,11.981,3.172c.947.418,1.9.806,2.82,1.29l1.385.694,1.345.768a44.477,44.477,0,0,1,5.086,3.5,55.965,55.965,0,0,0-5.321-3.071l-1.364-.7-1.4-.624c-.922-.437-1.886-.777-2.834-1.146a50.714,50.714,0,0,0-11.826-2.9,51.243,51.243,0,0,0-6.079-.452,58.525,58.525,0,0,0-6.092.321l-1.519.169-1.508.248a27.534,27.534,0,0,0-2.989.619A10.552,10.552,0,0,0,913.973,751.635Z" fill="#00bbf1"/>
  </g>
</svg>
