<?xml version="1.0" encoding="utf-8"?>
<!-- Generator: Adobe Illustrator 27.5.0, SVG Export Plug-In . SVG Version: 6.00 Build 0)  -->
<svg version="1.1" id="Layer_1" xmlns="http://www.w3.org/2000/svg" xmlns:xlink="http://www.w3.org/1999/xlink" x="0px" y="0px"
	 viewBox="0 0 81.4 140.7" enable-background="new 0 0 81.4 140.7" xml:space="preserve">
<g id="Ellipse_1" transform="translate(3.028)">
	<circle fill="#FFFFFF" cx="34" cy="25.6" r="14"/>
	<circle fill="none" stroke="#4DA1DE" stroke-width="4" cx="34" cy="25.6" r="12"/>
</g>
<path id="Path_40" fill="none" stroke="#369DE8" stroke-width="4" stroke-linecap="round" stroke-linejoin="round" d="M31.8,79.2
	L22,60.4l18.7-14.4l29.6,4.3l-16,10v9.2"/>
<g id="Ellipse_22" transform="translate(33.469 45)">
	<ellipse fill="#FFFFFF" cx="23.5" cy="13.6" rx="3.5" ry="2"/>
	<ellipse fill="none" stroke="#369DE8" cx="23.5" cy="13.6" rx="3" ry="1.5"/>
</g>
<path id="Path_41" fill="none" stroke="#369DE8" stroke-width="4" stroke-linecap="round" d="M39.3,39.6l6.9,42.8"/>
<path id="Path_42" fill="none" stroke="#369DE8" stroke-width="4" stroke-linecap="round" stroke-linejoin="round" d="M45.9,83.7
	c-10.8,10.6-2.2,40.8-2.2,40.8l-5.9,2.8"/>
<path id="Path_43" fill="none" stroke="#369DE8" stroke-width="4" stroke-linecap="round" stroke-linejoin="round" d="M65.6,127.4
	l-6.1-4.1c0,0,2.8-31.3-13.7-41.7"/>
<path id="Path_44" fill="none" stroke="#369DE8" d="M34.5,31.7c0,0,6.3,0.6,8.7-2.2"/>
</svg>
