<?xml version="1.0" encoding="utf-8"?>
<!-- Generator: Adobe Illustrator 25.2.3, SVG Export Plug-In . SVG Version: 6.00 Build 0)  -->
<svg version="1.1" id="Layer_1" xmlns="http://www.w3.org/2000/svg" xmlns:xlink="http://www.w3.org/1999/xlink" x="0px" y="0px"
	 viewBox="0 400 1920 350" xml:space="preserve">
<style type="text/css">
	.st0{fill:#00ACED;stroke:#00ACED;stroke-width:2;stroke-linecap:round;stroke-linejoin:round;stroke-miterlimit:10;}
	.st1{fill:#FFFFFF;stroke:#00ACED;stroke-width:2;stroke-linecap:round;stroke-linejoin:round;stroke-miterlimit:10;}
	.st2{fill:none;stroke:#00ACED;stroke-width:2;stroke-linecap:round;stroke-linejoin:round;stroke-miterlimit:10;}
	.st3{fill:#00ACED;}
	.st4{fill:#FFFFFF;stroke:#00ACED;stroke-linecap:round;stroke-linejoin:round;stroke-miterlimit:10;}
	.st5{fill:none;stroke:#00ACED;stroke-linecap:round;stroke-linejoin:round;stroke-miterlimit:10;}
	.st6{fill:none;}
</style>
<path class="st0" d="M813.3,554.2c-10.4-3-27.8,2.5-39,12.1c-2.9,2.5-5,5-6.5,7.4c-8.3-2.1-17-1.9-21.2,0.7c-5.2,3.2-1.6,9.1,8.2,13
	c21.1,8.5,45.9-0.6,57-10.2C822.9,567.5,823.6,557.2,813.3,554.2z"/>
<circle class="st1" cx="974.3" cy="528.4" r="38.7"/>
<path class="st1" d="M944.4,714.2c0,0,32.1-16.6,44.2-54c12.2-37.4-14.4-93.1-14.4-93.1"/>
<path class="st2" d="M995.7,553.7c9.6,1.4,18.8,5.3,26.6,11.2"/>
<path class="st0" d="M937.5,718.8c0.2,0.6,0.7,1.1,1.1,1.6c4.4,4.4,9.8,8.1,15.9,9.7c3.9,1,8.7,1.6,12.6,0.9c1.4-0.3,2.9-1,3.3-2.4
	c0.5-1.4-0.5-3.2-2-3c1-0.1,1.2-1.6,0.5-2.3c-0.7-0.7-1.8-0.8-2.8-0.7c-2.2,0.2-4.3-0.3-6.5-0.4c-4.7-0.1-10.3-2.5-10.2-8
	c0-1.7-0.7-3.7-2.7-2.4c-2.4,1.7-4.9,3.1-7.6,4.2c-0.7,0.3-1.6,0.7-1.9,1.5C937.3,717.9,937.3,718.4,937.5,718.8z"/>
<path class="st0" d="M1039.4,717.2c2.3-1,4.8-1.7,7.1-2.8c1-0.5,2-1,2.6-1.9c0.5-0.8,0.6-2-0.1-2.8c-0.3-0.4-2.3-0.7-2.2-0.4
	c-0.5-1.1-1.8-1.7-3.1-1.7s-2.4,0.5-3.6,0.9c-2.8,1.1-5.8,1.9-8.8,2.4c-2.3,0.4-4.7,0.7-6.9,0c-0.9-0.3-1.9-0.7-2.9-0.6
	c-1.8,0.1-2.8,2-2.6,3.6c0.2,1.4,0.3,3.1,0.7,4.5c1,3,3.8,4.1,6.8,3.6c3.5-0.5,7.6-1.7,10.6-3.6
	C1037.8,717.9,1038.6,717.5,1039.4,717.2z"/>
<g>
	<path class="st3" d="M975.2,549.6c1.5,2.4,3.6,4.2,6,5.2c2.4,1,5.1,1.2,7.6,0.8c1.3-0.3,2.5-0.6,3.7-1.2c1.2-0.5,2.3-1.3,3.2-2.1
		c2-1.7,3.1-4.2,3.5-7c0.5,2.7-0.3,5.9-2.4,8.1c-1.9,2.3-4.8,3.6-7.7,4.2c-2.9,0.4-6,0.1-8.6-1.4
		C977.9,554.7,975.9,552.3,975.2,549.6z"/>
</g>
<path class="st0" d="M1021.1,564.9c-0.3,1.1-0.4,2.4,0.3,3.4c0.7,0.9,2.4,1.1,2.9,0c0,1.3,0.3,2.7,1.4,3.4s2.9,0,2.8-1.3
	c0.5,2.3,3.2,3.8,5.3,3c0.4,1.6,3.1,1.3,3.8-0.2c0.7-1.5,0-3.3-0.6-4.8c-1.5-0.1-3-0.2-4.5-0.3c0.3-1.9-2.6-3.2-3.8-1.8
	c0.4-1.1-1.2-1.8-2.4-2c-2.1-0.2-4.1-0.5-6.2-0.7"/>
<path class="st2" d="M978.8,579.2c-5.2,5.5-10.7,10.6-15.9,16c-4.6,4.8-9.5,9.2-10.4,16.2c-0.5,4,0.3,8.2,2.3,11.7"/>
<g>
	<circle class="st4" cx="972.2" cy="632.7" r="12.4"/>
	<circle class="st4" cx="972.2" cy="632.7" r="10.4"/>
	<path class="st5" d="M975.5,622.8c-1.6,0.3-3.1,1-4.1,1.9c-1.5,1.4-2,3.3-1.3,5c0.7,1.9,2.8,3.4,3.5,5.3c0.9,2.5-0.5,8.3-5.3,7.3"
		/>
	<path class="st5" d="M967.9,633.6c2.8-0.3,5.7-0.7,8.5-1"/>
</g>
<path class="st0" d="M961.3,626.5c-0.1,0-0.1,0.1-0.1,0.1c-3,2.7-1.5,8.2-0.2,11.5c1.5,3.9-0.7,4.8-2.9,1.7
	c-1.6-2.2-2.8-4.8-3.6-7.4c-1.3-4-2.4-10.5,2.5-12.5c2.6-1,6.5-0.3,9.1,0.3c1.2,0.3,5.6,2.2,5.3,3.8
	C971.1,625,963.1,625.2,961.3,626.5z"/>
<path class="st2" d="M991.7,643.1c11.2,8.7,19.1,15.2,23.4,28.8c4.3,13.5,5.6,27.8,6.3,42"/>
<g>
	<path class="st3" d="M1021.5,467.6c4,2.2,7.4,5.6,9.9,9.6c1.2,2,2.2,4.2,2.9,6.4c0.7,2.3,1.1,4.6,1.2,7l-1.8-0.5
		c1.4-2.1,3.2-3.9,5.1-5.5c1.9-1.6,4-3,6.3-4c2.2-1.1,4.6-1.9,7-2.4c2.4-0.5,4.9-0.7,7.3-0.5c-2.4,0.2-4.8,0.7-7,1.4
		c-2.3,0.7-4.5,1.7-6.5,2.8c-2.1,1.2-4,2.5-5.7,4.1c-1.8,1.5-3.3,3.3-4.7,5.2l0,0c-0.3,0.4-0.9,0.6-1.4,0.2
		c-0.3-0.2-0.4-0.5-0.4-0.8c-0.1-2.2-0.4-4.4-1-6.5c-0.6-2.1-1.4-4.2-2.4-6.2C1028,474.1,1025.1,470.5,1021.5,467.6z"/>
</g>
<g>
	<path class="st3" d="M1057.6,495.3c1,0.2,2,0.5,2.9,1c0.9,0.5,1.8,1.1,2.5,1.8c1.5,1.4,2.7,3.3,3.2,5.4l-1.7-0.4
		c0.8-0.9,1.7-1.8,2.7-2.5c1-0.7,2.1-1.4,3.2-1.9c2.2-1,4.6-1.6,7-1.5c-2.2,0.8-4.3,1.8-6.3,3c-1,0.6-1.9,1.3-2.7,2
		c-0.9,0.7-1.7,1.5-2.5,2.3l0,0c-0.4,0.4-1,0.4-1.4,0c-0.1-0.1-0.2-0.3-0.3-0.5c-0.4-1.8-1.3-3.4-2.4-4.9c-0.6-0.7-1.2-1.4-1.9-2.1
		C1059.3,496.4,1058.5,495.8,1057.6,495.3z"/>
</g>
<g>
	<path class="st3" d="M1217.2,465c3.6-0.7,7.5-0.3,11,1.1c1.8,0.6,3.4,1.5,5,2.6c1.6,1.1,3,2.4,4.2,3.8l-1.8,0.7c-0.1-2,0.1-4,0.5-6
		c0.4-1.9,1.1-3.8,2-5.6c0.9-1.8,2-3.4,3.3-4.9c1.3-1.5,2.8-2.8,4.4-3.8c-1.4,1.4-2.6,2.8-3.6,4.4c-1.1,1.6-1.9,3.2-2.6,5
		c-0.7,1.7-1.3,3.5-1.6,5.3c-0.4,1.8-0.5,3.7-0.4,5.5l0,0c0,0.5-0.4,1-0.9,1c-0.3,0-0.6-0.1-0.8-0.4c-1.1-1.3-2.4-2.5-3.8-3.6
		c-1.4-1.1-2.9-2-4.5-2.7C1224.3,465.9,1220.8,465.1,1217.2,465z"/>
</g>
<g>
	<path class="st3" d="M807.1,469.5c0.9-0.5,1.9-0.8,2.9-1c1-0.2,2.1-0.2,3.1-0.1c2.1,0.2,4.1,1,5.9,2.3l-1.6,0.7
		c0.1-1.2,0.3-2.5,0.6-3.6c0.3-1.2,0.8-2.3,1.3-3.4c1.1-2.2,2.7-4.1,4.6-5.5c-1.3,2-2.3,4.1-3.1,6.2c-0.4,1.1-0.7,2.1-1,3.2
		c-0.3,1.1-0.4,2.2-0.5,3.3l0,0c-0.1,0.5-0.5,0.9-1.1,0.9c-0.2,0-0.4-0.1-0.5-0.2c-1.4-1.1-3.1-1.9-4.9-2.4
		c-0.9-0.2-1.8-0.4-2.8-0.4C809.1,469.3,808.1,469.4,807.1,469.5z"/>
</g>
<path class="st2" d="M786.1,596c0,0,27.8-13.7,36.1-23.9"/>
<path class="st6" d="M796.3,592.4"/>
<path class="st0" d="M835.6,646.1c4.1-4.8,14.4-7.8,23-6.7c2.2,0.3,4.1,0.8,5.6,1.5c3.4-3.7,7.7-6.5,10.6-6.6c3.6-0.1,3.7,3.9,0.2,9
	c-7.6,11-22.6,14.6-31.2,13.5C835.2,655.7,831.5,650.9,835.6,646.1z"/>
<path class="st2" d="M862.4,657.7c0,0-18,2.3-25.4,0"/>
<path class="st6" d="M856.2,659.3"/>
<path class="st1" d="M817.5,631.9c3.1-6.3,15.2-6.6,27-0.8c3,1.5,5.7,3.2,8,5.1c2.7-4.7,7.1-7.4,10.8-6.2c4.7,1.5,6.6,8.3,4.4,15.3
	c-4.8,15.1-22.8,14.3-34.5,8.5C821.3,648,814.3,638.2,817.5,631.9z"/>
<path class="st2" d="M1166.3,628.2c0,0-18.1,44.8,0,103.2"/>
<path class="st2" d="M1250.2,569.1c0-8.3-4.8-15.4-11.8-18.8c0.8-2.2,1.2-4.6,1.2-7.1c0-11.5-9.3-20.9-20.8-21
	c-0.1-0.1-0.1-0.2-0.2-0.3c0.1-0.8,0.1-1.6,0.1-2.4c0-20.4-16.6-37-37-37c-12.3,0-23.1,6-29.9,15.2c-3.3-2.1-7.2-3.4-11.4-3.4
	c-8.3,0-15.5,4.9-18.9,11.9c-0.7,0-1.4-0.1-2.1-0.1c-20.4,0-37,16.6-37,37c0,6.9,1.9,13.4,5.2,19c-6.1,3.7-10.2,10.4-10.2,18
	c0,11.6,9.4,21,21,21c1.9,0,3.8-0.3,5.6-0.8c3.2,17.1,18.3,30.1,36.3,30.1c5.4,0,10.5-1.2,15.2-3.3c3.5,0.6,7.1,0.9,10.7,0.9
	c5.2,0,10.2-0.6,15.1-1.8c5.1,2.6,10.8,4.1,17,4.1c20.4,0,37-16.6,37-37c0-1.4-0.1-2.9-0.3-4.3
	C1243.8,586.8,1250.2,578.7,1250.2,569.1z"/>
<path class="st2" d="M754.1,628.2c0,0,18.1,44.8,0,103.2"/>
<path class="st2" d="M670.2,569.1c0-8.3,4.8-15.4,11.8-18.8c-0.8-2.2-1.2-4.6-1.2-7.1c0-11.5,9.3-20.9,20.8-21
	c0.1-0.1,0.1-0.2,0.2-0.3c-0.1-0.8-0.1-1.6-0.1-2.4c0-20.4,16.6-37,37-37c12.3,0,23.1,6,29.9,15.2c3.3-2.1,7.2-3.4,11.4-3.4
	c8.3,0,15.5,4.9,18.9,11.9c0.7,0,1.4-0.1,2.1-0.1c20.4,0,37,16.6,37,37c0,6.9-1.9,13.4-5.2,19c6.1,3.7,10.2,10.4,10.2,18
	c0,11.6-9.4,21-21,21c-1.9,0-3.8-0.3-5.6-0.8c-3.2,17.1-18.3,30.1-36.3,30.1c-5.4,0-10.5-1.2-15.2-3.3c-3.5,0.6-7.1,0.9-10.7,0.9
	c-5.2,0-10.2-0.6-15.1-1.8c-5.1,2.6-10.8,4.1-17,4.1c-20.4,0-37-16.6-37-37c0-1.4,0.1-2.9,0.3-4.3
	C676.6,586.8,670.2,578.7,670.2,569.1z"/>
<path class="st1" d="M825.7,517c-10.4-6-27.8,4.9-39,24.3c-2.9,4.9-5,9.9-6.5,14.8c-8.3-4.2-17-3.9-21.2,1.3
	c-5.2,6.5-1.6,18.1,8.2,25.9c21.1,17,45.9-1.1,57-20.4C835.3,543.6,836,523,825.7,517z"/>
<path class="st2" d="M743.1,745.1c1-8.4-0.9-17.1-5.4-24.3c4.3,4.8,7.4,10.6,8.9,16.8c0.5-4,1-8,1.4-12c2.7,2.6,4.5,6.1,5.1,9.8
	c2.1-7,6.6-13.2,12.5-17.5c-2.8,6.2-4.4,12.8-5,19.5c4.9-3.9,11.1-6.1,17.4-6.1c-2.4,3.2-4.7,6.4-7.1,9.6"/>
<path class="st2" d="M1158.8,738.8c-1.5-3.4-2.6-7-3.1-10.7c3.5,2.3,7,4.7,10.6,7c0.3-0.9,0.5-1.8,0.8-2.6c2.9-2.1,5.1-5.2,6.1-8.7
	c0.9,3.2,0.8,6.8-0.3,10c2.6-2.9,5.2-5.9,7.8-8.8c0.2,3.4-0.9,6.9-3,9.6c3.5-2.8,7.9-4.4,12.3-4.5c-2.2,2.6-4.5,5.3-6.7,7.9
	c2.5-0.4,5.1-0.8,7.6-1.3"/>
</svg>
