<svg xmlns="http://www.w3.org/2000/svg" width="34.622" height="34.623" viewBox="0 0 34.622 34.623">
  <g id="Group_20" data-name="Group 20" transform="translate(-546.748 -495.409)">
    <path id="Path_28" data-name="Path 28" d="M564.059,530.032A17.311,17.311,0,1,1,581.37,512.72,17.331,17.331,0,0,1,564.059,530.032Zm0-32.623A15.311,15.311,0,1,0,579.37,512.72,15.328,15.328,0,0,0,564.059,497.409Z"/>
    <g id="Group_19" data-name="Group 19">
      <path id="Path_29" data-name="Path 29" d="M572.971,514.017a21.036,21.036,0,0,0-4.116-3.709,24.771,24.771,0,0,0-.451-2.961h0c.388-.1.767-.175,1.133-.234,1.909-.309,3.3-.063,3.716.66.405.7-.037,1.983-1.183,3.43l-.4.5,1.005.8.4-.5c1.529-1.931,1.987-3.66,1.288-4.867-.716-1.238-2.5-1.694-5.031-1.285a21.037,21.037,0,0,0-5.284,1.7,24.884,24.884,0,0,0-2.8-1.083c.719-2.5,1.8-4,2.808-4,.809,0,1.7,1.025,2.376,2.742l.236.6,1.192-.472-.236-.6c-.905-2.291-2.173-3.552-3.568-3.552-1.43,0-2.719,1.318-3.631,3.711a21.082,21.082,0,0,0-1.169,5.424,25.017,25.017,0,0,0-2.357,1.892c-1.8-1.861-2.558-3.535-2.056-4.409.4-.7,1.727-.961,3.546-.7l.635.091.182-1.269-.634-.091c-2.43-.35-4.149.123-4.841,1.33-.712,1.241-.21,3.015,1.413,5a21.02,21.02,0,0,0,4.114,3.708,24.938,24.938,0,0,0,.455,2.969c-2.516.624-4.347.441-4.851-.432-.4-.7.035-1.976,1.174-3.419l.4-.5-1.006-.8-.4.5c-1.521,1.926-1.975,3.651-1.278,4.856.544.941,1.708,1.431,3.347,1.431a10.579,10.579,0,0,0,1.683-.147,21.045,21.045,0,0,0,5.285-1.7,24.676,24.676,0,0,0,2.8,1.084c-.72,2.5-1.8,4-2.808,4-.807,0-1.693-1.019-2.371-2.728l-.237-.6-1.191.473.236.6c.906,2.281,2.171,3.537,3.563,3.537,1.43,0,2.719-1.318,3.63-3.711a21.027,21.027,0,0,0,1.17-5.425,24.781,24.781,0,0,0,2.347-1.881l.01-.009c1.8,1.861,2.557,3.534,2.056,4.408-.4.7-1.734.962-3.561.7l-.634-.092-.184,1.269.634.092a10.328,10.328,0,0,0,1.482.115c1.655,0,2.831-.495,3.375-1.443C575.1,517.772,574.594,516,572.971,514.017Zm-5.8-6.318c.116.539.213,1.1.292,1.684q-.465-.289-.948-.568t-.955-.524C566.1,508.066,566.641,507.869,567.167,507.7Zm.538,5.391c0,.712-.025,1.4-.072,2.059-.561.381-1.147.749-1.749,1.1s-1.222.677-1.816.967c-.611-.294-1.221-.615-1.823-.96-.621-.356-1.205-.722-1.756-1.092-.049-.679-.076-1.372-.076-2.071s.025-1.4.072-2.059c.561-.381,1.146-.748,1.748-1.1s1.213-.672,1.818-.967c.609.294,1.22.615,1.822.961q.932.534,1.757,1.092C567.679,511.7,567.705,512.392,567.705,513.09Zm-6.764-5.376c.524.168,1.059.363,1.6.583q-.476.254-.95.527c-.318.184-.632.374-.94.567Q560.771,508.508,560.941,507.714Zm-3.113,5.391c.412-.374.855-.744,1.323-1.107q-.02.542-.02,1.092t.021,1.112Q558.435,513.652,557.828,513.1Zm3.125,5.38q-.176-.813-.295-1.688.465.289.949.568t.956.525C562.008,518.119,561.47,518.317,560.953,518.485Zm6.224-.019c-.523-.168-1.059-.363-1.6-.583q.476-.254.95-.527t.94-.567C567.387,517.379,567.289,517.939,567.177,518.466Zm1.787-6.489q.717.551,1.326,1.1c-.412.373-.855.743-1.323,1.106q.02-.542.02-1.092C568.987,512.717,568.978,512.346,568.964,511.977Z"/>
      <circle id="Ellipse_1" data-name="Ellipse 1" cx="1.467" cy="1.467" r="1.467" transform="translate(562.573 511.679)"/>
    </g>
  </g>
</svg>
