<svg xmlns="http://www.w3.org/2000/svg" width="34.624" height="34.623" viewBox="0 0 34.624 34.623">
  <g id="Group_18" data-name="Group 18" transform="translate(-546.747 -432.817)">
    <path id="Path_26" data-name="Path 26" d="M564.059,467.44a17.312,17.312,0,1,1,17.312-17.311A17.332,17.332,0,0,1,564.059,467.44Zm0-32.623a15.312,15.312,0,1,0,15.312,15.312A15.329,15.329,0,0,0,564.059,434.817Z"/>
    <path id="Path_27" data-name="Path 27" d="M561.134,457.414a1,1,0,0,1-.707-.293l-4.545-4.545a1,1,0,1,1,1.414-1.414L561.134,455l9.688-9.688a1,1,0,1,1,1.414,1.414l-10.4,10.395A1,1,0,0,1,561.134,457.414Z"/>
  </g>
</svg>
