<?xml version="1.0" encoding="utf-8"?>
<!-- Generator: Adobe Illustrator 26.3.1, SVG Export Plug-In . SVG Version: 6.00 Build 0)  -->
<svg version="1.1" id="Layer_1" xmlns="http://www.w3.org/2000/svg" xmlns:xlink="http://www.w3.org/1999/xlink" x="0px" y="0px"
	 viewBox="0 0 34.6 34.6" style="enable-background:new 0 0 34.6 34.6;" xml:space="preserve">
<g>
	<path d="M34.1,22.8c-0.1-0.9-0.9-1.4-1.6-0.8c-0.5,0.4-1,0.9-1.3,1.5c-3.3,6.6-10.1,9.9-17.3,8.1C7.4,29.9,2.8,23.9,3,17.3
		c0-0.5,0-1,0-1.5c0-0.1,0-0.1,0-0.2c0.5-3.9,2.3-7.2,5.4-9.7c4.3-3.4,9.1-4.2,14.2-2.4c3.9,1.3,6.7,4,8.5,7.7
		c0.3,0.6,0.8,1.1,1.3,1.5c0.8,0.6,1.7,0.1,1.7-0.9c0-0.6-0.1-1.2-0.3-1.7c-3-6.2-8-9.5-14.9-10.1c-3.3-0.3-6.5,0.6-9.4,2.2
		C3.2,5.7-0.4,13,0.7,20C2.3,29.4,11,35.8,20.5,34.4c5.8-0.9,10.1-4,12.9-9.2C33.8,24.5,34.1,23.7,34.1,22.8z"/>
	<path d="M14.8,14.2c2.1,0,4.2,0,6.3,0c0.4,0,0.6,0.1,0.6,0.5c0,0.5,0.4,0.7,0.9,0.7c0.6,0,0.9-0.2,1.1-0.7c0.4-1.5-0.4-2.6-1.9-2.6
		c-0.7,0-1.4,0-2,0c-0.3,0-0.4,0-0.5-0.4c-0.1-0.6-0.4-0.9-1-0.9c-0.7,0-1.1,0.2-1.2,0.8c-0.1,0.3-0.3,0.5-0.6,0.4
		c-0.7,0-1.4,0-2.1,0c-1.3,0-2.1,0.6-2.2,1.9c-0.1,0.8-0.1,1.5,0,2.3c0.1,1,0.7,1.6,1.7,1.8c0.4,0.1,0.9,0.1,1.3,0.1
		c2,0,3.9,0,5.9,0c0.7,0,0.9,0.2,0.9,1c0,0.7-0.2,1-0.9,1c-2.1,0-4.2,0-6.3,0c-0.3,0-0.5-0.1-0.6-0.5c-0.1-0.6-0.5-0.9-1-0.8
		c-0.5,0-0.9,0.3-0.9,0.9c0,0.4,0,0.8,0.1,1.2c0.2,0.8,0.6,1.2,1.4,1.2c0.9,0.1,1.7,0.1,2.6,0.1c0.4,0,0.7,0.1,0.8,0.5
		c0.2,0.5,0.6,0.7,1.3,0.7c0.5,0,0.9-0.2,1-0.7c0.1-0.4,0.3-0.4,0.6-0.5c0.7,0,1.4,0,2-0.1c1.1-0.1,1.8-0.8,1.9-2c0-0.5,0-1,0-1.6
		c0-1.6-0.8-2.4-2.4-2.4c-1.1,0-2.1,0-3.2,0c0,0,0,0,0,0c-1.1,0-2.2,0-3.3,0c-0.7,0-0.9-0.2-0.9-1C13.9,14.5,14.1,14.2,14.8,14.2z"
		/>
</g>
</svg>
