<svg xmlns="http://www.w3.org/2000/svg" width="30" height="27.811" viewBox="0 0 20.356 27.811">
  <g id="Group_17" data-name="Group 17" transform="translate(-553.881 -377.037)">
    <g id="Group_15" data-name="Group 15">
      <path id="Path_22" data-name="Path 22" d="M570.505,385.493h1.247a1.484,1.484,0,0,1,1.485,1.484v15.387a1.484,1.484,0,0,1-1.485,1.484H556.365a1.484,1.484,0,0,1-1.484-1.484V386.977a1.484,1.484,0,0,1,1.484-1.484h1.385" fill="#fff"/>
      <path id="Path_23" data-name="Path 23" d="M571.752,404.848H556.365a2.487,2.487,0,0,1-2.484-2.484V386.977a2.487,2.487,0,0,1,2.484-2.484h1.384a1,1,0,0,1,0,2h-1.384a.485.485,0,0,0-.484.484v15.387a.485.485,0,0,0,.484.484h15.387a.485.485,0,0,0,.485-.484V386.977a.485.485,0,0,0-.485-.484h-1.247a1,1,0,0,1,0-2h1.247a2.487,2.487,0,0,1,2.485,2.484v15.387A2.487,2.487,0,0,1,571.752,404.848Z"/>
    </g>
    <g id="Group_16" data-name="Group 16">
      <line id="Line_3" data-name="Line 3" y2="20.36" transform="translate(564.059 378.037)" fill="#fff"/>
      <path id="Path_24" data-name="Path 24" d="M564.059,399.4a1,1,0,0,1-1-1V378.037a1,1,0,0,1,2,0V398.4A1,1,0,0,1,564.059,399.4Z"/>
    </g>
    <path id="Path_25" data-name="Path 25" d="M564.169,399.575a1,1,0,0,1-.707-.293l-3.742-3.743a1,1,0,1,1,1.414-1.414l3.035,3.036,2.815-2.815a1,1,0,1,1,1.414,1.414l-3.522,3.522A1,1,0,0,1,564.169,399.575Z"/>
  </g>
</svg>
