<?xml version="1.0" encoding="utf-8"?>
<!-- Generator: Adobe Illustrator 26.1.0, SVG Export Plug-In . SVG Version: 6.00 Build 0)  -->
<svg version="1.1" id="Layer_1" xmlns="http://www.w3.org/2000/svg" xmlns:xlink="http://www.w3.org/1999/xlink" x="0px" y="0px"
	 viewBox="0 0 34.6 34.6" style="enable-background:new 0 0 34.6 34.6;" xml:space="preserve">
<style type="text/css">
	.st0{fill:none;stroke:#000000;stroke-width:2;stroke-miterlimit:10;}
	.st1{fill:none;stroke:#000000;stroke-width:1.5;stroke-miterlimit:10;}
	.st2{fill:#FFFFFF;stroke:#000000;stroke-width:1.5;stroke-miterlimit:10;}
</style>
<circle class="st0" cx="17" cy="17" r="15.9"/>
<path class="st1" d="M23.6,13.8H9.8c-0.8,0-1.4-0.6-1.4-1.4V7.3c0-0.8,0.6-1.4,1.4-1.4h13.8c0.8,0,1.4,0.6,1.4,1.4v5.1
	C25,13.2,24.4,13.8,23.6,13.8z"/>
<path class="st2" d="M11.7,26.7c0.7,1.4,2.3,3.3,3.9,3.3h4.7c0.3,0,0.5,0,0.8-0.2c0.6-0.3,1.8-1,2.1-2.4c0.4-2,0.9-4.5,0.9-9.5
	c0-0.6-0.5-1.1-1.1-1.1c-0.6,0-1.1,0.5-1.1,1.1l0,0.1l0,0c0,0.1-0.1,0.3-0.2,0.3c-0.2,0.1-0.5-0.1-0.5-0.3c0,0,0,0,0,0l0-0.8
	c0-0.6-0.5-1.1-1.2-1.1c-0.6,0-1.1,0.5-1.2,1.1l0,0.8l0,0c0,0.1-0.1,0.3-0.2,0.3c-0.2,0.1-0.5-0.1-0.5-0.3c0,0,0,0,0,0l0-1.5
	c0-0.6-0.5-1.1-1.2-1.1c-0.6,0-1.1,0.5-1.2,1.1l0,1.3l0,0c0,0.1-0.1,0.3-0.2,0.3c-0.2,0.1-0.5-0.1-0.5-0.3c0,0,0,0,0,0l0-0.4
	c0-0.2,0-0.4,0-0.4l0-7.2c0-0.6-0.5-1.2-1.1-1.3c-0.7,0-1.3,0.5-1.3,1.2c0,0,0,7.8,0,9.8l0,2.1c0,0,0,0,0,0c0,0-0.7,0.3-1.1-0.2
	c-0.5-0.6-1-2.1-3.1-2.2c-0.2,0-0.5,0-0.8,0.4c-0.1,0.1-0.1,0.3-0.1,0.4c0,0.3,0.2,0.6,0.5,0.7c0,0,0,0,0,0c0.5,0.3,1.7,1.9,2.3,3.1
	C10.5,24.1,11.2,25.8,11.7,26.7z"/>
</svg>
